<?xml version="1.0" standalone="no"?>
 <!DOCTYPE svg PUBLIC "-//W3C//DTD SVG 1.1//EN" 
 "http://www.w3.org/Graphics/SVG/1.1/DTD/svg11.dtd"> 
<svg
  xmlns:svg="http://www.w3.org/2000/svg"
  xmlns="http://www.w3.org/2000/svg"
  xmlns:xlink="http://www.w3.org/1999/xlink"
  version="1.1"
  width="67.0560mm" height="60.2742mm" viewBox="0.0000 0.0000 67.0560 60.2742">
<title>SVG Image created as PCA9685 board-F_Paste.svg date 2025/05/04 11:12:31 </title>
  <desc>Image generated by PCBNEW </desc>
<g style="fill:#000000; fill-opacity:1.0000;stroke:#000000; stroke-opacity:1.0000;
stroke-linecap:round; stroke-linejoin:round;"
 transform="translate(0 0) scale(1 1)">
<path style="fill:#B4A09A; fill-opacity:0.9000; stroke:none;fill-rule:evenodd;"
d="M 22.5370,50.2422
22.5180,50.3379
22.4638,50.4190
22.3827,50.4732
22.2870,50.4922
18.3870,50.4922
18.2913,50.4732
18.2102,50.4190
18.1560,50.3379
18.1370,50.2422
18.1370,48.2422
18.1560,48.1466
18.2102,48.0655
18.2913,48.0113
18.3870,47.9922
22.2870,47.9922
22.3827,48.0113
22.4638,48.0655
22.5180,48.1466
22.5370,48.2422
Z" /> 
<path style="fill:#B4A09A; fill-opacity:0.9000; stroke:none;fill-rule:evenodd;"
d="M 15.1370,50.2422
15.1180,50.3379
15.0638,50.4190
14.9827,50.4732
14.8870,50.4922
10.9870,50.4922
10.8913,50.4732
10.8102,50.4190
10.7560,50.3379
10.7370,50.2422
10.7370,48.2422
10.7560,48.1466
10.8102,48.0655
10.8913,48.0113
10.9870,47.9922
14.8870,47.9922
14.9827,48.0113
15.0638,48.0655
15.1180,48.1466
15.1370,48.2422
Z" /> 
<path style="fill:#B4A09A; fill-opacity:0.9000; stroke:none;fill-rule:evenodd;"
d="M 20.6430,28.3382
20.7387,28.3573
20.8198,28.4115
20.8740,28.4926
20.8930,28.5882
20.8930,29.2882
20.8740,29.3839
20.8198,29.4650
20.7387,29.5192
20.6430,29.5382
19.7430,29.5382
19.6473,29.5192
19.5662,29.4650
19.5120,29.3839
19.4930,29.2882
19.4930,28.5882
19.5120,28.4926
19.5662,28.4115
19.6473,28.3573
19.7430,28.3382
Z" /> 
<path style="fill:#B4A09A; fill-opacity:0.9000; stroke:none;fill-rule:evenodd;"
d="M 20.6430,30.3382
20.7387,30.3573
20.8198,30.4115
20.8740,30.4926
20.8930,30.5882
20.8930,31.2882
20.8740,31.3839
20.8198,31.4650
20.7387,31.5192
20.6430,31.5382
19.7430,31.5382
19.6473,31.5192
19.5662,31.4650
19.5120,31.3839
19.4930,31.2882
19.4930,30.5882
19.5120,30.4926
19.5662,30.4115
19.6473,30.3573
19.7430,30.3382
Z" /> 
<path style="fill:#B4A09A; fill-opacity:0.9000; stroke:none;fill-rule:evenodd;"
d="M 16.9600,28.3382
17.0557,28.3573
17.1368,28.4115
17.1910,28.4926
17.2100,28.5882
17.2100,29.2882
17.1910,29.3839
17.1368,29.4650
17.0557,29.5192
16.9600,29.5382
16.0600,29.5382
15.9643,29.5192
15.8832,29.4650
15.8290,29.3839
15.8100,29.2882
15.8100,28.5882
15.8290,28.4926
15.8832,28.4115
15.9643,28.3573
16.0600,28.3382
Z" /> 
<path style="fill:#B4A09A; fill-opacity:0.9000; stroke:none;fill-rule:evenodd;"
d="M 16.9600,30.3382
17.0557,30.3573
17.1368,30.4115
17.1910,30.4926
17.2100,30.5882
17.2100,31.2882
17.1910,31.3839
17.1368,31.4650
17.0557,31.5192
16.9600,31.5382
16.0600,31.5382
15.9643,31.5192
15.8832,31.4650
15.8290,31.3839
15.8100,31.2882
15.8100,30.5882
15.8290,30.4926
15.8832,30.4115
15.9643,30.3573
16.0600,30.3382
Z" /> 
<path style="fill:#B4A09A; fill-opacity:0.9000; stroke:none;fill-rule:evenodd;"
d="M 61.1560,28.3382
61.2517,28.3573
61.3328,28.4115
61.3870,28.4926
61.4060,28.5882
61.4060,29.2882
61.3870,29.3839
61.3328,29.4650
61.2517,29.5192
61.1560,29.5382
60.2560,29.5382
60.1603,29.5192
60.0792,29.4650
60.0250,29.3839
60.0060,29.2882
60.0060,28.5882
60.0250,28.4926
60.0792,28.4115
60.1603,28.3573
60.2560,28.3382
Z" /> 
<path style="fill:#B4A09A; fill-opacity:0.9000; stroke:none;fill-rule:evenodd;"
d="M 61.1560,30.3382
61.2517,30.3573
61.3328,30.4115
61.3870,30.4926
61.4060,30.5882
61.4060,31.2882
61.3870,31.3839
61.3328,31.4650
61.2517,31.5192
61.1560,31.5382
60.2560,31.5382
60.1603,31.5192
60.0792,31.4650
60.0250,31.3839
60.0060,31.2882
60.0060,30.5882
60.0250,30.4926
60.0792,30.4115
60.1603,30.3573
60.2560,30.3382
Z" /> 
<path style="fill:#B4A09A; fill-opacity:0.9000; stroke:none;fill-rule:evenodd;"
d="M 42.7410,28.3382
42.8367,28.3573
42.9178,28.4115
42.9720,28.4926
42.9910,28.5882
42.9910,29.2882
42.9720,29.3839
42.9178,29.4650
42.8367,29.5192
42.7410,29.5382
41.8410,29.5382
41.7453,29.5192
41.6642,29.4650
41.6100,29.3839
41.5910,29.2882
41.5910,28.5882
41.6100,28.4926
41.6642,28.4115
41.7453,28.3573
41.8410,28.3382
Z" /> 
<path style="fill:#B4A09A; fill-opacity:0.9000; stroke:none;fill-rule:evenodd;"
d="M 42.7410,30.3382
42.8367,30.3573
42.9178,30.4115
42.9720,30.4926
42.9910,30.5882
42.9910,31.2882
42.9720,31.3839
42.9178,31.4650
42.8367,31.5192
42.7410,31.5382
41.8410,31.5382
41.7453,31.5192
41.6642,31.4650
41.6100,31.3839
41.5910,31.2882
41.5910,30.5882
41.6100,30.4926
41.6642,30.4115
41.7453,30.3573
41.8410,30.3382
Z" /> 
<path style="fill:#B4A09A; fill-opacity:0.9000; stroke:none;fill-rule:evenodd;"
d="M 35.3750,28.3382
35.4707,28.3573
35.5518,28.4115
35.6060,28.4926
35.6250,28.5882
35.6250,29.2882
35.6060,29.3839
35.5518,29.4650
35.4707,29.5192
35.3750,29.5382
34.4750,29.5382
34.3793,29.5192
34.2982,29.4650
34.2440,29.3839
34.2250,29.2882
34.2250,28.5882
34.2440,28.4926
34.2982,28.4115
34.3793,28.3573
34.4750,28.3382
Z" /> 
<path style="fill:#B4A09A; fill-opacity:0.9000; stroke:none;fill-rule:evenodd;"
d="M 35.3750,30.3382
35.4707,30.3573
35.5518,30.4115
35.6060,30.4926
35.6250,30.5882
35.6250,31.2882
35.6060,31.3839
35.5518,31.4650
35.4707,31.5192
35.3750,31.5382
34.4750,31.5382
34.3793,31.5192
34.2982,31.4650
34.2440,31.3839
34.2250,31.2882
34.2250,30.5882
34.2440,30.4926
34.2982,30.4115
34.3793,30.3573
34.4750,30.3382
Z" /> 
<path style="fill:#B4A09A; fill-opacity:0.9000; stroke:none;fill-rule:evenodd;"
d="M 41.6550,45.1502
41.6360,45.2459
41.5818,45.3270
41.5007,45.3812
41.4050,45.4002
40.7550,45.4002
40.6593,45.3812
40.5782,45.3270
40.5240,45.2459
40.5050,45.1502
40.5050,44.2502
40.5240,44.1546
40.5782,44.0735
40.6593,44.0193
40.7550,44.0002
41.4050,44.0002
41.5007,44.0193
41.5818,44.0735
41.6360,44.1546
41.6550,44.2502
Z" /> 
<path style="fill:#B4A09A; fill-opacity:0.9000; stroke:none;fill-rule:evenodd;"
d="M 39.6050,45.1502
39.5860,45.2459
39.5318,45.3270
39.4507,45.3812
39.3550,45.4002
38.7050,45.4002
38.6093,45.3812
38.5282,45.3270
38.4740,45.2459
38.4550,45.1502
38.4550,44.2502
38.4740,44.1546
38.5282,44.0735
38.6093,44.0193
38.7050,44.0002
39.3550,44.0002
39.4507,44.0193
39.5318,44.0735
39.5860,44.1546
39.6050,44.2502
Z" /> 
<path style="fill:#B4A09A; fill-opacity:0.9000; stroke:none;fill-rule:evenodd;"
d="M 27.8820,28.3382
27.9777,28.3573
28.0588,28.4115
28.1130,28.4926
28.1320,28.5882
28.1320,29.2882
28.1130,29.3839
28.0588,29.4650
27.9777,29.5192
27.8820,29.5382
26.9820,29.5382
26.8863,29.5192
26.8052,29.4650
26.7510,29.3839
26.7320,29.2882
26.7320,28.5882
26.7510,28.4926
26.8052,28.4115
26.8863,28.3573
26.9820,28.3382
Z" /> 
<path style="fill:#B4A09A; fill-opacity:0.9000; stroke:none;fill-rule:evenodd;"
d="M 27.8820,30.3382
27.9777,30.3573
28.0588,30.4115
28.1130,30.4926
28.1320,30.5882
28.1320,31.2882
28.1130,31.3839
28.0588,31.4650
27.9777,31.5192
27.8820,31.5382
26.9820,31.5382
26.8863,31.5192
26.8052,31.4650
26.7510,31.3839
26.7320,31.2882
26.7320,30.5882
26.7510,30.4926
26.8052,30.4115
26.8863,30.3573
26.9820,30.3382
Z" /> 
<path style="fill:#B4A09A; fill-opacity:0.9000; stroke:none;fill-rule:evenodd;"
d="M 24.3260,28.3382
24.4217,28.3573
24.5028,28.4115
24.5570,28.4926
24.5760,28.5882
24.5760,29.2882
24.5570,29.3839
24.5028,29.4650
24.4217,29.5192
24.3260,29.5382
23.4260,29.5382
23.3303,29.5192
23.2492,29.4650
23.1950,29.3839
23.1760,29.2882
23.1760,28.5882
23.1950,28.4926
23.2492,28.4115
23.3303,28.3573
23.4260,28.3382
Z" /> 
<path style="fill:#B4A09A; fill-opacity:0.9000; stroke:none;fill-rule:evenodd;"
d="M 24.3260,30.3382
24.4217,30.3573
24.5028,30.4115
24.5570,30.4926
24.5760,30.5882
24.5760,31.2882
24.5570,31.3839
24.5028,31.4650
24.4217,31.5192
24.3260,31.5382
23.4260,31.5382
23.3303,31.5192
23.2492,31.4650
23.1950,31.3839
23.1760,31.2882
23.1760,30.5882
23.1950,30.4926
23.2492,30.4115
23.3303,30.3573
23.4260,30.3382
Z" /> 
<path style="fill:#B4A09A; fill-opacity:0.9000; stroke:none;fill-rule:evenodd;"
d="M 31.8190,28.3222
31.9147,28.3413
31.9958,28.3955
32.0500,28.4766
32.0690,28.5722
32.0690,29.2722
32.0500,29.3679
31.9958,29.4490
31.9147,29.5032
31.8190,29.5222
30.9190,29.5222
30.8233,29.5032
30.7422,29.4490
30.6880,29.3679
30.6690,29.2722
30.6690,28.5722
30.6880,28.4766
30.7422,28.3955
30.8233,28.3413
30.9190,28.3222
Z" /> 
<path style="fill:#B4A09A; fill-opacity:0.9000; stroke:none;fill-rule:evenodd;"
d="M 31.8190,30.3222
31.9147,30.3413
31.9958,30.3955
32.0500,30.4766
32.0690,30.5722
32.0690,31.2722
32.0500,31.3679
31.9958,31.4490
31.9147,31.5032
31.8190,31.5222
30.9190,31.5222
30.8233,31.5032
30.7422,31.4490
30.6880,31.3679
30.6690,31.2722
30.6690,30.5722
30.6880,30.4766
30.7422,30.3955
30.8233,30.3413
30.9190,30.3222
Z" /> 
<path style="fill:#B4A09A; fill-opacity:0.9000; stroke:none;fill-rule:evenodd;"
d="M 5.9110,28.3382
6.0067,28.3573
6.0878,28.4115
6.1420,28.4926
6.1610,28.5882
6.1610,29.2882
6.1420,29.3839
6.0878,29.4650
6.0067,29.5192
5.9110,29.5382
5.0110,29.5382
4.9153,29.5192
4.8342,29.4650
4.7800,29.3839
4.7610,29.2882
4.7610,28.5882
4.7800,28.4926
4.8342,28.4115
4.9153,28.3573
5.0110,28.3382
Z" /> 
<path style="fill:#B4A09A; fill-opacity:0.9000; stroke:none;fill-rule:evenodd;"
d="M 5.9110,30.3382
6.0067,30.3573
6.0878,30.4115
6.1420,30.4926
6.1610,30.5882
6.1610,31.2882
6.1420,31.3839
6.0878,31.4650
6.0067,31.5192
5.9110,31.5382
5.0110,31.5382
4.9153,31.5192
4.8342,31.4650
4.7800,31.3839
4.7610,31.2882
4.7610,30.5882
4.7800,30.4926
4.8342,30.4115
4.9153,30.3573
5.0110,30.3382
Z" /> 
<path style="fill:#B4A09A; fill-opacity:0.9000; stroke:none;fill-rule:evenodd;"
d="M 17.8490,34.6722
17.9447,34.6913
18.0258,34.7455
18.0800,34.8266
18.0990,34.9222
18.0990,35.6222
18.0800,35.7179
18.0258,35.7990
17.9447,35.8532
17.8490,35.8722
16.9490,35.8722
16.8533,35.8532
16.7722,35.7990
16.7180,35.7179
16.6990,35.6222
16.6990,34.9222
16.7180,34.8266
16.7722,34.7455
16.8533,34.6913
16.9490,34.6722
Z" /> 
<path style="fill:#B4A09A; fill-opacity:0.9000; stroke:none;fill-rule:evenodd;"
d="M 17.8490,36.6722
17.9447,36.6913
18.0258,36.7455
18.0800,36.8266
18.0990,36.9222
18.0990,37.6222
18.0800,37.7179
18.0258,37.7990
17.9447,37.8532
17.8490,37.8722
16.9490,37.8722
16.8533,37.8532
16.7722,37.7990
16.7180,37.7179
16.6990,37.6222
16.6990,36.9222
16.7180,36.8266
16.7722,36.7455
16.8533,36.6913
16.9490,36.6722
Z" /> 
<path style="fill:#B4A09A; fill-opacity:0.9000; stroke:none;fill-rule:evenodd;"
d="M 46.4240,28.3222
46.5197,28.3413
46.6008,28.3955
46.6550,28.4766
46.6740,28.5722
46.6740,29.2722
46.6550,29.3679
46.6008,29.4490
46.5197,29.5032
46.4240,29.5222
45.5240,29.5222
45.4283,29.5032
45.3472,29.4490
45.2930,29.3679
45.2740,29.2722
45.2740,28.5722
45.2930,28.4766
45.3472,28.3955
45.4283,28.3413
45.5240,28.3222
Z" /> 
<path style="fill:#B4A09A; fill-opacity:0.9000; stroke:none;fill-rule:evenodd;"
d="M 46.4240,30.3222
46.5197,30.3413
46.6008,30.3955
46.6550,30.4766
46.6740,30.5722
46.6740,31.2722
46.6550,31.3679
46.6008,31.4490
46.5197,31.5032
46.4240,31.5222
45.5240,31.5222
45.4283,31.5032
45.3472,31.4490
45.2930,31.3679
45.2740,31.2722
45.2740,30.5722
45.2930,30.4766
45.3472,30.3955
45.4283,30.3413
45.5240,30.3222
Z" /> 
<path style="fill:#B4A09A; fill-opacity:0.9000; stroke:none;fill-rule:evenodd;"
d="M 29.2245,33.8792
29.2321,33.8410
29.2538,33.8085
29.2862,33.7869
29.3245,33.7792
30.5995,33.7792
30.6378,33.7869
30.6702,33.8085
30.6919,33.8410
30.6995,33.8792
30.6995,34.0792
30.6919,34.1175
30.6702,34.1500
30.6378,34.1716
30.5995,34.1792
29.3245,34.1792
29.2862,34.1716
29.2538,34.1500
29.2321,34.1175
29.2245,34.0792
Z" /> 
<path style="fill:#B4A09A; fill-opacity:0.9000; stroke:none;fill-rule:evenodd;"
d="M 29.2245,34.5292
29.2321,34.4910
29.2538,34.4585
29.2862,34.4369
29.3245,34.4292
30.5995,34.4292
30.6378,34.4369
30.6702,34.4585
30.6919,34.4910
30.6995,34.5292
30.6995,34.7292
30.6919,34.7675
30.6702,34.8000
30.6378,34.8216
30.5995,34.8292
29.3245,34.8292
29.2862,34.8216
29.2538,34.8000
29.2321,34.7675
29.2245,34.7292
Z" /> 
<path style="fill:#B4A09A; fill-opacity:0.9000; stroke:none;fill-rule:evenodd;"
d="M 29.2245,35.1792
29.2321,35.1410
29.2538,35.1085
29.2862,35.0869
29.3245,35.0792
30.5995,35.0792
30.6378,35.0869
30.6702,35.1085
30.6919,35.1410
30.6995,35.1792
30.6995,35.3792
30.6919,35.4175
30.6702,35.4500
30.6378,35.4716
30.5995,35.4792
29.3245,35.4792
29.2862,35.4716
29.2538,35.4500
29.2321,35.4175
29.2245,35.3792
Z" /> 
<path style="fill:#B4A09A; fill-opacity:0.9000; stroke:none;fill-rule:evenodd;"
d="M 29.2245,35.8292
29.2321,35.7910
29.2538,35.7585
29.2862,35.7369
29.3245,35.7292
30.5995,35.7292
30.6378,35.7369
30.6702,35.7585
30.6919,35.7910
30.6995,35.8292
30.6995,36.0292
30.6919,36.0675
30.6702,36.1000
30.6378,36.1216
30.5995,36.1292
29.3245,36.1292
29.2862,36.1216
29.2538,36.1000
29.2321,36.0675
29.2245,36.0292
Z" /> 
<path style="fill:#B4A09A; fill-opacity:0.9000; stroke:none;fill-rule:evenodd;"
d="M 29.2245,36.4792
29.2321,36.4410
29.2538,36.4085
29.2862,36.3869
29.3245,36.3792
30.5995,36.3792
30.6378,36.3869
30.6702,36.4085
30.6919,36.4410
30.6995,36.4792
30.6995,36.6792
30.6919,36.7175
30.6702,36.7500
30.6378,36.7716
30.5995,36.7792
29.3245,36.7792
29.2862,36.7716
29.2538,36.7500
29.2321,36.7175
29.2245,36.6792
Z" /> 
<path style="fill:#B4A09A; fill-opacity:0.9000; stroke:none;fill-rule:evenodd;"
d="M 29.2245,37.1292
29.2321,37.0910
29.2538,37.0585
29.2862,37.0369
29.3245,37.0292
30.5995,37.0292
30.6378,37.0369
30.6702,37.0585
30.6919,37.0910
30.6995,37.1292
30.6995,37.3292
30.6919,37.3675
30.6702,37.4000
30.6378,37.4216
30.5995,37.4292
29.3245,37.4292
29.2862,37.4216
29.2538,37.4000
29.2321,37.3675
29.2245,37.3292
Z" /> 
<path style="fill:#B4A09A; fill-opacity:0.9000; stroke:none;fill-rule:evenodd;"
d="M 29.2245,37.7792
29.2321,37.7410
29.2538,37.7085
29.2862,37.6869
29.3245,37.6792
30.5995,37.6792
30.6378,37.6869
30.6702,37.7085
30.6919,37.7410
30.6995,37.7792
30.6995,37.9792
30.6919,38.0175
30.6702,38.0500
30.6378,38.0716
30.5995,38.0792
29.3245,38.0792
29.2862,38.0716
29.2538,38.0500
29.2321,38.0175
29.2245,37.9792
Z" /> 
<path style="fill:#B4A09A; fill-opacity:0.9000; stroke:none;fill-rule:evenodd;"
d="M 29.2245,38.4292
29.2321,38.3910
29.2538,38.3585
29.2862,38.3369
29.3245,38.3292
30.5995,38.3292
30.6378,38.3369
30.6702,38.3585
30.6919,38.3910
30.6995,38.4292
30.6995,38.6292
30.6919,38.6675
30.6702,38.7000
30.6378,38.7216
30.5995,38.7292
29.3245,38.7292
29.2862,38.7216
29.2538,38.7000
29.2321,38.6675
29.2245,38.6292
Z" /> 
<path style="fill:#B4A09A; fill-opacity:0.9000; stroke:none;fill-rule:evenodd;"
d="M 29.2245,39.0792
29.2321,39.0410
29.2538,39.0085
29.2862,38.9869
29.3245,38.9792
30.5995,38.9792
30.6378,38.9869
30.6702,39.0085
30.6919,39.0410
30.6995,39.0792
30.6995,39.2792
30.6919,39.3175
30.6702,39.3500
30.6378,39.3716
30.5995,39.3792
29.3245,39.3792
29.2862,39.3716
29.2538,39.3500
29.2321,39.3175
29.2245,39.2792
Z" /> 
<path style="fill:#B4A09A; fill-opacity:0.9000; stroke:none;fill-rule:evenodd;"
d="M 29.2245,39.7292
29.2321,39.6910
29.2538,39.6585
29.2862,39.6369
29.3245,39.6292
30.5995,39.6292
30.6378,39.6369
30.6702,39.6585
30.6919,39.6910
30.6995,39.7292
30.6995,39.9292
30.6919,39.9675
30.6702,40.0000
30.6378,40.0216
30.5995,40.0292
29.3245,40.0292
29.2862,40.0216
29.2538,40.0000
29.2321,39.9675
29.2245,39.9292
Z" /> 
<path style="fill:#B4A09A; fill-opacity:0.9000; stroke:none;fill-rule:evenodd;"
d="M 29.2245,40.3792
29.2321,40.3410
29.2538,40.3085
29.2862,40.2869
29.3245,40.2792
30.5995,40.2792
30.6378,40.2869
30.6702,40.3085
30.6919,40.3410
30.6995,40.3792
30.6995,40.5792
30.6919,40.6175
30.6702,40.6500
30.6378,40.6716
30.5995,40.6792
29.3245,40.6792
29.2862,40.6716
29.2538,40.6500
29.2321,40.6175
29.2245,40.5792
Z" /> 
<path style="fill:#B4A09A; fill-opacity:0.9000; stroke:none;fill-rule:evenodd;"
d="M 29.2245,41.0292
29.2321,40.9910
29.2538,40.9585
29.2862,40.9369
29.3245,40.9292
30.5995,40.9292
30.6378,40.9369
30.6702,40.9585
30.6919,40.9910
30.6995,41.0292
30.6995,41.2292
30.6919,41.2675
30.6702,41.3000
30.6378,41.3216
30.5995,41.3292
29.3245,41.3292
29.2862,41.3216
29.2538,41.3000
29.2321,41.2675
29.2245,41.2292
Z" /> 
<path style="fill:#B4A09A; fill-opacity:0.9000; stroke:none;fill-rule:evenodd;"
d="M 29.2245,41.6792
29.2321,41.6410
29.2538,41.6085
29.2862,41.5869
29.3245,41.5792
30.5995,41.5792
30.6378,41.5869
30.6702,41.6085
30.6919,41.6410
30.6995,41.6792
30.6995,41.8792
30.6919,41.9175
30.6702,41.9500
30.6378,41.9716
30.5995,41.9792
29.3245,41.9792
29.2862,41.9716
29.2538,41.9500
29.2321,41.9175
29.2245,41.8792
Z" /> 
<path style="fill:#B4A09A; fill-opacity:0.9000; stroke:none;fill-rule:evenodd;"
d="M 29.2245,42.3292
29.2321,42.2910
29.2538,42.2585
29.2862,42.2369
29.3245,42.2292
30.5995,42.2292
30.6378,42.2369
30.6702,42.2585
30.6919,42.2910
30.6995,42.3292
30.6995,42.5292
30.6919,42.5675
30.6702,42.6000
30.6378,42.6216
30.5995,42.6292
29.3245,42.6292
29.2862,42.6216
29.2538,42.6000
29.2321,42.5675
29.2245,42.5292
Z" /> 
<path style="fill:#B4A09A; fill-opacity:0.9000; stroke:none;fill-rule:evenodd;"
d="M 34.9495,42.3292
34.9571,42.2910
34.9788,42.2585
35.0112,42.2369
35.0495,42.2292
36.3245,42.2292
36.3628,42.2369
36.3952,42.2585
36.4169,42.2910
36.4245,42.3292
36.4245,42.5292
36.4169,42.5675
36.3952,42.6000
36.3628,42.6216
36.3245,42.6292
35.0495,42.6292
35.0112,42.6216
34.9788,42.6000
34.9571,42.5675
34.9495,42.5292
Z" /> 
<path style="fill:#B4A09A; fill-opacity:0.9000; stroke:none;fill-rule:evenodd;"
d="M 34.9495,41.6792
34.9571,41.6410
34.9788,41.6085
35.0112,41.5869
35.0495,41.5792
36.3245,41.5792
36.3628,41.5869
36.3952,41.6085
36.4169,41.6410
36.4245,41.6792
36.4245,41.8792
36.4169,41.9175
36.3952,41.9500
36.3628,41.9716
36.3245,41.9792
35.0495,41.9792
35.0112,41.9716
34.9788,41.9500
34.9571,41.9175
34.9495,41.8792
Z" /> 
<path style="fill:#B4A09A; fill-opacity:0.9000; stroke:none;fill-rule:evenodd;"
d="M 34.9495,41.0292
34.9571,40.9910
34.9788,40.9585
35.0112,40.9369
35.0495,40.9292
36.3245,40.9292
36.3628,40.9369
36.3952,40.9585
36.4169,40.9910
36.4245,41.0292
36.4245,41.2292
36.4169,41.2675
36.3952,41.3000
36.3628,41.3216
36.3245,41.3292
35.0495,41.3292
35.0112,41.3216
34.9788,41.3000
34.9571,41.2675
34.9495,41.2292
Z" /> 
<path style="fill:#B4A09A; fill-opacity:0.9000; stroke:none;fill-rule:evenodd;"
d="M 34.9495,40.3792
34.9571,40.3410
34.9788,40.3085
35.0112,40.2869
35.0495,40.2792
36.3245,40.2792
36.3628,40.2869
36.3952,40.3085
36.4169,40.3410
36.4245,40.3792
36.4245,40.5792
36.4169,40.6175
36.3952,40.6500
36.3628,40.6716
36.3245,40.6792
35.0495,40.6792
35.0112,40.6716
34.9788,40.6500
34.9571,40.6175
34.9495,40.5792
Z" /> 
<path style="fill:#B4A09A; fill-opacity:0.9000; stroke:none;fill-rule:evenodd;"
d="M 34.9495,39.7292
34.9571,39.6910
34.9788,39.6585
35.0112,39.6369
35.0495,39.6292
36.3245,39.6292
36.3628,39.6369
36.3952,39.6585
36.4169,39.6910
36.4245,39.7292
36.4245,39.9292
36.4169,39.9675
36.3952,40.0000
36.3628,40.0216
36.3245,40.0292
35.0495,40.0292
35.0112,40.0216
34.9788,40.0000
34.9571,39.9675
34.9495,39.9292
Z" /> 
<path style="fill:#B4A09A; fill-opacity:0.9000; stroke:none;fill-rule:evenodd;"
d="M 34.9495,39.0792
34.9571,39.0410
34.9788,39.0085
35.0112,38.9869
35.0495,38.9792
36.3245,38.9792
36.3628,38.9869
36.3952,39.0085
36.4169,39.0410
36.4245,39.0792
36.4245,39.2792
36.4169,39.3175
36.3952,39.3500
36.3628,39.3716
36.3245,39.3792
35.0495,39.3792
35.0112,39.3716
34.9788,39.3500
34.9571,39.3175
34.9495,39.2792
Z" /> 
<path style="fill:#B4A09A; fill-opacity:0.9000; stroke:none;fill-rule:evenodd;"
d="M 34.9495,38.4292
34.9571,38.3910
34.9788,38.3585
35.0112,38.3369
35.0495,38.3292
36.3245,38.3292
36.3628,38.3369
36.3952,38.3585
36.4169,38.3910
36.4245,38.4292
36.4245,38.6292
36.4169,38.6675
36.3952,38.7000
36.3628,38.7216
36.3245,38.7292
35.0495,38.7292
35.0112,38.7216
34.9788,38.7000
34.9571,38.6675
34.9495,38.6292
Z" /> 
<path style="fill:#B4A09A; fill-opacity:0.9000; stroke:none;fill-rule:evenodd;"
d="M 34.9495,37.7792
34.9571,37.7410
34.9788,37.7085
35.0112,37.6869
35.0495,37.6792
36.3245,37.6792
36.3628,37.6869
36.3952,37.7085
36.4169,37.7410
36.4245,37.7792
36.4245,37.9792
36.4169,38.0175
36.3952,38.0500
36.3628,38.0716
36.3245,38.0792
35.0495,38.0792
35.0112,38.0716
34.9788,38.0500
34.9571,38.0175
34.9495,37.9792
Z" /> 
<path style="fill:#B4A09A; fill-opacity:0.9000; stroke:none;fill-rule:evenodd;"
d="M 34.9495,37.1292
34.9571,37.0910
34.9788,37.0585
35.0112,37.0369
35.0495,37.0292
36.3245,37.0292
36.3628,37.0369
36.3952,37.0585
36.4169,37.0910
36.4245,37.1292
36.4245,37.3292
36.4169,37.3675
36.3952,37.4000
36.3628,37.4216
36.3245,37.4292
35.0495,37.4292
35.0112,37.4216
34.9788,37.4000
34.9571,37.3675
34.9495,37.3292
Z" /> 
<path style="fill:#B4A09A; fill-opacity:0.9000; stroke:none;fill-rule:evenodd;"
d="M 34.9495,36.4792
34.9571,36.4410
34.9788,36.4085
35.0112,36.3869
35.0495,36.3792
36.3245,36.3792
36.3628,36.3869
36.3952,36.4085
36.4169,36.4410
36.4245,36.4792
36.4245,36.6792
36.4169,36.7175
36.3952,36.7500
36.3628,36.7716
36.3245,36.7792
35.0495,36.7792
35.0112,36.7716
34.9788,36.7500
34.9571,36.7175
34.9495,36.6792
Z" /> 
<path style="fill:#B4A09A; fill-opacity:0.9000; stroke:none;fill-rule:evenodd;"
d="M 34.9495,35.8292
34.9571,35.7910
34.9788,35.7585
35.0112,35.7369
35.0495,35.7292
36.3245,35.7292
36.3628,35.7369
36.3952,35.7585
36.4169,35.7910
36.4245,35.8292
36.4245,36.0292
36.4169,36.0675
36.3952,36.1000
36.3628,36.1216
36.3245,36.1292
35.0495,36.1292
35.0112,36.1216
34.9788,36.1000
34.9571,36.0675
34.9495,36.0292
Z" /> 
<path style="fill:#B4A09A; fill-opacity:0.9000; stroke:none;fill-rule:evenodd;"
d="M 34.9495,35.1792
34.9571,35.1410
34.9788,35.1085
35.0112,35.0869
35.0495,35.0792
36.3245,35.0792
36.3628,35.0869
36.3952,35.1085
36.4169,35.1410
36.4245,35.1792
36.4245,35.3792
36.4169,35.4175
36.3952,35.4500
36.3628,35.4716
36.3245,35.4792
35.0495,35.4792
35.0112,35.4716
34.9788,35.4500
34.9571,35.4175
34.9495,35.3792
Z" /> 
<path style="fill:#B4A09A; fill-opacity:0.9000; stroke:none;fill-rule:evenodd;"
d="M 34.9495,34.5292
34.9571,34.4910
34.9788,34.4585
35.0112,34.4369
35.0495,34.4292
36.3245,34.4292
36.3628,34.4369
36.3952,34.4585
36.4169,34.4910
36.4245,34.5292
36.4245,34.7292
36.4169,34.7675
36.3952,34.8000
36.3628,34.8216
36.3245,34.8292
35.0495,34.8292
35.0112,34.8216
34.9788,34.8000
34.9571,34.7675
34.9495,34.7292
Z" /> 
<path style="fill:#B4A09A; fill-opacity:0.9000; stroke:none;fill-rule:evenodd;"
d="M 34.9495,33.8792
34.9571,33.8410
34.9788,33.8085
35.0112,33.7869
35.0495,33.7792
36.3245,33.7792
36.3628,33.7869
36.3952,33.8085
36.4169,33.8410
36.4245,33.8792
36.4245,34.0792
36.4169,34.1175
36.3952,34.1500
36.3628,34.1716
36.3245,34.1792
35.0495,34.1792
35.0112,34.1716
34.9788,34.1500
34.9571,34.1175
34.9495,34.0792
Z" /> 
<path style="fill:#B4A09A; fill-opacity:0.9000; stroke:none;fill-rule:evenodd;"
d="M 45.9310,41.2957
45.9884,41.3072
46.0371,41.3397
46.0696,41.3883
46.0810,41.4457
46.0810,42.6207
46.0696,42.6782
46.0371,42.7268
45.9884,42.7593
45.9310,42.7707
45.6310,42.7707
45.5736,42.7593
45.5249,42.7268
45.4924,42.6782
45.4810,42.6207
45.4810,41.4457
45.4924,41.3883
45.5249,41.3397
45.5736,41.3072
45.6310,41.2957
Z" /> 
<path style="fill:#B4A09A; fill-opacity:0.9000; stroke:none;fill-rule:evenodd;"
d="M 44.0310,41.2957
44.0884,41.3072
44.1371,41.3397
44.1696,41.3883
44.1810,41.4457
44.1810,42.6207
44.1696,42.6782
44.1371,42.7268
44.0884,42.7593
44.0310,42.7707
43.7310,42.7707
43.6736,42.7593
43.6249,42.7268
43.5924,42.6782
43.5810,42.6207
43.5810,41.4457
43.5924,41.3883
43.6249,41.3397
43.6736,41.3072
43.7310,41.2957
Z" /> 
<path style="fill:#B4A09A; fill-opacity:0.9000; stroke:none;fill-rule:evenodd;"
d="M 44.9810,43.1707
45.0384,43.1822
45.0871,43.2147
45.1196,43.2633
45.1310,43.3207
45.1310,44.4957
45.1196,44.5532
45.0871,44.6018
45.0384,44.6343
44.9810,44.6457
44.6810,44.6457
44.6236,44.6343
44.5749,44.6018
44.5424,44.5532
44.5310,44.4957
44.5310,43.3207
44.5424,43.2633
44.5749,43.2147
44.6236,43.1822
44.6810,43.1707
Z" /> 
<path style="fill:#B4A09A; fill-opacity:0.9000; stroke:none;fill-rule:evenodd;"
d="M 10.9000,34.8382
10.9957,34.8573
11.0768,34.9115
11.1310,34.9926
11.1500,35.0882
11.1500,35.7882
11.1310,35.8839
11.0768,35.9650
10.9957,36.0192
10.9000,36.0382
10.0000,36.0382
9.9043,36.0192
9.8232,35.9650
9.7690,35.8839
9.7500,35.7882
9.7500,35.0882
9.7690,34.9926
9.8232,34.9115
9.9043,34.8573
10.0000,34.8382
Z" /> 
<path style="fill:#B4A09A; fill-opacity:0.9000; stroke:none;fill-rule:evenodd;"
d="M 10.9000,36.8382
10.9957,36.8573
11.0768,36.9115
11.1310,36.9926
11.1500,37.0882
11.1500,37.7882
11.1310,37.8839
11.0768,37.9650
10.9957,38.0192
10.9000,38.0382
10.0000,38.0382
9.9043,38.0192
9.8232,37.9650
9.7690,37.8839
9.7500,37.7882
9.7500,37.0882
9.7690,36.9926
9.8232,36.9115
9.9043,36.8573
10.0000,36.8382
Z" /> 
<path style="fill:#B4A09A; fill-opacity:0.9000; stroke:none;fill-rule:evenodd;"
d="M 13.2770,28.3382
13.3727,28.3573
13.4538,28.4115
13.5080,28.4926
13.5270,28.5882
13.5270,29.2882
13.5080,29.3839
13.4538,29.4650
13.3727,29.5192
13.2770,29.5382
12.3770,29.5382
12.2813,29.5192
12.2002,29.4650
12.1460,29.3839
12.1270,29.2882
12.1270,28.5882
12.1460,28.4926
12.2002,28.4115
12.2813,28.3573
12.3770,28.3382
Z" /> 
<path style="fill:#B4A09A; fill-opacity:0.9000; stroke:none;fill-rule:evenodd;"
d="M 13.2770,30.3382
13.3727,30.3573
13.4538,30.4115
13.5080,30.4926
13.5270,30.5882
13.5270,31.2882
13.5080,31.3839
13.4538,31.4650
13.3727,31.5192
13.2770,31.5382
12.3770,31.5382
12.2813,31.5192
12.2002,31.4650
12.1460,31.3839
12.1270,31.2882
12.1270,30.5882
12.1460,30.4926
12.2002,30.4115
12.2813,30.3573
12.3770,30.3382
Z" /> 
<path style="fill:#B4A09A; fill-opacity:0.9000; stroke:none;fill-rule:evenodd;"
d="M 38.9310,28.3382
39.0267,28.3573
39.1078,28.4115
39.1620,28.4926
39.1810,28.5882
39.1810,29.2882
39.1620,29.3839
39.1078,29.4650
39.0267,29.5192
38.9310,29.5382
38.0310,29.5382
37.9353,29.5192
37.8542,29.4650
37.8000,29.3839
37.7810,29.2882
37.7810,28.5882
37.8000,28.4926
37.8542,28.4115
37.9353,28.3573
38.0310,28.3382
Z" /> 
<path style="fill:#B4A09A; fill-opacity:0.9000; stroke:none;fill-rule:evenodd;"
d="M 38.9310,30.3382
39.0267,30.3573
39.1078,30.4115
39.1620,30.4926
39.1810,30.5882
39.1810,31.2882
39.1620,31.3839
39.1078,31.4650
39.0267,31.5192
38.9310,31.5382
38.0310,31.5382
37.9353,31.5192
37.8542,31.4650
37.8000,31.3839
37.7810,31.2882
37.7810,30.5882
37.8000,30.4926
37.8542,30.4115
37.9353,30.3573
38.0310,30.3382
Z" /> 
<path style="fill:#B4A09A; fill-opacity:0.9000; stroke:none;fill-rule:evenodd;"
d="M 9.5940,28.3382
9.6897,28.3573
9.7708,28.4115
9.8250,28.4926
9.8440,28.5882
9.8440,29.2882
9.8250,29.3839
9.7708,29.4650
9.6897,29.5192
9.5940,29.5382
8.6940,29.5382
8.5983,29.5192
8.5172,29.4650
8.4630,29.3839
8.4440,29.2882
8.4440,28.5882
8.4630,28.4926
8.5172,28.4115
8.5983,28.3573
8.6940,28.3382
Z" /> 
<path style="fill:#B4A09A; fill-opacity:0.9000; stroke:none;fill-rule:evenodd;"
d="M 9.5940,30.3382
9.6897,30.3573
9.7708,30.4115
9.8250,30.4926
9.8440,30.5882
9.8440,31.2882
9.8250,31.3839
9.7708,31.4650
9.6897,31.5192
9.5940,31.5382
8.6940,31.5382
8.5983,31.5192
8.5172,31.4650
8.4630,31.3839
8.4440,31.2882
8.4440,30.5882
8.4630,30.4926
8.5172,30.4115
8.5983,30.3573
8.6940,30.3382
Z" /> 
<path style="fill:#B4A09A; fill-opacity:0.9000; stroke:none;fill-rule:evenodd;"
d="M 57.3460,28.3382
57.4417,28.3573
57.5228,28.4115
57.5770,28.4926
57.5960,28.5882
57.5960,29.2882
57.5770,29.3839
57.5228,29.4650
57.4417,29.5192
57.3460,29.5382
56.4460,29.5382
56.3503,29.5192
56.2692,29.4650
56.2150,29.3839
56.1960,29.2882
56.1960,28.5882
56.2150,28.4926
56.2692,28.4115
56.3503,28.3573
56.4460,28.3382
Z" /> 
<path style="fill:#B4A09A; fill-opacity:0.9000; stroke:none;fill-rule:evenodd;"
d="M 57.3460,30.3382
57.4417,30.3573
57.5228,30.4115
57.5770,30.4926
57.5960,30.5882
57.5960,31.2882
57.5770,31.3839
57.5228,31.4650
57.4417,31.5192
57.3460,31.5382
56.4460,31.5382
56.3503,31.5192
56.2692,31.4650
56.2150,31.3839
56.1960,31.2882
56.1960,30.5882
56.2150,30.4926
56.2692,30.4115
56.3503,30.3573
56.4460,30.3382
Z" /> 
<path style="fill:#B4A09A; fill-opacity:0.9000; stroke:none;fill-rule:evenodd;"
d="M 49.9800,28.3382
50.0757,28.3573
50.1568,28.4115
50.2110,28.4926
50.2300,28.5882
50.2300,29.2882
50.2110,29.3839
50.1568,29.4650
50.0757,29.5192
49.9800,29.5382
49.0800,29.5382
48.9843,29.5192
48.9032,29.4650
48.8490,29.3839
48.8300,29.2882
48.8300,28.5882
48.8490,28.4926
48.9032,28.4115
48.9843,28.3573
49.0800,28.3382
Z" /> 
<path style="fill:#B4A09A; fill-opacity:0.9000; stroke:none;fill-rule:evenodd;"
d="M 49.9800,30.3382
50.0757,30.3573
50.1568,30.4115
50.2110,30.4926
50.2300,30.5882
50.2300,31.2882
50.2110,31.3839
50.1568,31.4650
50.0757,31.5192
49.9800,31.5382
49.0800,31.5382
48.9843,31.5192
48.9032,31.4650
48.8490,31.3839
48.8300,31.2882
48.8300,30.5882
48.8490,30.4926
48.9032,30.4115
48.9843,30.3573
49.0800,30.3382
Z" /> 
<path style="fill:#B4A09A; fill-opacity:0.9000; stroke:none;fill-rule:evenodd;"
d="M 24.4650,34.7412
24.5607,34.7603
24.6418,34.8145
24.6960,34.8956
24.7150,34.9912
24.7150,35.6912
24.6960,35.7869
24.6418,35.8680
24.5607,35.9222
24.4650,35.9412
23.5650,35.9412
23.4693,35.9222
23.3882,35.8680
23.3340,35.7869
23.3150,35.6912
23.3150,34.9912
23.3340,34.8956
23.3882,34.8145
23.4693,34.7603
23.5650,34.7412
Z" /> 
<path style="fill:#B4A09A; fill-opacity:0.9000; stroke:none;fill-rule:evenodd;"
d="M 24.4650,36.7412
24.5607,36.7603
24.6418,36.8145
24.6960,36.8956
24.7150,36.9912
24.7150,37.6912
24.6960,37.7869
24.6418,37.8680
24.5607,37.9222
24.4650,37.9412
23.5650,37.9412
23.4693,37.9222
23.3882,37.8680
23.3340,37.7869
23.3150,37.6912
23.3150,36.9912
23.3340,36.8956
23.3882,36.8145
23.4693,36.7603
23.5650,36.7412
Z" /> 
<path style="fill:#B4A09A; fill-opacity:0.9000; stroke:none;fill-rule:evenodd;"
d="M 14.4500,34.8382
14.5457,34.8573
14.6268,34.9115
14.6810,34.9926
14.7000,35.0882
14.7000,35.7882
14.6810,35.8839
14.6268,35.9650
14.5457,36.0192
14.4500,36.0382
13.5500,36.0382
13.4543,36.0192
13.3732,35.9650
13.3190,35.8839
13.3000,35.7882
13.3000,35.0882
13.3190,34.9926
13.3732,34.9115
13.4543,34.8573
13.5500,34.8382
Z" /> 
<path style="fill:#B4A09A; fill-opacity:0.9000; stroke:none;fill-rule:evenodd;"
d="M 14.4500,36.8382
14.5457,36.8573
14.6268,36.9115
14.6810,36.9926
14.7000,37.0882
14.7000,37.7882
14.6810,37.8839
14.6268,37.9650
14.5457,38.0192
14.4500,38.0382
13.5500,38.0382
13.4543,38.0192
13.3732,37.9650
13.3190,37.8839
13.3000,37.7882
13.3000,37.0882
13.3190,36.9926
13.3732,36.9115
13.4543,36.8573
13.5500,36.8382
Z" /> 
<path style="fill:#B4A09A; fill-opacity:0.9000; stroke:none;fill-rule:evenodd;"
d="M 53.9170,28.3382
54.0127,28.3573
54.0938,28.4115
54.1480,28.4926
54.1670,28.5882
54.1670,29.2882
54.1480,29.3839
54.0938,29.4650
54.0127,29.5192
53.9170,29.5382
53.0170,29.5382
52.9213,29.5192
52.8402,29.4650
52.7860,29.3839
52.7670,29.2882
52.7670,28.5882
52.7860,28.4926
52.8402,28.4115
52.9213,28.3573
53.0170,28.3382
Z" /> 
<path style="fill:#B4A09A; fill-opacity:0.9000; stroke:none;fill-rule:evenodd;"
d="M 53.9170,30.3382
54.0127,30.3573
54.0938,30.4115
54.1480,30.4926
54.1670,30.5882
54.1670,31.2882
54.1480,31.3839
54.0938,31.4650
54.0127,31.5192
53.9170,31.5382
53.0170,31.5382
52.9213,31.5192
52.8402,31.4650
52.7860,31.3839
52.7670,31.2882
52.7670,30.5882
52.7860,30.4926
52.8402,30.4115
52.9213,30.3573
53.0170,30.3382
Z" /> 
<path style="fill:#B4A09A; fill-opacity:0.9000; stroke:none;fill-rule:evenodd;"
d="M 37.7015,37.7542
37.7205,37.6586
37.7747,37.5775
37.8558,37.5233
37.9515,37.5042
38.6515,37.5042
38.7472,37.5233
38.8283,37.5775
38.8825,37.6586
38.9015,37.7542
38.9015,38.6542
38.8825,38.7499
38.8283,38.8310
38.7472,38.8852
38.6515,38.9042
37.9515,38.9042
37.8558,38.8852
37.7747,38.8310
37.7205,38.7499
37.7015,38.6542
Z" /> 
<path style="fill:#B4A09A; fill-opacity:0.9000; stroke:none;fill-rule:evenodd;"
d="M 39.7015,37.7542
39.7205,37.6586
39.7747,37.5775
39.8558,37.5233
39.9515,37.5042
40.6515,37.5042
40.7472,37.5233
40.8283,37.5775
40.8825,37.6586
40.9015,37.7542
40.9015,38.6542
40.8825,38.7499
40.8283,38.8310
40.7472,38.8852
40.6515,38.9042
39.9515,38.9042
39.8558,38.8852
39.7747,38.8310
39.7205,38.7499
39.7015,38.6542
Z" /> 
<path style="fill:#B4A09A; fill-opacity:0.9000; stroke:none;fill-rule:evenodd;"
d="M 35.1280,47.1522
35.1090,47.2479
35.0548,47.3290
34.9737,47.3832
34.8780,47.4022
34.1780,47.4022
34.0823,47.3832
34.0012,47.3290
33.9470,47.2479
33.9280,47.1522
33.9280,46.2522
33.9470,46.1566
34.0012,46.0755
34.0823,46.0213
34.1780,46.0022
34.8780,46.0022
34.9737,46.0213
35.0548,46.0755
35.1090,46.1566
35.1280,46.2522
Z" /> 
<path style="fill:#B4A09A; fill-opacity:0.9000; stroke:none;fill-rule:evenodd;"
d="M 33.1280,47.1522
33.1090,47.2479
33.0548,47.3290
32.9737,47.3832
32.8780,47.4022
32.1780,47.4022
32.0823,47.3832
32.0012,47.3290
31.9470,47.2479
31.9280,47.1522
31.9280,46.2522
31.9470,46.1566
32.0012,46.0755
32.0823,46.0213
32.1780,46.0022
32.8780,46.0022
32.9737,46.0213
33.0548,46.0755
33.1090,46.1566
33.1280,46.2522
Z" /> 
<path style="fill:#B4A09A; fill-opacity:0.9000; stroke:none;fill-rule:evenodd;"
d="M 6.9690,34.8382
7.0647,34.8573
7.1458,34.9115
7.2000,34.9926
7.2190,35.0882
7.2190,35.7882
7.2000,35.8839
7.1458,35.9650
7.0647,36.0192
6.9690,36.0382
6.0690,36.0382
5.9733,36.0192
5.8922,35.9650
5.8380,35.8839
5.8190,35.7882
5.8190,35.0882
5.8380,34.9926
5.8922,34.9115
5.9733,34.8573
6.0690,34.8382
Z" /> 
<path style="fill:#B4A09A; fill-opacity:0.9000; stroke:none;fill-rule:evenodd;"
d="M 6.9690,36.8382
7.0647,36.8573
7.1458,36.9115
7.2000,36.9926
7.2190,37.0882
7.2190,37.7882
7.2000,37.8839
7.1458,37.9650
7.0647,38.0192
6.9690,38.0382
6.0690,38.0382
5.9733,38.0192
5.8922,37.9650
5.8380,37.8839
5.8190,37.7882
5.8190,37.0882
5.8380,36.9926
5.8922,36.9115
5.9733,36.8573
6.0690,36.8382
Z" /> 
<path style="fill:#B4A09A; fill-opacity:0.9000; stroke:none;fill-rule:evenodd;"
d="M 28.1180,46.2522
28.1370,46.1566
28.1912,46.0755
28.2723,46.0213
28.3680,46.0022
29.0680,46.0022
29.1637,46.0213
29.2448,46.0755
29.2990,46.1566
29.3180,46.2522
29.3180,47.1522
29.2990,47.2479
29.2448,47.3290
29.1637,47.3832
29.0680,47.4022
28.3680,47.4022
28.2723,47.3832
28.1912,47.3290
28.1370,47.2479
28.1180,47.1522
Z" /> 
<path style="fill:#B4A09A; fill-opacity:0.9000; stroke:none;fill-rule:evenodd;"
d="M 30.1180,46.2522
30.1370,46.1566
30.1912,46.0755
30.2723,46.0213
30.3680,46.0022
31.0680,46.0022
31.1637,46.0213
31.2448,46.0755
31.2990,46.1566
31.3180,46.2522
31.3180,47.1522
31.2990,47.2479
31.2448,47.3290
31.1637,47.3832
31.0680,47.4022
30.3680,47.4022
30.2723,47.3832
30.1912,47.3290
30.1370,47.2479
30.1180,47.1522
Z" /> 
<path style="fill:#B4A09A; fill-opacity:0.9000; stroke:none;fill-rule:evenodd;"
d="M 21.1510,34.6882
21.2467,34.7073
21.3278,34.7615
21.3820,34.8426
21.4010,34.9382
21.4010,35.6382
21.3820,35.7339
21.3278,35.8150
21.2467,35.8692
21.1510,35.8882
20.2510,35.8882
20.1553,35.8692
20.0742,35.8150
20.0200,35.7339
20.0010,35.6382
20.0010,34.9382
20.0200,34.8426
20.0742,34.7615
20.1553,34.7073
20.2510,34.6882
Z" /> 
<path style="fill:#B4A09A; fill-opacity:0.9000; stroke:none;fill-rule:evenodd;"
d="M 21.1510,36.6882
21.2467,36.7073
21.3278,36.7615
21.3820,36.8426
21.4010,36.9382
21.4010,37.6382
21.3820,37.7339
21.3278,37.8150
21.2467,37.8692
21.1510,37.8882
20.2510,37.8882
20.1553,37.8692
20.0742,37.8150
20.0200,37.7339
20.0010,37.6382
20.0010,36.9382
20.0200,36.8426
20.0742,36.7615
20.1553,36.7073
20.2510,36.6882
Z" /> 
<path style="fill:#B4A09A; fill-opacity:0.9000; stroke:none;fill-rule:evenodd;"
d="M 39.5225,33.4042
39.6182,33.4233
39.6993,33.4775
39.7535,33.5586
39.7725,33.6542
39.7725,34.3292
39.7535,34.4249
39.6993,34.5060
39.6182,34.5602
39.5225,34.5792
38.5725,34.5792
38.4768,34.5602
38.3957,34.5060
38.3415,34.4249
38.3225,34.3292
38.3225,33.6542
38.3415,33.5586
38.3957,33.4775
38.4768,33.4233
38.5725,33.4042
Z" /> 
<path style="fill:#B4A09A; fill-opacity:0.9000; stroke:none;fill-rule:evenodd;"
d="M 39.5225,35.4792
39.6182,35.4983
39.6993,35.5525
39.7535,35.6336
39.7725,35.7292
39.7725,36.4042
39.7535,36.4999
39.6993,36.5810
39.6182,36.6352
39.5225,36.6542
38.5725,36.6542
38.4768,36.6352
38.3957,36.5810
38.3415,36.4999
38.3225,36.4042
38.3225,35.7292
38.3415,35.6336
38.3957,35.5525
38.4768,35.4983
38.5725,35.4792
Z" /> 
<path style="fill:#B4A09A; fill-opacity:0.9000; stroke:none;fill-rule:evenodd;"
d="M 38.5820,41.7102
38.6010,41.6146
38.6552,41.5335
38.7363,41.4793
38.8320,41.4602
39.5320,41.4602
39.6277,41.4793
39.7088,41.5335
39.7630,41.6146
39.7820,41.7102
39.7820,42.6102
39.7630,42.7059
39.7088,42.7870
39.6277,42.8412
39.5320,42.8602
38.8320,42.8602
38.7363,42.8412
38.6552,42.7870
38.6010,42.7059
38.5820,42.6102
Z" /> 
<path style="fill:#B4A09A; fill-opacity:0.9000; stroke:none;fill-rule:evenodd;"
d="M 40.5820,41.7102
40.6010,41.6146
40.6552,41.5335
40.7363,41.4793
40.8320,41.4602
41.5320,41.4602
41.6277,41.4793
41.7088,41.5335
41.7630,41.6146
41.7820,41.7102
41.7820,42.6102
41.7630,42.7059
41.7088,42.7870
41.6277,42.8412
41.5320,42.8602
40.8320,42.8602
40.7363,42.8412
40.6552,42.7870
40.6010,42.7059
40.5820,42.6102
Z" /> 
</g>
<g style="fill:none; 
stroke:#D0D2CD; stroke-width:0.0500; stroke-opacity:1; 
stroke-linecap:round; stroke-linejoin:round;">
<path d="M53.8810 57.3702
L11.1430 57.3702
" />
<path d="M1.1430 47.3702
L1.1430 19.2372
" />
<path d="M53.8810 57.3702 A10.0000 10.0000 0.0 0 0 63.8810 47.3702" />
<path d="M11.1430 9.2372
L53.8810 9.2372
" />
<path d="M11.1430 9.2372 A10.0000 10.0000 0.0 0 0 1.1430 19.2372" />
<path d="M63.8810 19.2372 A10.0000 10.0000 0.0 0 0 53.8810 9.2372" />
<path d="M63.8810 19.2372
L63.8810 47.3702
" />
<path d="M1.1430 47.3702 A10.0000 10.0000 0.0 0 0 11.1430 57.3702" />
</g> 
</svg>
