%TF.GenerationSoftware,KiCad,Pcbnew,8.0.2*%
%TF.CreationDate,2025-04-18T13:43:38+02:00*%
%TF.ProjectId,Mini-me-pcb,4d696e69-2d6d-4652-9d70-63622e6b6963,rev?*%
%TF.SameCoordinates,Original*%
%TF.FileFunction,Copper,L2,Bot*%
%TF.FilePolarity,Positive*%
%FSLAX46Y46*%
G04 Gerber Fmt 4.6, Leading zero omitted, Abs format (unit mm)*
G04 Created by KiCad (PCBNEW 8.0.2) date 2025-04-18 13:43:38*
%MOMM*%
%LPD*%
G01*
G04 APERTURE LIST*
G04 Aperture macros list*
%AMRoundRect*
0 Rectangle with rounded corners*
0 $1 Rounding radius*
0 $2 $3 $4 $5 $6 $7 $8 $9 X,Y pos of 4 corners*
0 Add a 4 corners polygon primitive as box body*
4,1,4,$2,$3,$4,$5,$6,$7,$8,$9,$2,$3,0*
0 Add four circle primitives for the rounded corners*
1,1,$1+$1,$2,$3*
1,1,$1+$1,$4,$5*
1,1,$1+$1,$6,$7*
1,1,$1+$1,$8,$9*
0 Add four rect primitives between the rounded corners*
20,1,$1+$1,$2,$3,$4,$5,0*
20,1,$1+$1,$4,$5,$6,$7,0*
20,1,$1+$1,$6,$7,$8,$9,0*
20,1,$1+$1,$8,$9,$2,$3,0*%
G04 Aperture macros list end*
%TA.AperFunction,ComponentPad*%
%ADD10R,1.700000X1.700000*%
%TD*%
%TA.AperFunction,ComponentPad*%
%ADD11O,1.700000X1.700000*%
%TD*%
%TA.AperFunction,ComponentPad*%
%ADD12RoundRect,0.250000X0.625000X-0.350000X0.625000X0.350000X-0.625000X0.350000X-0.625000X-0.350000X0*%
%TD*%
%TA.AperFunction,ComponentPad*%
%ADD13O,1.750000X1.200000*%
%TD*%
%TA.AperFunction,ComponentPad*%
%ADD14R,4.600000X2.000000*%
%TD*%
%TA.AperFunction,ComponentPad*%
%ADD15O,4.200000X2.000000*%
%TD*%
%TA.AperFunction,ComponentPad*%
%ADD16O,2.000000X4.200000*%
%TD*%
%TA.AperFunction,ComponentPad*%
%ADD17R,2.600000X2.600000*%
%TD*%
%TA.AperFunction,ComponentPad*%
%ADD18C,2.600000*%
%TD*%
%TA.AperFunction,ComponentPad*%
%ADD19R,1.600000X1.600000*%
%TD*%
%TA.AperFunction,ComponentPad*%
%ADD20C,1.600000*%
%TD*%
%TA.AperFunction,ComponentPad*%
%ADD21O,0.900000X2.000000*%
%TD*%
%TA.AperFunction,ComponentPad*%
%ADD22O,0.900000X1.700000*%
%TD*%
%TA.AperFunction,ViaPad*%
%ADD23C,0.600000*%
%TD*%
%TA.AperFunction,ViaPad*%
%ADD24C,1.000000*%
%TD*%
%TA.AperFunction,ViaPad*%
%ADD25C,1.400000*%
%TD*%
%TA.AperFunction,Conductor*%
%ADD26C,0.200000*%
%TD*%
%TA.AperFunction,Conductor*%
%ADD27C,0.800000*%
%TD*%
%TA.AperFunction,Conductor*%
%ADD28C,0.400000*%
%TD*%
%TA.AperFunction,Conductor*%
%ADD29C,1.200000*%
%TD*%
G04 APERTURE END LIST*
D10*
%TO.P,J16,1,Pin_1*%
%TO.N,ESP_GPIO12*%
X142240000Y-68707000D03*
D11*
%TO.P,J16,2,Pin_2*%
%TO.N,ESP_GPIO13*%
X144780000Y-68707000D03*
%TO.P,J16,3,Pin_3*%
%TO.N,ESP_GPIO14*%
X147320000Y-68707000D03*
%TO.P,J16,4,Pin_4*%
%TO.N,ESP_GPIO16*%
X149860000Y-68707000D03*
%TO.P,J16,5,Pin_5*%
%TO.N,ESP_GPIO17*%
X152400000Y-68707000D03*
%TD*%
D10*
%TO.P,J14,1,Pin_1*%
%TO.N,+3.3V*%
X124921000Y-89037000D03*
D11*
%TO.P,J14,2,Pin_2*%
X124921000Y-91577000D03*
%TO.P,J14,3,Pin_3*%
X124921000Y-94117000D03*
%TO.P,J14,4,Pin_4*%
X124921000Y-96657000D03*
%TD*%
D10*
%TO.P,J13,1,Pin_1*%
%TO.N,5Vout*%
X129921000Y-89037000D03*
D11*
%TO.P,J13,2,Pin_2*%
X129921000Y-91577000D03*
%TO.P,J13,3,Pin_3*%
X129921000Y-94117000D03*
%TO.P,J13,4,Pin_4*%
X129921000Y-96657000D03*
%TD*%
D12*
%TO.P,J12,1,Pin_1*%
%TO.N,I2C1_SDA*%
X164338000Y-108489000D03*
D13*
%TO.P,J12,2,Pin_2*%
%TO.N,I2C1_SCL*%
X164338000Y-106489000D03*
%TO.P,J12,3,Pin_3*%
%TO.N,+3.3V*%
X164338000Y-104489000D03*
%TO.P,J12,4,Pin_4*%
%TO.N,GND*%
X164338000Y-102489000D03*
%TD*%
D14*
%TO.P,J2,1*%
%TO.N,Net-(J3-Pin_1)*%
X185166000Y-46736000D03*
D15*
%TO.P,J2,2*%
%TO.N,GND*%
X185166000Y-40436000D03*
D16*
%TO.P,J2,3*%
%TO.N,N/C*%
X180366000Y-43836000D03*
%TD*%
D10*
%TO.P,J8,1,Pin_1*%
%TO.N,SWCLK*%
X167386000Y-80264000D03*
D11*
%TO.P,J8,2,Pin_2*%
%TO.N,SWDIO*%
X167386000Y-82804000D03*
%TO.P,J8,3,Pin_3*%
%TO.N,GND*%
X167386000Y-85344000D03*
%TO.P,J8,4,Pin_4*%
%TO.N,+3.3V*%
X167386000Y-87884000D03*
%TD*%
D17*
%TO.P,J3,1,Pin_1*%
%TO.N,Net-(J3-Pin_1)*%
X200665000Y-43510000D03*
D18*
%TO.P,J3,2,Pin_2*%
%TO.N,Net-(J3-Pin_2)*%
X195585000Y-43510000D03*
%TD*%
D10*
%TO.P,J5,1,Pin_1*%
%TO.N,SPI1_SCK*%
X153543000Y-93345000D03*
D11*
%TO.P,J5,2,Pin_2*%
%TO.N,SPI1_MISO*%
X156083000Y-93345000D03*
%TO.P,J5,3,Pin_3*%
%TO.N,SPI1_MOSI*%
X158623000Y-93345000D03*
%TD*%
D19*
%TO.P,BZ1,1,-*%
%TO.N,+5V*%
X171900000Y-69400000D03*
D20*
%TO.P,BZ1,2,+*%
%TO.N,Net-(BZ1-+)*%
X175900000Y-69400000D03*
%TD*%
D12*
%TO.P,J9,1,Pin_1*%
%TO.N,ENCODER_A*%
X154338000Y-108489000D03*
D13*
%TO.P,J9,2,Pin_2*%
%TO.N,ENCODER_B*%
X154338000Y-106489000D03*
%TO.P,J9,3,Pin_3*%
%TO.N,ENCODER_SW*%
X154338000Y-104489000D03*
%TO.P,J9,4,Pin_4*%
%TO.N,+3.3V*%
X154338000Y-102489000D03*
%TO.P,J9,5,Pin_5*%
%TO.N,GND*%
X154338000Y-100489000D03*
%TD*%
D10*
%TO.P,J6,1,Pin_1*%
%TO.N,SPI2_SCK*%
X144018000Y-93345000D03*
D11*
%TO.P,J6,2,Pin_2*%
%TO.N,SPI2_MISO*%
X146558000Y-93345000D03*
%TO.P,J6,3,Pin_3*%
%TO.N,SPI2_MOSI*%
X149098000Y-93345000D03*
%TD*%
D12*
%TO.P,J10,1,Pin_1*%
%TO.N,5Vout*%
X144338000Y-108489000D03*
D13*
%TO.P,J10,2,Pin_2*%
%TO.N,+3.3V*%
X144338000Y-106489000D03*
%TO.P,J10,3,Pin_3*%
%TO.N,I2C2_SDA*%
X144338000Y-104489000D03*
%TO.P,J10,4,Pin_4*%
%TO.N,I2C2_SCL*%
X144338000Y-102489000D03*
%TO.P,J10,5,Pin_5*%
%TO.N,GND*%
X144338000Y-100489000D03*
%TO.P,J10,6,Pin_6*%
X144338000Y-98489000D03*
%TD*%
D21*
%TO.P,J1,S1,SHIELD*%
%TO.N,GND*%
X174223000Y-39718500D03*
%TO.P,J1,S2,SHIELD*%
X165573000Y-39718500D03*
D22*
%TO.P,J1,S3,SHIELD*%
X174223000Y-35548500D03*
%TO.P,J1,S4,SHIELD*%
X165573000Y-35548500D03*
%TD*%
D10*
%TO.P,J15,1,Pin_1*%
%TO.N,GND*%
X134921000Y-89037000D03*
D11*
%TO.P,J15,2,Pin_2*%
X134921000Y-91577000D03*
%TO.P,J15,3,Pin_3*%
X134921000Y-94117000D03*
%TO.P,J15,4,Pin_4*%
X134921000Y-96657000D03*
%TD*%
D10*
%TO.P,J7,1,Pin_1*%
%TO.N,+3.3V*%
X146822000Y-89027000D03*
D11*
%TO.P,J7,2,Pin_2*%
%TO.N,USART2_RX*%
X149362000Y-89027000D03*
%TO.P,J7,3,Pin_3*%
%TO.N,USART2_TX*%
X151902000Y-89027000D03*
%TO.P,J7,4,Pin_4*%
%TO.N,GND*%
X154442000Y-89027000D03*
%TD*%
D23*
%TO.N,GND*%
X173228000Y-46609000D03*
D24*
X136500000Y-101200000D03*
D23*
X136100000Y-60000000D03*
X147600000Y-72000000D03*
X140200000Y-49000000D03*
X155956000Y-90551000D03*
X140808000Y-61976000D03*
X130937000Y-79756000D03*
D24*
X200934500Y-97134500D03*
D23*
X170307000Y-84963000D03*
X161290000Y-56642000D03*
X144700000Y-76200000D03*
D24*
X203576000Y-70479000D03*
D23*
X168402000Y-100330000D03*
D24*
X207391000Y-62357000D03*
D23*
X177400000Y-59400000D03*
X157226000Y-85344000D03*
X168910000Y-44958000D03*
X140462000Y-55245000D03*
X157099000Y-51816000D03*
X177900000Y-56400000D03*
X163068000Y-77851000D03*
D24*
X194310000Y-97790000D03*
D23*
X149733000Y-56896000D03*
X142367000Y-61976000D03*
X145034000Y-56896000D03*
D24*
X139000000Y-97700000D03*
D23*
X130600000Y-73000000D03*
X149606000Y-82042000D03*
X159555265Y-87967735D03*
X171100000Y-100000000D03*
X129500000Y-63800000D03*
%TO.N,+3.3V*%
X156972000Y-62103000D03*
X155067000Y-65659000D03*
X135200000Y-68700000D03*
X128778000Y-55245000D03*
X129159000Y-61595000D03*
X157861000Y-55626000D03*
X155067000Y-73406000D03*
X149479000Y-78486000D03*
%TO.N,EN_ESP*%
X167500000Y-60200000D03*
X139827000Y-44704000D03*
D24*
%TO.N,+5V*%
X181900000Y-105000000D03*
D23*
X171900000Y-77500000D03*
D24*
X179600000Y-96200000D03*
D23*
X172100000Y-84400000D03*
%TO.N,Net-(D1-PadA)*%
X172261512Y-41056000D03*
X167548000Y-41529000D03*
X168882000Y-43327500D03*
%TO.N,D-*%
X171704000Y-43561000D03*
X171196000Y-46101000D03*
%TO.N,D+*%
X170942000Y-43307000D03*
X170561000Y-48006000D03*
D25*
%TO.N,Net-(D6-K)*%
X190100000Y-67200000D03*
X192100000Y-80700000D03*
D23*
%TO.N,I2C2_SDA*%
X153924000Y-81026000D03*
X152654000Y-48514000D03*
X124079000Y-47625000D03*
X140589000Y-88900000D03*
X129921000Y-86868000D03*
X128480735Y-85681735D03*
%TO.N,TX->STM*%
X148590000Y-64135000D03*
X139700000Y-51562000D03*
%TO.N,RX->STM*%
X139954000Y-53340000D03*
X151003000Y-65532000D03*
%TO.N,CS_SD*%
X140783382Y-57550147D03*
X133600000Y-65700000D03*
%TO.N,ESP_GPIO12*%
X140800000Y-62900000D03*
X138600000Y-61900000D03*
%TO.N,I2C2_SCL*%
X141351000Y-87630000D03*
X126619000Y-43815000D03*
X129265765Y-84688765D03*
X152273000Y-44704000D03*
X153162000Y-81661000D03*
X130810000Y-86106000D03*
%TO.N,ESP_GPIO17*%
X152654000Y-55880000D03*
X152400000Y-66929000D03*
%TO.N,RX*%
X146177000Y-62738000D03*
X132080000Y-99949000D03*
X149063000Y-62103000D03*
X141100000Y-75500000D03*
X143600000Y-72100000D03*
X151003000Y-48387000D03*
X158623000Y-47879000D03*
X172847000Y-52070000D03*
%TO.N,MOSI_SD*%
X139100000Y-69000000D03*
X145161000Y-65151000D03*
%TO.N,TX*%
X149860000Y-49276000D03*
X142494000Y-75692000D03*
X146050000Y-71755000D03*
X149098000Y-54102000D03*
X146720000Y-57404000D03*
X171937765Y-51709235D03*
X159702500Y-46799500D03*
X134366000Y-100076000D03*
%TO.N,ESP_GPIO14*%
X138938000Y-56896000D03*
X143256000Y-64008000D03*
%TO.N,MISO_SD*%
X142240000Y-57277000D03*
X135300000Y-64600000D03*
X149225000Y-51181000D03*
X146558000Y-53721000D03*
%TO.N,SCK_SD*%
X139600000Y-62600000D03*
X138700000Y-67400000D03*
%TO.N,SPI1_SCK*%
X147955000Y-87122000D03*
X145923000Y-84963000D03*
%TO.N,SPI2_MOSI*%
X148463000Y-91186000D03*
X149988000Y-86804499D03*
%TO.N,SPI2_SCK*%
X145669000Y-83312000D03*
X144018000Y-88900000D03*
%TO.N,SWDIO*%
X162687000Y-82804000D03*
%TO.N,SWCLK*%
X157226000Y-77978000D03*
%TO.N,ENCODER_B*%
X160782000Y-102997000D03*
X157480000Y-83566000D03*
X151765000Y-80645000D03*
%TO.N,ENCODER_SW*%
X166497000Y-95250000D03*
X163957000Y-89535000D03*
X150876000Y-79975000D03*
%TO.N,ENCODER_A*%
X163873265Y-88094735D03*
X152400000Y-79883000D03*
X166624000Y-98171000D03*
%TO.N,LED2*%
X129921000Y-99187000D03*
X153416000Y-74676000D03*
%TO.N,LED3*%
X152654000Y-75057000D03*
X131064000Y-99822000D03*
%TO.N,I2C1_SDA*%
X166497000Y-101092000D03*
%TO.N,I2C1_SCL*%
X162560000Y-102997000D03*
%TO.N,STROOMSENSOR*%
X151003000Y-87122000D03*
X163449000Y-90424000D03*
X195868000Y-106568000D03*
X165354000Y-92329000D03*
%TO.N,BUZZER*%
X170700000Y-76500000D03*
X164719000Y-82204000D03*
X152951037Y-77924320D03*
X163449000Y-86868000D03*
%TO.N,Net-(Q2-E)*%
X175000000Y-58100000D03*
X171000000Y-56800000D03*
D25*
%TO.N,Net-(D9-A)*%
X197800000Y-81100000D03*
X199100000Y-67100000D03*
%TD*%
D26*
%TO.N,GND*%
X169926000Y-85344000D02*
X170307000Y-84963000D01*
X157226000Y-85344000D02*
X151384000Y-85344000D01*
X140462000Y-55245000D02*
X143383000Y-55245000D01*
D27*
X207391000Y-66664000D02*
X203576000Y-70479000D01*
D26*
X157099000Y-52451000D02*
X161290000Y-56642000D01*
X157099000Y-51816000D02*
X157099000Y-52451000D01*
X151384000Y-85344000D02*
X149606000Y-83566000D01*
D27*
X207391000Y-62357000D02*
X207391000Y-66664000D01*
D26*
X159555265Y-88475735D02*
X159004000Y-89027000D01*
D27*
X136600000Y-101200000D02*
X139000000Y-98800000D01*
D26*
X171100000Y-100000000D02*
X168732000Y-100000000D01*
X143383000Y-55245000D02*
X145034000Y-56896000D01*
X167386000Y-85344000D02*
X169926000Y-85344000D01*
X159004000Y-89027000D02*
X154442000Y-89027000D01*
D27*
X139000000Y-98800000D02*
X139000000Y-97700000D01*
D26*
X140808000Y-61976000D02*
X142367000Y-61976000D01*
D27*
X200934500Y-97134500D02*
X200279000Y-97790000D01*
X136500000Y-101200000D02*
X136600000Y-101200000D01*
D26*
X159555265Y-87967735D02*
X159555265Y-88475735D01*
D27*
X200279000Y-97790000D02*
X194310000Y-97790000D01*
D26*
X149606000Y-83566000D02*
X149606000Y-82042000D01*
X168732000Y-100000000D02*
X168402000Y-100330000D01*
%TO.N,+3.3V*%
X156972000Y-56515000D02*
X157861000Y-55626000D01*
X151130000Y-76835000D02*
X154432001Y-76835000D01*
X156972000Y-62103000D02*
X156972000Y-56515000D01*
D28*
X124921000Y-103585000D02*
X124921000Y-96657000D01*
D26*
X132500000Y-69700000D02*
X132397500Y-69700000D01*
X149479000Y-78486000D02*
X151130000Y-76835000D01*
X128778000Y-55245000D02*
X128778000Y-61214000D01*
X146822000Y-89027000D02*
X146822000Y-90688000D01*
X132397500Y-62039500D02*
X132397500Y-69700000D01*
X167386000Y-88265000D02*
X167386000Y-87884000D01*
X131953000Y-61595000D02*
X132397500Y-62039500D01*
X128778000Y-61214000D02*
X129159000Y-61595000D01*
X163703000Y-91948000D02*
X167386000Y-88265000D01*
X165481001Y-87884000D02*
X167386000Y-87884000D01*
X135200000Y-68700000D02*
X133500000Y-68700000D01*
X155067000Y-73406000D02*
X155067000Y-65659000D01*
X132397500Y-69700000D02*
X132397500Y-69786500D01*
D28*
X127825000Y-106489000D02*
X124921000Y-103585000D01*
D26*
X148082000Y-91948000D02*
X163703000Y-91948000D01*
D28*
X144338000Y-106489000D02*
X127825000Y-106489000D01*
D26*
X146822000Y-90688000D02*
X148082000Y-91948000D01*
X129159000Y-61595000D02*
X131953000Y-61595000D01*
X136017000Y-73406000D02*
X155067000Y-73406000D01*
X133500000Y-68700000D02*
X132500000Y-69700000D01*
X154432001Y-76835000D02*
X165481001Y-87884000D01*
X132397500Y-69786500D02*
X136017000Y-73406000D01*
%TO.N,EN_ESP*%
X167500000Y-60200000D02*
X157338000Y-50038000D01*
X157338000Y-50038000D02*
X155321000Y-50038000D01*
X155321000Y-50038000D02*
X149987000Y-44704000D01*
X149987000Y-44704000D02*
X139827000Y-44704000D01*
%TO.N,+5V*%
X172100000Y-84400000D02*
X171900000Y-84200000D01*
D27*
X180800000Y-103900000D02*
X180800000Y-97400000D01*
D26*
X171900000Y-84200000D02*
X171900000Y-69400000D01*
D27*
X181900000Y-105000000D02*
X180800000Y-103900000D01*
X180800000Y-97400000D02*
X179600000Y-96200000D01*
D26*
%TO.N,Net-(D1-PadA)*%
X167548000Y-41993500D02*
X168882000Y-43327500D01*
X172261512Y-41056000D02*
X169990012Y-43327500D01*
X169990012Y-43327500D02*
X168882000Y-43327500D01*
X167548000Y-41529000D02*
X167548000Y-41993500D01*
%TO.N,D-*%
X171196000Y-44069000D02*
X171704000Y-43561000D01*
X171196000Y-46101000D02*
X171196000Y-44069000D01*
%TO.N,D+*%
X170561000Y-43688000D02*
X170942000Y-43307000D01*
X170561000Y-48006000D02*
X170561000Y-43688000D01*
D29*
%TO.N,Net-(D6-K)*%
X190100000Y-67200000D02*
X190100000Y-78700000D01*
X190100000Y-78700000D02*
X192100000Y-80700000D01*
X190100000Y-67000000D02*
X190100000Y-67200000D01*
D26*
%TO.N,I2C2_SDA*%
X152800000Y-78505000D02*
X150308529Y-78505000D01*
X153924000Y-81026000D02*
X153797000Y-80899000D01*
X150308529Y-78505000D02*
X149184529Y-79629000D01*
X140589000Y-84836000D02*
X140589000Y-88900000D01*
X140589000Y-100740000D02*
X144338000Y-104489000D01*
X153797000Y-79502000D02*
X152800000Y-78505000D01*
X125603000Y-46101000D02*
X124079000Y-47625000D01*
X150241000Y-46101000D02*
X127000000Y-46101000D01*
X128734735Y-85681735D02*
X129921000Y-86868000D01*
X127000000Y-46101000D02*
X125603000Y-46101000D01*
X152654000Y-48514000D02*
X150241000Y-46101000D01*
X145796000Y-79629000D02*
X140589000Y-84836000D01*
X149184529Y-79629000D02*
X145796000Y-79629000D01*
X128480735Y-85681735D02*
X128734735Y-85681735D01*
X140589000Y-88900000D02*
X140589000Y-100740000D01*
X153797000Y-80899000D02*
X153797000Y-79502000D01*
%TO.N,TX->STM*%
X148463000Y-64008000D02*
X148463000Y-57404000D01*
X148463000Y-57404000D02*
X143764000Y-52705000D01*
X140843000Y-52705000D02*
X139700000Y-51562000D01*
X143764000Y-52705000D02*
X140843000Y-52705000D01*
X148590000Y-64135000D02*
X148463000Y-64008000D01*
%TO.N,RX->STM*%
X147574000Y-64643000D02*
X147574000Y-57277000D01*
X151003000Y-65532000D02*
X148463000Y-65532000D01*
X151010000Y-65539000D02*
X151003000Y-65532000D01*
X148463000Y-65532000D02*
X147574000Y-64643000D01*
X143637000Y-53340000D02*
X139954000Y-53340000D01*
X147574000Y-57277000D02*
X143637000Y-53340000D01*
%TO.N,CS_SD*%
X133600000Y-64733530D02*
X140783382Y-57550148D01*
X133600000Y-65700000D02*
X133600000Y-64733530D01*
X140783382Y-57550148D02*
X140783382Y-57550147D01*
%TO.N,ESP_GPIO12*%
X139800000Y-61900000D02*
X138600000Y-61900000D01*
X140800000Y-62900000D02*
X139800000Y-61900000D01*
%TO.N,I2C2_SCL*%
X141351000Y-85090000D02*
X141351000Y-87630000D01*
X141351000Y-87630000D02*
X141351000Y-99502000D01*
X146050000Y-80391000D02*
X141351000Y-85090000D01*
X153162000Y-79629000D02*
X152527000Y-78994000D01*
X152527000Y-78994000D02*
X150630608Y-78994000D01*
X151384000Y-43815000D02*
X126619000Y-43815000D01*
X130683000Y-86106000D02*
X130810000Y-86106000D01*
X129265765Y-84688765D02*
X130683000Y-86106000D01*
X150630608Y-78994000D02*
X149233608Y-80391000D01*
X141351000Y-99502000D02*
X144338000Y-102489000D01*
X152273000Y-44704000D02*
X151384000Y-43815000D01*
X149233608Y-80391000D02*
X146050000Y-80391000D01*
X153162000Y-81661000D02*
X153162000Y-79629000D01*
%TO.N,ESP_GPIO17*%
X152400000Y-56134000D02*
X152654000Y-55880000D01*
X152400000Y-66929000D02*
X152400000Y-56134000D01*
%TO.N,RX*%
X141100000Y-75500000D02*
X132353000Y-84247000D01*
X146050000Y-65405000D02*
X146050000Y-62865000D01*
X143630000Y-67825000D02*
X146050000Y-65405000D01*
X158623000Y-47879000D02*
X164084000Y-53340000D01*
X164084000Y-53340000D02*
X171577000Y-53340000D01*
X132353000Y-84247000D02*
X132353000Y-99422000D01*
X146050000Y-62865000D02*
X146177000Y-62738000D01*
X143630000Y-72070000D02*
X143630000Y-67825000D01*
X132080000Y-99695000D02*
X132080000Y-99949000D01*
X171577000Y-53340000D02*
X172847000Y-52070000D01*
X151003000Y-48387000D02*
X151003000Y-60163000D01*
X132353000Y-99422000D02*
X132080000Y-99695000D01*
X143600000Y-72100000D02*
X143630000Y-72070000D01*
X151003000Y-60163000D02*
X149063000Y-62103000D01*
%TO.N,MOSI_SD*%
X142949000Y-65151000D02*
X145161000Y-65151000D01*
X139100000Y-69000000D02*
X142949000Y-65151000D01*
%TO.N,TX*%
X137668000Y-80518000D02*
X137668000Y-96774000D01*
X142494000Y-75692000D02*
X137668000Y-80518000D01*
X146720000Y-57404000D02*
X146777000Y-57461000D01*
X146777000Y-57461000D02*
X146777000Y-66456000D01*
X149098000Y-54102000D02*
X149860000Y-53340000D01*
X146050000Y-67183000D02*
X146050000Y-71755000D01*
X149860000Y-53340000D02*
X149860000Y-49276000D01*
X165100000Y-52197000D02*
X171450000Y-52197000D01*
X146777000Y-66456000D02*
X146050000Y-67183000D01*
X159702500Y-46799500D02*
X165100000Y-52197000D01*
X137668000Y-96774000D02*
X134366000Y-100076000D01*
X171450000Y-52197000D02*
X171937765Y-51709235D01*
%TO.N,ESP_GPIO14*%
X138938000Y-56896000D02*
X139192000Y-56642000D01*
X139192000Y-56642000D02*
X142748000Y-56642000D01*
X143256000Y-57150000D02*
X143256000Y-64008000D01*
X142748000Y-56642000D02*
X143256000Y-57150000D01*
%TO.N,MISO_SD*%
X142023000Y-57277000D02*
X135300000Y-64000000D01*
X142240000Y-57277000D02*
X142023000Y-57277000D01*
X135300000Y-64000000D02*
X135300000Y-64600000D01*
X146685000Y-53721000D02*
X149225000Y-51181000D01*
X146558000Y-53721000D02*
X146685000Y-53721000D01*
%TO.N,SCK_SD*%
X139700000Y-66600000D02*
X138900000Y-67400000D01*
X139700000Y-62700000D02*
X139700000Y-66600000D01*
X139600000Y-62600000D02*
X139700000Y-62700000D01*
X138900000Y-67400000D02*
X138700000Y-67400000D01*
%TO.N,SPI1_SCK*%
X147955000Y-86995000D02*
X147955000Y-87122000D01*
X145923000Y-84963000D02*
X147955000Y-86995000D01*
%TO.N,SPI2_MOSI*%
X148212000Y-90935000D02*
X148463000Y-91186000D01*
X148885654Y-87877000D02*
X148212000Y-88550654D01*
X148915499Y-87877000D02*
X148885654Y-87877000D01*
X148212000Y-88550654D02*
X148212000Y-90935000D01*
X149988000Y-86804499D02*
X148915499Y-87877000D01*
%TO.N,SPI2_SCK*%
X144018000Y-84963000D02*
X145669000Y-83312000D01*
X144018000Y-88900000D02*
X144018000Y-84963000D01*
%TO.N,SWDIO*%
X162687000Y-82804000D02*
X167386000Y-82804000D01*
%TO.N,SWCLK*%
X157226000Y-77978000D02*
X159512000Y-80264000D01*
X159512000Y-80264000D02*
X167386000Y-80264000D01*
%TO.N,ENCODER_B*%
X152781000Y-83566000D02*
X157480000Y-83566000D01*
X151765000Y-82550000D02*
X152781000Y-83566000D01*
X151765000Y-80645000D02*
X151765000Y-82550000D01*
X157290000Y-106489000D02*
X154338000Y-106489000D01*
X160782000Y-102997000D02*
X157290000Y-106489000D01*
%TO.N,ENCODER_SW*%
X166497000Y-95250000D02*
X157258000Y-104489000D01*
X163957000Y-89535000D02*
X158623000Y-84201000D01*
X158623000Y-84201000D02*
X152527000Y-84201000D01*
X157258000Y-104489000D02*
X154338000Y-104489000D01*
X150876000Y-82550000D02*
X150876000Y-79975000D01*
X152527000Y-84201000D02*
X150876000Y-82550000D01*
%TO.N,ENCODER_A*%
X166624000Y-98171000D02*
X166540265Y-98171000D01*
X159227000Y-108489000D02*
X154338000Y-108489000D01*
X161036000Y-103675265D02*
X161036000Y-106680000D01*
X162314265Y-102397000D02*
X162311471Y-102397000D01*
X163873265Y-88094735D02*
X163786735Y-88094735D01*
X163786735Y-88094735D02*
X158496000Y-82804000D01*
X158496000Y-82804000D02*
X153035000Y-82804000D01*
X152400000Y-82169000D02*
X152400000Y-79883000D01*
X161960000Y-102751265D02*
X161036000Y-103675265D01*
X153035000Y-82804000D02*
X152400000Y-82169000D01*
X162311471Y-102397000D02*
X161960000Y-102748471D01*
X166540265Y-98171000D02*
X162314265Y-102397000D01*
X161960000Y-102748471D02*
X161960000Y-102751265D01*
X161036000Y-106680000D02*
X159227000Y-108489000D01*
%TO.N,LED2*%
X139300000Y-73806000D02*
X129921000Y-83185000D01*
X127381000Y-90805000D02*
X127381000Y-96647000D01*
X149733000Y-73806000D02*
X139300000Y-73806000D01*
X152546000Y-73806000D02*
X149733000Y-73806000D01*
X153416000Y-74676000D02*
X152546000Y-73806000D01*
X127381000Y-96647000D02*
X129921000Y-99187000D01*
X129921000Y-83185000D02*
X127381000Y-85725000D01*
X127381000Y-85725000D02*
X127381000Y-90805000D01*
%TO.N,LED3*%
X131953000Y-98933000D02*
X131953000Y-81718686D01*
X151892000Y-74295000D02*
X152654000Y-75057000D01*
X139376686Y-74295000D02*
X151892000Y-74295000D01*
X131953000Y-81718686D02*
X139376686Y-74295000D01*
X131064000Y-99822000D02*
X131953000Y-98933000D01*
%TO.N,I2C1_SDA*%
X166497000Y-106330000D02*
X164338000Y-108489000D01*
X166497000Y-101092000D02*
X166497000Y-106330000D01*
%TO.N,I2C1_SCL*%
X163258000Y-106489000D02*
X164338000Y-106489000D01*
X162560000Y-102997000D02*
X162560000Y-105791000D01*
X162560000Y-105791000D02*
X163258000Y-106489000D01*
%TO.N,STROOMSENSOR*%
X179625000Y-106600000D02*
X165354000Y-92329000D01*
X195868000Y-106568000D02*
X195836000Y-106600000D01*
X160147000Y-87122000D02*
X162306000Y-89281000D01*
X162306000Y-89281000D02*
X163449000Y-90424000D01*
X151003000Y-87122000D02*
X160147000Y-87122000D01*
X195836000Y-106600000D02*
X179625000Y-106600000D01*
%TO.N,BUZZER*%
X152951037Y-77924320D02*
X154505320Y-77924320D01*
X165389000Y-81534000D02*
X164719000Y-82204000D01*
X169545000Y-80518000D02*
X168529000Y-81534000D01*
X170700000Y-76500000D02*
X169545000Y-77655000D01*
X154505320Y-77924320D02*
X163449000Y-86868000D01*
X169545000Y-77655000D02*
X169545000Y-80518000D01*
X168529000Y-81534000D02*
X165389000Y-81534000D01*
%TO.N,Net-(Q2-E)*%
X175000000Y-58100000D02*
X173600000Y-58100000D01*
X173600000Y-58100000D02*
X172300000Y-56800000D01*
X172300000Y-56800000D02*
X171000000Y-56800000D01*
D29*
%TO.N,Net-(D9-A)*%
X199100000Y-79600000D02*
X199000000Y-79700000D01*
X199000000Y-79700000D02*
X197800000Y-80900000D01*
X199100000Y-67100000D02*
X199100000Y-79600000D01*
X197800000Y-80900000D02*
X197800000Y-81100000D01*
%TD*%
%TA.AperFunction,Conductor*%
%TO.N,GND*%
G36*
X144588000Y-100208670D02*
G01*
X144568255Y-100188925D01*
X144482745Y-100139556D01*
X144387370Y-100114000D01*
X144288630Y-100114000D01*
X144193255Y-100139556D01*
X144107745Y-100188925D01*
X144088000Y-100208670D01*
X144088000Y-98769330D01*
X144107745Y-98789075D01*
X144193255Y-98838444D01*
X144288630Y-98864000D01*
X144387370Y-98864000D01*
X144482745Y-98838444D01*
X144568255Y-98789075D01*
X144588000Y-98769330D01*
X144588000Y-100208670D01*
G37*
%TD.AperFunction*%
%TA.AperFunction,Conductor*%
G36*
X159913942Y-87742185D02*
G01*
X159934584Y-87758819D01*
X162618298Y-90442533D01*
X162651783Y-90503856D01*
X162653837Y-90516330D01*
X162663630Y-90603249D01*
X162723210Y-90773521D01*
X162762769Y-90836478D01*
X162819184Y-90926262D01*
X162946738Y-91053816D01*
X162951355Y-91056717D01*
X163049691Y-91118506D01*
X163095982Y-91170841D01*
X163106630Y-91239895D01*
X163078255Y-91303743D01*
X163019865Y-91342115D01*
X162983719Y-91347500D01*
X149389124Y-91347500D01*
X149322085Y-91327815D01*
X149276330Y-91275011D01*
X149265904Y-91209615D01*
X149268565Y-91186000D01*
X149268565Y-91185996D01*
X149248369Y-91006750D01*
X149248368Y-91006745D01*
X149231667Y-90959017D01*
X149188789Y-90836478D01*
X149092816Y-90683738D01*
X148968267Y-90559189D01*
X148934782Y-90497866D01*
X148939766Y-90428174D01*
X148981638Y-90372241D01*
X149047102Y-90347824D01*
X149088038Y-90351732D01*
X149126592Y-90362063D01*
X149303034Y-90377500D01*
X149361999Y-90382659D01*
X149362000Y-90382659D01*
X149362001Y-90382659D01*
X149420966Y-90377500D01*
X149597408Y-90362063D01*
X149825663Y-90300903D01*
X150039830Y-90201035D01*
X150233401Y-90065495D01*
X150400495Y-89898401D01*
X150530425Y-89712842D01*
X150585002Y-89669217D01*
X150654500Y-89662023D01*
X150716855Y-89693546D01*
X150733575Y-89712842D01*
X150863281Y-89898082D01*
X150863505Y-89898401D01*
X151030599Y-90065495D01*
X151121416Y-90129086D01*
X151224165Y-90201032D01*
X151224167Y-90201033D01*
X151224170Y-90201035D01*
X151438337Y-90300903D01*
X151666592Y-90362063D01*
X151843034Y-90377500D01*
X151901999Y-90382659D01*
X151902000Y-90382659D01*
X151902001Y-90382659D01*
X151960966Y-90377500D01*
X152137408Y-90362063D01*
X152365663Y-90300903D01*
X152579830Y-90201035D01*
X152773401Y-90065495D01*
X152940495Y-89898401D01*
X153070730Y-89712405D01*
X153125307Y-89668781D01*
X153194805Y-89661587D01*
X153257160Y-89693110D01*
X153273879Y-89712405D01*
X153403890Y-89898078D01*
X153570917Y-90065105D01*
X153764421Y-90200600D01*
X153978507Y-90300429D01*
X153978516Y-90300433D01*
X154192000Y-90357634D01*
X154192000Y-89460012D01*
X154249007Y-89492925D01*
X154376174Y-89527000D01*
X154507826Y-89527000D01*
X154634993Y-89492925D01*
X154692000Y-89460012D01*
X154692000Y-90357633D01*
X154905483Y-90300433D01*
X154905492Y-90300429D01*
X155119578Y-90200600D01*
X155313082Y-90065105D01*
X155480105Y-89898082D01*
X155615600Y-89704578D01*
X155715429Y-89490492D01*
X155715432Y-89490486D01*
X155772636Y-89277000D01*
X154875012Y-89277000D01*
X154907925Y-89219993D01*
X154942000Y-89092826D01*
X154942000Y-88961174D01*
X154907925Y-88834007D01*
X154875012Y-88777000D01*
X155772636Y-88777000D01*
X155772635Y-88776999D01*
X155715432Y-88563513D01*
X155715429Y-88563507D01*
X155615600Y-88349422D01*
X155615599Y-88349420D01*
X155480113Y-88155926D01*
X155480108Y-88155920D01*
X155313078Y-87988890D01*
X155254787Y-87948074D01*
X155211162Y-87893497D01*
X155203970Y-87823999D01*
X155235492Y-87761644D01*
X155295722Y-87726231D01*
X155325911Y-87722500D01*
X159846903Y-87722500D01*
X159913942Y-87742185D01*
G37*
%TD.AperFunction*%
%TA.AperFunction,Conductor*%
G36*
X166163948Y-83424185D02*
G01*
X166209292Y-83476097D01*
X166211965Y-83481830D01*
X166337787Y-83661522D01*
X166347501Y-83675395D01*
X166347506Y-83675402D01*
X166514597Y-83842493D01*
X166514603Y-83842498D01*
X166700594Y-83972730D01*
X166744219Y-84027307D01*
X166751413Y-84096805D01*
X166719890Y-84159160D01*
X166700595Y-84175880D01*
X166514922Y-84305890D01*
X166514920Y-84305891D01*
X166347891Y-84472920D01*
X166347886Y-84472926D01*
X166212400Y-84666420D01*
X166212399Y-84666422D01*
X166112570Y-84880507D01*
X166112567Y-84880513D01*
X166055364Y-85093999D01*
X166055364Y-85094000D01*
X166952988Y-85094000D01*
X166920075Y-85151007D01*
X166886000Y-85278174D01*
X166886000Y-85409826D01*
X166920075Y-85536993D01*
X166952988Y-85594000D01*
X166055364Y-85594000D01*
X166112567Y-85807486D01*
X166112570Y-85807492D01*
X166212399Y-86021578D01*
X166347894Y-86215082D01*
X166514917Y-86382105D01*
X166700595Y-86512119D01*
X166744219Y-86566696D01*
X166751412Y-86636195D01*
X166719890Y-86698549D01*
X166700595Y-86715269D01*
X166514594Y-86845508D01*
X166347506Y-87012596D01*
X166211965Y-87206170D01*
X166211962Y-87206175D01*
X166209289Y-87211909D01*
X166163115Y-87264346D01*
X166096909Y-87283500D01*
X165781099Y-87283500D01*
X165714060Y-87263815D01*
X165693418Y-87247181D01*
X162143131Y-83696894D01*
X162109646Y-83635571D01*
X162114630Y-83565879D01*
X162156502Y-83509946D01*
X162221966Y-83485529D01*
X162290239Y-83500381D01*
X162296785Y-83504220D01*
X162337475Y-83529788D01*
X162507745Y-83589368D01*
X162507750Y-83589369D01*
X162686996Y-83609565D01*
X162687000Y-83609565D01*
X162687004Y-83609565D01*
X162866249Y-83589369D01*
X162866252Y-83589368D01*
X162866255Y-83589368D01*
X163036522Y-83529789D01*
X163189262Y-83433816D01*
X163189267Y-83433810D01*
X163192097Y-83431555D01*
X163194275Y-83430665D01*
X163195158Y-83430111D01*
X163195255Y-83430265D01*
X163256783Y-83405145D01*
X163269412Y-83404500D01*
X166096909Y-83404500D01*
X166163948Y-83424185D01*
G37*
%TD.AperFunction*%
%TA.AperFunction,Conductor*%
G36*
X135171000Y-96223988D02*
G01*
X135113993Y-96191075D01*
X134986826Y-96157000D01*
X134855174Y-96157000D01*
X134728007Y-96191075D01*
X134671000Y-96223988D01*
X134671000Y-94550012D01*
X134728007Y-94582925D01*
X134855174Y-94617000D01*
X134986826Y-94617000D01*
X135113993Y-94582925D01*
X135171000Y-94550012D01*
X135171000Y-96223988D01*
G37*
%TD.AperFunction*%
%TA.AperFunction,Conductor*%
G36*
X135171000Y-93683988D02*
G01*
X135113993Y-93651075D01*
X134986826Y-93617000D01*
X134855174Y-93617000D01*
X134728007Y-93651075D01*
X134671000Y-93683988D01*
X134671000Y-92010012D01*
X134728007Y-92042925D01*
X134855174Y-92077000D01*
X134986826Y-92077000D01*
X135113993Y-92042925D01*
X135171000Y-92010012D01*
X135171000Y-93683988D01*
G37*
%TD.AperFunction*%
%TA.AperFunction,Conductor*%
G36*
X135171000Y-91143988D02*
G01*
X135113993Y-91111075D01*
X134986826Y-91077000D01*
X134855174Y-91077000D01*
X134728007Y-91111075D01*
X134671000Y-91143988D01*
X134671000Y-89470012D01*
X134728007Y-89502925D01*
X134855174Y-89537000D01*
X134986826Y-89537000D01*
X135113993Y-89502925D01*
X135171000Y-89470012D01*
X135171000Y-91143988D01*
G37*
%TD.AperFunction*%
%TA.AperFunction,Conductor*%
G36*
X142620951Y-58068589D02*
G01*
X142653179Y-58130582D01*
X142655500Y-58154464D01*
X142655500Y-63425587D01*
X142635815Y-63492626D01*
X142628450Y-63502896D01*
X142626186Y-63505734D01*
X142530211Y-63658476D01*
X142470631Y-63828745D01*
X142470630Y-63828750D01*
X142450435Y-64007996D01*
X142450435Y-64008003D01*
X142470630Y-64187249D01*
X142470631Y-64187254D01*
X142530211Y-64357523D01*
X142569940Y-64420750D01*
X142610010Y-64484522D01*
X142619351Y-64499387D01*
X142638351Y-64566623D01*
X142617983Y-64633459D01*
X142585589Y-64664037D01*
X142586735Y-64665530D01*
X142580282Y-64670481D01*
X140512182Y-66738582D01*
X140450859Y-66772067D01*
X140381167Y-66767083D01*
X140325234Y-66725211D01*
X140300817Y-66659747D01*
X140300501Y-66650901D01*
X140300501Y-66513348D01*
X140300500Y-66513330D01*
X140300500Y-63748071D01*
X140320185Y-63681032D01*
X140372989Y-63635277D01*
X140442147Y-63625333D01*
X140465455Y-63631030D01*
X140620737Y-63685366D01*
X140620743Y-63685367D01*
X140620745Y-63685368D01*
X140620746Y-63685368D01*
X140620750Y-63685369D01*
X140799996Y-63705565D01*
X140800000Y-63705565D01*
X140800004Y-63705565D01*
X140979249Y-63685369D01*
X140979252Y-63685368D01*
X140979255Y-63685368D01*
X141149522Y-63625789D01*
X141302262Y-63529816D01*
X141429816Y-63402262D01*
X141525789Y-63249522D01*
X141585368Y-63079255D01*
X141592121Y-63019321D01*
X141605565Y-62900003D01*
X141605565Y-62899996D01*
X141585369Y-62720750D01*
X141585368Y-62720745D01*
X141528683Y-62558750D01*
X141525789Y-62550478D01*
X141429816Y-62397738D01*
X141302262Y-62270184D01*
X141241205Y-62231819D01*
X141149521Y-62174210D01*
X140998977Y-62121533D01*
X140979255Y-62114632D01*
X140979254Y-62114631D01*
X140979249Y-62114630D01*
X140892330Y-62104837D01*
X140827916Y-62077770D01*
X140818533Y-62069298D01*
X140287590Y-61538355D01*
X140287588Y-61538352D01*
X140168717Y-61419481D01*
X140168709Y-61419475D01*
X140066936Y-61360717D01*
X140066934Y-61360716D01*
X140031790Y-61340425D01*
X140031789Y-61340424D01*
X140019263Y-61337067D01*
X139879057Y-61299499D01*
X139720943Y-61299499D01*
X139713347Y-61299499D01*
X139713331Y-61299500D01*
X139182412Y-61299500D01*
X139115373Y-61279815D01*
X139105091Y-61272441D01*
X139102259Y-61270182D01*
X139096841Y-61266778D01*
X139050550Y-61214444D01*
X139039900Y-61145390D01*
X139068275Y-61081542D01*
X139075118Y-61074115D01*
X142041998Y-58107236D01*
X142103319Y-58073753D01*
X142143561Y-58071699D01*
X142239997Y-58082565D01*
X142240000Y-58082565D01*
X142240004Y-58082565D01*
X142419249Y-58062369D01*
X142419251Y-58062368D01*
X142419255Y-58062368D01*
X142419258Y-58062366D01*
X142419262Y-58062366D01*
X142490545Y-58037423D01*
X142560323Y-58033860D01*
X142620951Y-58068589D01*
G37*
%TD.AperFunction*%
%TA.AperFunction,Conductor*%
G36*
X149178834Y-52178914D02*
G01*
X149234767Y-52220786D01*
X149259184Y-52286250D01*
X149259500Y-52295096D01*
X149259500Y-53039902D01*
X149239815Y-53106941D01*
X149223185Y-53127578D01*
X149132027Y-53218737D01*
X149079465Y-53271299D01*
X149018142Y-53304783D01*
X149005668Y-53306837D01*
X148918750Y-53316630D01*
X148748478Y-53376210D01*
X148595737Y-53472184D01*
X148468184Y-53599737D01*
X148372211Y-53752476D01*
X148312631Y-53922745D01*
X148312630Y-53922750D01*
X148292435Y-54101996D01*
X148292435Y-54102003D01*
X148312630Y-54281249D01*
X148312631Y-54281254D01*
X148372211Y-54451523D01*
X148468184Y-54604262D01*
X148595738Y-54731816D01*
X148748478Y-54827789D01*
X148918745Y-54887368D01*
X148918750Y-54887369D01*
X149097996Y-54907565D01*
X149098000Y-54907565D01*
X149098004Y-54907565D01*
X149277249Y-54887369D01*
X149277252Y-54887368D01*
X149277255Y-54887368D01*
X149447522Y-54827789D01*
X149600262Y-54731816D01*
X149727816Y-54604262D01*
X149823789Y-54451522D01*
X149883368Y-54281255D01*
X149893161Y-54194329D01*
X149920226Y-54129918D01*
X149928680Y-54120554D01*
X150190821Y-53858413D01*
X150252142Y-53824931D01*
X150321834Y-53829915D01*
X150377767Y-53871787D01*
X150402184Y-53937251D01*
X150402500Y-53946097D01*
X150402500Y-59862903D01*
X150382815Y-59929942D01*
X150366181Y-59950584D01*
X149275181Y-61041584D01*
X149213858Y-61075069D01*
X149144166Y-61070085D01*
X149088233Y-61028213D01*
X149063816Y-60962749D01*
X149063500Y-60953903D01*
X149063500Y-57493060D01*
X149063501Y-57493047D01*
X149063501Y-57324944D01*
X149063501Y-57324943D01*
X149022577Y-57172216D01*
X148966597Y-57075255D01*
X148943524Y-57035290D01*
X148943518Y-57035282D01*
X147788232Y-55879996D01*
X146629346Y-54721111D01*
X146595862Y-54659789D01*
X146600846Y-54590097D01*
X146642718Y-54534164D01*
X146703143Y-54510211D01*
X146737255Y-54506368D01*
X146907522Y-54446789D01*
X147060262Y-54350816D01*
X147187816Y-54223262D01*
X147283789Y-54070522D01*
X147327770Y-53944829D01*
X147357128Y-53898105D01*
X149047820Y-52207413D01*
X149109142Y-52173930D01*
X149178834Y-52178914D01*
G37*
%TD.AperFunction*%
%TA.AperFunction,Conductor*%
G36*
X165238098Y-34048185D02*
G01*
X165283853Y-34100989D01*
X165293797Y-34170147D01*
X165264772Y-34233703D01*
X165218512Y-34267061D01*
X165123008Y-34306619D01*
X165122999Y-34306624D01*
X164967410Y-34410586D01*
X164967406Y-34410589D01*
X164835089Y-34542906D01*
X164835086Y-34542910D01*
X164731124Y-34698499D01*
X164731119Y-34698508D01*
X164659508Y-34871394D01*
X164659506Y-34871402D01*
X164623000Y-35054928D01*
X164623000Y-35298500D01*
X165273000Y-35298500D01*
X165273000Y-35798500D01*
X164623000Y-35798500D01*
X164623000Y-36042071D01*
X164659506Y-36225597D01*
X164659508Y-36225605D01*
X164731119Y-36398491D01*
X164731124Y-36398500D01*
X164835086Y-36554089D01*
X164835089Y-36554093D01*
X164967406Y-36686410D01*
X164967410Y-36686413D01*
X165122999Y-36790375D01*
X165123012Y-36790382D01*
X165295889Y-36861989D01*
X165295896Y-36861991D01*
X165323000Y-36867382D01*
X165323000Y-36115488D01*
X165332940Y-36132705D01*
X165388795Y-36188560D01*
X165457204Y-36228056D01*
X165533504Y-36248500D01*
X165612496Y-36248500D01*
X165688796Y-36228056D01*
X165757205Y-36188560D01*
X165813060Y-36132705D01*
X165823000Y-36115488D01*
X165823000Y-36867381D01*
X165850103Y-36861991D01*
X165850110Y-36861989D01*
X166022987Y-36790382D01*
X166023000Y-36790375D01*
X166178589Y-36686413D01*
X166178593Y-36686410D01*
X166310910Y-36554093D01*
X166310913Y-36554089D01*
X166414875Y-36398500D01*
X166414880Y-36398491D01*
X166486491Y-36225605D01*
X166486493Y-36225597D01*
X166522999Y-36042071D01*
X166523000Y-36042069D01*
X166523000Y-35798500D01*
X165873000Y-35798500D01*
X165873000Y-35298500D01*
X166523000Y-35298500D01*
X166523000Y-35054930D01*
X166522999Y-35054928D01*
X166486493Y-34871402D01*
X166486491Y-34871394D01*
X166414880Y-34698508D01*
X166414875Y-34698499D01*
X166310913Y-34542910D01*
X166310910Y-34542906D01*
X166178593Y-34410589D01*
X166178589Y-34410586D01*
X166023000Y-34306624D01*
X166022991Y-34306619D01*
X165927488Y-34267061D01*
X165873085Y-34223220D01*
X165851020Y-34156926D01*
X165868299Y-34089227D01*
X165919436Y-34041616D01*
X165974941Y-34028500D01*
X173821059Y-34028500D01*
X173888098Y-34048185D01*
X173933853Y-34100989D01*
X173943797Y-34170147D01*
X173914772Y-34233703D01*
X173868512Y-34267061D01*
X173773008Y-34306619D01*
X173772999Y-34306624D01*
X173617410Y-34410586D01*
X173617406Y-34410589D01*
X173485089Y-34542906D01*
X173485086Y-34542910D01*
X173381124Y-34698499D01*
X173381119Y-34698508D01*
X173309508Y-34871394D01*
X173309506Y-34871402D01*
X173273000Y-35054928D01*
X173273000Y-35298500D01*
X173923000Y-35298500D01*
X173923000Y-35798500D01*
X173273000Y-35798500D01*
X173273000Y-36042071D01*
X173309506Y-36225597D01*
X173309508Y-36225605D01*
X173381119Y-36398491D01*
X173381124Y-36398500D01*
X173485086Y-36554089D01*
X173485089Y-36554093D01*
X173617406Y-36686410D01*
X173617410Y-36686413D01*
X173772999Y-36790375D01*
X173773012Y-36790382D01*
X173945889Y-36861989D01*
X173945896Y-36861991D01*
X173973000Y-36867382D01*
X173973000Y-36115488D01*
X173982940Y-36132705D01*
X174038795Y-36188560D01*
X174107204Y-36228056D01*
X174183504Y-36248500D01*
X174262496Y-36248500D01*
X174338796Y-36228056D01*
X174407205Y-36188560D01*
X174463060Y-36132705D01*
X174473000Y-36115488D01*
X174473000Y-36867381D01*
X174500103Y-36861991D01*
X174500110Y-36861989D01*
X174672987Y-36790382D01*
X174673000Y-36790375D01*
X174828589Y-36686413D01*
X174828593Y-36686410D01*
X174960910Y-36554093D01*
X174960913Y-36554089D01*
X175064875Y-36398500D01*
X175064880Y-36398491D01*
X175136491Y-36225605D01*
X175136493Y-36225597D01*
X175172999Y-36042071D01*
X175173000Y-36042069D01*
X175173000Y-35798500D01*
X174523000Y-35798500D01*
X174523000Y-35298500D01*
X175173000Y-35298500D01*
X175173000Y-35054930D01*
X175172999Y-35054928D01*
X175136493Y-34871402D01*
X175136491Y-34871394D01*
X175064880Y-34698508D01*
X175064875Y-34698499D01*
X174960913Y-34542910D01*
X174960910Y-34542906D01*
X174828593Y-34410589D01*
X174828589Y-34410586D01*
X174673000Y-34306624D01*
X174672991Y-34306619D01*
X174577488Y-34267061D01*
X174523085Y-34223220D01*
X174501020Y-34156926D01*
X174518299Y-34089227D01*
X174569436Y-34041616D01*
X174624941Y-34028500D01*
X200484108Y-34028500D01*
X200547959Y-34028500D01*
X200552016Y-34028566D01*
X201101850Y-34046565D01*
X201109928Y-34047095D01*
X201655388Y-34100818D01*
X201663386Y-34101871D01*
X202204187Y-34191158D01*
X202212102Y-34192732D01*
X202745893Y-34317194D01*
X202753697Y-34319285D01*
X203054685Y-34410589D01*
X203278198Y-34478391D01*
X203285882Y-34481000D01*
X203798813Y-34674054D01*
X203806309Y-34677159D01*
X204155132Y-34835208D01*
X204305545Y-34903359D01*
X204312800Y-34906936D01*
X204589676Y-35054930D01*
X204796169Y-35165303D01*
X204803196Y-35169360D01*
X205268619Y-35458779D01*
X205275366Y-35463287D01*
X205466722Y-35600410D01*
X205720877Y-35782535D01*
X205727296Y-35787460D01*
X205971649Y-35987996D01*
X206150976Y-36135166D01*
X206157076Y-36140516D01*
X206557104Y-36515183D01*
X206562816Y-36520895D01*
X206894533Y-36875066D01*
X206937483Y-36920923D01*
X206942833Y-36927023D01*
X207290532Y-37350694D01*
X207295472Y-37357132D01*
X207614712Y-37802633D01*
X207619220Y-37809380D01*
X207908639Y-38274803D01*
X207912696Y-38281830D01*
X207936639Y-38326624D01*
X208140374Y-38707785D01*
X208171054Y-38765182D01*
X208174643Y-38772460D01*
X208400840Y-39271690D01*
X208403945Y-39279186D01*
X208596999Y-39792117D01*
X208599608Y-39799801D01*
X208758709Y-40324285D01*
X208760809Y-40332123D01*
X208885262Y-40865876D01*
X208886845Y-40873834D01*
X208976125Y-41414590D01*
X208977184Y-41422635D01*
X209030903Y-41968061D01*
X209031434Y-41976158D01*
X209049434Y-42525983D01*
X209049500Y-42530040D01*
X209049500Y-102122959D01*
X209049434Y-102127016D01*
X209031434Y-102676841D01*
X209030903Y-102684938D01*
X208977184Y-103230364D01*
X208976125Y-103238409D01*
X208886845Y-103779165D01*
X208885262Y-103787123D01*
X208760809Y-104320876D01*
X208758709Y-104328714D01*
X208599608Y-104853198D01*
X208596999Y-104860882D01*
X208403945Y-105373813D01*
X208400840Y-105381309D01*
X208174643Y-105880539D01*
X208171054Y-105887817D01*
X207912696Y-106371169D01*
X207908639Y-106378196D01*
X207619220Y-106843619D01*
X207614712Y-106850366D01*
X207295472Y-107295867D01*
X207290532Y-107302305D01*
X206942833Y-107725976D01*
X206937483Y-107732076D01*
X206562829Y-108132091D01*
X206557091Y-108137829D01*
X206157076Y-108512483D01*
X206150976Y-108517833D01*
X205727305Y-108865532D01*
X205720867Y-108870472D01*
X205275366Y-109189712D01*
X205268619Y-109194220D01*
X204803196Y-109483639D01*
X204796169Y-109487696D01*
X204312817Y-109746054D01*
X204305539Y-109749643D01*
X203806309Y-109975840D01*
X203798813Y-109978945D01*
X203285882Y-110171999D01*
X203278198Y-110174608D01*
X202753714Y-110333709D01*
X202745876Y-110335809D01*
X202212123Y-110460262D01*
X202204165Y-110461845D01*
X201663409Y-110551125D01*
X201655364Y-110552184D01*
X201109938Y-110605903D01*
X201101841Y-110606434D01*
X200552016Y-110624434D01*
X200547959Y-110624500D01*
X122544500Y-110624500D01*
X122477461Y-110604815D01*
X122431706Y-110552011D01*
X122420500Y-110500500D01*
X122420500Y-91576999D01*
X123565341Y-91576999D01*
X123565341Y-91577000D01*
X123585936Y-91812403D01*
X123585938Y-91812413D01*
X123647094Y-92040655D01*
X123647096Y-92040659D01*
X123647097Y-92040663D01*
X123664603Y-92078204D01*
X123746965Y-92254830D01*
X123746967Y-92254834D01*
X123882501Y-92448395D01*
X123882506Y-92448402D01*
X124049597Y-92615493D01*
X124049603Y-92615498D01*
X124235158Y-92745425D01*
X124278783Y-92800002D01*
X124285977Y-92869500D01*
X124254454Y-92931855D01*
X124235158Y-92948575D01*
X124049597Y-93078505D01*
X123882505Y-93245597D01*
X123746965Y-93439169D01*
X123746964Y-93439171D01*
X123647098Y-93653335D01*
X123647094Y-93653344D01*
X123585938Y-93881586D01*
X123585936Y-93881596D01*
X123565341Y-94116999D01*
X123565341Y-94117000D01*
X123585936Y-94352403D01*
X123585938Y-94352413D01*
X123647094Y-94580655D01*
X123647096Y-94580659D01*
X123647097Y-94580663D01*
X123692498Y-94678025D01*
X123746965Y-94794830D01*
X123746967Y-94794834D01*
X123882501Y-94988395D01*
X123882506Y-94988402D01*
X124049597Y-95155493D01*
X124049603Y-95155498D01*
X124235158Y-95285425D01*
X124278783Y-95340002D01*
X124285977Y-95409500D01*
X124254454Y-95471855D01*
X124235158Y-95488575D01*
X124049597Y-95618505D01*
X123882505Y-95785597D01*
X123746965Y-95979169D01*
X123746964Y-95979171D01*
X123647098Y-96193335D01*
X123647094Y-96193344D01*
X123585938Y-96421586D01*
X123585936Y-96421596D01*
X123565341Y-96656999D01*
X123565341Y-96657000D01*
X123585936Y-96892403D01*
X123585938Y-96892413D01*
X123647094Y-97120655D01*
X123647096Y-97120659D01*
X123647097Y-97120663D01*
X123692498Y-97218025D01*
X123746965Y-97334830D01*
X123746967Y-97334834D01*
X123882501Y-97528395D01*
X123882506Y-97528402D01*
X124049597Y-97695494D01*
X124049603Y-97695498D01*
X124160286Y-97772999D01*
X124167623Y-97778136D01*
X124211248Y-97832713D01*
X124220500Y-97879711D01*
X124220500Y-103516006D01*
X124220500Y-103653994D01*
X124220500Y-103653996D01*
X124220499Y-103653996D01*
X124247418Y-103789322D01*
X124247421Y-103789332D01*
X124300222Y-103916807D01*
X124376887Y-104031545D01*
X127378454Y-107033112D01*
X127493190Y-107109776D01*
X127591790Y-107150617D01*
X127620671Y-107162580D01*
X127620672Y-107162580D01*
X127620677Y-107162582D01*
X127647545Y-107167925D01*
X127647551Y-107167926D01*
X127647591Y-107167934D01*
X127737937Y-107185905D01*
X127756006Y-107189500D01*
X127756007Y-107189500D01*
X143155795Y-107189500D01*
X143222834Y-107209185D01*
X143243476Y-107225818D01*
X143331128Y-107313470D01*
X143364612Y-107374791D01*
X143359628Y-107444483D01*
X143317757Y-107500417D01*
X143308544Y-107506688D01*
X143244344Y-107546287D01*
X143120289Y-107670342D01*
X143028187Y-107819663D01*
X143028185Y-107819668D01*
X143006316Y-107885666D01*
X142973001Y-107986203D01*
X142973001Y-107986204D01*
X142973000Y-107986204D01*
X142962500Y-108088983D01*
X142962500Y-108889001D01*
X142962501Y-108889019D01*
X142973000Y-108991796D01*
X142973001Y-108991799D01*
X143028185Y-109158331D01*
X143028187Y-109158336D01*
X143063069Y-109214888D01*
X143120288Y-109307656D01*
X143244344Y-109431712D01*
X143393666Y-109523814D01*
X143560203Y-109578999D01*
X143662991Y-109589500D01*
X145013008Y-109589499D01*
X145115797Y-109578999D01*
X145282334Y-109523814D01*
X145431656Y-109431712D01*
X145555712Y-109307656D01*
X145647814Y-109158334D01*
X145702999Y-108991797D01*
X145713500Y-108889009D01*
X145713499Y-108088992D01*
X145702999Y-107986203D01*
X145647814Y-107819666D01*
X145555712Y-107670344D01*
X145431656Y-107546288D01*
X145431652Y-107546285D01*
X145367456Y-107506688D01*
X145320731Y-107454740D01*
X145309510Y-107385777D01*
X145337353Y-107321695D01*
X145344850Y-107313491D01*
X145452414Y-107205928D01*
X145554232Y-107065788D01*
X145632873Y-106911445D01*
X145686402Y-106746701D01*
X145713500Y-106575611D01*
X145713500Y-106402389D01*
X145686402Y-106231299D01*
X145632873Y-106066555D01*
X145554232Y-105912212D01*
X145452414Y-105772072D01*
X145329928Y-105649586D01*
X145246975Y-105589317D01*
X145204311Y-105533988D01*
X145198332Y-105464374D01*
X145230938Y-105402579D01*
X145246976Y-105388682D01*
X145329928Y-105328414D01*
X145452414Y-105205928D01*
X145554232Y-105065788D01*
X145632873Y-104911445D01*
X145686402Y-104746701D01*
X145713500Y-104575611D01*
X145713500Y-104402389D01*
X145686402Y-104231299D01*
X145632873Y-104066555D01*
X145554232Y-103912212D01*
X145452414Y-103772072D01*
X145329928Y-103649586D01*
X145246975Y-103589317D01*
X145204311Y-103533988D01*
X145198332Y-103464374D01*
X145230938Y-103402579D01*
X145246976Y-103388682D01*
X145329928Y-103328414D01*
X145452414Y-103205928D01*
X145554232Y-103065788D01*
X145632873Y-102911445D01*
X145686402Y-102746701D01*
X145713500Y-102575611D01*
X145713500Y-102402389D01*
X145686402Y-102231299D01*
X145632873Y-102066555D01*
X145554232Y-101912212D01*
X145452414Y-101772072D01*
X145329928Y-101649586D01*
X145262030Y-101600255D01*
X145246550Y-101589008D01*
X145203885Y-101533677D01*
X145197906Y-101464064D01*
X145230512Y-101402269D01*
X145246552Y-101388371D01*
X145329598Y-101328036D01*
X145452032Y-101205602D01*
X145553804Y-101065524D01*
X145632408Y-100911255D01*
X145685914Y-100746584D01*
X145687115Y-100739000D01*
X144618330Y-100739000D01*
X144638075Y-100719255D01*
X144687444Y-100633745D01*
X144713000Y-100538370D01*
X144713000Y-100439630D01*
X144687444Y-100344255D01*
X144638075Y-100258745D01*
X144618330Y-100239000D01*
X145687115Y-100239000D01*
X145687115Y-100238999D01*
X145685914Y-100231415D01*
X145632408Y-100066744D01*
X145553804Y-99912475D01*
X145452032Y-99772397D01*
X145329602Y-99649967D01*
X145246126Y-99589319D01*
X145203460Y-99533989D01*
X145197481Y-99464376D01*
X145230086Y-99402580D01*
X145246126Y-99388681D01*
X145329602Y-99328032D01*
X145452032Y-99205602D01*
X145553804Y-99065524D01*
X145632408Y-98911255D01*
X145685914Y-98746584D01*
X145687115Y-98739000D01*
X144618330Y-98739000D01*
X144638075Y-98719255D01*
X144687444Y-98633745D01*
X144713000Y-98538370D01*
X144713000Y-98439630D01*
X144687444Y-98344255D01*
X144638075Y-98258745D01*
X144618330Y-98239000D01*
X145687115Y-98239000D01*
X145687115Y-98238999D01*
X145685914Y-98231415D01*
X145632408Y-98066744D01*
X145553804Y-97912475D01*
X145452032Y-97772397D01*
X145329602Y-97649967D01*
X145189524Y-97548195D01*
X145035257Y-97469591D01*
X144870584Y-97416085D01*
X144699571Y-97389000D01*
X144588000Y-97389000D01*
X144588000Y-98208670D01*
X144568255Y-98188925D01*
X144482745Y-98139556D01*
X144387370Y-98114000D01*
X144288630Y-98114000D01*
X144193255Y-98139556D01*
X144107745Y-98188925D01*
X144088000Y-98208670D01*
X144088000Y-97389000D01*
X143976429Y-97389000D01*
X143805415Y-97416085D01*
X143640742Y-97469591D01*
X143486475Y-97548195D01*
X143346397Y-97649967D01*
X143223967Y-97772397D01*
X143122195Y-97912475D01*
X143043591Y-98066744D01*
X142990085Y-98231415D01*
X142988884Y-98238999D01*
X142988885Y-98239000D01*
X144057670Y-98239000D01*
X144037925Y-98258745D01*
X143988556Y-98344255D01*
X143963000Y-98439630D01*
X143963000Y-98538370D01*
X143988556Y-98633745D01*
X144037925Y-98719255D01*
X144057670Y-98739000D01*
X142988885Y-98739000D01*
X142990085Y-98746584D01*
X143043591Y-98911255D01*
X143122195Y-99065524D01*
X143223967Y-99205602D01*
X143346399Y-99328034D01*
X143346404Y-99328038D01*
X143429873Y-99388682D01*
X143472539Y-99444012D01*
X143478518Y-99513625D01*
X143445912Y-99575420D01*
X143429873Y-99589318D01*
X143346404Y-99649961D01*
X143346399Y-99649965D01*
X143223967Y-99772397D01*
X143122195Y-99912475D01*
X143043591Y-100066743D01*
X143037793Y-100084588D01*
X142998354Y-100142262D01*
X142933994Y-100169458D01*
X142865148Y-100157542D01*
X142832182Y-100133947D01*
X141987819Y-99289584D01*
X141954334Y-99228261D01*
X141951500Y-99201903D01*
X141951500Y-88212412D01*
X141971185Y-88145373D01*
X141978555Y-88135097D01*
X141980810Y-88132267D01*
X141980816Y-88132262D01*
X142076789Y-87979522D01*
X142136368Y-87809255D01*
X142136369Y-87809249D01*
X142156565Y-87630003D01*
X142156565Y-87629996D01*
X142136369Y-87450750D01*
X142136368Y-87450745D01*
X142076788Y-87280476D01*
X142030098Y-87206170D01*
X141980816Y-87127738D01*
X141980814Y-87127736D01*
X141980813Y-87127734D01*
X141978550Y-87124896D01*
X141977659Y-87122715D01*
X141977111Y-87121842D01*
X141977264Y-87121745D01*
X141952144Y-87060209D01*
X141951500Y-87047587D01*
X141951500Y-85390097D01*
X141971185Y-85323058D01*
X141987819Y-85302416D01*
X146262417Y-81027819D01*
X146323740Y-80994334D01*
X146350098Y-80991500D01*
X149146939Y-80991500D01*
X149146955Y-80991501D01*
X149154551Y-80991501D01*
X149312662Y-80991501D01*
X149312665Y-80991501D01*
X149465393Y-80950577D01*
X149549908Y-80901782D01*
X149602324Y-80871520D01*
X149714128Y-80759716D01*
X149714128Y-80759714D01*
X149724332Y-80749511D01*
X149724336Y-80749506D01*
X150039920Y-80433921D01*
X150101241Y-80400438D01*
X150170933Y-80405422D01*
X150226866Y-80447294D01*
X150232592Y-80455631D01*
X150246184Y-80477262D01*
X150246186Y-80477264D01*
X150248445Y-80480097D01*
X150249335Y-80482276D01*
X150249888Y-80483157D01*
X150249733Y-80483253D01*
X150274855Y-80544783D01*
X150275500Y-80557412D01*
X150275500Y-82463330D01*
X150275499Y-82463348D01*
X150275499Y-82629054D01*
X150275498Y-82629054D01*
X150316422Y-82781783D01*
X150332562Y-82809739D01*
X150395475Y-82918709D01*
X150395481Y-82918717D01*
X150514349Y-83037585D01*
X150514354Y-83037589D01*
X152158284Y-84681520D01*
X152158286Y-84681521D01*
X152158290Y-84681524D01*
X152244350Y-84731210D01*
X152295216Y-84760577D01*
X152447943Y-84801501D01*
X152447945Y-84801501D01*
X152613654Y-84801501D01*
X152613670Y-84801500D01*
X158322903Y-84801500D01*
X158389942Y-84821185D01*
X158410584Y-84837819D01*
X159882584Y-86309819D01*
X159916069Y-86371142D01*
X159911085Y-86440834D01*
X159869213Y-86496767D01*
X159803749Y-86521184D01*
X159794903Y-86521500D01*
X151585412Y-86521500D01*
X151518373Y-86501815D01*
X151508097Y-86494445D01*
X151505263Y-86492185D01*
X151505262Y-86492184D01*
X151370527Y-86407524D01*
X151352523Y-86396211D01*
X151182254Y-86336631D01*
X151182249Y-86336630D01*
X151003004Y-86316435D01*
X151002996Y-86316435D01*
X150823746Y-86336631D01*
X150823745Y-86336631D01*
X150765984Y-86356842D01*
X150696205Y-86360403D01*
X150635578Y-86325673D01*
X150620038Y-86305773D01*
X150617817Y-86302239D01*
X150617815Y-86302236D01*
X150490262Y-86174683D01*
X150337523Y-86078710D01*
X150167254Y-86019130D01*
X150167249Y-86019129D01*
X149988004Y-85998934D01*
X149987996Y-85998934D01*
X149808750Y-86019129D01*
X149808745Y-86019130D01*
X149638476Y-86078710D01*
X149485737Y-86174683D01*
X149358184Y-86302236D01*
X149262210Y-86454977D01*
X149202630Y-86625249D01*
X149192837Y-86712167D01*
X149165770Y-86776581D01*
X149157298Y-86785964D01*
X148947346Y-86995916D01*
X148886023Y-87029401D01*
X148816331Y-87024417D01*
X148760398Y-86982545D01*
X148742623Y-86949189D01*
X148680789Y-86772478D01*
X148610549Y-86660692D01*
X148584816Y-86619738D01*
X148457262Y-86492184D01*
X148426233Y-86472687D01*
X148304521Y-86396210D01*
X148192012Y-86356842D01*
X148178829Y-86352229D01*
X148132104Y-86322869D01*
X146753700Y-84944465D01*
X146720215Y-84883142D01*
X146718163Y-84870686D01*
X146708368Y-84783745D01*
X146648789Y-84613478D01*
X146552816Y-84460738D01*
X146425262Y-84333184D01*
X146386431Y-84308785D01*
X146272521Y-84237210D01*
X146148561Y-84193835D01*
X146091784Y-84153113D01*
X146066037Y-84088160D01*
X146079493Y-84019599D01*
X146123544Y-83971799D01*
X146171259Y-83941818D01*
X146171259Y-83941817D01*
X146171262Y-83941816D01*
X146298816Y-83814262D01*
X146394789Y-83661522D01*
X146454368Y-83491255D01*
X146455013Y-83485529D01*
X146474565Y-83312003D01*
X146474565Y-83311996D01*
X146454369Y-83132750D01*
X146454368Y-83132745D01*
X146452284Y-83126788D01*
X146394789Y-82962478D01*
X146367291Y-82918716D01*
X146301755Y-82814416D01*
X146298816Y-82809738D01*
X146171262Y-82682184D01*
X146018523Y-82586211D01*
X145848254Y-82526631D01*
X145848249Y-82526630D01*
X145669004Y-82506435D01*
X145668996Y-82506435D01*
X145489750Y-82526630D01*
X145489745Y-82526631D01*
X145319476Y-82586211D01*
X145166737Y-82682184D01*
X145039184Y-82809737D01*
X144943210Y-82962478D01*
X144883630Y-83132750D01*
X144873837Y-83219667D01*
X144846770Y-83284081D01*
X144838298Y-83293464D01*
X143649286Y-84482478D01*
X143537481Y-84594282D01*
X143537480Y-84594284D01*
X143495832Y-84666422D01*
X143487693Y-84680519D01*
X143487691Y-84680521D01*
X143458425Y-84731209D01*
X143458424Y-84731210D01*
X143450555Y-84760577D01*
X143417499Y-84883943D01*
X143417499Y-84883945D01*
X143417499Y-85052046D01*
X143417500Y-85052059D01*
X143417500Y-88317587D01*
X143397815Y-88384626D01*
X143390450Y-88394896D01*
X143388186Y-88397734D01*
X143292211Y-88550476D01*
X143232631Y-88720745D01*
X143232630Y-88720750D01*
X143212435Y-88899996D01*
X143212435Y-88900003D01*
X143232630Y-89079249D01*
X143232631Y-89079254D01*
X143292211Y-89249523D01*
X143388184Y-89402262D01*
X143515738Y-89529816D01*
X143668478Y-89625789D01*
X143770783Y-89661587D01*
X143838745Y-89685368D01*
X143838750Y-89685369D01*
X144017996Y-89705565D01*
X144018000Y-89705565D01*
X144018004Y-89705565D01*
X144197249Y-89685369D01*
X144197252Y-89685368D01*
X144197255Y-89685368D01*
X144367522Y-89625789D01*
X144520262Y-89529816D01*
X144647816Y-89402262D01*
X144743789Y-89249522D01*
X144803368Y-89079255D01*
X144805759Y-89058034D01*
X144823565Y-88900003D01*
X144823565Y-88899996D01*
X144803369Y-88720750D01*
X144803368Y-88720745D01*
X144774030Y-88636901D01*
X144743789Y-88550478D01*
X144647816Y-88397738D01*
X144647814Y-88397736D01*
X144647813Y-88397734D01*
X144645550Y-88394896D01*
X144644659Y-88392715D01*
X144644111Y-88391842D01*
X144644264Y-88391745D01*
X144619144Y-88330209D01*
X144618500Y-88317587D01*
X144618500Y-85263096D01*
X144638185Y-85196057D01*
X144654815Y-85175419D01*
X144910029Y-84920205D01*
X144971349Y-84886722D01*
X145041040Y-84891706D01*
X145096974Y-84933577D01*
X145120927Y-84994004D01*
X145137630Y-85142250D01*
X145137631Y-85142254D01*
X145197211Y-85312523D01*
X145252078Y-85399843D01*
X145293184Y-85465262D01*
X145420738Y-85592816D01*
X145573478Y-85688789D01*
X145743745Y-85748368D01*
X145830669Y-85758161D01*
X145895080Y-85785226D01*
X145904465Y-85793700D01*
X147115648Y-87004883D01*
X147149133Y-87066206D01*
X147151187Y-87106447D01*
X147149435Y-87121997D01*
X147149435Y-87122003D01*
X147169630Y-87301249D01*
X147169631Y-87301254D01*
X147229211Y-87471524D01*
X147238640Y-87486530D01*
X147257639Y-87553767D01*
X147237270Y-87620602D01*
X147184001Y-87665815D01*
X147133645Y-87676500D01*
X145924129Y-87676500D01*
X145924123Y-87676501D01*
X145864516Y-87682908D01*
X145729671Y-87733202D01*
X145729664Y-87733206D01*
X145614455Y-87819452D01*
X145614452Y-87819455D01*
X145528206Y-87934664D01*
X145528202Y-87934671D01*
X145477908Y-88069517D01*
X145471501Y-88129116D01*
X145471500Y-88129135D01*
X145471500Y-89924870D01*
X145471501Y-89924876D01*
X145477908Y-89984483D01*
X145528202Y-90119328D01*
X145528206Y-90119335D01*
X145614452Y-90234544D01*
X145614455Y-90234547D01*
X145729664Y-90320793D01*
X145729671Y-90320797D01*
X145755295Y-90330354D01*
X145864517Y-90371091D01*
X145924127Y-90377500D01*
X146097500Y-90377499D01*
X146164539Y-90397183D01*
X146210294Y-90449987D01*
X146221500Y-90501499D01*
X146221500Y-90601330D01*
X146221499Y-90601348D01*
X146221499Y-90767054D01*
X146221498Y-90767054D01*
X146262422Y-90919782D01*
X146262424Y-90919787D01*
X146266166Y-90926268D01*
X146341477Y-91056712D01*
X146341481Y-91056717D01*
X146460349Y-91175585D01*
X146460355Y-91175590D01*
X147151604Y-91866839D01*
X147185089Y-91928162D01*
X147180105Y-91997854D01*
X147138233Y-92053787D01*
X147072769Y-92078204D01*
X147027075Y-92071818D01*
X147026893Y-92072498D01*
X146793413Y-92009938D01*
X146793403Y-92009936D01*
X146558001Y-91989341D01*
X146557999Y-91989341D01*
X146322596Y-92009936D01*
X146322586Y-92009938D01*
X146094344Y-92071094D01*
X146094335Y-92071098D01*
X145880171Y-92170964D01*
X145880169Y-92170965D01*
X145686600Y-92306503D01*
X145564673Y-92428430D01*
X145503350Y-92461914D01*
X145433658Y-92456930D01*
X145377725Y-92415058D01*
X145360810Y-92384081D01*
X145311797Y-92252671D01*
X145311793Y-92252664D01*
X145225547Y-92137455D01*
X145225544Y-92137452D01*
X145110335Y-92051206D01*
X145110328Y-92051202D01*
X144975482Y-92000908D01*
X144975483Y-92000908D01*
X144915883Y-91994501D01*
X144915881Y-91994500D01*
X144915873Y-91994500D01*
X144915864Y-91994500D01*
X143120129Y-91994500D01*
X143120123Y-91994501D01*
X143060516Y-92000908D01*
X142925671Y-92051202D01*
X142925664Y-92051206D01*
X142810455Y-92137452D01*
X142810452Y-92137455D01*
X142724206Y-92252664D01*
X142724202Y-92252671D01*
X142673908Y-92387517D01*
X142667501Y-92447116D01*
X142667500Y-92447135D01*
X142667500Y-94242870D01*
X142667501Y-94242876D01*
X142673908Y-94302483D01*
X142724202Y-94437328D01*
X142724206Y-94437335D01*
X142810452Y-94552544D01*
X142810455Y-94552547D01*
X142925664Y-94638793D01*
X142925671Y-94638797D01*
X143060517Y-94689091D01*
X143060516Y-94689091D01*
X143067444Y-94689835D01*
X143120127Y-94695500D01*
X144915872Y-94695499D01*
X144975483Y-94689091D01*
X145110331Y-94638796D01*
X145225546Y-94552546D01*
X145311796Y-94437331D01*
X145360810Y-94305916D01*
X145402681Y-94249984D01*
X145468145Y-94225566D01*
X145536418Y-94240417D01*
X145564673Y-94261569D01*
X145686599Y-94383495D01*
X145773630Y-94444435D01*
X145880165Y-94519032D01*
X145880167Y-94519033D01*
X145880170Y-94519035D01*
X146094337Y-94618903D01*
X146094343Y-94618904D01*
X146094344Y-94618905D01*
X146149285Y-94633626D01*
X146322592Y-94680063D01*
X146499034Y-94695500D01*
X146557999Y-94700659D01*
X146558000Y-94700659D01*
X146558001Y-94700659D01*
X146616966Y-94695500D01*
X146793408Y-94680063D01*
X147021663Y-94618903D01*
X147235830Y-94519035D01*
X147429401Y-94383495D01*
X147596495Y-94216401D01*
X147726425Y-94030842D01*
X147781002Y-93987217D01*
X147850500Y-93980023D01*
X147912855Y-94011546D01*
X147929575Y-94030842D01*
X148059500Y-94216395D01*
X148059505Y-94216401D01*
X148226599Y-94383495D01*
X148313630Y-94444435D01*
X148420165Y-94519032D01*
X148420167Y-94519033D01*
X148420170Y-94519035D01*
X148634337Y-94618903D01*
X148634343Y-94618904D01*
X148634344Y-94618905D01*
X148689285Y-94633626D01*
X148862592Y-94680063D01*
X149039034Y-94695500D01*
X149097999Y-94700659D01*
X149098000Y-94700659D01*
X149098001Y-94700659D01*
X149156966Y-94695500D01*
X149333408Y-94680063D01*
X149561663Y-94618903D01*
X149775830Y-94519035D01*
X149969401Y-94383495D01*
X150136495Y-94216401D01*
X150272035Y-94022830D01*
X150371903Y-93808663D01*
X150433063Y-93580408D01*
X150453659Y-93345000D01*
X150433063Y-93109592D01*
X150385439Y-92931855D01*
X150371905Y-92881344D01*
X150371904Y-92881343D01*
X150371903Y-92881337D01*
X150298956Y-92724904D01*
X150288465Y-92655827D01*
X150316985Y-92592043D01*
X150375461Y-92553804D01*
X150411339Y-92548500D01*
X152068500Y-92548500D01*
X152135539Y-92568185D01*
X152181294Y-92620989D01*
X152192500Y-92672500D01*
X152192500Y-94242870D01*
X152192501Y-94242876D01*
X152198908Y-94302483D01*
X152249202Y-94437328D01*
X152249206Y-94437335D01*
X152335452Y-94552544D01*
X152335455Y-94552547D01*
X152450664Y-94638793D01*
X152450671Y-94638797D01*
X152585517Y-94689091D01*
X152585516Y-94689091D01*
X152592444Y-94689835D01*
X152645127Y-94695500D01*
X154440872Y-94695499D01*
X154500483Y-94689091D01*
X154635331Y-94638796D01*
X154750546Y-94552546D01*
X154836796Y-94437331D01*
X154885810Y-94305916D01*
X154927681Y-94249984D01*
X154993145Y-94225566D01*
X155061418Y-94240417D01*
X155089673Y-94261569D01*
X155211599Y-94383495D01*
X155298630Y-94444435D01*
X155405165Y-94519032D01*
X155405167Y-94519033D01*
X155405170Y-94519035D01*
X155619337Y-94618903D01*
X155619343Y-94618904D01*
X155619344Y-94618905D01*
X155674285Y-94633626D01*
X155847592Y-94680063D01*
X156024034Y-94695500D01*
X156082999Y-94700659D01*
X156083000Y-94700659D01*
X156083001Y-94700659D01*
X156141966Y-94695500D01*
X156318408Y-94680063D01*
X156546663Y-94618903D01*
X156760830Y-94519035D01*
X156954401Y-94383495D01*
X157121495Y-94216401D01*
X157251425Y-94030842D01*
X157306002Y-93987217D01*
X157375500Y-93980023D01*
X157437855Y-94011546D01*
X157454575Y-94030842D01*
X157584500Y-94216395D01*
X157584505Y-94216401D01*
X157751599Y-94383495D01*
X157838630Y-94444435D01*
X157945165Y-94519032D01*
X157945167Y-94519033D01*
X157945170Y-94519035D01*
X158159337Y-94618903D01*
X158159343Y-94618904D01*
X158159344Y-94618905D01*
X158214285Y-94633626D01*
X158387592Y-94680063D01*
X158564034Y-94695500D01*
X158622999Y-94700659D01*
X158623000Y-94700659D01*
X158623001Y-94700659D01*
X158681966Y-94695500D01*
X158858408Y-94680063D01*
X159086663Y-94618903D01*
X159300830Y-94519035D01*
X159494401Y-94383495D01*
X159661495Y-94216401D01*
X159797035Y-94022830D01*
X159896903Y-93808663D01*
X159958063Y-93580408D01*
X159978659Y-93345000D01*
X159958063Y-93109592D01*
X159910439Y-92931855D01*
X159896905Y-92881344D01*
X159896904Y-92881343D01*
X159896903Y-92881337D01*
X159823956Y-92724904D01*
X159813465Y-92655827D01*
X159841985Y-92592043D01*
X159900461Y-92553804D01*
X159936339Y-92548500D01*
X163616331Y-92548500D01*
X163616347Y-92548501D01*
X163623943Y-92548501D01*
X163782054Y-92548501D01*
X163782057Y-92548501D01*
X163934785Y-92507577D01*
X163993636Y-92473599D01*
X164071716Y-92428520D01*
X164183520Y-92316716D01*
X164183520Y-92316714D01*
X164193724Y-92306511D01*
X164193729Y-92306505D01*
X164345755Y-92154478D01*
X164407076Y-92120995D01*
X164476768Y-92125979D01*
X164532701Y-92167851D01*
X164557118Y-92233315D01*
X164556654Y-92256043D01*
X164548435Y-92328994D01*
X164548435Y-92329003D01*
X164568630Y-92508249D01*
X164568631Y-92508254D01*
X164628211Y-92678523D01*
X164719935Y-92824500D01*
X164724184Y-92831262D01*
X164851738Y-92958816D01*
X165004478Y-93054789D01*
X165174745Y-93114368D01*
X165261669Y-93124161D01*
X165326080Y-93151226D01*
X165335465Y-93159700D01*
X166425652Y-94249887D01*
X166459137Y-94311210D01*
X166454153Y-94380902D01*
X166412281Y-94436835D01*
X166351855Y-94460788D01*
X166317749Y-94464630D01*
X166317745Y-94464631D01*
X166147476Y-94524211D01*
X165994737Y-94620184D01*
X165867184Y-94747737D01*
X165771210Y-94900478D01*
X165711630Y-95070750D01*
X165701837Y-95157668D01*
X165674770Y-95222082D01*
X165666298Y-95231465D01*
X157045584Y-103852181D01*
X156984261Y-103885666D01*
X156957903Y-103888500D01*
X155600185Y-103888500D01*
X155533146Y-103868815D01*
X155499867Y-103837386D01*
X155452414Y-103772072D01*
X155329928Y-103649586D01*
X155246975Y-103589317D01*
X155204311Y-103533988D01*
X155198332Y-103464374D01*
X155230938Y-103402579D01*
X155246976Y-103388682D01*
X155329928Y-103328414D01*
X155452414Y-103205928D01*
X155554232Y-103065788D01*
X155632873Y-102911445D01*
X155686402Y-102746701D01*
X155713500Y-102575611D01*
X155713500Y-102402389D01*
X155686402Y-102231299D01*
X155632873Y-102066555D01*
X155554232Y-101912212D01*
X155452414Y-101772072D01*
X155329928Y-101649586D01*
X155262030Y-101600255D01*
X155246550Y-101589008D01*
X155203885Y-101533677D01*
X155197906Y-101464064D01*
X155230512Y-101402269D01*
X155246552Y-101388371D01*
X155329598Y-101328036D01*
X155452032Y-101205602D01*
X155553804Y-101065524D01*
X155632408Y-100911255D01*
X155685914Y-100746584D01*
X155687115Y-100739000D01*
X154618330Y-100739000D01*
X154638075Y-100719255D01*
X154687444Y-100633745D01*
X154713000Y-100538370D01*
X154713000Y-100439630D01*
X154687444Y-100344255D01*
X154638075Y-100258745D01*
X154618330Y-100239000D01*
X155687115Y-100239000D01*
X155687115Y-100238999D01*
X155685914Y-100231415D01*
X155632408Y-100066744D01*
X155553804Y-99912475D01*
X155452032Y-99772397D01*
X155329602Y-99649967D01*
X155189524Y-99548195D01*
X155035257Y-99469591D01*
X154870584Y-99416085D01*
X154699571Y-99389000D01*
X154588000Y-99389000D01*
X154588000Y-100208670D01*
X154568255Y-100188925D01*
X154482745Y-100139556D01*
X154387370Y-100114000D01*
X154288630Y-100114000D01*
X154193255Y-100139556D01*
X154107745Y-100188925D01*
X154088000Y-100208670D01*
X154088000Y-99389000D01*
X153976429Y-99389000D01*
X153805415Y-99416085D01*
X153640742Y-99469591D01*
X153486475Y-99548195D01*
X153346397Y-99649967D01*
X153223967Y-99772397D01*
X153122195Y-99912475D01*
X153043591Y-100066744D01*
X152990085Y-100231415D01*
X152988884Y-100238999D01*
X152988885Y-100239000D01*
X154057670Y-100239000D01*
X154037925Y-100258745D01*
X153988556Y-100344255D01*
X153963000Y-100439630D01*
X153963000Y-100538370D01*
X153988556Y-100633745D01*
X154037925Y-100719255D01*
X154057670Y-100739000D01*
X152988885Y-100739000D01*
X152990085Y-100746584D01*
X153043591Y-100911255D01*
X153122195Y-101065524D01*
X153223967Y-101205602D01*
X153346401Y-101328036D01*
X153429447Y-101388371D01*
X153472114Y-101443701D01*
X153478093Y-101513314D01*
X153445488Y-101575109D01*
X153429450Y-101589007D01*
X153346072Y-101649585D01*
X153223588Y-101772069D01*
X153223588Y-101772070D01*
X153223586Y-101772072D01*
X153121768Y-101912212D01*
X153084695Y-101984972D01*
X153043128Y-102066552D01*
X152989597Y-102231302D01*
X152968076Y-102367184D01*
X152962500Y-102402389D01*
X152962500Y-102575611D01*
X152989598Y-102746701D01*
X153043127Y-102911445D01*
X153121768Y-103065788D01*
X153223586Y-103205928D01*
X153346072Y-103328414D01*
X153363257Y-103340899D01*
X153429023Y-103388683D01*
X153471689Y-103444013D01*
X153477667Y-103513626D01*
X153445061Y-103575421D01*
X153429023Y-103589317D01*
X153346078Y-103649581D01*
X153346069Y-103649588D01*
X153223588Y-103772069D01*
X153223588Y-103772070D01*
X153223586Y-103772072D01*
X153215523Y-103783170D01*
X153121768Y-103912211D01*
X153043128Y-104066552D01*
X152989597Y-104231302D01*
X152975410Y-104320876D01*
X152962500Y-104402389D01*
X152962500Y-104575611D01*
X152989598Y-104746701D01*
X153043127Y-104911445D01*
X153121768Y-105065788D01*
X153223586Y-105205928D01*
X153346072Y-105328414D01*
X153346078Y-105328418D01*
X153429023Y-105388683D01*
X153471689Y-105444013D01*
X153477667Y-105513626D01*
X153445061Y-105575421D01*
X153429023Y-105589317D01*
X153346078Y-105649581D01*
X153346069Y-105649588D01*
X153223588Y-105772069D01*
X153223588Y-105772070D01*
X153223586Y-105772072D01*
X153207439Y-105794297D01*
X153121768Y-105912211D01*
X153043128Y-106066552D01*
X152989597Y-106231302D01*
X152967445Y-106371169D01*
X152962500Y-106402389D01*
X152962500Y-106575611D01*
X152989598Y-106746701D01*
X153043127Y-106911445D01*
X153121768Y-107065788D01*
X153223586Y-107205928D01*
X153223588Y-107205930D01*
X153331127Y-107313469D01*
X153364612Y-107374792D01*
X153359628Y-107444484D01*
X153317756Y-107500417D01*
X153308544Y-107506688D01*
X153244344Y-107546287D01*
X153120289Y-107670342D01*
X153028187Y-107819663D01*
X153028185Y-107819668D01*
X153006316Y-107885666D01*
X152973001Y-107986203D01*
X152973001Y-107986204D01*
X152973000Y-107986204D01*
X152962500Y-108088983D01*
X152962500Y-108889001D01*
X152962501Y-108889019D01*
X152973000Y-108991796D01*
X152973001Y-108991799D01*
X153028185Y-109158331D01*
X153028187Y-109158336D01*
X153063069Y-109214888D01*
X153120288Y-109307656D01*
X153244344Y-109431712D01*
X153393666Y-109523814D01*
X153560203Y-109578999D01*
X153662991Y-109589500D01*
X155013008Y-109589499D01*
X155115797Y-109578999D01*
X155282334Y-109523814D01*
X155431656Y-109431712D01*
X155555712Y-109307656D01*
X155647814Y-109158334D01*
X155647815Y-109158331D01*
X155651605Y-109152187D01*
X155653399Y-109153293D01*
X155692687Y-109108663D01*
X155758908Y-109089500D01*
X159140331Y-109089500D01*
X159140347Y-109089501D01*
X159147943Y-109089501D01*
X159306054Y-109089501D01*
X159306057Y-109089501D01*
X159458785Y-109048577D01*
X159508904Y-109019639D01*
X159595716Y-108969520D01*
X159707520Y-108857716D01*
X159707520Y-108857714D01*
X159717728Y-108847507D01*
X159717730Y-108847504D01*
X161394506Y-107170728D01*
X161394511Y-107170724D01*
X161404714Y-107160520D01*
X161404716Y-107160520D01*
X161516520Y-107048716D01*
X161595577Y-106911784D01*
X161636500Y-106759057D01*
X161636500Y-103975362D01*
X161656185Y-103908323D01*
X161672819Y-103887681D01*
X161747819Y-103812681D01*
X161809142Y-103779196D01*
X161878834Y-103784180D01*
X161934767Y-103826052D01*
X161959184Y-103891516D01*
X161959500Y-103900362D01*
X161959500Y-105704330D01*
X161959499Y-105704348D01*
X161959499Y-105870054D01*
X161959498Y-105870054D01*
X161963681Y-105885666D01*
X162000423Y-106022785D01*
X162025222Y-106065738D01*
X162079477Y-106159712D01*
X162079481Y-106159717D01*
X162198349Y-106278585D01*
X162198355Y-106278590D01*
X162773139Y-106853374D01*
X162773149Y-106853385D01*
X162777479Y-106857715D01*
X162777480Y-106857716D01*
X162889284Y-106969520D01*
X162889286Y-106969521D01*
X162946460Y-107002530D01*
X162946459Y-107002530D01*
X162946462Y-107002531D01*
X163026214Y-107048577D01*
X163086922Y-107064843D01*
X163146583Y-107101206D01*
X163155145Y-107111728D01*
X163223586Y-107205928D01*
X163223587Y-107205929D01*
X163223588Y-107205930D01*
X163331127Y-107313469D01*
X163364612Y-107374792D01*
X163359628Y-107444484D01*
X163317756Y-107500417D01*
X163308544Y-107506688D01*
X163244344Y-107546287D01*
X163120289Y-107670342D01*
X163028187Y-107819663D01*
X163028185Y-107819668D01*
X163006316Y-107885666D01*
X162973001Y-107986203D01*
X162973001Y-107986204D01*
X162973000Y-107986204D01*
X162962500Y-108088983D01*
X162962500Y-108889001D01*
X162962501Y-108889019D01*
X162973000Y-108991796D01*
X162973001Y-108991799D01*
X163028185Y-109158331D01*
X163028187Y-109158336D01*
X163063069Y-109214888D01*
X163120288Y-109307656D01*
X163244344Y-109431712D01*
X163393666Y-109523814D01*
X163560203Y-109578999D01*
X163662991Y-109589500D01*
X165013008Y-109589499D01*
X165115797Y-109578999D01*
X165282334Y-109523814D01*
X165431656Y-109431712D01*
X165555712Y-109307656D01*
X165647814Y-109158334D01*
X165702999Y-108991797D01*
X165713500Y-108889009D01*
X165713499Y-108088992D01*
X165707785Y-108033053D01*
X165720555Y-107964360D01*
X165743459Y-107932774D01*
X166855506Y-106820728D01*
X166855511Y-106820724D01*
X166865714Y-106810520D01*
X166865716Y-106810520D01*
X166977520Y-106698716D01*
X167048815Y-106575229D01*
X167056577Y-106561785D01*
X167097500Y-106409057D01*
X167097500Y-106250943D01*
X167097500Y-101674412D01*
X167117185Y-101607373D01*
X167124555Y-101597097D01*
X167126810Y-101594267D01*
X167126816Y-101594262D01*
X167222789Y-101441522D01*
X167282368Y-101271255D01*
X167287288Y-101227590D01*
X167302565Y-101092003D01*
X167302565Y-101091996D01*
X167282369Y-100912750D01*
X167282368Y-100912745D01*
X167227018Y-100754565D01*
X167222789Y-100742478D01*
X167126816Y-100589738D01*
X166999262Y-100462184D01*
X166846523Y-100366211D01*
X166676254Y-100306631D01*
X166676249Y-100306630D01*
X166497004Y-100286435D01*
X166496996Y-100286435D01*
X166317750Y-100306630D01*
X166317745Y-100306631D01*
X166147476Y-100366211D01*
X165994737Y-100462184D01*
X165867184Y-100589737D01*
X165771211Y-100742476D01*
X165711631Y-100912745D01*
X165711630Y-100912750D01*
X165691435Y-101091996D01*
X165691435Y-101092003D01*
X165711630Y-101271249D01*
X165711631Y-101271254D01*
X165771211Y-101441523D01*
X165816321Y-101513314D01*
X165855149Y-101575109D01*
X165867185Y-101594263D01*
X165869445Y-101597097D01*
X165870334Y-101599275D01*
X165870889Y-101600158D01*
X165870734Y-101600255D01*
X165895855Y-101661783D01*
X165896500Y-101674412D01*
X165896500Y-102096627D01*
X165876815Y-102163666D01*
X165824011Y-102209421D01*
X165754853Y-102219365D01*
X165691297Y-102190340D01*
X165654569Y-102134946D01*
X165632408Y-102066742D01*
X165553804Y-101912475D01*
X165452032Y-101772397D01*
X165329602Y-101649967D01*
X165189524Y-101548195D01*
X165035257Y-101469591D01*
X164870584Y-101416085D01*
X164699571Y-101389000D01*
X164470862Y-101389000D01*
X164403823Y-101369315D01*
X164358068Y-101316511D01*
X164348124Y-101247353D01*
X164377149Y-101183797D01*
X164383181Y-101177319D01*
X165456582Y-100103918D01*
X166548168Y-99012331D01*
X166609489Y-98978848D01*
X166621964Y-98976794D01*
X166623998Y-98976564D01*
X166624000Y-98976565D01*
X166722122Y-98965509D01*
X166803249Y-98956369D01*
X166803252Y-98956368D01*
X166803255Y-98956368D01*
X166973522Y-98896789D01*
X167126262Y-98800816D01*
X167253816Y-98673262D01*
X167349789Y-98520522D01*
X167409368Y-98350255D01*
X167419679Y-98258745D01*
X167429565Y-98171003D01*
X167429565Y-98170996D01*
X167409369Y-97991750D01*
X167409368Y-97991745D01*
X167387914Y-97930433D01*
X167349789Y-97821478D01*
X167253816Y-97668738D01*
X167126262Y-97541184D01*
X167105918Y-97528401D01*
X166973523Y-97445211D01*
X166803254Y-97385631D01*
X166803249Y-97385630D01*
X166624004Y-97365435D01*
X166623996Y-97365435D01*
X166444750Y-97385630D01*
X166444745Y-97385631D01*
X166274476Y-97445211D01*
X166121737Y-97541184D01*
X165994184Y-97668737D01*
X165898210Y-97821478D01*
X165838630Y-97991751D01*
X165837218Y-97997937D01*
X165804010Y-98058017D01*
X161960511Y-101901517D01*
X161948320Y-101912209D01*
X161942757Y-101916477D01*
X161886854Y-101972380D01*
X161830951Y-102028284D01*
X161830949Y-102028286D01*
X161591286Y-102267949D01*
X161591284Y-102267951D01*
X161514980Y-102344255D01*
X161475837Y-102383398D01*
X161414514Y-102416882D01*
X161344822Y-102411898D01*
X161300475Y-102383397D01*
X161284262Y-102367184D01*
X161131523Y-102271211D01*
X160961254Y-102211631D01*
X160961249Y-102211630D01*
X160782004Y-102191435D01*
X160781995Y-102191435D01*
X160709043Y-102199654D01*
X160640222Y-102187599D01*
X160588843Y-102140250D01*
X160571219Y-102072639D01*
X160592946Y-102006233D01*
X160607475Y-101988758D01*
X166515535Y-96080698D01*
X166576856Y-96047215D01*
X166589311Y-96045163D01*
X166676255Y-96035368D01*
X166846522Y-95975789D01*
X166999262Y-95879816D01*
X167126816Y-95752262D01*
X167222789Y-95599522D01*
X167282368Y-95429255D01*
X167286211Y-95395143D01*
X167313276Y-95330733D01*
X167370870Y-95291176D01*
X167440707Y-95289037D01*
X167497111Y-95321346D01*
X179256284Y-107080520D01*
X179256286Y-107080521D01*
X179256290Y-107080524D01*
X179306957Y-107109776D01*
X179393216Y-107159577D01*
X179545943Y-107200501D01*
X179545945Y-107200501D01*
X179711654Y-107200501D01*
X179711670Y-107200500D01*
X195334286Y-107200500D01*
X195400257Y-107219505D01*
X195518478Y-107293789D01*
X195617431Y-107328414D01*
X195688745Y-107353368D01*
X195688750Y-107353369D01*
X195867996Y-107373565D01*
X195868000Y-107373565D01*
X195868004Y-107373565D01*
X196047249Y-107353369D01*
X196047252Y-107353368D01*
X196047255Y-107353368D01*
X196217522Y-107293789D01*
X196370262Y-107197816D01*
X196497816Y-107070262D01*
X196593789Y-106917522D01*
X196653368Y-106747255D01*
X196653369Y-106747249D01*
X196673565Y-106568003D01*
X196673565Y-106567996D01*
X196663505Y-106478711D01*
X201449500Y-106478711D01*
X201449500Y-106721288D01*
X201474579Y-106911790D01*
X201481162Y-106961789D01*
X201508775Y-107064843D01*
X201543947Y-107196104D01*
X201636773Y-107420205D01*
X201636776Y-107420212D01*
X201758064Y-107630289D01*
X201758066Y-107630292D01*
X201758067Y-107630293D01*
X201905733Y-107822736D01*
X201905739Y-107822743D01*
X202077256Y-107994260D01*
X202077263Y-107994266D01*
X202190321Y-108081018D01*
X202269711Y-108141936D01*
X202479788Y-108263224D01*
X202703900Y-108356054D01*
X202938211Y-108418838D01*
X203118586Y-108442584D01*
X203178711Y-108450500D01*
X203178712Y-108450500D01*
X203421289Y-108450500D01*
X203469388Y-108444167D01*
X203661789Y-108418838D01*
X203896100Y-108356054D01*
X204120212Y-108263224D01*
X204330289Y-108141936D01*
X204522738Y-107994265D01*
X204694265Y-107822738D01*
X204841936Y-107630289D01*
X204963224Y-107420212D01*
X205056054Y-107196100D01*
X205118838Y-106961789D01*
X205150500Y-106721288D01*
X205150500Y-106478712D01*
X205146317Y-106446942D01*
X205118838Y-106238214D01*
X205118838Y-106238211D01*
X205056054Y-106003900D01*
X205054231Y-105999500D01*
X205024952Y-105928814D01*
X204963224Y-105779788D01*
X204841936Y-105569711D01*
X204734910Y-105430232D01*
X204694266Y-105377263D01*
X204694260Y-105377256D01*
X204522743Y-105205739D01*
X204522736Y-105205733D01*
X204330293Y-105058067D01*
X204330292Y-105058066D01*
X204330289Y-105058064D01*
X204120212Y-104936776D01*
X204120205Y-104936773D01*
X203896104Y-104843947D01*
X203661785Y-104781161D01*
X203421289Y-104749500D01*
X203421288Y-104749500D01*
X203178712Y-104749500D01*
X203178711Y-104749500D01*
X202938214Y-104781161D01*
X202703895Y-104843947D01*
X202479794Y-104936773D01*
X202479785Y-104936777D01*
X202269706Y-105058067D01*
X202077263Y-105205733D01*
X202077256Y-105205739D01*
X201905739Y-105377256D01*
X201905733Y-105377263D01*
X201758067Y-105569706D01*
X201758064Y-105569710D01*
X201758064Y-105569711D01*
X201746744Y-105589318D01*
X201636777Y-105779785D01*
X201636773Y-105779794D01*
X201543947Y-106003895D01*
X201481161Y-106238214D01*
X201449500Y-106478711D01*
X196663505Y-106478711D01*
X196653369Y-106388750D01*
X196653368Y-106388745D01*
X196614821Y-106278585D01*
X196593789Y-106218478D01*
X196497816Y-106065738D01*
X196370262Y-105938184D01*
X196328928Y-105912212D01*
X196217523Y-105842211D01*
X196047254Y-105782631D01*
X196047249Y-105782630D01*
X195868004Y-105762435D01*
X195867996Y-105762435D01*
X195688750Y-105782630D01*
X195688745Y-105782631D01*
X195518476Y-105842211D01*
X195365737Y-105938184D01*
X195340741Y-105963181D01*
X195279418Y-105996666D01*
X195253060Y-105999500D01*
X182605760Y-105999500D01*
X182538721Y-105979815D01*
X182492966Y-105927011D01*
X182483022Y-105857853D01*
X182512047Y-105794297D01*
X182527095Y-105779647D01*
X182610883Y-105710883D01*
X182661191Y-105649583D01*
X182735910Y-105558538D01*
X182819272Y-105402579D01*
X182828811Y-105384733D01*
X182828811Y-105384732D01*
X182828814Y-105384727D01*
X182886024Y-105196132D01*
X182905341Y-105000000D01*
X182886024Y-104803868D01*
X182828814Y-104615273D01*
X182828811Y-104615269D01*
X182828811Y-104615266D01*
X182735913Y-104441467D01*
X182735909Y-104441460D01*
X182610883Y-104289116D01*
X182458539Y-104164090D01*
X182458532Y-104164086D01*
X182284729Y-104071186D01*
X182256971Y-104062766D01*
X182205287Y-104031787D01*
X181736819Y-103563319D01*
X181703334Y-103501996D01*
X181700500Y-103475638D01*
X181700500Y-97311306D01*
X181700499Y-97311304D01*
X181665896Y-97137341D01*
X181665893Y-97137332D01*
X181598016Y-96973459D01*
X181598009Y-96973446D01*
X181499465Y-96825966D01*
X181445873Y-96772374D01*
X181374035Y-96700536D01*
X180568212Y-95894712D01*
X180537232Y-95843025D01*
X180528814Y-95815273D01*
X180513128Y-95785926D01*
X180435913Y-95641467D01*
X180435909Y-95641460D01*
X180310883Y-95489116D01*
X180158539Y-95364090D01*
X180158532Y-95364086D01*
X179984733Y-95271188D01*
X179984727Y-95271186D01*
X179796132Y-95213976D01*
X179796129Y-95213975D01*
X179600000Y-95194659D01*
X179403870Y-95213975D01*
X179215266Y-95271188D01*
X179041467Y-95364086D01*
X179041460Y-95364090D01*
X178889116Y-95489116D01*
X178764090Y-95641460D01*
X178764086Y-95641467D01*
X178671188Y-95815266D01*
X178613975Y-96003870D01*
X178594659Y-96200000D01*
X178613975Y-96396129D01*
X178613976Y-96396132D01*
X178666093Y-96567939D01*
X178671188Y-96584733D01*
X178764086Y-96758532D01*
X178764090Y-96758539D01*
X178889116Y-96910883D01*
X179041460Y-97035909D01*
X179041467Y-97035913D01*
X179200025Y-97120664D01*
X179215273Y-97128814D01*
X179243026Y-97137232D01*
X179294712Y-97168212D01*
X179863181Y-97736680D01*
X179896666Y-97798003D01*
X179899500Y-97824361D01*
X179899500Y-103988696D01*
X179934103Y-104162659D01*
X179934104Y-104162663D01*
X179934105Y-104162666D01*
X179951962Y-104205775D01*
X180001983Y-104326540D01*
X180001990Y-104326552D01*
X180052663Y-104402389D01*
X180052663Y-104402390D01*
X180100532Y-104474031D01*
X180100538Y-104474039D01*
X180931787Y-105305287D01*
X180962766Y-105356971D01*
X180971186Y-105384729D01*
X181064086Y-105558532D01*
X181064090Y-105558539D01*
X181189116Y-105710883D01*
X181272905Y-105779647D01*
X181312239Y-105837393D01*
X181314110Y-105907237D01*
X181277922Y-105967006D01*
X181215166Y-105997721D01*
X181194240Y-105999500D01*
X179925098Y-105999500D01*
X179858059Y-105979815D01*
X179837417Y-105963181D01*
X166184700Y-92310465D01*
X166151215Y-92249142D01*
X166149163Y-92236686D01*
X166139368Y-92149745D01*
X166079789Y-91979478D01*
X165983816Y-91826738D01*
X165856262Y-91699184D01*
X165766569Y-91642826D01*
X165703523Y-91603211D01*
X165533254Y-91543631D01*
X165533249Y-91543630D01*
X165354004Y-91523435D01*
X165353995Y-91523435D01*
X165281043Y-91531654D01*
X165212222Y-91519599D01*
X165160843Y-91472250D01*
X165143219Y-91404639D01*
X165164946Y-91338233D01*
X165179473Y-91320760D01*
X167229782Y-89270452D01*
X167291103Y-89236969D01*
X167328264Y-89234607D01*
X167386000Y-89239659D01*
X167621408Y-89219063D01*
X167849663Y-89157903D01*
X168063830Y-89058035D01*
X168257401Y-88922495D01*
X168424495Y-88755401D01*
X168560035Y-88561830D01*
X168659903Y-88347663D01*
X168721063Y-88119408D01*
X168741659Y-87884000D01*
X168721063Y-87648592D01*
X168659903Y-87420337D01*
X168560035Y-87206171D01*
X168560034Y-87206169D01*
X168424494Y-87012597D01*
X168257402Y-86845506D01*
X168257401Y-86845505D01*
X168071405Y-86715269D01*
X168027781Y-86660692D01*
X168020588Y-86591193D01*
X168052110Y-86528839D01*
X168071405Y-86512119D01*
X168257082Y-86382105D01*
X168424105Y-86215082D01*
X168559600Y-86021578D01*
X168659429Y-85807492D01*
X168659432Y-85807486D01*
X168716636Y-85594000D01*
X167819012Y-85594000D01*
X167851925Y-85536993D01*
X167886000Y-85409826D01*
X167886000Y-85278174D01*
X167851925Y-85151007D01*
X167819012Y-85094000D01*
X168716636Y-85094000D01*
X168716635Y-85093999D01*
X168659432Y-84880513D01*
X168659429Y-84880507D01*
X168559600Y-84666422D01*
X168559599Y-84666420D01*
X168424113Y-84472926D01*
X168424108Y-84472920D01*
X168257078Y-84305890D01*
X168071405Y-84175879D01*
X168027780Y-84121302D01*
X168020588Y-84051804D01*
X168052110Y-83989449D01*
X168071406Y-83972730D01*
X168115556Y-83941816D01*
X168257401Y-83842495D01*
X168424495Y-83675401D01*
X168560035Y-83481830D01*
X168659903Y-83267663D01*
X168721063Y-83039408D01*
X168741659Y-82804000D01*
X168721063Y-82568592D01*
X168659903Y-82340337D01*
X168631274Y-82278944D01*
X168620783Y-82209868D01*
X168649303Y-82146084D01*
X168707779Y-82107844D01*
X168711509Y-82106780D01*
X168760785Y-82093577D01*
X168841143Y-82047182D01*
X168897716Y-82014520D01*
X169009520Y-81902716D01*
X169009520Y-81902714D01*
X169019724Y-81892511D01*
X169019728Y-81892506D01*
X169903506Y-81008728D01*
X169903511Y-81008724D01*
X169913714Y-80998520D01*
X169913716Y-80998520D01*
X170025520Y-80886716D01*
X170086806Y-80780565D01*
X170104577Y-80749785D01*
X170145501Y-80597057D01*
X170145501Y-80438943D01*
X170145501Y-80431348D01*
X170145500Y-80431330D01*
X170145500Y-77955096D01*
X170165185Y-77888057D01*
X170181815Y-77867419D01*
X170718535Y-77330698D01*
X170779856Y-77297215D01*
X170792311Y-77295163D01*
X170879255Y-77285368D01*
X170879258Y-77285367D01*
X170942171Y-77263353D01*
X171011950Y-77259791D01*
X171072577Y-77294519D01*
X171104805Y-77356512D01*
X171106346Y-77394277D01*
X171094435Y-77499995D01*
X171094435Y-77500003D01*
X171114630Y-77679249D01*
X171114631Y-77679254D01*
X171174211Y-77849523D01*
X171270185Y-78002263D01*
X171272445Y-78005097D01*
X171273334Y-78007275D01*
X171273889Y-78008158D01*
X171273734Y-78008255D01*
X171298855Y-78069783D01*
X171299500Y-78082412D01*
X171299500Y-84113330D01*
X171299499Y-84113348D01*
X171299499Y-84279056D01*
X171300560Y-84287114D01*
X171300076Y-84287177D01*
X171302899Y-84324867D01*
X171294435Y-84399995D01*
X171294435Y-84400003D01*
X171314630Y-84579249D01*
X171314631Y-84579254D01*
X171374211Y-84749523D01*
X171463551Y-84891706D01*
X171470184Y-84902262D01*
X171597738Y-85029816D01*
X171688080Y-85086582D01*
X171699884Y-85093999D01*
X171750478Y-85125789D01*
X171892301Y-85175415D01*
X171920745Y-85185368D01*
X171920750Y-85185369D01*
X172099996Y-85205565D01*
X172100000Y-85205565D01*
X172100004Y-85205565D01*
X172279249Y-85185369D01*
X172279252Y-85185368D01*
X172279255Y-85185368D01*
X172449522Y-85125789D01*
X172602262Y-85029816D01*
X172729816Y-84902262D01*
X172825789Y-84749522D01*
X172885368Y-84579255D01*
X172885369Y-84579249D01*
X172905565Y-84400003D01*
X172905565Y-84399996D01*
X172885369Y-84220750D01*
X172885368Y-84220745D01*
X172863215Y-84157435D01*
X172825789Y-84050478D01*
X172806386Y-84019599D01*
X172729815Y-83897737D01*
X172657789Y-83825711D01*
X174298500Y-83825711D01*
X174298500Y-84068288D01*
X174330161Y-84308785D01*
X174392947Y-84543104D01*
X174478449Y-84749523D01*
X174485776Y-84767212D01*
X174607064Y-84977289D01*
X174607066Y-84977292D01*
X174607067Y-84977293D01*
X174754733Y-85169736D01*
X174754739Y-85169743D01*
X174926256Y-85341260D01*
X174926263Y-85341266D01*
X174989643Y-85389899D01*
X175118711Y-85488936D01*
X175328788Y-85610224D01*
X175552900Y-85703054D01*
X175787211Y-85765838D01*
X175967586Y-85789584D01*
X176027711Y-85797500D01*
X176027712Y-85797500D01*
X176270289Y-85797500D01*
X176318388Y-85791167D01*
X176510789Y-85765838D01*
X176745100Y-85703054D01*
X176969212Y-85610224D01*
X177179289Y-85488936D01*
X177371738Y-85341265D01*
X177543265Y-85169738D01*
X177690936Y-84977289D01*
X177812224Y-84767212D01*
X177905054Y-84543100D01*
X177967838Y-84308789D01*
X177999500Y-84068288D01*
X177999500Y-83825712D01*
X177967838Y-83585211D01*
X177905054Y-83350900D01*
X177812224Y-83126788D01*
X177690936Y-82916711D01*
X177543265Y-82724262D01*
X177543260Y-82724256D01*
X177371743Y-82552739D01*
X177371736Y-82552733D01*
X177179293Y-82405067D01*
X177179292Y-82405066D01*
X177179289Y-82405064D01*
X176969212Y-82283776D01*
X176957549Y-82278945D01*
X176745104Y-82190947D01*
X176534446Y-82134501D01*
X176510789Y-82128162D01*
X176510788Y-82128161D01*
X176510785Y-82128161D01*
X176270289Y-82096500D01*
X176270288Y-82096500D01*
X176027712Y-82096500D01*
X176027711Y-82096500D01*
X175787214Y-82128161D01*
X175552895Y-82190947D01*
X175328794Y-82283773D01*
X175328785Y-82283777D01*
X175118706Y-82405067D01*
X174926263Y-82552733D01*
X174926256Y-82552739D01*
X174754739Y-82724256D01*
X174754733Y-82724263D01*
X174607067Y-82916706D01*
X174607064Y-82916710D01*
X174607064Y-82916711D01*
X174605906Y-82918717D01*
X174485777Y-83126785D01*
X174485773Y-83126794D01*
X174392947Y-83350895D01*
X174330161Y-83585214D01*
X174298500Y-83825711D01*
X172657789Y-83825711D01*
X172602261Y-83770183D01*
X172558528Y-83742704D01*
X172512237Y-83690370D01*
X172500500Y-83637710D01*
X172500500Y-78082412D01*
X172520185Y-78015373D01*
X172527555Y-78005097D01*
X172529810Y-78002267D01*
X172529816Y-78002262D01*
X172625789Y-77849522D01*
X172685368Y-77679255D01*
X172685369Y-77679249D01*
X172705565Y-77500003D01*
X172705565Y-77499996D01*
X172685369Y-77320750D01*
X172685368Y-77320745D01*
X172640539Y-77192631D01*
X172625789Y-77150478D01*
X172529816Y-76997738D01*
X172529814Y-76997736D01*
X172529813Y-76997734D01*
X172527550Y-76994896D01*
X172526659Y-76992715D01*
X172526111Y-76991842D01*
X172526264Y-76991745D01*
X172501144Y-76930209D01*
X172500500Y-76917587D01*
X172500500Y-70824499D01*
X172520185Y-70757460D01*
X172572989Y-70711705D01*
X172624500Y-70700499D01*
X172747871Y-70700499D01*
X172747872Y-70700499D01*
X172807483Y-70694091D01*
X172942331Y-70643796D01*
X173057546Y-70557546D01*
X173143796Y-70442331D01*
X173194091Y-70307483D01*
X173200500Y-70247873D01*
X173200499Y-69399998D01*
X174594532Y-69399998D01*
X174594532Y-69400001D01*
X174614364Y-69626686D01*
X174614366Y-69626697D01*
X174673258Y-69846488D01*
X174673261Y-69846497D01*
X174769431Y-70052732D01*
X174769432Y-70052734D01*
X174899954Y-70239141D01*
X175060858Y-70400045D01*
X175060861Y-70400047D01*
X175247266Y-70530568D01*
X175453504Y-70626739D01*
X175673308Y-70685635D01*
X175835230Y-70699801D01*
X175899998Y-70705468D01*
X175900000Y-70705468D01*
X175900002Y-70705468D01*
X175956807Y-70700498D01*
X176126692Y-70685635D01*
X176346496Y-70626739D01*
X176552734Y-70530568D01*
X176739139Y-70400047D01*
X176900047Y-70239139D01*
X177030568Y-70052734D01*
X177126739Y-69846496D01*
X177185635Y-69626692D01*
X177205468Y-69400000D01*
X177185635Y-69173308D01*
X177126739Y-68953504D01*
X177030568Y-68747266D01*
X176900047Y-68560861D01*
X176900045Y-68560858D01*
X176739141Y-68399954D01*
X176552734Y-68269432D01*
X176552732Y-68269431D01*
X176346497Y-68173261D01*
X176346488Y-68173258D01*
X176126697Y-68114366D01*
X176126693Y-68114365D01*
X176126692Y-68114365D01*
X176126691Y-68114364D01*
X176126686Y-68114364D01*
X175900002Y-68094532D01*
X175899998Y-68094532D01*
X175673313Y-68114364D01*
X175673302Y-68114366D01*
X175453511Y-68173258D01*
X175453502Y-68173261D01*
X175247267Y-68269431D01*
X175247265Y-68269432D01*
X175060858Y-68399954D01*
X174899954Y-68560858D01*
X174769432Y-68747265D01*
X174769431Y-68747267D01*
X174673261Y-68953502D01*
X174673258Y-68953511D01*
X174614366Y-69173302D01*
X174614364Y-69173313D01*
X174594532Y-69399998D01*
X173200499Y-69399998D01*
X173200499Y-68552128D01*
X173194091Y-68492517D01*
X173186286Y-68471592D01*
X173143797Y-68357671D01*
X173143793Y-68357664D01*
X173057547Y-68242455D01*
X173057544Y-68242452D01*
X172942335Y-68156206D01*
X172942328Y-68156202D01*
X172807482Y-68105908D01*
X172807483Y-68105908D01*
X172747883Y-68099501D01*
X172747881Y-68099500D01*
X172747873Y-68099500D01*
X172747864Y-68099500D01*
X171052129Y-68099500D01*
X171052123Y-68099501D01*
X170992516Y-68105908D01*
X170857671Y-68156202D01*
X170857664Y-68156206D01*
X170742455Y-68242452D01*
X170742452Y-68242455D01*
X170656206Y-68357664D01*
X170656202Y-68357671D01*
X170605908Y-68492517D01*
X170599501Y-68552116D01*
X170599501Y-68552123D01*
X170599500Y-68552135D01*
X170599500Y-70247870D01*
X170599501Y-70247876D01*
X170605908Y-70307483D01*
X170656202Y-70442328D01*
X170656206Y-70442335D01*
X170742452Y-70557544D01*
X170742455Y-70557547D01*
X170857664Y-70643793D01*
X170857671Y-70643797D01*
X170902618Y-70660561D01*
X170992517Y-70694091D01*
X171052127Y-70700500D01*
X171175500Y-70700499D01*
X171242539Y-70720183D01*
X171288294Y-70772987D01*
X171299500Y-70824499D01*
X171299500Y-75706921D01*
X171279815Y-75773960D01*
X171227011Y-75819715D01*
X171157853Y-75829659D01*
X171109528Y-75811915D01*
X171049523Y-75774211D01*
X170879254Y-75714631D01*
X170879249Y-75714630D01*
X170700004Y-75694435D01*
X170699996Y-75694435D01*
X170520750Y-75714630D01*
X170520745Y-75714631D01*
X170350476Y-75774211D01*
X170197737Y-75870184D01*
X170070184Y-75997737D01*
X169974210Y-76150478D01*
X169914630Y-76320750D01*
X169904837Y-76407668D01*
X169877770Y-76472082D01*
X169869298Y-76481465D01*
X169176286Y-77174478D01*
X169064481Y-77286282D01*
X169064479Y-77286285D01*
X169059355Y-77295160D01*
X169019182Y-77364743D01*
X168985423Y-77423215D01*
X168944499Y-77575943D01*
X168944499Y-77575945D01*
X168944499Y-77744046D01*
X168944500Y-77744059D01*
X168944500Y-79194082D01*
X168924815Y-79261121D01*
X168872011Y-79306876D01*
X168802853Y-79316820D01*
X168739297Y-79287795D01*
X168704318Y-79237415D01*
X168679797Y-79171671D01*
X168679793Y-79171664D01*
X168593547Y-79056455D01*
X168593544Y-79056452D01*
X168478335Y-78970206D01*
X168478328Y-78970202D01*
X168343482Y-78919908D01*
X168343483Y-78919908D01*
X168283883Y-78913501D01*
X168283881Y-78913500D01*
X168283873Y-78913500D01*
X168283864Y-78913500D01*
X166488129Y-78913500D01*
X166488123Y-78913501D01*
X166428516Y-78919908D01*
X166293671Y-78970202D01*
X166293664Y-78970206D01*
X166178455Y-79056452D01*
X166178452Y-79056455D01*
X166092206Y-79171664D01*
X166092202Y-79171671D01*
X166041908Y-79306517D01*
X166035501Y-79366116D01*
X166035500Y-79366135D01*
X166035500Y-79539500D01*
X166015815Y-79606539D01*
X165963011Y-79652294D01*
X165911500Y-79663500D01*
X159812097Y-79663500D01*
X159745058Y-79643815D01*
X159724416Y-79627181D01*
X158056700Y-77959465D01*
X158023215Y-77898142D01*
X158021163Y-77885686D01*
X158011368Y-77798745D01*
X157951789Y-77628478D01*
X157855816Y-77475738D01*
X157728262Y-77348184D01*
X157575523Y-77252211D01*
X157405254Y-77192631D01*
X157405249Y-77192630D01*
X157226004Y-77172435D01*
X157225996Y-77172435D01*
X157046750Y-77192630D01*
X157046745Y-77192631D01*
X156876476Y-77252211D01*
X156723737Y-77348184D01*
X156596184Y-77475737D01*
X156500210Y-77628478D01*
X156477697Y-77692819D01*
X156459416Y-77745065D01*
X156455096Y-77757410D01*
X156414374Y-77814186D01*
X156349422Y-77839934D01*
X156280860Y-77826478D01*
X156250373Y-77804137D01*
X154919591Y-76473355D01*
X154919589Y-76473352D01*
X154800718Y-76354481D01*
X154800717Y-76354480D01*
X154713905Y-76304360D01*
X154713905Y-76304359D01*
X154713901Y-76304358D01*
X154663786Y-76275423D01*
X154511058Y-76234499D01*
X154352944Y-76234499D01*
X154345348Y-76234499D01*
X154345332Y-76234500D01*
X151216670Y-76234500D01*
X151216654Y-76234499D01*
X151209058Y-76234499D01*
X151050943Y-76234499D01*
X150974579Y-76254961D01*
X150898214Y-76275423D01*
X150898209Y-76275426D01*
X150761290Y-76354475D01*
X150761282Y-76354481D01*
X149460465Y-77655298D01*
X149399142Y-77688783D01*
X149386668Y-77690837D01*
X149299750Y-77700630D01*
X149129478Y-77760210D01*
X148976737Y-77856184D01*
X148849184Y-77983737D01*
X148753211Y-78136476D01*
X148693631Y-78306745D01*
X148693630Y-78306750D01*
X148673435Y-78485996D01*
X148673435Y-78486003D01*
X148693630Y-78665249D01*
X148693631Y-78665254D01*
X148753211Y-78835523D01*
X148755097Y-78838524D01*
X148755723Y-78840741D01*
X148756231Y-78841795D01*
X148756046Y-78841883D01*
X148774100Y-78905760D01*
X148753735Y-78972596D01*
X148700469Y-79017812D01*
X148650106Y-79028500D01*
X145882669Y-79028500D01*
X145882653Y-79028499D01*
X145875057Y-79028499D01*
X145716943Y-79028499D01*
X145609587Y-79057265D01*
X145564210Y-79069424D01*
X145564209Y-79069425D01*
X145515357Y-79097631D01*
X145515356Y-79097632D01*
X145472378Y-79122445D01*
X145427285Y-79148479D01*
X145427282Y-79148481D01*
X140108481Y-84467282D01*
X140108479Y-84467285D01*
X140073156Y-84528468D01*
X140073155Y-84528470D01*
X140029423Y-84604214D01*
X140029423Y-84604215D01*
X139988499Y-84756943D01*
X139988499Y-84756945D01*
X139988499Y-84925046D01*
X139988500Y-84925059D01*
X139988500Y-88317587D01*
X139968815Y-88384626D01*
X139961450Y-88394896D01*
X139959186Y-88397734D01*
X139863211Y-88550476D01*
X139803631Y-88720745D01*
X139803630Y-88720750D01*
X139783435Y-88899996D01*
X139783435Y-88900003D01*
X139803630Y-89079249D01*
X139803631Y-89079254D01*
X139863211Y-89249523D01*
X139959185Y-89402263D01*
X139961445Y-89405097D01*
X139962334Y-89407275D01*
X139962889Y-89408158D01*
X139962734Y-89408255D01*
X139987855Y-89469783D01*
X139988500Y-89482412D01*
X139988500Y-100653330D01*
X139988499Y-100653348D01*
X139988499Y-100819054D01*
X139988498Y-100819054D01*
X140013203Y-100911255D01*
X140029423Y-100971785D01*
X140053186Y-101012943D01*
X140098827Y-101091996D01*
X140108479Y-101108714D01*
X140108481Y-101108717D01*
X140227349Y-101227585D01*
X140227355Y-101227590D01*
X142995083Y-103995319D01*
X143028568Y-104056642D01*
X143025333Y-104121318D01*
X142989597Y-104231301D01*
X142966693Y-104375914D01*
X142962500Y-104402389D01*
X142962500Y-104575611D01*
X142989598Y-104746701D01*
X143043127Y-104911445D01*
X143121768Y-105065788D01*
X143223586Y-105205928D01*
X143346072Y-105328414D01*
X143346078Y-105328418D01*
X143429023Y-105388683D01*
X143471689Y-105444013D01*
X143477667Y-105513626D01*
X143445061Y-105575421D01*
X143429023Y-105589317D01*
X143346078Y-105649581D01*
X143346075Y-105649583D01*
X143243476Y-105752182D01*
X143182153Y-105785666D01*
X143155795Y-105788500D01*
X128166519Y-105788500D01*
X128099480Y-105768815D01*
X128078838Y-105752181D01*
X125657819Y-103331162D01*
X125624334Y-103269839D01*
X125621500Y-103243481D01*
X125621500Y-97879711D01*
X125641185Y-97812672D01*
X125674377Y-97778136D01*
X125792401Y-97695495D01*
X125959495Y-97528401D01*
X126095035Y-97334830D01*
X126194903Y-97120663D01*
X126256063Y-96892408D01*
X126276659Y-96657000D01*
X126256063Y-96421592D01*
X126194903Y-96193337D01*
X126095035Y-95979171D01*
X126089999Y-95971978D01*
X125959494Y-95785597D01*
X125792402Y-95618506D01*
X125792396Y-95618501D01*
X125606842Y-95488575D01*
X125563217Y-95433998D01*
X125556023Y-95364500D01*
X125587546Y-95302145D01*
X125606842Y-95285425D01*
X125657434Y-95250000D01*
X125792401Y-95155495D01*
X125959495Y-94988401D01*
X126095035Y-94794830D01*
X126194903Y-94580663D01*
X126256063Y-94352408D01*
X126276659Y-94117000D01*
X126256063Y-93881592D01*
X126194903Y-93653337D01*
X126095035Y-93439171D01*
X126089999Y-93431978D01*
X125959494Y-93245597D01*
X125792402Y-93078506D01*
X125792396Y-93078501D01*
X125606842Y-92948575D01*
X125563217Y-92893998D01*
X125556023Y-92824500D01*
X125587546Y-92762145D01*
X125606842Y-92745425D01*
X125671234Y-92700337D01*
X125792401Y-92615495D01*
X125959495Y-92448401D01*
X126095035Y-92254830D01*
X126194903Y-92040663D01*
X126256063Y-91812408D01*
X126276659Y-91577000D01*
X126256063Y-91341592D01*
X126194903Y-91113337D01*
X126095035Y-90899171D01*
X126089998Y-90891978D01*
X125959496Y-90705600D01*
X125937633Y-90683737D01*
X125837567Y-90583671D01*
X125804084Y-90522351D01*
X125809068Y-90452659D01*
X125850939Y-90396725D01*
X125881915Y-90379810D01*
X126013331Y-90330796D01*
X126128546Y-90244546D01*
X126214796Y-90129331D01*
X126265091Y-89994483D01*
X126271500Y-89934873D01*
X126271499Y-88139128D01*
X126265091Y-88079517D01*
X126261361Y-88069517D01*
X126214797Y-87944671D01*
X126214793Y-87944664D01*
X126128547Y-87829455D01*
X126128544Y-87829452D01*
X126013335Y-87743206D01*
X126013328Y-87743202D01*
X125878482Y-87692908D01*
X125878483Y-87692908D01*
X125818883Y-87686501D01*
X125818881Y-87686500D01*
X125818873Y-87686500D01*
X125818864Y-87686500D01*
X124023129Y-87686500D01*
X124023123Y-87686501D01*
X123963516Y-87692908D01*
X123828671Y-87743202D01*
X123828664Y-87743206D01*
X123713455Y-87829452D01*
X123713452Y-87829455D01*
X123627206Y-87944664D01*
X123627202Y-87944671D01*
X123576908Y-88079517D01*
X123571576Y-88129116D01*
X123570501Y-88139123D01*
X123570500Y-88139135D01*
X123570500Y-89934870D01*
X123570501Y-89934876D01*
X123576908Y-89994483D01*
X123627202Y-90129328D01*
X123627206Y-90129335D01*
X123713452Y-90244544D01*
X123713455Y-90244547D01*
X123828664Y-90330793D01*
X123828671Y-90330797D01*
X123960081Y-90379810D01*
X124016015Y-90421681D01*
X124040432Y-90487145D01*
X124025580Y-90555418D01*
X124004430Y-90583673D01*
X123882503Y-90705600D01*
X123746965Y-90899169D01*
X123746964Y-90899171D01*
X123647098Y-91113335D01*
X123647094Y-91113344D01*
X123585938Y-91341586D01*
X123585936Y-91341596D01*
X123565341Y-91576999D01*
X122420500Y-91576999D01*
X122420500Y-72723920D01*
X125349499Y-72723920D01*
X125378340Y-72868907D01*
X125378343Y-72868917D01*
X125434912Y-73005488D01*
X125434919Y-73005501D01*
X125517048Y-73128415D01*
X125517051Y-73128419D01*
X125621580Y-73232948D01*
X125621584Y-73232951D01*
X125744498Y-73315080D01*
X125744511Y-73315087D01*
X125881082Y-73371656D01*
X125881087Y-73371658D01*
X125881091Y-73371658D01*
X125881092Y-73371659D01*
X126026079Y-73400500D01*
X126026082Y-73400500D01*
X126173920Y-73400500D01*
X126271462Y-73381096D01*
X126318913Y-73371658D01*
X126455495Y-73315084D01*
X126578416Y-73232951D01*
X126682951Y-73128416D01*
X126765084Y-73005495D01*
X126821658Y-72868913D01*
X126836501Y-72794294D01*
X126850500Y-72723920D01*
X126850500Y-72576079D01*
X126821659Y-72431092D01*
X126821658Y-72431091D01*
X126821658Y-72431087D01*
X126802492Y-72384815D01*
X126765087Y-72294511D01*
X126765080Y-72294498D01*
X126682951Y-72171584D01*
X126682948Y-72171580D01*
X126578419Y-72067051D01*
X126578415Y-72067048D01*
X126455501Y-71984919D01*
X126455488Y-71984912D01*
X126318917Y-71928343D01*
X126318907Y-71928340D01*
X126173920Y-71899500D01*
X126173918Y-71899500D01*
X126026082Y-71899500D01*
X126026080Y-71899500D01*
X125881092Y-71928340D01*
X125881082Y-71928343D01*
X125744511Y-71984912D01*
X125744498Y-71984919D01*
X125621584Y-72067048D01*
X125621580Y-72067051D01*
X125517051Y-72171580D01*
X125517048Y-72171584D01*
X125434919Y-72294498D01*
X125434912Y-72294511D01*
X125378343Y-72431082D01*
X125378340Y-72431092D01*
X125349500Y-72576079D01*
X125349500Y-72576082D01*
X125349500Y-72723918D01*
X125349500Y-72723920D01*
X125349499Y-72723920D01*
X122420500Y-72723920D01*
X122420500Y-64723920D01*
X125349499Y-64723920D01*
X125378340Y-64868907D01*
X125378343Y-64868917D01*
X125434912Y-65005488D01*
X125434919Y-65005501D01*
X125517048Y-65128415D01*
X125517051Y-65128419D01*
X125621580Y-65232948D01*
X125621584Y-65232951D01*
X125744498Y-65315080D01*
X125744511Y-65315087D01*
X125881082Y-65371656D01*
X125881087Y-65371658D01*
X125881091Y-65371658D01*
X125881092Y-65371659D01*
X126026079Y-65400500D01*
X126026082Y-65400500D01*
X126173920Y-65400500D01*
X126271462Y-65381096D01*
X126318913Y-65371658D01*
X126455495Y-65315084D01*
X126578416Y-65232951D01*
X126682951Y-65128416D01*
X126765084Y-65005495D01*
X126821658Y-64868913D01*
X126834770Y-64802995D01*
X126850500Y-64723920D01*
X126850500Y-64576079D01*
X126821659Y-64431092D01*
X126821658Y-64431091D01*
X126821658Y-64431087D01*
X126813427Y-64411215D01*
X126765087Y-64294511D01*
X126765080Y-64294498D01*
X126682951Y-64171584D01*
X126682948Y-64171580D01*
X126578419Y-64067051D01*
X126578415Y-64067048D01*
X126455501Y-63984919D01*
X126455488Y-63984912D01*
X126318917Y-63928343D01*
X126318907Y-63928340D01*
X126173920Y-63899500D01*
X126173918Y-63899500D01*
X126026082Y-63899500D01*
X126026080Y-63899500D01*
X125881092Y-63928340D01*
X125881082Y-63928343D01*
X125744511Y-63984912D01*
X125744498Y-63984919D01*
X125621584Y-64067048D01*
X125621580Y-64067051D01*
X125517051Y-64171580D01*
X125517048Y-64171584D01*
X125434919Y-64294498D01*
X125434912Y-64294511D01*
X125378343Y-64431082D01*
X125378340Y-64431092D01*
X125349500Y-64576079D01*
X125349500Y-64576082D01*
X125349500Y-64723918D01*
X125349500Y-64723920D01*
X125349499Y-64723920D01*
X122420500Y-64723920D01*
X122420500Y-47624996D01*
X123273435Y-47624996D01*
X123273435Y-47625003D01*
X123293630Y-47804249D01*
X123293631Y-47804254D01*
X123353211Y-47974523D01*
X123427999Y-48093546D01*
X123449184Y-48127262D01*
X123576738Y-48254816D01*
X123729478Y-48350789D01*
X123832963Y-48387000D01*
X123899745Y-48410368D01*
X123899750Y-48410369D01*
X124078996Y-48430565D01*
X124079000Y-48430565D01*
X124079004Y-48430565D01*
X124258249Y-48410369D01*
X124258252Y-48410368D01*
X124258255Y-48410368D01*
X124428522Y-48350789D01*
X124581262Y-48254816D01*
X124708816Y-48127262D01*
X124804789Y-47974522D01*
X124864368Y-47804255D01*
X124874161Y-47717329D01*
X124901226Y-47652918D01*
X124909690Y-47643543D01*
X125815416Y-46737819D01*
X125876739Y-46704334D01*
X125903097Y-46701500D01*
X126920943Y-46701500D01*
X149940903Y-46701500D01*
X150007942Y-46721185D01*
X150028584Y-46737819D01*
X150735057Y-47444292D01*
X150768542Y-47505615D01*
X150763558Y-47575307D01*
X150721686Y-47631240D01*
X150688332Y-47649014D01*
X150653479Y-47661209D01*
X150500737Y-47757184D01*
X150373184Y-47884737D01*
X150277211Y-48037476D01*
X150217631Y-48207745D01*
X150217630Y-48207749D01*
X150197610Y-48385437D01*
X150170543Y-48449851D01*
X150112948Y-48489406D01*
X150046214Y-48491448D01*
X150046047Y-48492182D01*
X150043230Y-48491539D01*
X150043111Y-48491543D01*
X150042703Y-48491418D01*
X150039249Y-48490630D01*
X149860004Y-48470435D01*
X149859996Y-48470435D01*
X149680750Y-48490630D01*
X149680745Y-48490631D01*
X149510476Y-48550211D01*
X149357737Y-48646184D01*
X149230184Y-48773737D01*
X149134211Y-48926476D01*
X149074631Y-49096745D01*
X149074630Y-49096750D01*
X149054435Y-49275996D01*
X149054435Y-49276003D01*
X149074630Y-49455249D01*
X149074631Y-49455254D01*
X149134211Y-49625523D01*
X149230185Y-49778263D01*
X149232445Y-49781097D01*
X149233334Y-49783275D01*
X149233889Y-49784158D01*
X149233734Y-49784255D01*
X149258855Y-49845783D01*
X149259500Y-49858412D01*
X149259500Y-50260734D01*
X149239815Y-50327773D01*
X149187011Y-50373528D01*
X149149384Y-50383954D01*
X149045749Y-50395630D01*
X149045745Y-50395631D01*
X148875476Y-50455211D01*
X148722737Y-50551184D01*
X148595184Y-50678737D01*
X148499210Y-50831478D01*
X148439630Y-51001750D01*
X148429837Y-51088668D01*
X148402770Y-51153082D01*
X148394298Y-51162465D01*
X146675115Y-52881648D01*
X146613792Y-52915133D01*
X146573550Y-52917187D01*
X146558001Y-52915435D01*
X146557996Y-52915435D01*
X146378750Y-52935630D01*
X146378745Y-52935631D01*
X146208476Y-52995211D01*
X146055737Y-53091184D01*
X145928184Y-53218737D01*
X145832211Y-53371476D01*
X145772631Y-53541745D01*
X145772630Y-53541749D01*
X145768788Y-53575855D01*
X145741721Y-53640269D01*
X145684126Y-53679824D01*
X145614289Y-53681961D01*
X145557887Y-53649652D01*
X144251590Y-52343355D01*
X144251588Y-52343352D01*
X144132717Y-52224481D01*
X144132716Y-52224480D01*
X144045904Y-52174360D01*
X144045904Y-52174359D01*
X144045900Y-52174358D01*
X143995785Y-52145423D01*
X143843057Y-52104499D01*
X143684943Y-52104499D01*
X143677347Y-52104499D01*
X143677331Y-52104500D01*
X141143097Y-52104500D01*
X141076058Y-52084815D01*
X141055416Y-52068181D01*
X140530700Y-51543465D01*
X140497215Y-51482142D01*
X140495163Y-51469686D01*
X140485368Y-51382745D01*
X140425789Y-51212478D01*
X140329816Y-51059738D01*
X140202262Y-50932184D01*
X140189022Y-50923865D01*
X140049523Y-50836211D01*
X139879254Y-50776631D01*
X139879249Y-50776630D01*
X139700004Y-50756435D01*
X139699996Y-50756435D01*
X139520750Y-50776630D01*
X139520745Y-50776631D01*
X139350476Y-50836211D01*
X139197737Y-50932184D01*
X139070184Y-51059737D01*
X138974211Y-51212476D01*
X138914631Y-51382745D01*
X138914630Y-51382750D01*
X138894435Y-51561996D01*
X138894435Y-51562003D01*
X138914630Y-51741249D01*
X138914631Y-51741254D01*
X138974211Y-51911523D01*
X139070184Y-52064262D01*
X139197738Y-52191816D01*
X139350478Y-52287789D01*
X139520745Y-52347368D01*
X139607669Y-52357161D01*
X139672080Y-52384226D01*
X139681465Y-52392700D01*
X139686057Y-52397292D01*
X139719542Y-52458615D01*
X139714558Y-52528307D01*
X139672686Y-52584240D01*
X139639332Y-52602014D01*
X139604479Y-52614209D01*
X139451737Y-52710184D01*
X139324184Y-52837737D01*
X139228211Y-52990476D01*
X139168631Y-53160745D01*
X139168630Y-53160750D01*
X139148435Y-53339996D01*
X139148435Y-53340003D01*
X139168630Y-53519249D01*
X139168631Y-53519254D01*
X139228211Y-53689523D01*
X139310523Y-53820521D01*
X139324184Y-53842262D01*
X139451738Y-53969816D01*
X139604478Y-54065789D01*
X139707952Y-54101996D01*
X139774745Y-54125368D01*
X139774750Y-54125369D01*
X139953996Y-54145565D01*
X139954000Y-54145565D01*
X139954004Y-54145565D01*
X140133249Y-54125369D01*
X140133252Y-54125368D01*
X140133255Y-54125368D01*
X140303522Y-54065789D01*
X140456262Y-53969816D01*
X140456267Y-53969810D01*
X140459097Y-53967555D01*
X140461275Y-53966665D01*
X140462158Y-53966111D01*
X140462255Y-53966265D01*
X140523783Y-53941145D01*
X140536412Y-53940500D01*
X143336903Y-53940500D01*
X143403942Y-53960185D01*
X143424584Y-53976819D01*
X146132161Y-56684397D01*
X146165646Y-56745720D01*
X146160662Y-56815412D01*
X146132163Y-56859757D01*
X146090185Y-56901735D01*
X146090184Y-56901737D01*
X145994211Y-57054476D01*
X145934631Y-57224745D01*
X145934630Y-57224750D01*
X145914435Y-57403996D01*
X145914435Y-57404003D01*
X145934630Y-57583249D01*
X145934631Y-57583254D01*
X145994211Y-57753523D01*
X146090184Y-57906262D01*
X146140181Y-57956259D01*
X146173666Y-58017582D01*
X146176500Y-58043940D01*
X146176500Y-61821677D01*
X146156815Y-61888716D01*
X146104011Y-61934471D01*
X146066384Y-61944897D01*
X145997750Y-61952630D01*
X145827478Y-62012210D01*
X145674737Y-62108184D01*
X145547184Y-62235737D01*
X145451211Y-62388476D01*
X145391631Y-62558745D01*
X145391630Y-62558750D01*
X145371435Y-62737996D01*
X145371435Y-62738003D01*
X145391630Y-62917246D01*
X145391631Y-62917251D01*
X145391631Y-62917253D01*
X145391632Y-62917255D01*
X145442542Y-63062747D01*
X145449500Y-63103701D01*
X145449500Y-64239184D01*
X145429815Y-64306223D01*
X145377011Y-64351978D01*
X145311617Y-64362404D01*
X145161004Y-64345435D01*
X145160996Y-64345435D01*
X144981750Y-64365630D01*
X144981745Y-64365631D01*
X144811476Y-64425211D01*
X144658736Y-64521185D01*
X144655903Y-64523445D01*
X144653724Y-64524334D01*
X144652842Y-64524889D01*
X144652744Y-64524734D01*
X144591217Y-64549855D01*
X144578588Y-64550500D01*
X144084894Y-64550500D01*
X144017855Y-64530815D01*
X143972100Y-64478011D01*
X143962156Y-64408853D01*
X143979903Y-64360524D01*
X143981788Y-64357523D01*
X143981789Y-64357522D01*
X144041368Y-64187255D01*
X144041369Y-64187249D01*
X144061565Y-64008003D01*
X144061565Y-64007996D01*
X144041369Y-63828750D01*
X144041368Y-63828745D01*
X144026228Y-63785478D01*
X143981789Y-63658478D01*
X143965615Y-63632738D01*
X143900945Y-63529816D01*
X143885816Y-63505738D01*
X143885814Y-63505736D01*
X143885813Y-63505734D01*
X143883550Y-63502896D01*
X143882659Y-63500715D01*
X143882111Y-63499842D01*
X143882264Y-63499745D01*
X143857144Y-63438209D01*
X143856500Y-63425587D01*
X143856500Y-57070944D01*
X143856500Y-57070943D01*
X143856147Y-57069627D01*
X143834964Y-56990570D01*
X143815577Y-56918216D01*
X143806062Y-56901735D01*
X143736524Y-56781290D01*
X143736521Y-56781286D01*
X143736520Y-56781284D01*
X143624716Y-56669480D01*
X143624715Y-56669479D01*
X143620385Y-56665149D01*
X143620374Y-56665139D01*
X143235590Y-56280355D01*
X143235588Y-56280352D01*
X143116717Y-56161481D01*
X143116716Y-56161480D01*
X143028644Y-56110632D01*
X143028643Y-56110631D01*
X142979790Y-56082425D01*
X142979789Y-56082424D01*
X142949138Y-56074211D01*
X142827057Y-56041499D01*
X142668943Y-56041499D01*
X142661347Y-56041499D01*
X142661331Y-56041500D01*
X139112942Y-56041500D01*
X138960209Y-56082424D01*
X138958108Y-56083295D01*
X138924551Y-56091949D01*
X138758749Y-56110630D01*
X138758745Y-56110631D01*
X138588476Y-56170211D01*
X138435737Y-56266184D01*
X138308184Y-56393737D01*
X138212211Y-56546476D01*
X138152631Y-56716745D01*
X138152630Y-56716750D01*
X138132435Y-56895996D01*
X138132435Y-56896003D01*
X138152630Y-57075249D01*
X138152631Y-57075254D01*
X138212211Y-57245523D01*
X138262115Y-57324944D01*
X138308184Y-57398262D01*
X138435738Y-57525816D01*
X138444964Y-57531613D01*
X138562657Y-57605565D01*
X138588478Y-57621789D01*
X138758745Y-57681368D01*
X138758750Y-57681369D01*
X138937996Y-57701565D01*
X138938000Y-57701565D01*
X138938004Y-57701565D01*
X139117249Y-57681369D01*
X139117252Y-57681368D01*
X139117255Y-57681368D01*
X139287522Y-57621789D01*
X139440262Y-57525816D01*
X139567816Y-57398262D01*
X139629226Y-57300527D01*
X139681561Y-57254237D01*
X139734220Y-57242500D01*
X139873724Y-57242500D01*
X139940763Y-57262185D01*
X139986518Y-57314989D01*
X139996944Y-57380384D01*
X139988219Y-57457816D01*
X139961152Y-57522230D01*
X139952680Y-57531613D01*
X133231286Y-64253008D01*
X133209681Y-64274613D01*
X133148358Y-64308098D01*
X133078666Y-64303114D01*
X133022733Y-64261242D01*
X132998316Y-64195778D01*
X132998000Y-64186932D01*
X132998000Y-62128559D01*
X132998001Y-62128546D01*
X132998001Y-61960445D01*
X132998001Y-61960443D01*
X132957077Y-61807715D01*
X132924805Y-61751818D01*
X132878020Y-61670784D01*
X132766216Y-61558980D01*
X132766215Y-61558979D01*
X132761885Y-61554649D01*
X132761874Y-61554639D01*
X132440590Y-61233355D01*
X132440588Y-61233352D01*
X132321717Y-61114481D01*
X132321709Y-61114475D01*
X132219936Y-61055717D01*
X132219934Y-61055716D01*
X132184790Y-61035425D01*
X132184789Y-61035424D01*
X132157877Y-61028213D01*
X132032057Y-60994499D01*
X131873943Y-60994499D01*
X131866347Y-60994499D01*
X131866331Y-60994500D01*
X129741412Y-60994500D01*
X129674373Y-60974815D01*
X129664097Y-60967445D01*
X129661263Y-60965185D01*
X129661262Y-60965184D01*
X129508524Y-60869212D01*
X129508525Y-60869212D01*
X129461543Y-60852772D01*
X129404768Y-60812049D01*
X129379022Y-60747096D01*
X129378500Y-60735731D01*
X129378500Y-55827412D01*
X129398185Y-55760373D01*
X129405555Y-55750097D01*
X129407810Y-55747267D01*
X129407816Y-55747262D01*
X129503789Y-55594522D01*
X129563368Y-55424255D01*
X129568609Y-55377738D01*
X129583565Y-55245003D01*
X129583565Y-55244996D01*
X129563369Y-55065750D01*
X129563368Y-55065745D01*
X129503789Y-54895478D01*
X129407816Y-54742738D01*
X129280262Y-54615184D01*
X129262880Y-54604262D01*
X129127523Y-54519211D01*
X128957254Y-54459631D01*
X128957249Y-54459630D01*
X128778004Y-54439435D01*
X128777996Y-54439435D01*
X128598750Y-54459630D01*
X128598745Y-54459631D01*
X128428476Y-54519211D01*
X128275737Y-54615184D01*
X128148184Y-54742737D01*
X128052211Y-54895476D01*
X127992631Y-55065745D01*
X127992630Y-55065750D01*
X127972435Y-55244996D01*
X127972435Y-55245003D01*
X127992630Y-55424249D01*
X127992631Y-55424254D01*
X128052211Y-55594523D01*
X128148185Y-55747263D01*
X128150445Y-55750097D01*
X128151334Y-55752275D01*
X128151889Y-55753158D01*
X128151734Y-55753255D01*
X128176855Y-55814783D01*
X128177500Y-55827412D01*
X128177500Y-61127330D01*
X128177499Y-61127348D01*
X128177499Y-61293054D01*
X128177498Y-61293054D01*
X128218423Y-61445787D01*
X128218424Y-61445788D01*
X128234240Y-61473181D01*
X128234242Y-61473184D01*
X128297477Y-61582712D01*
X128297481Y-61582717D01*
X128328298Y-61613534D01*
X128361783Y-61674857D01*
X128363837Y-61687331D01*
X128373630Y-61774249D01*
X128433210Y-61944521D01*
X128438307Y-61952632D01*
X128529184Y-62097262D01*
X128656738Y-62224816D01*
X128809478Y-62320789D01*
X128964779Y-62375131D01*
X128979745Y-62380368D01*
X128979750Y-62380369D01*
X129158996Y-62400565D01*
X129159000Y-62400565D01*
X129159004Y-62400565D01*
X129338249Y-62380369D01*
X129338252Y-62380368D01*
X129338255Y-62380368D01*
X129508522Y-62320789D01*
X129661262Y-62224816D01*
X129661267Y-62224810D01*
X129664097Y-62222555D01*
X129666275Y-62221665D01*
X129667158Y-62221111D01*
X129667255Y-62221265D01*
X129728783Y-62196145D01*
X129741412Y-62195500D01*
X131652903Y-62195500D01*
X131719942Y-62215185D01*
X131740584Y-62231819D01*
X131760681Y-62251916D01*
X131794166Y-62313239D01*
X131797000Y-62339597D01*
X131797000Y-69699830D01*
X131796999Y-69699848D01*
X131796999Y-69865554D01*
X131796998Y-69865554D01*
X131837924Y-70018289D01*
X131837925Y-70018290D01*
X131860563Y-70057499D01*
X131860564Y-70057501D01*
X131916975Y-70155209D01*
X131916981Y-70155217D01*
X132035849Y-70274085D01*
X132035855Y-70274090D01*
X135532139Y-73770374D01*
X135532149Y-73770385D01*
X135536479Y-73774715D01*
X135536480Y-73774716D01*
X135648284Y-73886520D01*
X135717158Y-73926284D01*
X135785215Y-73965577D01*
X135937943Y-74006501D01*
X135937946Y-74006501D01*
X136103653Y-74006501D01*
X136103669Y-74006500D01*
X137950903Y-74006500D01*
X138017942Y-74026185D01*
X138063697Y-74078989D01*
X138073641Y-74148147D01*
X138044616Y-74211703D01*
X138038584Y-74218181D01*
X129552284Y-82704481D01*
X127012286Y-85244478D01*
X126900481Y-85356282D01*
X126900479Y-85356284D01*
X126886666Y-85380211D01*
X126876667Y-85397530D01*
X126821423Y-85493215D01*
X126780499Y-85645943D01*
X126780499Y-85645945D01*
X126780499Y-85814046D01*
X126780500Y-85814059D01*
X126780500Y-96560330D01*
X126780499Y-96560348D01*
X126780499Y-96726054D01*
X126780498Y-96726054D01*
X126821423Y-96878787D01*
X126821424Y-96878788D01*
X126839955Y-96910884D01*
X126900475Y-97015709D01*
X126900481Y-97015717D01*
X127019349Y-97134585D01*
X127019355Y-97134590D01*
X129090298Y-99205533D01*
X129123783Y-99266856D01*
X129125837Y-99279330D01*
X129135630Y-99366249D01*
X129195210Y-99536521D01*
X129266492Y-99649965D01*
X129291184Y-99689262D01*
X129418738Y-99816816D01*
X129571478Y-99912789D01*
X129674955Y-99948997D01*
X129741745Y-99972368D01*
X129741750Y-99972369D01*
X129920996Y-99992565D01*
X129921000Y-99992565D01*
X129921004Y-99992565D01*
X130100248Y-99972369D01*
X130100248Y-99972368D01*
X130100255Y-99972368D01*
X130133129Y-99960864D01*
X130202903Y-99957302D01*
X130263531Y-99992030D01*
X130291123Y-100036952D01*
X130338210Y-100171521D01*
X130380610Y-100239000D01*
X130434184Y-100324262D01*
X130561738Y-100451816D01*
X130652080Y-100508582D01*
X130712356Y-100546456D01*
X130714478Y-100547789D01*
X130884745Y-100607368D01*
X130884750Y-100607369D01*
X131063996Y-100627565D01*
X131064000Y-100627565D01*
X131064004Y-100627565D01*
X131243249Y-100607369D01*
X131243252Y-100607368D01*
X131243255Y-100607368D01*
X131413522Y-100547789D01*
X131413523Y-100547787D01*
X131413529Y-100547786D01*
X131419795Y-100544769D01*
X131420607Y-100546456D01*
X131478821Y-100530005D01*
X131545656Y-100550371D01*
X131565240Y-100566318D01*
X131577738Y-100578816D01*
X131655322Y-100627565D01*
X131717303Y-100666511D01*
X131730478Y-100674789D01*
X131819148Y-100705816D01*
X131900745Y-100734368D01*
X131900750Y-100734369D01*
X132079996Y-100754565D01*
X132080000Y-100754565D01*
X132080004Y-100754565D01*
X132259249Y-100734369D01*
X132259252Y-100734368D01*
X132259255Y-100734368D01*
X132429522Y-100674789D01*
X132582262Y-100578816D01*
X132709816Y-100451262D01*
X132805789Y-100298522D01*
X132865368Y-100128255D01*
X132870288Y-100084588D01*
X132885565Y-99949003D01*
X132885565Y-99948997D01*
X132866713Y-99781682D01*
X132878767Y-99712860D01*
X132882540Y-99705808D01*
X132892094Y-99689262D01*
X132912577Y-99653785D01*
X132953500Y-99501058D01*
X132953500Y-99342943D01*
X132953500Y-84547096D01*
X132973185Y-84480057D01*
X132989814Y-84459420D01*
X136855819Y-80593414D01*
X136917142Y-80559930D01*
X136986834Y-80564914D01*
X137042767Y-80606786D01*
X137067184Y-80672250D01*
X137067500Y-80681096D01*
X137067500Y-96473902D01*
X137047815Y-96540941D01*
X137031181Y-96561583D01*
X136419964Y-97172800D01*
X136358641Y-97206285D01*
X136288949Y-97201301D01*
X136233016Y-97159429D01*
X136208599Y-97093965D01*
X136212508Y-97053025D01*
X136251636Y-96907000D01*
X135354012Y-96907000D01*
X135386925Y-96849993D01*
X135421000Y-96722826D01*
X135421000Y-96591174D01*
X135386925Y-96464007D01*
X135354012Y-96407000D01*
X136251636Y-96407000D01*
X136251635Y-96406999D01*
X136194432Y-96193513D01*
X136194429Y-96193507D01*
X136094600Y-95979422D01*
X136094599Y-95979420D01*
X135959113Y-95785926D01*
X135959108Y-95785920D01*
X135792082Y-95618894D01*
X135605968Y-95488575D01*
X135562344Y-95433998D01*
X135555151Y-95364499D01*
X135586673Y-95302145D01*
X135605968Y-95285425D01*
X135792082Y-95155105D01*
X135959105Y-94988082D01*
X136094600Y-94794578D01*
X136194429Y-94580492D01*
X136194432Y-94580486D01*
X136251636Y-94367000D01*
X135354012Y-94367000D01*
X135386925Y-94309993D01*
X135421000Y-94182826D01*
X135421000Y-94051174D01*
X135386925Y-93924007D01*
X135354012Y-93867000D01*
X136251636Y-93867000D01*
X136251635Y-93866999D01*
X136194432Y-93653513D01*
X136194429Y-93653507D01*
X136094600Y-93439422D01*
X136094599Y-93439420D01*
X135959113Y-93245926D01*
X135959108Y-93245920D01*
X135792082Y-93078894D01*
X135605968Y-92948575D01*
X135562344Y-92893998D01*
X135555151Y-92824499D01*
X135586673Y-92762145D01*
X135605968Y-92745425D01*
X135792082Y-92615105D01*
X135959105Y-92448082D01*
X136094600Y-92254578D01*
X136194429Y-92040492D01*
X136194432Y-92040486D01*
X136251636Y-91827000D01*
X135354012Y-91827000D01*
X135386925Y-91769993D01*
X135421000Y-91642826D01*
X135421000Y-91511174D01*
X135386925Y-91384007D01*
X135354012Y-91327000D01*
X136251636Y-91327000D01*
X136251635Y-91326999D01*
X136194432Y-91113513D01*
X136194429Y-91113507D01*
X136094600Y-90899422D01*
X136094599Y-90899420D01*
X135959113Y-90705926D01*
X135959108Y-90705920D01*
X135836665Y-90583477D01*
X135803180Y-90522154D01*
X135808164Y-90452462D01*
X135850036Y-90396529D01*
X135881013Y-90379614D01*
X136013086Y-90330354D01*
X136013093Y-90330350D01*
X136128187Y-90244190D01*
X136128190Y-90244187D01*
X136214350Y-90129093D01*
X136214354Y-90129086D01*
X136264596Y-89994379D01*
X136264598Y-89994372D01*
X136270999Y-89934844D01*
X136271000Y-89934824D01*
X136271000Y-89287000D01*
X135354012Y-89287000D01*
X135386925Y-89229993D01*
X135421000Y-89102826D01*
X135421000Y-88971174D01*
X135386925Y-88844007D01*
X135354012Y-88787000D01*
X136271000Y-88787000D01*
X136271000Y-88139172D01*
X136270999Y-88139155D01*
X136264598Y-88079627D01*
X136264596Y-88079620D01*
X136214354Y-87944913D01*
X136214350Y-87944906D01*
X136128190Y-87829812D01*
X136128187Y-87829809D01*
X136013093Y-87743649D01*
X136013086Y-87743645D01*
X135878379Y-87693403D01*
X135878372Y-87693401D01*
X135818844Y-87687000D01*
X135171000Y-87687000D01*
X135171000Y-88603988D01*
X135113993Y-88571075D01*
X134986826Y-88537000D01*
X134855174Y-88537000D01*
X134728007Y-88571075D01*
X134671000Y-88603988D01*
X134671000Y-87687000D01*
X134023155Y-87687000D01*
X133963627Y-87693401D01*
X133963620Y-87693403D01*
X133828913Y-87743645D01*
X133828906Y-87743649D01*
X133713812Y-87829809D01*
X133713809Y-87829812D01*
X133627649Y-87944906D01*
X133627645Y-87944913D01*
X133577403Y-88079620D01*
X133577401Y-88079627D01*
X133571000Y-88139155D01*
X133571000Y-88787000D01*
X134487988Y-88787000D01*
X134455075Y-88844007D01*
X134421000Y-88971174D01*
X134421000Y-89102826D01*
X134455075Y-89229993D01*
X134487988Y-89287000D01*
X133571000Y-89287000D01*
X133571000Y-89934844D01*
X133577401Y-89994372D01*
X133577403Y-89994379D01*
X133627645Y-90129086D01*
X133627649Y-90129093D01*
X133713809Y-90244187D01*
X133713812Y-90244190D01*
X133828906Y-90330350D01*
X133828913Y-90330354D01*
X133960986Y-90379614D01*
X134016920Y-90421485D01*
X134041337Y-90486949D01*
X134026486Y-90555222D01*
X134005335Y-90583477D01*
X133882886Y-90705926D01*
X133747400Y-90899420D01*
X133747399Y-90899422D01*
X133647570Y-91113507D01*
X133647567Y-91113513D01*
X133590364Y-91326999D01*
X133590364Y-91327000D01*
X134487988Y-91327000D01*
X134455075Y-91384007D01*
X134421000Y-91511174D01*
X134421000Y-91642826D01*
X134455075Y-91769993D01*
X134487988Y-91827000D01*
X133590364Y-91827000D01*
X133647567Y-92040486D01*
X133647570Y-92040492D01*
X133747399Y-92254578D01*
X133882894Y-92448082D01*
X134049917Y-92615105D01*
X134236031Y-92745425D01*
X134279656Y-92800003D01*
X134286848Y-92869501D01*
X134255326Y-92931856D01*
X134236031Y-92948575D01*
X134049922Y-93078890D01*
X134049920Y-93078891D01*
X133882891Y-93245920D01*
X133882886Y-93245926D01*
X133747400Y-93439420D01*
X133747399Y-93439422D01*
X133647570Y-93653507D01*
X133647567Y-93653513D01*
X133590364Y-93866999D01*
X133590364Y-93867000D01*
X134487988Y-93867000D01*
X134455075Y-93924007D01*
X134421000Y-94051174D01*
X134421000Y-94182826D01*
X134455075Y-94309993D01*
X134487988Y-94367000D01*
X133590364Y-94367000D01*
X133647567Y-94580486D01*
X133647570Y-94580492D01*
X133747399Y-94794578D01*
X133882894Y-94988082D01*
X134049917Y-95155105D01*
X134236031Y-95285425D01*
X134279656Y-95340003D01*
X134286848Y-95409501D01*
X134255326Y-95471856D01*
X134236031Y-95488575D01*
X134049922Y-95618890D01*
X134049920Y-95618891D01*
X133882891Y-95785920D01*
X133882886Y-95785926D01*
X133747400Y-95979420D01*
X133747399Y-95979422D01*
X133647570Y-96193507D01*
X133647567Y-96193513D01*
X133590364Y-96406999D01*
X133590364Y-96407000D01*
X134487988Y-96407000D01*
X134455075Y-96464007D01*
X134421000Y-96591174D01*
X134421000Y-96722826D01*
X134455075Y-96849993D01*
X134487988Y-96907000D01*
X133590364Y-96907000D01*
X133647567Y-97120486D01*
X133647570Y-97120492D01*
X133747399Y-97334578D01*
X133882894Y-97528082D01*
X134049917Y-97695105D01*
X134243421Y-97830600D01*
X134457507Y-97930429D01*
X134457516Y-97930433D01*
X134671000Y-97987634D01*
X134671000Y-97090012D01*
X134728007Y-97122925D01*
X134855174Y-97157000D01*
X134986826Y-97157000D01*
X135113993Y-97122925D01*
X135171000Y-97090012D01*
X135171000Y-97987633D01*
X135317026Y-97948507D01*
X135386875Y-97950170D01*
X135444738Y-97989333D01*
X135472242Y-98053561D01*
X135460656Y-98122463D01*
X135436800Y-98155963D01*
X134347465Y-99245298D01*
X134286142Y-99278783D01*
X134273668Y-99280837D01*
X134186750Y-99290630D01*
X134016478Y-99350210D01*
X133863737Y-99446184D01*
X133736184Y-99573737D01*
X133640211Y-99726476D01*
X133580631Y-99896745D01*
X133580630Y-99896750D01*
X133560435Y-100075996D01*
X133560435Y-100076003D01*
X133580630Y-100255249D01*
X133580631Y-100255254D01*
X133640211Y-100425523D01*
X133718659Y-100550371D01*
X133736184Y-100578262D01*
X133863738Y-100705816D01*
X134016478Y-100801789D01*
X134121232Y-100838444D01*
X134186745Y-100861368D01*
X134186750Y-100861369D01*
X134365996Y-100881565D01*
X134366000Y-100881565D01*
X134366004Y-100881565D01*
X134545249Y-100861369D01*
X134545252Y-100861368D01*
X134545255Y-100861368D01*
X134715522Y-100801789D01*
X134868262Y-100705816D01*
X134995816Y-100578262D01*
X135091789Y-100425522D01*
X135151368Y-100255255D01*
X135161161Y-100168329D01*
X135188226Y-100103918D01*
X135196690Y-100094543D01*
X138026506Y-97264728D01*
X138026511Y-97264724D01*
X138036714Y-97254520D01*
X138036716Y-97254520D01*
X138148520Y-97142716D01*
X138221843Y-97015716D01*
X138227577Y-97005785D01*
X138268500Y-96853057D01*
X138268500Y-96694943D01*
X138268500Y-80818097D01*
X138288185Y-80751058D01*
X138304819Y-80730416D01*
X140369986Y-78665249D01*
X142512536Y-76522698D01*
X142573857Y-76489215D01*
X142586310Y-76487163D01*
X142673255Y-76477368D01*
X142843522Y-76417789D01*
X142996262Y-76321816D01*
X143123816Y-76194262D01*
X143219789Y-76041522D01*
X143279368Y-75871255D01*
X143290302Y-75774211D01*
X143299565Y-75692003D01*
X143299565Y-75691996D01*
X143279369Y-75512750D01*
X143279368Y-75512745D01*
X143242199Y-75406522D01*
X143219789Y-75342478D01*
X143206136Y-75320750D01*
X143180582Y-75280080D01*
X143123816Y-75189738D01*
X143041259Y-75107181D01*
X143007774Y-75045858D01*
X143012758Y-74976166D01*
X143054630Y-74920233D01*
X143120094Y-74895816D01*
X143128940Y-74895500D01*
X151591903Y-74895500D01*
X151658942Y-74915185D01*
X151679584Y-74931819D01*
X151823298Y-75075533D01*
X151856783Y-75136856D01*
X151858837Y-75149330D01*
X151868630Y-75236249D01*
X151928210Y-75406521D01*
X152011306Y-75538767D01*
X152024184Y-75559262D01*
X152151738Y-75686816D01*
X152196007Y-75714632D01*
X152290426Y-75773960D01*
X152304478Y-75782789D01*
X152438425Y-75829659D01*
X152474745Y-75842368D01*
X152474750Y-75842369D01*
X152653996Y-75862565D01*
X152654000Y-75862565D01*
X152654004Y-75862565D01*
X152833249Y-75842369D01*
X152833252Y-75842368D01*
X152833255Y-75842368D01*
X153003522Y-75782789D01*
X153156262Y-75686816D01*
X153283816Y-75559262D01*
X153296694Y-75538765D01*
X153349026Y-75492475D01*
X153409036Y-75482593D01*
X153409036Y-75481565D01*
X153415282Y-75481565D01*
X153415573Y-75481517D01*
X153415999Y-75481565D01*
X153416000Y-75481565D01*
X153416004Y-75481565D01*
X153595249Y-75461369D01*
X153595252Y-75461368D01*
X153595255Y-75461368D01*
X153765522Y-75401789D01*
X153918262Y-75305816D01*
X154045816Y-75178262D01*
X154141789Y-75025522D01*
X154201368Y-74855255D01*
X154221565Y-74676000D01*
X154201368Y-74496745D01*
X154141789Y-74326478D01*
X154141788Y-74326476D01*
X154060101Y-74196472D01*
X154041101Y-74129235D01*
X154061469Y-74062400D01*
X154114737Y-74017186D01*
X154165095Y-74006500D01*
X154484588Y-74006500D01*
X154551627Y-74026185D01*
X154561903Y-74033555D01*
X154564736Y-74035814D01*
X154564738Y-74035816D01*
X154717478Y-74131789D01*
X154887745Y-74191368D01*
X154887750Y-74191369D01*
X155066996Y-74211565D01*
X155067000Y-74211565D01*
X155067004Y-74211565D01*
X155246249Y-74191369D01*
X155246252Y-74191368D01*
X155246255Y-74191368D01*
X155416522Y-74131789D01*
X155569262Y-74035816D01*
X155696816Y-73908262D01*
X155792789Y-73755522D01*
X155852368Y-73585255D01*
X155872565Y-73406000D01*
X155871945Y-73400500D01*
X155852369Y-73226750D01*
X155852368Y-73226745D01*
X155792788Y-73056476D01*
X155696813Y-72903734D01*
X155694550Y-72900896D01*
X155693659Y-72898715D01*
X155693111Y-72897842D01*
X155693264Y-72897745D01*
X155668144Y-72836209D01*
X155667500Y-72823587D01*
X155667500Y-67199999D01*
X188894357Y-67199999D01*
X188894357Y-67200000D01*
X188914884Y-67421535D01*
X188914885Y-67421537D01*
X188975769Y-67635524D01*
X188975770Y-67635525D01*
X188975771Y-67635528D01*
X188986500Y-67657075D01*
X188999500Y-67712346D01*
X188999500Y-78613389D01*
X188999500Y-78786611D01*
X189026598Y-78957701D01*
X189080127Y-79122445D01*
X189158768Y-79276788D01*
X189260586Y-79416928D01*
X189260588Y-79416930D01*
X190958079Y-81114421D01*
X190981398Y-81146830D01*
X191074938Y-81334683D01*
X191074943Y-81334691D01*
X191209020Y-81512238D01*
X191361088Y-81650866D01*
X191366518Y-81655816D01*
X191373437Y-81662123D01*
X191373439Y-81662125D01*
X191562595Y-81779245D01*
X191562596Y-81779245D01*
X191562599Y-81779247D01*
X191770060Y-81859618D01*
X191988757Y-81900500D01*
X191988759Y-81900500D01*
X192211241Y-81900500D01*
X192211243Y-81900500D01*
X192429940Y-81859618D01*
X192637401Y-81779247D01*
X192826562Y-81662124D01*
X192990981Y-81512236D01*
X193125058Y-81334689D01*
X193224229Y-81135528D01*
X193234338Y-81099999D01*
X196594357Y-81099999D01*
X196594357Y-81100000D01*
X196614884Y-81321535D01*
X196614885Y-81321537D01*
X196675769Y-81535523D01*
X196675775Y-81535538D01*
X196774938Y-81734683D01*
X196774943Y-81734691D01*
X196909020Y-81912238D01*
X197073437Y-82062123D01*
X197073439Y-82062125D01*
X197262595Y-82179245D01*
X197262596Y-82179245D01*
X197262599Y-82179247D01*
X197470060Y-82259618D01*
X197688757Y-82300500D01*
X197688759Y-82300500D01*
X197911241Y-82300500D01*
X197911243Y-82300500D01*
X198129940Y-82259618D01*
X198337401Y-82179247D01*
X198526562Y-82062124D01*
X198690981Y-81912236D01*
X198825058Y-81734689D01*
X198924229Y-81535528D01*
X198985115Y-81321536D01*
X198986121Y-81310670D01*
X199011903Y-81245736D01*
X199021903Y-81234438D01*
X199839414Y-80416928D01*
X199939414Y-80316928D01*
X200041232Y-80176788D01*
X200119873Y-80022446D01*
X200173402Y-79857701D01*
X200200500Y-79686611D01*
X200200500Y-79513390D01*
X200200500Y-67612346D01*
X200213499Y-67557075D01*
X200224229Y-67535528D01*
X200285115Y-67321536D01*
X200305643Y-67100000D01*
X200285115Y-66878464D01*
X200224229Y-66664472D01*
X200224224Y-66664461D01*
X200125061Y-66465316D01*
X200125056Y-66465308D01*
X199990979Y-66287761D01*
X199826562Y-66137876D01*
X199826560Y-66137874D01*
X199637404Y-66020754D01*
X199637398Y-66020752D01*
X199429940Y-65940382D01*
X199211243Y-65899500D01*
X198988757Y-65899500D01*
X198770060Y-65940382D01*
X198667467Y-65980127D01*
X198562601Y-66020752D01*
X198562595Y-66020754D01*
X198373439Y-66137874D01*
X198373437Y-66137876D01*
X198209020Y-66287761D01*
X198074943Y-66465308D01*
X198074938Y-66465316D01*
X197975775Y-66664461D01*
X197975769Y-66664476D01*
X197914885Y-66878462D01*
X197914884Y-66878464D01*
X197894357Y-67099999D01*
X197894357Y-67100000D01*
X197914884Y-67321535D01*
X197914885Y-67321537D01*
X197975769Y-67535524D01*
X197975770Y-67535525D01*
X197975771Y-67535528D01*
X197986500Y-67557075D01*
X197999500Y-67612346D01*
X197999500Y-79092796D01*
X197979815Y-79159835D01*
X197963181Y-79180477D01*
X196960588Y-80183069D01*
X196960588Y-80183070D01*
X196960586Y-80183072D01*
X196909677Y-80253142D01*
X196858766Y-80323214D01*
X196815011Y-80409086D01*
X196803483Y-80427515D01*
X196774942Y-80465310D01*
X196675775Y-80664461D01*
X196675769Y-80664476D01*
X196614885Y-80878462D01*
X196614884Y-80878464D01*
X196594357Y-81099999D01*
X193234338Y-81099999D01*
X193285115Y-80921536D01*
X193305643Y-80700000D01*
X193292430Y-80557412D01*
X193285115Y-80478464D01*
X193285114Y-80478462D01*
X193284773Y-80477265D01*
X193224229Y-80264472D01*
X193224224Y-80264461D01*
X193125061Y-80065316D01*
X193125056Y-80065308D01*
X192990979Y-79887761D01*
X192826562Y-79737876D01*
X192826560Y-79737874D01*
X192667213Y-79639212D01*
X192637404Y-79620754D01*
X192563345Y-79592063D01*
X192520460Y-79564118D01*
X191236819Y-78280477D01*
X191203334Y-78219154D01*
X191200500Y-78192796D01*
X191200500Y-67712346D01*
X191213499Y-67657075D01*
X191224229Y-67635528D01*
X191285115Y-67421536D01*
X191305643Y-67200000D01*
X191285115Y-66978464D01*
X191224229Y-66764472D01*
X191224224Y-66764461D01*
X191125061Y-66565316D01*
X191125056Y-66565308D01*
X191096514Y-66527513D01*
X191084983Y-66509080D01*
X191083192Y-66505565D01*
X191041232Y-66423212D01*
X191041230Y-66423209D01*
X191041229Y-66423207D01*
X191001677Y-66368769D01*
X190939414Y-66283072D01*
X190816928Y-66160586D01*
X190676788Y-66058768D01*
X190522445Y-65980127D01*
X190357701Y-65926598D01*
X190357699Y-65926597D01*
X190357698Y-65926597D01*
X190226271Y-65905781D01*
X190186611Y-65899500D01*
X190013389Y-65899500D01*
X189973728Y-65905781D01*
X189842302Y-65926597D01*
X189677552Y-65980128D01*
X189523211Y-66058768D01*
X189478057Y-66091575D01*
X189383072Y-66160586D01*
X189383070Y-66160588D01*
X189383069Y-66160588D01*
X189260588Y-66283069D01*
X189260588Y-66283070D01*
X189260586Y-66283072D01*
X189214440Y-66346587D01*
X189158766Y-66423214D01*
X189115011Y-66509086D01*
X189103483Y-66527515D01*
X189074942Y-66565310D01*
X188975775Y-66764461D01*
X188975769Y-66764476D01*
X188914885Y-66978462D01*
X188914884Y-66978464D01*
X188894357Y-67199999D01*
X155667500Y-67199999D01*
X155667500Y-66241412D01*
X155687185Y-66174373D01*
X155694555Y-66164097D01*
X155696810Y-66161267D01*
X155696816Y-66161262D01*
X155792789Y-66008522D01*
X155852368Y-65838255D01*
X155852369Y-65838249D01*
X155872565Y-65659003D01*
X155872565Y-65658996D01*
X155852369Y-65479750D01*
X155852368Y-65479745D01*
X155807929Y-65352745D01*
X155792789Y-65309478D01*
X155696816Y-65156738D01*
X155569262Y-65029184D01*
X155531550Y-65005488D01*
X155416523Y-64933211D01*
X155246254Y-64873631D01*
X155246249Y-64873630D01*
X155067004Y-64853435D01*
X155066996Y-64853435D01*
X154887750Y-64873630D01*
X154887745Y-64873631D01*
X154717476Y-64933211D01*
X154564737Y-65029184D01*
X154437184Y-65156737D01*
X154341211Y-65309476D01*
X154281631Y-65479745D01*
X154281630Y-65479750D01*
X154261435Y-65658996D01*
X154261435Y-65659003D01*
X154281630Y-65838249D01*
X154281631Y-65838254D01*
X154341211Y-66008523D01*
X154385658Y-66079259D01*
X154436760Y-66160588D01*
X154437185Y-66161263D01*
X154439445Y-66164097D01*
X154440334Y-66166275D01*
X154440889Y-66167158D01*
X154440734Y-66167255D01*
X154465855Y-66228783D01*
X154466500Y-66241412D01*
X154466500Y-72681500D01*
X154446815Y-72748539D01*
X154394011Y-72794294D01*
X154342500Y-72805500D01*
X146084167Y-72805500D01*
X146052361Y-72796160D01*
X146037227Y-72803640D01*
X146015833Y-72805500D01*
X144325227Y-72805500D01*
X144258188Y-72785815D01*
X144212433Y-72733011D01*
X144202489Y-72663853D01*
X144226468Y-72608382D01*
X144226111Y-72608158D01*
X144227566Y-72605841D01*
X144228284Y-72604182D01*
X144229809Y-72602268D01*
X144229816Y-72602262D01*
X144325789Y-72449522D01*
X144385368Y-72279255D01*
X144387846Y-72257262D01*
X144405565Y-72100003D01*
X144405565Y-72099996D01*
X144385369Y-71920750D01*
X144385366Y-71920737D01*
X144325790Y-71750481D01*
X144325789Y-71750478D01*
X144296716Y-71704208D01*
X144249506Y-71629073D01*
X144230500Y-71563101D01*
X144230500Y-70119503D01*
X144250185Y-70052464D01*
X144302989Y-70006709D01*
X144372147Y-69996765D01*
X144386593Y-69999728D01*
X144390583Y-70000797D01*
X144544592Y-70042063D01*
X144721034Y-70057500D01*
X144779999Y-70062659D01*
X144780000Y-70062659D01*
X144780001Y-70062659D01*
X144819234Y-70059226D01*
X145015408Y-70042063D01*
X145243663Y-69980903D01*
X145273097Y-69967177D01*
X145342171Y-69956686D01*
X145405956Y-69985205D01*
X145444196Y-70043681D01*
X145449500Y-70079560D01*
X145449500Y-71172587D01*
X145429815Y-71239626D01*
X145422450Y-71249896D01*
X145420186Y-71252734D01*
X145324211Y-71405476D01*
X145264631Y-71575745D01*
X145264630Y-71575750D01*
X145244435Y-71754996D01*
X145244435Y-71755003D01*
X145264630Y-71934249D01*
X145264631Y-71934254D01*
X145324211Y-72104523D01*
X145366346Y-72171580D01*
X145420184Y-72257262D01*
X145547738Y-72384816D01*
X145700478Y-72480789D01*
X145870745Y-72540368D01*
X145870750Y-72540369D01*
X146029716Y-72558280D01*
X146045508Y-72564915D01*
X146049232Y-72562523D01*
X146070284Y-72558280D01*
X146229249Y-72540369D01*
X146229252Y-72540368D01*
X146229255Y-72540368D01*
X146399522Y-72480789D01*
X146552262Y-72384816D01*
X146679816Y-72257262D01*
X146775789Y-72104522D01*
X146835368Y-71934255D01*
X146836034Y-71928343D01*
X146855565Y-71755003D01*
X146855565Y-71754996D01*
X146835369Y-71575750D01*
X146835368Y-71575745D01*
X146775788Y-71405476D01*
X146679813Y-71252734D01*
X146677550Y-71249896D01*
X146676659Y-71247715D01*
X146676111Y-71246842D01*
X146676264Y-71246745D01*
X146651144Y-71185209D01*
X146650500Y-71172587D01*
X146650500Y-70079560D01*
X146670185Y-70012521D01*
X146722989Y-69966766D01*
X146792147Y-69956822D01*
X146826900Y-69967176D01*
X146856337Y-69980903D01*
X147084592Y-70042063D01*
X147261034Y-70057500D01*
X147319999Y-70062659D01*
X147320000Y-70062659D01*
X147320001Y-70062659D01*
X147359234Y-70059226D01*
X147555408Y-70042063D01*
X147783663Y-69980903D01*
X147997830Y-69881035D01*
X148191401Y-69745495D01*
X148358495Y-69578401D01*
X148488425Y-69392842D01*
X148543002Y-69349217D01*
X148612500Y-69342023D01*
X148674855Y-69373546D01*
X148691575Y-69392842D01*
X148821500Y-69578395D01*
X148821505Y-69578401D01*
X148988599Y-69745495D01*
X149074388Y-69805565D01*
X149182165Y-69881032D01*
X149182167Y-69881033D01*
X149182170Y-69881035D01*
X149396337Y-69980903D01*
X149624592Y-70042063D01*
X149801034Y-70057500D01*
X149859999Y-70062659D01*
X149860000Y-70062659D01*
X149860001Y-70062659D01*
X149899234Y-70059226D01*
X150095408Y-70042063D01*
X150323663Y-69980903D01*
X150537830Y-69881035D01*
X150731401Y-69745495D01*
X150898495Y-69578401D01*
X151028425Y-69392842D01*
X151083002Y-69349217D01*
X151152500Y-69342023D01*
X151214855Y-69373546D01*
X151231575Y-69392842D01*
X151361500Y-69578395D01*
X151361505Y-69578401D01*
X151528599Y-69745495D01*
X151614388Y-69805565D01*
X151722165Y-69881032D01*
X151722167Y-69881033D01*
X151722170Y-69881035D01*
X151936337Y-69980903D01*
X152164592Y-70042063D01*
X152341034Y-70057500D01*
X152399999Y-70062659D01*
X152400000Y-70062659D01*
X152400001Y-70062659D01*
X152439234Y-70059226D01*
X152635408Y-70042063D01*
X152863663Y-69980903D01*
X153077830Y-69881035D01*
X153271401Y-69745495D01*
X153438495Y-69578401D01*
X153574035Y-69384830D01*
X153673903Y-69170663D01*
X153735063Y-68942408D01*
X153755659Y-68707000D01*
X153735063Y-68471592D01*
X153673903Y-68243337D01*
X153574035Y-68029171D01*
X153568425Y-68021158D01*
X153438494Y-67835597D01*
X153271402Y-67668506D01*
X153271401Y-67668505D01*
X153096739Y-67546205D01*
X153053114Y-67491628D01*
X153045922Y-67422129D01*
X153062870Y-67378658D01*
X153125787Y-67278526D01*
X153125787Y-67278524D01*
X153125789Y-67278522D01*
X153185368Y-67108255D01*
X153186298Y-67100000D01*
X153205565Y-66929003D01*
X153205565Y-66928996D01*
X153185369Y-66749750D01*
X153185368Y-66749745D01*
X153181462Y-66738582D01*
X153125789Y-66579478D01*
X153116890Y-66565316D01*
X153029813Y-66426734D01*
X153027550Y-66423896D01*
X153026659Y-66421715D01*
X153026111Y-66420842D01*
X153026264Y-66420745D01*
X153001144Y-66359209D01*
X153000500Y-66346587D01*
X153000500Y-62102996D01*
X156166435Y-62102996D01*
X156166435Y-62103003D01*
X156186630Y-62282249D01*
X156186631Y-62282254D01*
X156246211Y-62452523D01*
X156342184Y-62605262D01*
X156469738Y-62732816D01*
X156622478Y-62828789D01*
X156792742Y-62888367D01*
X156792745Y-62888368D01*
X156792750Y-62888369D01*
X156971996Y-62908565D01*
X156972000Y-62908565D01*
X156972004Y-62908565D01*
X157151249Y-62888369D01*
X157151252Y-62888368D01*
X157151255Y-62888368D01*
X157321522Y-62828789D01*
X157474262Y-62732816D01*
X157601816Y-62605262D01*
X157697789Y-62452522D01*
X157757368Y-62282255D01*
X157759292Y-62265183D01*
X157777565Y-62103003D01*
X157777565Y-62102996D01*
X157757369Y-61923750D01*
X157757368Y-61923745D01*
X157716767Y-61807715D01*
X157697789Y-61753478D01*
X157601816Y-61600738D01*
X157601814Y-61600736D01*
X157601813Y-61600734D01*
X157599550Y-61597896D01*
X157598659Y-61595715D01*
X157598111Y-61594842D01*
X157598264Y-61594745D01*
X157573144Y-61533209D01*
X157572500Y-61520587D01*
X157572500Y-56815096D01*
X157592185Y-56748057D01*
X157608815Y-56727419D01*
X157879535Y-56456698D01*
X157940856Y-56423215D01*
X157953311Y-56421163D01*
X158040255Y-56411368D01*
X158210522Y-56351789D01*
X158363262Y-56255816D01*
X158490816Y-56128262D01*
X158586789Y-55975522D01*
X158646368Y-55805255D01*
X158652238Y-55753158D01*
X158666565Y-55626003D01*
X158666565Y-55625996D01*
X158646369Y-55446750D01*
X158646368Y-55446745D01*
X158586788Y-55276476D01*
X158490815Y-55123737D01*
X158363262Y-54996184D01*
X158210523Y-54900211D01*
X158040254Y-54840631D01*
X158040249Y-54840630D01*
X157861004Y-54820435D01*
X157860996Y-54820435D01*
X157681750Y-54840630D01*
X157681745Y-54840631D01*
X157511476Y-54900211D01*
X157358737Y-54996184D01*
X157231184Y-55123737D01*
X157135210Y-55276478D01*
X157075630Y-55446750D01*
X157065837Y-55533668D01*
X157038770Y-55598082D01*
X157030298Y-55607465D01*
X156603286Y-56034478D01*
X156491481Y-56146282D01*
X156491479Y-56146285D01*
X156460758Y-56199497D01*
X156460757Y-56199499D01*
X156412423Y-56283214D01*
X156402707Y-56319475D01*
X156371499Y-56435943D01*
X156371499Y-56435945D01*
X156371499Y-56604046D01*
X156371500Y-56604059D01*
X156371500Y-61520587D01*
X156351815Y-61587626D01*
X156344450Y-61597896D01*
X156342186Y-61600734D01*
X156246211Y-61753476D01*
X156186631Y-61923745D01*
X156186630Y-61923750D01*
X156166435Y-62102996D01*
X153000500Y-62102996D01*
X153000500Y-56676220D01*
X153020185Y-56609181D01*
X153058526Y-56571227D01*
X153156262Y-56509816D01*
X153283816Y-56382262D01*
X153379789Y-56229522D01*
X153439368Y-56059255D01*
X153439854Y-56054943D01*
X153459565Y-55880003D01*
X153459565Y-55879996D01*
X153439369Y-55700750D01*
X153439368Y-55700745D01*
X153413215Y-55626003D01*
X153379789Y-55530478D01*
X153283816Y-55377738D01*
X153156262Y-55250184D01*
X153003523Y-55154211D01*
X152833254Y-55094631D01*
X152833249Y-55094630D01*
X152654004Y-55074435D01*
X152653996Y-55074435D01*
X152474750Y-55094630D01*
X152474745Y-55094631D01*
X152304476Y-55154211D01*
X152151737Y-55250184D01*
X152024184Y-55377737D01*
X151928211Y-55530476D01*
X151868631Y-55700745D01*
X151868630Y-55700750D01*
X151850720Y-55859716D01*
X151823654Y-55924130D01*
X151766059Y-55963685D01*
X151696222Y-55965823D01*
X151636316Y-55929865D01*
X151605360Y-55867227D01*
X151603500Y-55845833D01*
X151603500Y-48969412D01*
X151623185Y-48902373D01*
X151630555Y-48892097D01*
X151632810Y-48889267D01*
X151632816Y-48889262D01*
X151691344Y-48796114D01*
X151743678Y-48749825D01*
X151812731Y-48739177D01*
X151876580Y-48767552D01*
X151913379Y-48821135D01*
X151928209Y-48863520D01*
X152009150Y-48992336D01*
X152024184Y-49016262D01*
X152151738Y-49143816D01*
X152304478Y-49239789D01*
X152407952Y-49275996D01*
X152474745Y-49299368D01*
X152474750Y-49299369D01*
X152653996Y-49319565D01*
X152654000Y-49319565D01*
X152654004Y-49319565D01*
X152833249Y-49299369D01*
X152833252Y-49299368D01*
X152833255Y-49299368D01*
X153003522Y-49239789D01*
X153156262Y-49143816D01*
X153279243Y-49020834D01*
X153340562Y-48987352D01*
X153410254Y-48992336D01*
X153454602Y-49020837D01*
X154836139Y-50402374D01*
X154836149Y-50402385D01*
X154840479Y-50406715D01*
X154840480Y-50406716D01*
X154952284Y-50518520D01*
X155038513Y-50568304D01*
X155089215Y-50597577D01*
X155241943Y-50638500D01*
X155400057Y-50638500D01*
X157037903Y-50638500D01*
X157104942Y-50658185D01*
X157125584Y-50674819D01*
X166669298Y-60218533D01*
X166702783Y-60279856D01*
X166704837Y-60292330D01*
X166714630Y-60379249D01*
X166774210Y-60549521D01*
X166870184Y-60702262D01*
X166997738Y-60829816D01*
X167150478Y-60925789D01*
X167269524Y-60967445D01*
X167320745Y-60985368D01*
X167320750Y-60985369D01*
X167499996Y-61005565D01*
X167500000Y-61005565D01*
X167500004Y-61005565D01*
X167679249Y-60985369D01*
X167679252Y-60985368D01*
X167679255Y-60985368D01*
X167849522Y-60925789D01*
X168002262Y-60829816D01*
X168129816Y-60702262D01*
X168225789Y-60549522D01*
X168285368Y-60379255D01*
X168289302Y-60344341D01*
X168305565Y-60200003D01*
X168305565Y-60199996D01*
X168285369Y-60020750D01*
X168285368Y-60020745D01*
X168225789Y-59850478D01*
X168129816Y-59697738D01*
X168002262Y-59570184D01*
X167849521Y-59474210D01*
X167679249Y-59414630D01*
X167592330Y-59404837D01*
X167527916Y-59377770D01*
X167518533Y-59369298D01*
X164949231Y-56799996D01*
X170194435Y-56799996D01*
X170194435Y-56800003D01*
X170214630Y-56979249D01*
X170214631Y-56979254D01*
X170274211Y-57149523D01*
X170321480Y-57224750D01*
X170370184Y-57302262D01*
X170497738Y-57429816D01*
X170650478Y-57525789D01*
X170814689Y-57583249D01*
X170820745Y-57585368D01*
X170820750Y-57585369D01*
X170999996Y-57605565D01*
X171000000Y-57605565D01*
X171000004Y-57605565D01*
X171179249Y-57585369D01*
X171179252Y-57585368D01*
X171179255Y-57585368D01*
X171349522Y-57525789D01*
X171502262Y-57429816D01*
X171502267Y-57429810D01*
X171505097Y-57427555D01*
X171507275Y-57426665D01*
X171508158Y-57426111D01*
X171508255Y-57426265D01*
X171569783Y-57401145D01*
X171582412Y-57400500D01*
X171999903Y-57400500D01*
X172066942Y-57420185D01*
X172087583Y-57436818D01*
X173231284Y-58580520D01*
X173231286Y-58580521D01*
X173231290Y-58580524D01*
X173368209Y-58659573D01*
X173368216Y-58659577D01*
X173520943Y-58700501D01*
X173520945Y-58700501D01*
X173686654Y-58700501D01*
X173686670Y-58700500D01*
X174417588Y-58700500D01*
X174484627Y-58720185D01*
X174494903Y-58727555D01*
X174497736Y-58729814D01*
X174497738Y-58729816D01*
X174650478Y-58825789D01*
X174820745Y-58885368D01*
X174820750Y-58885369D01*
X174999996Y-58905565D01*
X175000000Y-58905565D01*
X175000004Y-58905565D01*
X175179249Y-58885369D01*
X175179252Y-58885368D01*
X175179255Y-58885368D01*
X175349522Y-58825789D01*
X175502262Y-58729816D01*
X175629816Y-58602262D01*
X175725789Y-58449522D01*
X175785368Y-58279255D01*
X175785369Y-58279249D01*
X175805565Y-58100003D01*
X175805565Y-58099996D01*
X175785369Y-57920750D01*
X175785368Y-57920745D01*
X175725788Y-57750476D01*
X175644928Y-57621789D01*
X175629816Y-57597738D01*
X175502262Y-57470184D01*
X175491117Y-57463181D01*
X175349523Y-57374211D01*
X175179254Y-57314631D01*
X175179249Y-57314630D01*
X175000004Y-57294435D01*
X174999996Y-57294435D01*
X174820750Y-57314630D01*
X174820745Y-57314631D01*
X174650476Y-57374211D01*
X174497736Y-57470185D01*
X174494903Y-57472445D01*
X174492724Y-57473334D01*
X174491842Y-57473889D01*
X174491744Y-57473734D01*
X174430217Y-57498855D01*
X174417588Y-57499500D01*
X173900098Y-57499500D01*
X173833059Y-57479815D01*
X173812417Y-57463181D01*
X172787590Y-56438355D01*
X172787588Y-56438352D01*
X172668717Y-56319481D01*
X172668709Y-56319475D01*
X172558447Y-56255816D01*
X172558446Y-56255815D01*
X172539706Y-56244996D01*
X172531785Y-56240423D01*
X172379057Y-56199499D01*
X172220943Y-56199499D01*
X172213347Y-56199499D01*
X172213331Y-56199500D01*
X171582412Y-56199500D01*
X171515373Y-56179815D01*
X171505097Y-56172445D01*
X171502263Y-56170185D01*
X171502262Y-56170184D01*
X171435544Y-56128262D01*
X171349523Y-56074211D01*
X171179254Y-56014631D01*
X171179249Y-56014630D01*
X171000004Y-55994435D01*
X170999996Y-55994435D01*
X170820750Y-56014630D01*
X170820745Y-56014631D01*
X170650476Y-56074211D01*
X170497737Y-56170184D01*
X170370184Y-56297737D01*
X170274211Y-56450476D01*
X170214631Y-56620745D01*
X170214630Y-56620750D01*
X170194435Y-56799996D01*
X164949231Y-56799996D01*
X157825590Y-49676355D01*
X157825588Y-49676352D01*
X157706717Y-49557481D01*
X157706716Y-49557480D01*
X157619904Y-49507360D01*
X157619904Y-49507359D01*
X157619900Y-49507358D01*
X157569785Y-49478423D01*
X157417057Y-49437499D01*
X157258943Y-49437499D01*
X157251347Y-49437499D01*
X157251331Y-49437500D01*
X155621097Y-49437500D01*
X155554058Y-49417815D01*
X155533416Y-49401181D01*
X154011231Y-47878996D01*
X157817435Y-47878996D01*
X157817435Y-47879003D01*
X157837630Y-48058249D01*
X157837631Y-48058254D01*
X157897211Y-48228523D01*
X157977010Y-48355522D01*
X157993184Y-48381262D01*
X158120738Y-48508816D01*
X158273478Y-48604789D01*
X158443745Y-48664368D01*
X158530669Y-48674161D01*
X158595080Y-48701226D01*
X158604465Y-48709700D01*
X163599139Y-53704374D01*
X163599149Y-53704385D01*
X163603479Y-53708715D01*
X163603480Y-53708716D01*
X163715284Y-53820520D01*
X163801359Y-53870215D01*
X163801360Y-53870216D01*
X163852209Y-53899574D01*
X163852210Y-53899574D01*
X163852215Y-53899577D01*
X164004942Y-53940500D01*
X164004943Y-53940500D01*
X171490331Y-53940500D01*
X171490347Y-53940501D01*
X171497943Y-53940501D01*
X171656054Y-53940501D01*
X171656057Y-53940501D01*
X171808785Y-53899577D01*
X171808787Y-53899575D01*
X171808789Y-53899575D01*
X171808790Y-53899574D01*
X171859640Y-53870216D01*
X171859641Y-53870215D01*
X171945716Y-53820520D01*
X172057520Y-53708716D01*
X172057520Y-53708714D01*
X172067724Y-53698511D01*
X172067728Y-53698506D01*
X172865535Y-52900698D01*
X172926856Y-52867215D01*
X172939311Y-52865163D01*
X173026255Y-52855368D01*
X173196522Y-52795789D01*
X173349262Y-52699816D01*
X173476816Y-52572262D01*
X173572789Y-52419522D01*
X173632368Y-52249255D01*
X173632369Y-52249249D01*
X173652565Y-52070003D01*
X173652565Y-52069996D01*
X173632369Y-51890750D01*
X173632368Y-51890745D01*
X173572788Y-51720476D01*
X173482519Y-51576815D01*
X173476816Y-51567738D01*
X173349262Y-51440184D01*
X173196523Y-51344211D01*
X173026254Y-51284631D01*
X173026249Y-51284630D01*
X172847004Y-51264435D01*
X172846996Y-51264435D01*
X172697197Y-51281312D01*
X172628375Y-51269257D01*
X172578321Y-51224065D01*
X172567582Y-51206975D01*
X172567580Y-51206972D01*
X172440027Y-51079419D01*
X172287288Y-50983446D01*
X172117019Y-50923866D01*
X172117014Y-50923865D01*
X171937769Y-50903670D01*
X171937761Y-50903670D01*
X171758515Y-50923865D01*
X171758510Y-50923866D01*
X171588241Y-50983446D01*
X171435502Y-51079419D01*
X171307949Y-51206972D01*
X171211975Y-51359713D01*
X171158180Y-51513454D01*
X171117458Y-51570230D01*
X171052506Y-51595978D01*
X171041138Y-51596500D01*
X165400098Y-51596500D01*
X165333059Y-51576815D01*
X165312417Y-51560181D01*
X160533200Y-46780965D01*
X160499715Y-46719642D01*
X160497663Y-46707186D01*
X160487868Y-46620245D01*
X160428289Y-46449978D01*
X160332316Y-46297238D01*
X160204762Y-46169684D01*
X160052023Y-46073711D01*
X159881754Y-46014131D01*
X159881749Y-46014130D01*
X159702504Y-45993935D01*
X159702496Y-45993935D01*
X159523250Y-46014130D01*
X159523245Y-46014131D01*
X159352976Y-46073711D01*
X159200237Y-46169684D01*
X159072684Y-46297237D01*
X158976711Y-46449976D01*
X158917131Y-46620245D01*
X158917130Y-46620250D01*
X158896935Y-46799496D01*
X158896935Y-46799503D01*
X158914309Y-46953706D01*
X158902254Y-47022528D01*
X158854905Y-47073907D01*
X158787295Y-47091531D01*
X158777206Y-47090809D01*
X158623004Y-47073435D01*
X158622996Y-47073435D01*
X158443750Y-47093630D01*
X158443745Y-47093631D01*
X158273476Y-47153211D01*
X158120737Y-47249184D01*
X157993184Y-47376737D01*
X157897211Y-47529476D01*
X157837631Y-47699745D01*
X157837630Y-47699750D01*
X157817435Y-47878996D01*
X154011231Y-47878996D01*
X151729126Y-45596891D01*
X151695641Y-45535568D01*
X151700625Y-45465876D01*
X151742497Y-45409943D01*
X151807961Y-45385526D01*
X151876234Y-45400378D01*
X151882780Y-45404217D01*
X151923475Y-45429788D01*
X152093745Y-45489368D01*
X152093750Y-45489369D01*
X152272996Y-45509565D01*
X152273000Y-45509565D01*
X152273004Y-45509565D01*
X152452249Y-45489369D01*
X152452252Y-45489368D01*
X152452255Y-45489368D01*
X152622522Y-45429789D01*
X152775262Y-45333816D01*
X152902816Y-45206262D01*
X152998789Y-45053522D01*
X153058368Y-44883255D01*
X153061227Y-44857883D01*
X153078565Y-44704003D01*
X153078565Y-44703996D01*
X153058369Y-44524750D01*
X153058368Y-44524745D01*
X153048368Y-44496166D01*
X152998789Y-44354478D01*
X152997177Y-44351913D01*
X152902815Y-44201737D01*
X152775262Y-44074184D01*
X152622521Y-43978210D01*
X152452249Y-43918630D01*
X152365330Y-43908837D01*
X152300916Y-43881770D01*
X152291533Y-43873298D01*
X151871590Y-43453355D01*
X151871588Y-43453352D01*
X151752717Y-43334481D01*
X151752709Y-43334475D01*
X151650936Y-43275717D01*
X151650934Y-43275716D01*
X151615790Y-43255425D01*
X151615789Y-43255424D01*
X151603263Y-43252067D01*
X151463057Y-43214499D01*
X151304943Y-43214499D01*
X151297347Y-43214499D01*
X151297331Y-43214500D01*
X127201412Y-43214500D01*
X127134373Y-43194815D01*
X127124097Y-43187445D01*
X127121263Y-43185185D01*
X127121262Y-43185184D01*
X127064496Y-43149515D01*
X126968523Y-43089211D01*
X126798254Y-43029631D01*
X126798249Y-43029630D01*
X126619004Y-43009435D01*
X126618996Y-43009435D01*
X126439750Y-43029630D01*
X126439745Y-43029631D01*
X126269476Y-43089211D01*
X126116737Y-43185184D01*
X125989184Y-43312737D01*
X125893211Y-43465476D01*
X125833631Y-43635745D01*
X125833630Y-43635750D01*
X125813435Y-43814996D01*
X125813435Y-43815003D01*
X125833630Y-43994249D01*
X125833631Y-43994254D01*
X125893211Y-44164523D01*
X125974188Y-44293396D01*
X125989184Y-44317262D01*
X126116738Y-44444816D01*
X126198461Y-44496166D01*
X126247693Y-44527101D01*
X126269478Y-44540789D01*
X126439745Y-44600368D01*
X126439750Y-44600369D01*
X126618996Y-44620565D01*
X126619000Y-44620565D01*
X126619004Y-44620565D01*
X126798249Y-44600369D01*
X126798252Y-44600368D01*
X126798255Y-44600368D01*
X126968522Y-44540789D01*
X127121262Y-44444816D01*
X127121267Y-44444810D01*
X127124097Y-44442555D01*
X127126275Y-44441665D01*
X127127158Y-44441111D01*
X127127255Y-44441265D01*
X127188783Y-44416145D01*
X127201412Y-44415500D01*
X138915185Y-44415500D01*
X138982224Y-44435185D01*
X139027979Y-44487989D01*
X139038405Y-44553384D01*
X139021435Y-44703997D01*
X139021435Y-44704003D01*
X139041630Y-44883249D01*
X139041631Y-44883254D01*
X139101211Y-45053523D01*
X139197184Y-45206262D01*
X139279741Y-45288819D01*
X139313226Y-45350142D01*
X139308242Y-45419834D01*
X139266370Y-45475767D01*
X139200906Y-45500184D01*
X139192060Y-45500500D01*
X125523941Y-45500500D01*
X125490111Y-45509564D01*
X125490112Y-45509565D01*
X125371214Y-45541423D01*
X125371209Y-45541426D01*
X125234290Y-45620475D01*
X125234282Y-45620481D01*
X125122478Y-45732286D01*
X124060465Y-46794298D01*
X123999142Y-46827783D01*
X123986668Y-46829837D01*
X123899750Y-46839630D01*
X123729478Y-46899210D01*
X123576737Y-46995184D01*
X123449184Y-47122737D01*
X123353211Y-47275476D01*
X123293631Y-47445745D01*
X123293630Y-47445750D01*
X123273435Y-47624996D01*
X122420500Y-47624996D01*
X122420500Y-42530040D01*
X122420566Y-42525983D01*
X122432477Y-42162127D01*
X122438565Y-41976147D01*
X122439096Y-41968061D01*
X122482340Y-41528996D01*
X166742435Y-41528996D01*
X166742435Y-41529003D01*
X166762630Y-41708249D01*
X166762631Y-41708254D01*
X166822211Y-41878523D01*
X166918184Y-42031262D01*
X166919620Y-42032698D01*
X166920382Y-42034018D01*
X166922525Y-42036705D01*
X166922119Y-42037027D01*
X166951712Y-42088282D01*
X166970932Y-42160008D01*
X166988423Y-42225286D01*
X166988424Y-42225287D01*
X167009670Y-42262086D01*
X167067481Y-42362217D01*
X167186349Y-42481085D01*
X167186355Y-42481090D01*
X168051298Y-43346033D01*
X168084783Y-43407356D01*
X168086837Y-43419830D01*
X168096630Y-43506749D01*
X168096631Y-43506754D01*
X168096632Y-43506755D01*
X168097769Y-43510004D01*
X168156210Y-43677021D01*
X168220353Y-43779103D01*
X168252184Y-43829762D01*
X168379738Y-43957316D01*
X168470080Y-44014082D01*
X168530426Y-44052000D01*
X168532478Y-44053289D01*
X168702745Y-44112868D01*
X168702750Y-44112869D01*
X168881996Y-44133065D01*
X168882000Y-44133065D01*
X168882004Y-44133065D01*
X169061249Y-44112869D01*
X169061252Y-44112868D01*
X169061255Y-44112868D01*
X169231522Y-44053289D01*
X169384262Y-43957316D01*
X169384267Y-43957310D01*
X169387097Y-43955055D01*
X169389275Y-43954165D01*
X169390158Y-43953611D01*
X169390255Y-43953765D01*
X169451783Y-43928645D01*
X169464412Y-43928000D01*
X169836500Y-43928000D01*
X169903539Y-43947685D01*
X169949294Y-44000489D01*
X169960500Y-44052000D01*
X169960500Y-47423587D01*
X169940815Y-47490626D01*
X169933450Y-47500896D01*
X169931186Y-47503734D01*
X169835211Y-47656476D01*
X169775631Y-47826745D01*
X169775630Y-47826750D01*
X169755435Y-48005996D01*
X169755435Y-48006003D01*
X169775630Y-48185249D01*
X169775631Y-48185254D01*
X169835211Y-48355523D01*
X169894482Y-48449851D01*
X169931184Y-48508262D01*
X170058738Y-48635816D01*
X170075239Y-48646184D01*
X170176323Y-48709700D01*
X170211478Y-48731789D01*
X170381745Y-48791368D01*
X170381750Y-48791369D01*
X170560996Y-48811565D01*
X170561000Y-48811565D01*
X170561004Y-48811565D01*
X170740249Y-48791369D01*
X170740252Y-48791368D01*
X170740255Y-48791368D01*
X170910522Y-48731789D01*
X171063262Y-48635816D01*
X171190816Y-48508262D01*
X171286789Y-48355522D01*
X171346368Y-48185255D01*
X171346983Y-48179796D01*
X171366565Y-48006003D01*
X171366565Y-48005996D01*
X171346369Y-47826750D01*
X171346368Y-47826745D01*
X171331363Y-47783864D01*
X171286789Y-47656478D01*
X171286470Y-47655971D01*
X171235786Y-47575307D01*
X171190816Y-47503738D01*
X171190814Y-47503736D01*
X171190813Y-47503734D01*
X171188550Y-47500896D01*
X171187659Y-47498715D01*
X171187111Y-47497842D01*
X171187264Y-47497745D01*
X171162144Y-47436209D01*
X171161500Y-47423587D01*
X171161500Y-47021265D01*
X171181185Y-46954226D01*
X171233989Y-46908471D01*
X171271616Y-46898045D01*
X171289252Y-46896058D01*
X171375250Y-46886369D01*
X171375253Y-46886368D01*
X171375255Y-46886368D01*
X171545522Y-46826789D01*
X171698262Y-46730816D01*
X171825816Y-46603262D01*
X171921789Y-46450522D01*
X171981368Y-46280255D01*
X171988231Y-46219343D01*
X172001565Y-46101003D01*
X172001565Y-46100996D01*
X171981369Y-45921750D01*
X171981368Y-45921745D01*
X171921788Y-45751476D01*
X171881984Y-45688129D01*
X171825816Y-45598738D01*
X171825814Y-45598736D01*
X171825813Y-45598734D01*
X171823550Y-45595896D01*
X171822659Y-45593715D01*
X171822111Y-45592842D01*
X171822264Y-45592745D01*
X171797144Y-45531209D01*
X171796500Y-45518587D01*
X171796500Y-44464707D01*
X171816185Y-44397668D01*
X171868989Y-44351913D01*
X171879546Y-44347665D01*
X171883251Y-44346368D01*
X171883255Y-44346368D01*
X172053522Y-44286789D01*
X172206262Y-44190816D01*
X172333816Y-44063262D01*
X172429789Y-43910522D01*
X172489368Y-43740255D01*
X172501143Y-43635750D01*
X172509565Y-43561003D01*
X172509565Y-43560996D01*
X172489369Y-43381750D01*
X172489368Y-43381745D01*
X172472829Y-43334480D01*
X172429789Y-43211478D01*
X172413267Y-43185184D01*
X172333815Y-43058737D01*
X172206262Y-42931184D01*
X172053523Y-42835211D01*
X171883254Y-42775631D01*
X171883249Y-42775630D01*
X171697081Y-42754655D01*
X171697431Y-42751546D01*
X171643634Y-42735750D01*
X171597879Y-42682946D01*
X171588527Y-42617902D01*
X178865500Y-42617902D01*
X178865500Y-45054097D01*
X178902446Y-45287368D01*
X178975433Y-45511996D01*
X179065175Y-45688123D01*
X179082657Y-45722433D01*
X179221483Y-45913510D01*
X179388490Y-46080517D01*
X179579567Y-46219343D01*
X179678991Y-46270002D01*
X179790003Y-46326566D01*
X179790005Y-46326566D01*
X179790008Y-46326568D01*
X179910412Y-46365689D01*
X180014631Y-46399553D01*
X180247903Y-46436500D01*
X180247908Y-46436500D01*
X180484097Y-46436500D01*
X180717368Y-46399553D01*
X180941992Y-46326568D01*
X181152433Y-46219343D01*
X181343510Y-46080517D01*
X181510517Y-45913510D01*
X181649343Y-45722433D01*
X181666819Y-45688135D01*
X182365500Y-45688135D01*
X182365500Y-47783870D01*
X182365501Y-47783876D01*
X182371908Y-47843483D01*
X182422202Y-47978328D01*
X182422206Y-47978335D01*
X182508452Y-48093544D01*
X182508455Y-48093547D01*
X182623664Y-48179793D01*
X182623671Y-48179797D01*
X182758517Y-48230091D01*
X182758516Y-48230091D01*
X182765444Y-48230835D01*
X182818127Y-48236500D01*
X187513872Y-48236499D01*
X187573483Y-48230091D01*
X187708331Y-48179796D01*
X187823546Y-48093546D01*
X187909796Y-47978331D01*
X187960091Y-47843483D01*
X187966500Y-47783873D01*
X187966499Y-45688128D01*
X187960091Y-45628517D01*
X187957093Y-45620480D01*
X187909797Y-45493671D01*
X187909793Y-45493664D01*
X187823547Y-45378455D01*
X187823544Y-45378452D01*
X187708335Y-45292206D01*
X187708328Y-45292202D01*
X187573482Y-45241908D01*
X187573483Y-45241908D01*
X187513883Y-45235501D01*
X187513881Y-45235500D01*
X187513873Y-45235500D01*
X187513864Y-45235500D01*
X182818129Y-45235500D01*
X182818123Y-45235501D01*
X182758516Y-45241908D01*
X182623671Y-45292202D01*
X182623664Y-45292206D01*
X182508455Y-45378452D01*
X182508452Y-45378455D01*
X182422206Y-45493664D01*
X182422202Y-45493671D01*
X182371908Y-45628517D01*
X182365501Y-45688116D01*
X182365501Y-45688123D01*
X182365500Y-45688135D01*
X181666819Y-45688135D01*
X181756568Y-45511992D01*
X181829553Y-45287368D01*
X181832259Y-45270281D01*
X181866500Y-45054097D01*
X181866500Y-43509995D01*
X193779451Y-43509995D01*
X193779451Y-43510004D01*
X193799616Y-43779101D01*
X193859664Y-44042188D01*
X193859666Y-44042195D01*
X193958257Y-44293398D01*
X194093185Y-44527102D01*
X194151613Y-44600368D01*
X194261442Y-44738089D01*
X194417894Y-44883254D01*
X194459259Y-44921635D01*
X194682226Y-45073651D01*
X194925359Y-45190738D01*
X195183228Y-45270280D01*
X195183229Y-45270280D01*
X195183232Y-45270281D01*
X195450063Y-45310499D01*
X195450068Y-45310499D01*
X195450071Y-45310500D01*
X195450072Y-45310500D01*
X195719928Y-45310500D01*
X195719929Y-45310500D01*
X195719936Y-45310499D01*
X195986767Y-45270281D01*
X195986768Y-45270280D01*
X195986772Y-45270280D01*
X196244641Y-45190738D01*
X196487775Y-45073651D01*
X196710741Y-44921635D01*
X196908561Y-44738085D01*
X197076815Y-44527102D01*
X197211743Y-44293398D01*
X197310334Y-44042195D01*
X197370383Y-43779103D01*
X197386727Y-43561000D01*
X197390549Y-43510004D01*
X197390549Y-43509995D01*
X197371472Y-43255424D01*
X197370383Y-43240897D01*
X197310334Y-42977805D01*
X197211743Y-42726602D01*
X197076815Y-42492898D01*
X196908561Y-42281915D01*
X196908560Y-42281914D01*
X196908557Y-42281910D01*
X196779469Y-42162135D01*
X198864500Y-42162135D01*
X198864500Y-44857870D01*
X198864501Y-44857876D01*
X198870908Y-44917483D01*
X198921202Y-45052328D01*
X198921206Y-45052335D01*
X199007452Y-45167544D01*
X199007455Y-45167547D01*
X199122664Y-45253793D01*
X199122671Y-45253797D01*
X199257517Y-45304091D01*
X199257516Y-45304091D01*
X199261321Y-45304500D01*
X199317127Y-45310500D01*
X202012872Y-45310499D01*
X202072483Y-45304091D01*
X202207331Y-45253796D01*
X202322546Y-45167546D01*
X202408796Y-45052331D01*
X202459091Y-44917483D01*
X202465500Y-44857873D01*
X202465499Y-42162128D01*
X202459091Y-42102517D01*
X202457542Y-42098365D01*
X202408797Y-41967671D01*
X202408793Y-41967664D01*
X202322547Y-41852455D01*
X202322544Y-41852452D01*
X202207335Y-41766206D01*
X202207328Y-41766202D01*
X202072482Y-41715908D01*
X202072483Y-41715908D01*
X202012883Y-41709501D01*
X202012881Y-41709500D01*
X202012873Y-41709500D01*
X202012864Y-41709500D01*
X199317129Y-41709500D01*
X199317123Y-41709501D01*
X199257516Y-41715908D01*
X199122671Y-41766202D01*
X199122664Y-41766206D01*
X199007455Y-41852452D01*
X199007452Y-41852455D01*
X198921206Y-41967664D01*
X198921202Y-41967671D01*
X198870908Y-42102517D01*
X198864728Y-42160003D01*
X198864501Y-42162123D01*
X198864500Y-42162135D01*
X196779469Y-42162135D01*
X196710741Y-42098365D01*
X196655316Y-42060577D01*
X196487775Y-41946349D01*
X196487769Y-41946346D01*
X196487768Y-41946345D01*
X196487767Y-41946344D01*
X196244643Y-41829263D01*
X196244645Y-41829263D01*
X195986773Y-41749720D01*
X195986767Y-41749718D01*
X195719936Y-41709500D01*
X195719929Y-41709500D01*
X195450071Y-41709500D01*
X195450063Y-41709500D01*
X195183232Y-41749718D01*
X195183226Y-41749720D01*
X194925358Y-41829262D01*
X194682230Y-41946346D01*
X194459258Y-42098365D01*
X194261442Y-42281910D01*
X194093185Y-42492898D01*
X193958258Y-42726599D01*
X193958256Y-42726603D01*
X193859666Y-42977804D01*
X193859664Y-42977811D01*
X193799616Y-43240898D01*
X193779451Y-43509995D01*
X181866500Y-43509995D01*
X181866500Y-42617902D01*
X181829553Y-42384631D01*
X181779126Y-42229435D01*
X181756568Y-42160008D01*
X181756566Y-42160005D01*
X181756566Y-42160003D01*
X181690969Y-42031262D01*
X181649343Y-41949567D01*
X181510517Y-41758490D01*
X181343510Y-41591483D01*
X181152433Y-41452657D01*
X180941996Y-41345433D01*
X180717368Y-41272446D01*
X180484097Y-41235500D01*
X180484092Y-41235500D01*
X180247908Y-41235500D01*
X180247903Y-41235500D01*
X180014631Y-41272446D01*
X179790003Y-41345433D01*
X179579566Y-41452657D01*
X179474496Y-41528996D01*
X179388490Y-41591483D01*
X179388488Y-41591485D01*
X179388487Y-41591485D01*
X179221485Y-41758487D01*
X179221485Y-41758488D01*
X179221483Y-41758490D01*
X179192264Y-41798707D01*
X179082657Y-41949566D01*
X178975433Y-42160003D01*
X178902446Y-42384631D01*
X178865500Y-42617902D01*
X171588527Y-42617902D01*
X171587935Y-42613788D01*
X171616960Y-42550232D01*
X171622992Y-42543754D01*
X171941461Y-42225285D01*
X172280047Y-41886698D01*
X172341368Y-41853215D01*
X172353823Y-41851163D01*
X172440767Y-41841368D01*
X172611034Y-41781789D01*
X172763774Y-41685816D01*
X172891328Y-41558262D01*
X172987301Y-41405522D01*
X173046880Y-41235255D01*
X173046881Y-41235249D01*
X173067077Y-41056003D01*
X173067077Y-41055996D01*
X173046881Y-40876750D01*
X173046880Y-40876745D01*
X173002788Y-40750738D01*
X172987301Y-40706478D01*
X172891328Y-40553738D01*
X172763774Y-40426184D01*
X172674635Y-40370174D01*
X172611035Y-40330211D01*
X172440766Y-40270631D01*
X172440761Y-40270630D01*
X172261516Y-40250435D01*
X172261508Y-40250435D01*
X172082262Y-40270630D01*
X172082257Y-40270631D01*
X171911988Y-40330211D01*
X171759249Y-40426184D01*
X171631696Y-40553737D01*
X171535722Y-40706478D01*
X171476142Y-40876750D01*
X171466349Y-40963668D01*
X171439282Y-41028082D01*
X171430810Y-41037465D01*
X169777596Y-42690681D01*
X169716273Y-42724166D01*
X169689915Y-42727000D01*
X169464412Y-42727000D01*
X169397373Y-42707315D01*
X169387097Y-42699945D01*
X169384263Y-42697685D01*
X169384262Y-42697684D01*
X169307892Y-42649697D01*
X169231521Y-42601710D01*
X169061249Y-42542130D01*
X168974330Y-42532337D01*
X168909916Y-42505270D01*
X168900533Y-42496798D01*
X168331078Y-41927343D01*
X168297593Y-41866020D01*
X168301718Y-41798707D01*
X168333366Y-41708262D01*
X168333369Y-41708249D01*
X168353565Y-41529003D01*
X168353565Y-41528996D01*
X168333369Y-41349750D01*
X168333368Y-41349745D01*
X168277898Y-41191222D01*
X168273789Y-41179478D01*
X168177816Y-41026738D01*
X168050262Y-40899184D01*
X168009918Y-40873834D01*
X167897523Y-40803211D01*
X167727254Y-40743631D01*
X167727249Y-40743630D01*
X167548004Y-40723435D01*
X167547996Y-40723435D01*
X167368750Y-40743630D01*
X167368745Y-40743631D01*
X167198476Y-40803211D01*
X167045737Y-40899184D01*
X166918184Y-41026737D01*
X166822211Y-41179476D01*
X166762631Y-41349745D01*
X166762630Y-41349750D01*
X166742435Y-41528996D01*
X122482340Y-41528996D01*
X122492818Y-41422607D01*
X122493870Y-41414617D01*
X122583159Y-40873806D01*
X122584731Y-40865903D01*
X122709196Y-40332099D01*
X122711283Y-40324310D01*
X122870393Y-39799794D01*
X122873000Y-39792117D01*
X122957911Y-39566515D01*
X123018056Y-39406711D01*
X126069500Y-39406711D01*
X126069500Y-39649288D01*
X126101161Y-39889785D01*
X126163947Y-40124104D01*
X126249320Y-40330211D01*
X126256776Y-40348212D01*
X126378064Y-40558289D01*
X126378066Y-40558292D01*
X126378067Y-40558293D01*
X126525733Y-40750736D01*
X126525739Y-40750743D01*
X126697256Y-40922260D01*
X126697263Y-40922266D01*
X126806922Y-41006410D01*
X126889711Y-41069936D01*
X127099788Y-41191224D01*
X127323900Y-41284054D01*
X127558211Y-41346838D01*
X127738586Y-41370584D01*
X127798711Y-41378500D01*
X127798712Y-41378500D01*
X128041289Y-41378500D01*
X128089388Y-41372167D01*
X128281789Y-41346838D01*
X128516100Y-41284054D01*
X128740212Y-41191224D01*
X128950289Y-41069936D01*
X129142738Y-40922265D01*
X129314265Y-40750738D01*
X129461936Y-40558289D01*
X129583224Y-40348212D01*
X129676054Y-40124100D01*
X129738838Y-39889789D01*
X129770500Y-39649288D01*
X129770500Y-39406712D01*
X129738838Y-39166211D01*
X129714379Y-39074928D01*
X164623000Y-39074928D01*
X164623000Y-39468500D01*
X165273000Y-39468500D01*
X165273000Y-39968500D01*
X164623000Y-39968500D01*
X164623000Y-40362071D01*
X164659506Y-40545597D01*
X164659508Y-40545605D01*
X164731119Y-40718491D01*
X164731124Y-40718500D01*
X164835086Y-40874089D01*
X164835089Y-40874093D01*
X164967406Y-41006410D01*
X164967410Y-41006413D01*
X165122999Y-41110375D01*
X165123012Y-41110382D01*
X165295889Y-41181989D01*
X165295896Y-41181991D01*
X165323000Y-41187382D01*
X165323000Y-40435488D01*
X165332940Y-40452705D01*
X165388795Y-40508560D01*
X165457204Y-40548056D01*
X165533504Y-40568500D01*
X165612496Y-40568500D01*
X165688796Y-40548056D01*
X165757205Y-40508560D01*
X165813060Y-40452705D01*
X165823000Y-40435488D01*
X165823000Y-41187381D01*
X165850103Y-41181991D01*
X165850110Y-41181989D01*
X166022987Y-41110382D01*
X166023000Y-41110375D01*
X166178589Y-41006413D01*
X166178593Y-41006410D01*
X166310910Y-40874093D01*
X166310913Y-40874089D01*
X166414875Y-40718500D01*
X166414880Y-40718491D01*
X166486491Y-40545605D01*
X166486493Y-40545597D01*
X166522999Y-40362071D01*
X166523000Y-40362069D01*
X166523000Y-39968500D01*
X165873000Y-39968500D01*
X165873000Y-39468500D01*
X166439311Y-39468500D01*
X166506350Y-39488185D01*
X166546697Y-39530499D01*
X166567491Y-39566515D01*
X166669985Y-39669009D01*
X166669986Y-39669010D01*
X166669988Y-39669011D01*
X166795511Y-39741482D01*
X166795512Y-39741482D01*
X166795515Y-39741484D01*
X166935525Y-39779000D01*
X166935528Y-39779000D01*
X167080472Y-39779000D01*
X167080475Y-39779000D01*
X167220485Y-39741484D01*
X167346015Y-39669009D01*
X167448509Y-39566515D01*
X167520984Y-39440985D01*
X167558500Y-39300975D01*
X167558500Y-39156025D01*
X172237500Y-39156025D01*
X172237500Y-39300975D01*
X172275016Y-39440985D01*
X172275017Y-39440988D01*
X172347488Y-39566511D01*
X172347490Y-39566513D01*
X172347491Y-39566515D01*
X172449985Y-39669009D01*
X172449986Y-39669010D01*
X172449988Y-39669011D01*
X172575511Y-39741482D01*
X172575512Y-39741482D01*
X172575515Y-39741484D01*
X172715525Y-39779000D01*
X172715528Y-39779000D01*
X172860472Y-39779000D01*
X172860475Y-39779000D01*
X173000485Y-39741484D01*
X173126015Y-39669009D01*
X173228509Y-39566515D01*
X173249302Y-39530499D01*
X173299868Y-39482285D01*
X173356689Y-39468500D01*
X173923000Y-39468500D01*
X173923000Y-39968500D01*
X173273000Y-39968500D01*
X173273000Y-40362071D01*
X173309506Y-40545597D01*
X173309508Y-40545605D01*
X173381119Y-40718491D01*
X173381124Y-40718500D01*
X173485086Y-40874089D01*
X173485089Y-40874093D01*
X173617406Y-41006410D01*
X173617410Y-41006413D01*
X173772999Y-41110375D01*
X173773012Y-41110382D01*
X173945889Y-41181989D01*
X173945896Y-41181991D01*
X173973000Y-41187382D01*
X173973000Y-40435488D01*
X173982940Y-40452705D01*
X174038795Y-40508560D01*
X174107204Y-40548056D01*
X174183504Y-40568500D01*
X174262496Y-40568500D01*
X174338796Y-40548056D01*
X174407205Y-40508560D01*
X174463060Y-40452705D01*
X174473000Y-40435488D01*
X174473000Y-41187381D01*
X174500103Y-41181991D01*
X174500110Y-41181989D01*
X174672987Y-41110382D01*
X174673000Y-41110375D01*
X174828589Y-41006413D01*
X174828593Y-41006410D01*
X174960910Y-40874093D01*
X174960913Y-40874089D01*
X175064875Y-40718500D01*
X175064880Y-40718491D01*
X175136491Y-40545605D01*
X175136493Y-40545597D01*
X175172999Y-40362071D01*
X175173000Y-40362069D01*
X175173000Y-40186000D01*
X182586898Y-40186000D01*
X183632988Y-40186000D01*
X183600075Y-40243007D01*
X183566000Y-40370174D01*
X183566000Y-40501826D01*
X183600075Y-40628993D01*
X183632988Y-40686000D01*
X182586898Y-40686000D01*
X182602934Y-40787247D01*
X182675897Y-41011802D01*
X182783085Y-41222171D01*
X182921866Y-41413186D01*
X183088813Y-41580133D01*
X183279828Y-41718914D01*
X183490197Y-41826102D01*
X183714752Y-41899065D01*
X183714751Y-41899065D01*
X183947948Y-41936000D01*
X184916000Y-41936000D01*
X184916000Y-40936000D01*
X185416000Y-40936000D01*
X185416000Y-41936000D01*
X186384052Y-41936000D01*
X186617247Y-41899065D01*
X186841802Y-41826102D01*
X187052171Y-41718914D01*
X187243186Y-41580133D01*
X187410133Y-41413186D01*
X187548914Y-41222171D01*
X187656102Y-41011802D01*
X187729065Y-40787247D01*
X187745102Y-40686000D01*
X186699012Y-40686000D01*
X186731925Y-40628993D01*
X186766000Y-40501826D01*
X186766000Y-40370174D01*
X186731925Y-40243007D01*
X186699012Y-40186000D01*
X187745102Y-40186000D01*
X187729065Y-40084752D01*
X187656102Y-39860197D01*
X187548914Y-39649828D01*
X187410133Y-39458813D01*
X187243186Y-39291866D01*
X187052171Y-39153085D01*
X186841802Y-39045897D01*
X186617247Y-38972934D01*
X186617248Y-38972934D01*
X186384052Y-38936000D01*
X185416000Y-38936000D01*
X185416000Y-39936000D01*
X184916000Y-39936000D01*
X184916000Y-38936000D01*
X183947948Y-38936000D01*
X183714752Y-38972934D01*
X183490197Y-39045897D01*
X183279828Y-39153085D01*
X183088813Y-39291866D01*
X182921866Y-39458813D01*
X182783085Y-39649828D01*
X182675897Y-39860197D01*
X182602934Y-40084752D01*
X182586898Y-40186000D01*
X175173000Y-40186000D01*
X175173000Y-39968500D01*
X174523000Y-39968500D01*
X174523000Y-39468500D01*
X175173000Y-39468500D01*
X175173000Y-39074930D01*
X175172999Y-39074928D01*
X175136493Y-38891402D01*
X175136491Y-38891394D01*
X175064880Y-38718508D01*
X175064875Y-38718499D01*
X174960913Y-38562910D01*
X174960910Y-38562906D01*
X174828593Y-38430589D01*
X174828589Y-38430586D01*
X174673000Y-38326624D01*
X174672991Y-38326619D01*
X174500103Y-38255007D01*
X174500100Y-38255006D01*
X174473000Y-38249615D01*
X174473000Y-39001511D01*
X174463060Y-38984295D01*
X174407205Y-38928440D01*
X174338796Y-38888944D01*
X174262496Y-38868500D01*
X174183504Y-38868500D01*
X174107204Y-38888944D01*
X174038795Y-38928440D01*
X173982940Y-38984295D01*
X173973000Y-39001511D01*
X173973000Y-38249616D01*
X173972999Y-38249615D01*
X173945899Y-38255006D01*
X173945896Y-38255007D01*
X173773008Y-38326619D01*
X173772999Y-38326624D01*
X173617410Y-38430586D01*
X173617406Y-38430589D01*
X173485089Y-38562906D01*
X173485086Y-38562910D01*
X173381124Y-38718499D01*
X173381119Y-38718509D01*
X173357068Y-38776574D01*
X173313227Y-38830977D01*
X173246932Y-38853042D01*
X173179233Y-38835763D01*
X173154826Y-38816802D01*
X173126017Y-38787993D01*
X173126011Y-38787988D01*
X173000488Y-38715517D01*
X173000489Y-38715517D01*
X172971644Y-38707788D01*
X172860475Y-38678000D01*
X172715525Y-38678000D01*
X172604356Y-38707788D01*
X172575511Y-38715517D01*
X172449988Y-38787988D01*
X172449982Y-38787993D01*
X172347493Y-38890482D01*
X172347488Y-38890488D01*
X172275017Y-39016011D01*
X172275016Y-39016015D01*
X172237500Y-39156025D01*
X167558500Y-39156025D01*
X167520984Y-39016015D01*
X167502670Y-38984295D01*
X167448511Y-38890488D01*
X167448506Y-38890482D01*
X167346017Y-38787993D01*
X167346011Y-38787988D01*
X167220488Y-38715517D01*
X167220489Y-38715517D01*
X167191644Y-38707788D01*
X167080475Y-38678000D01*
X166935525Y-38678000D01*
X166824356Y-38707788D01*
X166795511Y-38715517D01*
X166669988Y-38787988D01*
X166641172Y-38816804D01*
X166579848Y-38850288D01*
X166510157Y-38845302D01*
X166454224Y-38803430D01*
X166438930Y-38776573D01*
X166414877Y-38718503D01*
X166414875Y-38718499D01*
X166310913Y-38562910D01*
X166310910Y-38562906D01*
X166178593Y-38430589D01*
X166178589Y-38430586D01*
X166023000Y-38326624D01*
X166022991Y-38326619D01*
X165850103Y-38255007D01*
X165850100Y-38255006D01*
X165823000Y-38249615D01*
X165823000Y-39001511D01*
X165813060Y-38984295D01*
X165757205Y-38928440D01*
X165688796Y-38888944D01*
X165612496Y-38868500D01*
X165533504Y-38868500D01*
X165457204Y-38888944D01*
X165388795Y-38928440D01*
X165332940Y-38984295D01*
X165323000Y-39001511D01*
X165323000Y-38249616D01*
X165322999Y-38249615D01*
X165295899Y-38255006D01*
X165295896Y-38255007D01*
X165123008Y-38326619D01*
X165122999Y-38326624D01*
X164967410Y-38430586D01*
X164967406Y-38430589D01*
X164835089Y-38562906D01*
X164835086Y-38562910D01*
X164731124Y-38718499D01*
X164731119Y-38718508D01*
X164659508Y-38891394D01*
X164659506Y-38891402D01*
X164623000Y-39074928D01*
X129714379Y-39074928D01*
X129676054Y-38931900D01*
X129583224Y-38707788D01*
X129461936Y-38497711D01*
X129314265Y-38305262D01*
X129314260Y-38305256D01*
X129142743Y-38133739D01*
X129142736Y-38133733D01*
X128950293Y-37986067D01*
X128950292Y-37986066D01*
X128950289Y-37986064D01*
X128740212Y-37864776D01*
X128740205Y-37864773D01*
X128516104Y-37771947D01*
X128281785Y-37709161D01*
X128041289Y-37677500D01*
X128041288Y-37677500D01*
X127798712Y-37677500D01*
X127798711Y-37677500D01*
X127558214Y-37709161D01*
X127323895Y-37771947D01*
X127099794Y-37864773D01*
X127099785Y-37864777D01*
X126889706Y-37986067D01*
X126697263Y-38133733D01*
X126697256Y-38133739D01*
X126525739Y-38305256D01*
X126525733Y-38305263D01*
X126378067Y-38497706D01*
X126256777Y-38707785D01*
X126256773Y-38707794D01*
X126163947Y-38931895D01*
X126101161Y-39166214D01*
X126069500Y-39406711D01*
X123018056Y-39406711D01*
X123066056Y-39279178D01*
X123069159Y-39271690D01*
X123133809Y-39129004D01*
X123295364Y-38772441D01*
X123298930Y-38765211D01*
X123557309Y-38281819D01*
X123561360Y-38274803D01*
X123577023Y-38249616D01*
X123850782Y-37809374D01*
X123855287Y-37802633D01*
X124174546Y-37357107D01*
X124179448Y-37350718D01*
X124527178Y-36927008D01*
X124532502Y-36920938D01*
X124907198Y-36520879D01*
X124912879Y-36515198D01*
X125312938Y-36140502D01*
X125319008Y-36135178D01*
X125742718Y-35787448D01*
X125749107Y-35782546D01*
X126194639Y-35463282D01*
X126201380Y-35458779D01*
X126299037Y-35398052D01*
X126666813Y-35169353D01*
X126673819Y-35165309D01*
X127157211Y-34906930D01*
X127164441Y-34903364D01*
X127565093Y-34721832D01*
X127663690Y-34677159D01*
X127671178Y-34674056D01*
X128184123Y-34480997D01*
X128191794Y-34478393D01*
X128716310Y-34319283D01*
X128724099Y-34317196D01*
X129257903Y-34192731D01*
X129265806Y-34191159D01*
X129806617Y-34101870D01*
X129814607Y-34100818D01*
X130360073Y-34047095D01*
X130368147Y-34046565D01*
X130917984Y-34028566D01*
X130922041Y-34028500D01*
X130985892Y-34028500D01*
X165171059Y-34028500D01*
X165238098Y-34048185D01*
G37*
%TD.AperFunction*%
%TD*%
M02*
