M48
; DRILL file {KiCad 8.0.2} date 2025-04-18T13:43:35+0200
; FORMAT={-:-/ absolute / inch / decimal}
; #@! TF.CreationDate,2025-04-18T13:43:35+02:00
; #@! TF.GenerationSoftware,Kicad,Pcbnew,8.0.2
; #@! TF.FileFunction,Plated,1,2,PTH
FMAT,2
INCH
; #@! TA.AperFunction,Plated,PTH,ViaDrill
T1C0.0118
; #@! TA.AperFunction,Plated,PTH,ViaDrill
T2C0.0197
; #@! TA.AperFunction,Plated,PTH,ComponentDrill
T3C0.0236
; #@! TA.AperFunction,Plated,PTH,ViaDrill
T4C0.0276
; #@! TA.AperFunction,Plated,PTH,ComponentDrill
T5C0.0295
; #@! TA.AperFunction,Plated,PTH,ComponentDrill
T6C0.0354
; #@! TA.AperFunction,Plated,PTH,ComponentDrill
T7C0.0394
; #@! TA.AperFunction,Plated,PTH,ComponentDrill
T8C0.0512
%
G90
G05
T1
X4.885Y-1.875
X4.985Y-1.725
X5.0583Y-3.3733
X5.07Y-2.175
X5.085Y-2.425
X5.0892Y-3.3342
X5.0984Y-2.5118
X5.115Y-3.42
X5.115Y-3.905
X5.1417Y-2.874
X5.15Y-3.39
X5.155Y-3.14
X5.16Y-3.93
X5.2Y-3.935
X5.2598Y-2.5866
X5.29Y-3.94
X5.3228Y-2.7047
X5.3268Y-2.5433
X5.3583Y-2.3622
X5.4567Y-2.437
X5.4606Y-2.6535
X5.47Y-2.24
X5.4764Y-2.7165
X5.4961Y-2.4646
X5.5Y-2.03
X5.505Y-1.76
X5.51Y-2.1
X5.5197Y-1.9291
X5.53Y-2.175
X5.535Y-3.5
X5.5427Y-2.2658
X5.5433Y-2.4764
X5.5436Y-2.44
X5.5551Y-2.9724
X5.565Y-3.45
X5.6Y-2.255
X5.605Y-2.44
X5.61Y-2.98
X5.64Y-2.52
X5.6535Y-2.8386
X5.67Y-3.5
X5.6969Y-3.0
X5.71Y-2.24
X5.715Y-2.565
X5.735Y-3.28
X5.745Y-3.345
X5.75Y-2.825
X5.755Y-2.47
X5.77Y-2.115
X5.7764Y-2.26
X5.811Y-2.8346
X5.825Y-3.43
X5.845Y-3.59
X5.85Y-2.525
X5.8686Y-2.445
X5.87Y-2.13
X5.875Y-2.015
X5.885Y-3.09
X5.89Y-3.23
X5.895Y-2.24
X5.9Y-1.94
X5.905Y-3.4175
X5.94Y-3.1486
X5.945Y-1.905
X5.945Y-2.58
X5.945Y-3.43
X5.975Y-3.175
X5.995Y-1.76
X6.0Y-2.635
X6.0Y-3.145
X6.01Y-1.91
X6.01Y-2.2
X6.01Y-2.955
X6.0217Y-3.0679
X6.03Y-3.215
X6.04Y-2.94
X6.06Y-3.19
X6.105Y-2.585
X6.105Y-2.89
X6.14Y-3.565
X6.18Y-2.445
X6.185Y-2.04
X6.19Y-3.07
X6.19Y-3.36
X6.2Y-3.29
X6.215Y-2.19
X6.245Y-1.885
X6.2817Y-3.4633
X6.2875Y-1.8425
X6.33Y-4.055
X6.35Y-2.23
X6.4Y-4.055
X6.405Y-3.26
X6.42Y-3.065
X6.435Y-3.42
X6.435Y-3.56
X6.4517Y-3.4683
X6.455Y-3.525
X6.485Y-3.2364
X6.51Y-3.635
X6.555Y-3.75
X6.555Y-3.98
X6.56Y-3.865
X6.5945Y-2.3701
X6.5964Y-1.635
X6.63Y-3.95
X6.6489Y-1.7058
X6.65Y-1.77
X6.705Y-3.345
X6.715Y-1.89
X6.7205Y-3.0118
X6.73Y-1.705
X6.7323Y-2.2362
X6.7362Y-3.937
X6.74Y-1.815
X6.76Y-1.715
X6.7677Y-3.0512
X6.7692Y-2.0358
X6.7756Y-3.3228
X6.7819Y-1.6164
X6.805Y-2.05
X6.82Y-1.835
X6.8898Y-2.2874
X6.9843Y-2.3386
X7.0039Y-2.2205
X7.7113Y-4.1956
T2
X5.374Y-3.9843
X5.4724Y-3.8465
X7.0709Y-3.7874
X7.1614Y-4.1339
X7.65Y-3.85
X7.9108Y-3.8242
X8.0148Y-2.7748
X8.165Y-2.455
T4
X7.4843Y-2.6457
X7.563Y-3.1772
X7.7874Y-3.1929
X7.8386Y-2.6417
T5
X5.6826Y-3.8775
X5.6826Y-3.9563
X5.6826Y-4.035
X5.6826Y-4.1137
X5.6826Y-4.1925
X5.6826Y-4.2712
X6.0763Y-3.9563
X6.0763Y-4.035
X6.0763Y-4.1137
X6.0763Y-4.1925
X6.0763Y-4.2712
X6.47Y-4.035
X6.47Y-4.1137
X6.47Y-4.1925
X6.47Y-4.2712
T6
X6.7677Y-2.7323
X6.9252Y-2.7323
T7
X4.9181Y-3.5054
X4.9181Y-3.6054
X4.9181Y-3.7054
X4.9181Y-3.8054
X5.115Y-3.5054
X5.115Y-3.6054
X5.115Y-3.7054
X5.115Y-3.8054
X5.3119Y-3.5054
X5.3119Y-3.6054
X5.3119Y-3.7054
X5.3119Y-3.8054
X5.6Y-2.705
X5.67Y-3.675
X5.7Y-2.705
X5.77Y-3.675
X5.7804Y-3.505
X5.8Y-2.705
X5.87Y-3.675
X5.8804Y-3.505
X5.9Y-2.705
X5.9804Y-3.505
X6.0Y-2.705
X6.045Y-3.675
X6.0804Y-3.505
X6.145Y-3.675
X6.245Y-3.675
X6.59Y-3.16
X6.59Y-3.26
X6.59Y-3.36
X6.59Y-3.46
T8
X7.7002Y-1.713
X7.9002Y-1.713
T3
G00X6.5186Y-1.4153
M15
G01X6.5186Y-1.3838
M16
G05
G00X6.5186Y-1.5854
M15
G01X6.5186Y-1.5421
M16
G05
G00X6.8592Y-1.4153
M15
G01X6.8592Y-1.3838
M16
G05
G00X6.8592Y-1.5854
M15
G01X6.8592Y-1.5421
M16
G05
T7
G00X7.101Y-1.7691
M15
G01X7.101Y-1.6825
M16
G05
G00X7.3333Y-1.592
M15
G01X7.2467Y-1.592
M16
G05
G00X7.3412Y-1.84
M15
G01X7.2388Y-1.84
M16
G05
M30
