%TF.GenerationSoftware,KiCad,Pcbnew,8.0.2*%
%TF.CreationDate,2025-04-18T13:43:38+02:00*%
%TF.ProjectId,Mini-me-pcb,4d696e69-2d6d-4652-9d70-63622e6b6963,rev?*%
%TF.SameCoordinates,Original*%
%TF.FileFunction,Soldermask,Bot*%
%TF.FilePolarity,Negative*%
%FSLAX46Y46*%
G04 Gerber Fmt 4.6, Leading zero omitted, Abs format (unit mm)*
G04 Created by KiCad (PCBNEW 8.0.2) date 2025-04-18 13:43:38*
%MOMM*%
%LPD*%
G01*
G04 APERTURE LIST*
G04 Aperture macros list*
%AMRoundRect*
0 Rectangle with rounded corners*
0 $1 Rounding radius*
0 $2 $3 $4 $5 $6 $7 $8 $9 X,Y pos of 4 corners*
0 Add a 4 corners polygon primitive as box body*
4,1,4,$2,$3,$4,$5,$6,$7,$8,$9,$2,$3,0*
0 Add four circle primitives for the rounded corners*
1,1,$1+$1,$2,$3*
1,1,$1+$1,$4,$5*
1,1,$1+$1,$6,$7*
1,1,$1+$1,$8,$9*
0 Add four rect primitives between the rounded corners*
20,1,$1+$1,$2,$3,$4,$5,0*
20,1,$1+$1,$4,$5,$6,$7,0*
20,1,$1+$1,$6,$7,$8,$9,0*
20,1,$1+$1,$8,$9,$2,$3,0*%
G04 Aperture macros list end*
%ADD10R,1.700000X1.700000*%
%ADD11O,1.700000X1.700000*%
%ADD12RoundRect,0.250000X0.625000X-0.350000X0.625000X0.350000X-0.625000X0.350000X-0.625000X-0.350000X0*%
%ADD13O,1.750000X1.200000*%
%ADD14R,4.600000X2.000000*%
%ADD15O,4.200000X2.000000*%
%ADD16O,2.000000X4.200000*%
%ADD17R,2.600000X2.600000*%
%ADD18C,2.600000*%
%ADD19R,1.600000X1.600000*%
%ADD20C,1.600000*%
%ADD21C,3.200000*%
%ADD22C,1.000000*%
%ADD23C,0.600000*%
%ADD24O,1.104000X2.204000*%
%ADD25O,1.104000X1.904000*%
G04 APERTURE END LIST*
D10*
%TO.C,J16*%
X142240000Y-68707000D03*
D11*
X144780000Y-68707000D03*
X147320000Y-68707000D03*
X149860000Y-68707000D03*
X152400000Y-68707000D03*
%TD*%
D10*
%TO.C,J14*%
X124921000Y-89037000D03*
D11*
X124921000Y-91577000D03*
X124921000Y-94117000D03*
X124921000Y-96657000D03*
%TD*%
D10*
%TO.C,J13*%
X129921000Y-89037000D03*
D11*
X129921000Y-91577000D03*
X129921000Y-94117000D03*
X129921000Y-96657000D03*
%TD*%
D12*
%TO.C,J12*%
X164338000Y-108489000D03*
D13*
X164338000Y-106489000D03*
X164338000Y-104489000D03*
X164338000Y-102489000D03*
%TD*%
D14*
%TO.C,J2*%
X185166000Y-46736000D03*
D15*
X185166000Y-40436000D03*
D16*
X180366000Y-43836000D03*
%TD*%
D10*
%TO.C,J8*%
X167386000Y-80264000D03*
D11*
X167386000Y-82804000D03*
X167386000Y-85344000D03*
X167386000Y-87884000D03*
%TD*%
D17*
%TO.C,J3*%
X200665000Y-43510000D03*
D18*
X195585000Y-43510000D03*
%TD*%
D10*
%TO.C,J5*%
X153543000Y-93345000D03*
D11*
X156083000Y-93345000D03*
X158623000Y-93345000D03*
%TD*%
D19*
%TO.C,BZ1*%
X171900000Y-69400000D03*
D20*
X175900000Y-69400000D03*
%TD*%
D21*
%TO.C,H2*%
X203300000Y-106600000D03*
%TD*%
D12*
%TO.C,J9*%
X154338000Y-108489000D03*
D13*
X154338000Y-106489000D03*
X154338000Y-104489000D03*
X154338000Y-102489000D03*
X154338000Y-100489000D03*
%TD*%
D10*
%TO.C,J6*%
X144018000Y-93345000D03*
D11*
X146558000Y-93345000D03*
X149098000Y-93345000D03*
%TD*%
D12*
%TO.C,J10*%
X144338000Y-108489000D03*
D13*
X144338000Y-106489000D03*
X144338000Y-104489000D03*
X144338000Y-102489000D03*
X144338000Y-100489000D03*
X144338000Y-98489000D03*
%TD*%
D22*
%TO.C,J18*%
X126100000Y-64650000D03*
X126100000Y-72650000D03*
%TD*%
D21*
%TO.C,H1*%
X127920000Y-39528000D03*
%TD*%
D23*
%TO.C,J1*%
X172788000Y-39228500D03*
X167008000Y-39228500D03*
D24*
X174223000Y-39718500D03*
X165573000Y-39718500D03*
D25*
X174223000Y-35548500D03*
X165573000Y-35548500D03*
%TD*%
D10*
%TO.C,J15*%
X134921000Y-89037000D03*
D11*
X134921000Y-91577000D03*
X134921000Y-94117000D03*
X134921000Y-96657000D03*
%TD*%
D21*
%TO.C,H3*%
X176149000Y-83947000D03*
%TD*%
D10*
%TO.C,J7*%
X146822000Y-89027000D03*
D11*
X149362000Y-89027000D03*
X151902000Y-89027000D03*
X154442000Y-89027000D03*
%TD*%
M02*
