%TF.GenerationSoftware,KiCad,Pcbnew,8.0.2*%
%TF.CreationDate,2025-04-18T13:43:38+02:00*%
%TF.ProjectId,Mini-me-pcb,4d696e69-2d6d-4652-9d70-63622e6b6963,rev?*%
%TF.SameCoordinates,Original*%
%TF.FileFunction,Soldermask,Top*%
%TF.FilePolarity,Negative*%
%FSLAX46Y46*%
G04 Gerber Fmt 4.6, Leading zero omitted, Abs format (unit mm)*
G04 Created by KiCad (PCBNEW 8.0.2) date 2025-04-18 13:43:38*
%MOMM*%
%LPD*%
G01*
G04 APERTURE LIST*
G04 Aperture macros list*
%AMRoundRect*
0 Rectangle with rounded corners*
0 $1 Rounding radius*
0 $2 $3 $4 $5 $6 $7 $8 $9 X,Y pos of 4 corners*
0 Add a 4 corners polygon primitive as box body*
4,1,4,$2,$3,$4,$5,$6,$7,$8,$9,$2,$3,0*
0 Add four circle primitives for the rounded corners*
1,1,$1+$1,$2,$3*
1,1,$1+$1,$4,$5*
1,1,$1+$1,$6,$7*
1,1,$1+$1,$8,$9*
0 Add four rect primitives between the rounded corners*
20,1,$1+$1,$2,$3,$4,$5,0*
20,1,$1+$1,$4,$5,$6,$7,0*
20,1,$1+$1,$6,$7,$8,$9,0*
20,1,$1+$1,$8,$9,$2,$3,0*%
G04 Aperture macros list end*
%ADD10C,0.010000*%
%ADD11R,1.700000X1.700000*%
%ADD12O,1.700000X1.700000*%
%ADD13RoundRect,0.250000X-0.475000X0.337500X-0.475000X-0.337500X0.475000X-0.337500X0.475000X0.337500X0*%
%ADD14RoundRect,0.250000X-0.337500X-0.475000X0.337500X-0.475000X0.337500X0.475000X-0.337500X0.475000X0*%
%ADD15RoundRect,0.250000X0.625000X-0.350000X0.625000X0.350000X-0.625000X0.350000X-0.625000X-0.350000X0*%
%ADD16O,1.750000X1.200000*%
%ADD17RoundRect,0.102000X-0.750000X-0.450000X0.750000X-0.450000X0.750000X0.450000X-0.750000X0.450000X0*%
%ADD18RoundRect,0.102000X-0.450000X-0.750000X0.450000X-0.750000X0.450000X0.750000X-0.450000X0.750000X0*%
%ADD19RoundRect,0.102000X-0.450000X-0.450000X0.450000X-0.450000X0.450000X0.450000X-0.450000X0.450000X0*%
%ADD20R,4.600000X2.000000*%
%ADD21O,4.200000X2.000000*%
%ADD22O,2.000000X4.200000*%
%ADD23RoundRect,0.250000X-0.300000X2.050000X-0.300000X-2.050000X0.300000X-2.050000X0.300000X2.050000X0*%
%ADD24RoundRect,0.250002X-5.149998X4.449998X-5.149998X-4.449998X5.149998X-4.449998X5.149998X4.449998X0*%
%ADD25RoundRect,0.250000X-0.350000X-0.450000X0.350000X-0.450000X0.350000X0.450000X-0.350000X0.450000X0*%
%ADD26RoundRect,0.250000X-0.650000X1.000000X-0.650000X-1.000000X0.650000X-1.000000X0.650000X1.000000X0*%
%ADD27RoundRect,0.150000X0.150000X-0.587500X0.150000X0.587500X-0.150000X0.587500X-0.150000X-0.587500X0*%
%ADD28RoundRect,0.250000X-0.450000X0.350000X-0.450000X-0.350000X0.450000X-0.350000X0.450000X0.350000X0*%
%ADD29RoundRect,0.250000X0.475000X-0.337500X0.475000X0.337500X-0.475000X0.337500X-0.475000X-0.337500X0*%
%ADD30RoundRect,0.250000X-0.362500X-1.425000X0.362500X-1.425000X0.362500X1.425000X-0.362500X1.425000X0*%
%ADD31RoundRect,0.150000X-0.150000X0.825000X-0.150000X-0.825000X0.150000X-0.825000X0.150000X0.825000X0*%
%ADD32R,2.600000X2.600000*%
%ADD33C,2.600000*%
%ADD34RoundRect,0.250000X-1.750000X-1.000000X1.750000X-1.000000X1.750000X1.000000X-1.750000X1.000000X0*%
%ADD35RoundRect,0.250000X0.350000X0.450000X-0.350000X0.450000X-0.350000X-0.450000X0.350000X-0.450000X0*%
%ADD36RoundRect,0.150000X-0.825000X-0.150000X0.825000X-0.150000X0.825000X0.150000X-0.825000X0.150000X0*%
%ADD37RoundRect,0.102000X-0.305000X-1.000000X0.305000X-1.000000X0.305000X1.000000X-0.305000X1.000000X0*%
%ADD38RoundRect,0.102000X-1.340000X-1.800000X1.340000X-1.800000X1.340000X1.800000X-1.340000X1.800000X0*%
%ADD39R,2.900000X5.400000*%
%ADD40RoundRect,0.102000X-0.240000X-0.200000X0.240000X-0.200000X0.240000X0.200000X-0.240000X0.200000X0*%
%ADD41R,1.600000X1.600000*%
%ADD42C,1.600000*%
%ADD43RoundRect,0.250000X0.337500X0.475000X-0.337500X0.475000X-0.337500X-0.475000X0.337500X-0.475000X0*%
%ADD44RoundRect,0.250000X-1.500000X-0.550000X1.500000X-0.550000X1.500000X0.550000X-1.500000X0.550000X0*%
%ADD45C,3.200000*%
%ADD46RoundRect,0.250000X-0.625000X0.375000X-0.625000X-0.375000X0.625000X-0.375000X0.625000X0.375000X0*%
%ADD47RoundRect,0.102000X0.365000X-0.605000X0.365000X0.605000X-0.365000X0.605000X-0.365000X-0.605000X0*%
%ADD48RoundRect,0.375000X0.375000X-0.625000X0.375000X0.625000X-0.375000X0.625000X-0.375000X-0.625000X0*%
%ADD49RoundRect,0.500000X1.400000X-0.500000X1.400000X0.500000X-1.400000X0.500000X-1.400000X-0.500000X0*%
%ADD50RoundRect,0.250000X-1.000000X-0.650000X1.000000X-0.650000X1.000000X0.650000X-1.000000X0.650000X0*%
%ADD51RoundRect,0.102000X0.240000X0.200000X-0.240000X0.200000X-0.240000X-0.200000X0.240000X-0.200000X0*%
%ADD52R,1.550000X1.300000*%
%ADD53C,1.000000*%
%ADD54RoundRect,0.102000X-0.800000X0.350000X-0.800000X-0.350000X0.800000X-0.350000X0.800000X0.350000X0*%
%ADD55RoundRect,0.102000X-0.900000X0.600000X-0.900000X-0.600000X0.900000X-0.600000X0.900000X0.600000X0*%
%ADD56RoundRect,0.102000X-0.750000X0.800000X-0.750000X-0.800000X0.750000X-0.800000X0.750000X0.800000X0*%
%ADD57RoundRect,0.102000X-1.100000X0.600000X-1.100000X-0.600000X1.100000X-0.600000X1.100000X0.600000X0*%
%ADD58RoundRect,0.250000X0.650000X-1.000000X0.650000X1.000000X-0.650000X1.000000X-0.650000X-1.000000X0*%
%ADD59R,1.300000X1.550000*%
%ADD60C,0.600000*%
%ADD61O,1.104000X2.204000*%
%ADD62O,1.104000X1.904000*%
%ADD63RoundRect,0.250000X1.750000X1.000000X-1.750000X1.000000X-1.750000X-1.000000X1.750000X-1.000000X0*%
%ADD64RoundRect,0.225000X-0.225000X-0.375000X0.225000X-0.375000X0.225000X0.375000X-0.225000X0.375000X0*%
%ADD65RoundRect,0.075000X-0.662500X-0.075000X0.662500X-0.075000X0.662500X0.075000X-0.662500X0.075000X0*%
%ADD66RoundRect,0.075000X-0.075000X-0.662500X0.075000X-0.662500X0.075000X0.662500X-0.075000X0.662500X0*%
%ADD67RoundRect,0.250000X0.450000X-0.350000X0.450000X0.350000X-0.450000X0.350000X-0.450000X-0.350000X0*%
%ADD68RoundRect,0.250000X0.362500X1.425000X-0.362500X1.425000X-0.362500X-1.425000X0.362500X-1.425000X0*%
%ADD69RoundRect,0.102000X0.200000X-0.240000X0.200000X0.240000X-0.200000X0.240000X-0.200000X-0.240000X0*%
%ADD70RoundRect,0.150000X-0.587500X-0.150000X0.587500X-0.150000X0.587500X0.150000X-0.587500X0.150000X0*%
G04 APERTURE END LIST*
D10*
%TO.C,J1*%
X167048000Y-40918500D02*
X166348000Y-40918500D01*
X166348000Y-39678500D01*
X167048000Y-39678500D01*
X167048000Y-40918500D01*
G36*
X167048000Y-40918500D02*
G01*
X166348000Y-40918500D01*
X166348000Y-39678500D01*
X167048000Y-39678500D01*
X167048000Y-40918500D01*
G37*
X167848000Y-40918500D02*
X167148000Y-40918500D01*
X167148000Y-39678500D01*
X167848000Y-39678500D01*
X167848000Y-40918500D01*
G36*
X167848000Y-40918500D02*
G01*
X167148000Y-40918500D01*
X167148000Y-39678500D01*
X167848000Y-39678500D01*
X167848000Y-40918500D01*
G37*
X168348000Y-40918500D02*
X167948000Y-40918500D01*
X167948000Y-39678500D01*
X168348000Y-39678500D01*
X168348000Y-40918500D01*
G36*
X168348000Y-40918500D02*
G01*
X167948000Y-40918500D01*
X167948000Y-39678500D01*
X168348000Y-39678500D01*
X168348000Y-40918500D01*
G37*
X168848000Y-40918500D02*
X168448000Y-40918500D01*
X168448000Y-39678500D01*
X168848000Y-39678500D01*
X168848000Y-40918500D01*
G36*
X168848000Y-40918500D02*
G01*
X168448000Y-40918500D01*
X168448000Y-39678500D01*
X168848000Y-39678500D01*
X168848000Y-40918500D01*
G37*
X169348000Y-40918500D02*
X168948000Y-40918500D01*
X168948000Y-39678500D01*
X169348000Y-39678500D01*
X169348000Y-40918500D01*
G36*
X169348000Y-40918500D02*
G01*
X168948000Y-40918500D01*
X168948000Y-39678500D01*
X169348000Y-39678500D01*
X169348000Y-40918500D01*
G37*
X169848000Y-40918500D02*
X169448000Y-40918500D01*
X169448000Y-39678500D01*
X169848000Y-39678500D01*
X169848000Y-40918500D01*
G36*
X169848000Y-40918500D02*
G01*
X169448000Y-40918500D01*
X169448000Y-39678500D01*
X169848000Y-39678500D01*
X169848000Y-40918500D01*
G37*
X170348000Y-40918500D02*
X169948000Y-40918500D01*
X169948000Y-39678500D01*
X170348000Y-39678500D01*
X170348000Y-40918500D01*
G36*
X170348000Y-40918500D02*
G01*
X169948000Y-40918500D01*
X169948000Y-39678500D01*
X170348000Y-39678500D01*
X170348000Y-40918500D01*
G37*
X170848000Y-40918500D02*
X170448000Y-40918500D01*
X170448000Y-39678500D01*
X170848000Y-39678500D01*
X170848000Y-40918500D01*
G36*
X170848000Y-40918500D02*
G01*
X170448000Y-40918500D01*
X170448000Y-39678500D01*
X170848000Y-39678500D01*
X170848000Y-40918500D01*
G37*
X171348000Y-40918500D02*
X170948000Y-40918500D01*
X170948000Y-39678500D01*
X171348000Y-39678500D01*
X171348000Y-40918500D01*
G36*
X171348000Y-40918500D02*
G01*
X170948000Y-40918500D01*
X170948000Y-39678500D01*
X171348000Y-39678500D01*
X171348000Y-40918500D01*
G37*
X171848000Y-40918500D02*
X171448000Y-40918500D01*
X171448000Y-39678500D01*
X171848000Y-39678500D01*
X171848000Y-40918500D01*
G36*
X171848000Y-40918500D02*
G01*
X171448000Y-40918500D01*
X171448000Y-39678500D01*
X171848000Y-39678500D01*
X171848000Y-40918500D01*
G37*
X172648000Y-40918500D02*
X171948000Y-40918500D01*
X171948000Y-39678500D01*
X172648000Y-39678500D01*
X172648000Y-40918500D01*
G36*
X172648000Y-40918500D02*
G01*
X171948000Y-40918500D01*
X171948000Y-39678500D01*
X172648000Y-39678500D01*
X172648000Y-40918500D01*
G37*
X173448000Y-40918500D02*
X172748000Y-40918500D01*
X172748000Y-39678500D01*
X173448000Y-39678500D01*
X173448000Y-40918500D01*
G36*
X173448000Y-40918500D02*
G01*
X172748000Y-40918500D01*
X172748000Y-39678500D01*
X173448000Y-39678500D01*
X173448000Y-40918500D01*
G37*
%TD*%
D11*
%TO.C,J16*%
X142240000Y-68707000D03*
D12*
X144780000Y-68707000D03*
X147320000Y-68707000D03*
X149860000Y-68707000D03*
X152400000Y-68707000D03*
%TD*%
D13*
%TO.C,C1*%
X176413000Y-51452500D03*
X176413000Y-53527500D03*
%TD*%
D11*
%TO.C,J14*%
X124921000Y-89037000D03*
D12*
X124921000Y-91577000D03*
X124921000Y-94117000D03*
X124921000Y-96657000D03*
%TD*%
D14*
%TO.C,C19*%
X159315500Y-79231000D03*
X161390500Y-79231000D03*
%TD*%
D11*
%TO.C,J13*%
X129921000Y-89037000D03*
D12*
X129921000Y-91577000D03*
X129921000Y-94117000D03*
X129921000Y-96657000D03*
%TD*%
D15*
%TO.C,J12*%
X164338000Y-108489000D03*
D16*
X164338000Y-106489000D03*
X164338000Y-104489000D03*
X164338000Y-102489000D03*
%TD*%
D17*
%TO.C,IC1*%
X137273000Y-42191000D03*
X137273000Y-43461000D03*
X137273000Y-44731000D03*
X137273000Y-46001000D03*
X137273000Y-47271000D03*
X137273000Y-48541000D03*
X137273000Y-49811000D03*
X137273000Y-51081000D03*
X137273000Y-52351000D03*
X137273000Y-53621000D03*
X137273000Y-54891000D03*
X137273000Y-56161000D03*
X137273000Y-57431000D03*
X137273000Y-58701000D03*
D18*
X140308000Y-59951000D03*
X141578000Y-59951000D03*
X142848000Y-59951000D03*
X144118000Y-59951000D03*
X145388000Y-59951000D03*
X146658000Y-59951000D03*
X147928000Y-59951000D03*
X149198000Y-59951000D03*
X150468000Y-59951000D03*
X151738000Y-59951000D03*
D17*
X154773000Y-58701000D03*
X154773000Y-57431000D03*
X154773000Y-56161000D03*
X154773000Y-54891000D03*
X154773000Y-53621000D03*
X154773000Y-52351000D03*
X154773000Y-51081000D03*
X154773000Y-49811000D03*
X154773000Y-48541000D03*
X154773000Y-47271000D03*
X154773000Y-46001000D03*
X154773000Y-44731000D03*
X154773000Y-43461000D03*
X154773000Y-42191000D03*
D19*
X143123000Y-48511000D03*
X143123000Y-49911000D03*
X143123000Y-51311000D03*
X144523000Y-51311000D03*
X145923000Y-51311000D03*
X145923000Y-49911000D03*
X145923000Y-48511000D03*
X144523000Y-48511000D03*
X144523000Y-49911000D03*
%TD*%
D13*
%TO.C,C5*%
X184088000Y-105769500D03*
X184088000Y-107844500D03*
%TD*%
D20*
%TO.C,J2*%
X185166000Y-46736000D03*
D21*
X185166000Y-40436000D03*
D22*
X180366000Y-43836000D03*
%TD*%
D13*
%TO.C,C9*%
X176841000Y-97362500D03*
X176841000Y-99437500D03*
%TD*%
D23*
%TO.C,U4*%
X204201000Y-63754000D03*
X202501000Y-63754000D03*
X200801000Y-63754000D03*
D24*
X200801000Y-72904000D03*
D23*
X199101000Y-63754000D03*
X197401000Y-63754000D03*
%TD*%
D25*
%TO.C,R2*%
X128159000Y-59817000D03*
X130159000Y-59817000D03*
%TD*%
D26*
%TO.C,D6*%
X192390000Y-93377000D03*
X192390000Y-97377000D03*
%TD*%
D27*
%TO.C,Q2*%
X174193000Y-61682500D03*
X176093000Y-61682500D03*
X175143000Y-59807500D03*
%TD*%
D28*
%TO.C,R6*%
X172349000Y-57586000D03*
X172349000Y-59586000D03*
%TD*%
D11*
%TO.C,J8*%
X167386000Y-80264000D03*
D12*
X167386000Y-82804000D03*
X167386000Y-85344000D03*
X167386000Y-87884000D03*
%TD*%
D25*
%TO.C,R1*%
X175121000Y-42914500D03*
X177121000Y-42914500D03*
%TD*%
D29*
%TO.C,C13*%
X132067000Y-44926500D03*
X132067000Y-42851500D03*
%TD*%
D13*
%TO.C,C4*%
X176413000Y-55389500D03*
X176413000Y-57464500D03*
%TD*%
D30*
%TO.C,R15*%
X183237500Y-101600000D03*
X189162500Y-101600000D03*
%TD*%
D31*
%TO.C,U1*%
X174498000Y-50103000D03*
X173228000Y-50103000D03*
X171958000Y-50103000D03*
X170688000Y-50103000D03*
X169418000Y-50103000D03*
X168148000Y-50103000D03*
X166878000Y-50103000D03*
X165608000Y-50103000D03*
X165608000Y-55053000D03*
X166878000Y-55053000D03*
X168148000Y-55053000D03*
X169418000Y-55053000D03*
X170688000Y-55053000D03*
X171958000Y-55053000D03*
X173228000Y-55053000D03*
X174498000Y-55053000D03*
%TD*%
D32*
%TO.C,J3*%
X200665000Y-43510000D03*
D33*
X195585000Y-43510000D03*
%TD*%
D34*
%TO.C,C11*%
X197026000Y-55372000D03*
X205026000Y-55372000D03*
%TD*%
D35*
%TO.C,R4*%
X166580000Y-43422500D03*
X164580000Y-43422500D03*
%TD*%
D36*
%TO.C,U2*%
X186882000Y-104648000D03*
X186882000Y-105918000D03*
X186882000Y-107188000D03*
X186882000Y-108458000D03*
X191832000Y-108458000D03*
X191832000Y-107188000D03*
X191832000Y-105918000D03*
X191832000Y-104648000D03*
%TD*%
D37*
%TO.C,J11*%
X128064000Y-102649000D03*
X129064000Y-102649000D03*
X130064000Y-102649000D03*
X131064000Y-102649000D03*
X132064000Y-102649000D03*
X133064000Y-102649000D03*
X134064000Y-102649000D03*
D38*
X125074000Y-105449000D03*
X137054000Y-105449000D03*
%TD*%
D29*
%TO.C,C3*%
X143764000Y-82317500D03*
X143764000Y-80242500D03*
%TD*%
D13*
%TO.C,C15*%
X174682000Y-97362500D03*
X174682000Y-99437500D03*
%TD*%
D39*
%TO.C,L1*%
X206230000Y-84836000D03*
X196330000Y-84836000D03*
%TD*%
D40*
%TO.C,D2*%
X165682000Y-45200500D03*
X167002000Y-45200500D03*
%TD*%
D14*
%TO.C,C7*%
X175083500Y-45073500D03*
X177158500Y-45073500D03*
%TD*%
D39*
%TO.C,L2*%
X192387000Y-84836000D03*
X182487000Y-84836000D03*
%TD*%
D11*
%TO.C,J5*%
X153543000Y-93345000D03*
D12*
X156083000Y-93345000D03*
X158623000Y-93345000D03*
%TD*%
D41*
%TO.C,BZ1*%
X171900000Y-69400000D03*
D42*
X175900000Y-69400000D03*
%TD*%
D14*
%TO.C,C6*%
X194480500Y-107950000D03*
X196555500Y-107950000D03*
%TD*%
D43*
%TO.C,C2*%
X130196500Y-57658000D03*
X128121500Y-57658000D03*
%TD*%
D29*
%TO.C,C10*%
X134353000Y-44926500D03*
X134353000Y-42851500D03*
%TD*%
D26*
%TO.C,D5*%
X205979000Y-93250000D03*
X205979000Y-97250000D03*
%TD*%
D44*
%TO.C,C17*%
X182672000Y-95631000D03*
X188072000Y-95631000D03*
%TD*%
D45*
%TO.C,H2*%
X203300000Y-106600000D03*
%TD*%
D46*
%TO.C,F1*%
X191500000Y-99900000D03*
X191500000Y-102700000D03*
%TD*%
D47*
%TO.C,D1*%
X168882000Y-43327500D03*
X168882000Y-46687500D03*
%TD*%
D15*
%TO.C,J9*%
X154338000Y-108489000D03*
D16*
X154338000Y-106489000D03*
X154338000Y-104489000D03*
X154338000Y-102489000D03*
X154338000Y-100489000D03*
%TD*%
D11*
%TO.C,J6*%
X144018000Y-93345000D03*
D12*
X146558000Y-93345000D03*
X149098000Y-93345000D03*
%TD*%
D28*
%TO.C,R5*%
X170317000Y-57586000D03*
X170317000Y-59586000D03*
%TD*%
D15*
%TO.C,J10*%
X144338000Y-108489000D03*
D16*
X144338000Y-106489000D03*
X144338000Y-104489000D03*
X144338000Y-102489000D03*
X144338000Y-100489000D03*
X144338000Y-98489000D03*
%TD*%
D48*
%TO.C,U3*%
X173800000Y-95050000D03*
X176100000Y-95050000D03*
X178400000Y-95050000D03*
D49*
X176100000Y-88750000D03*
%TD*%
D50*
%TO.C,D9*%
X202200000Y-101200000D03*
X206200000Y-101200000D03*
%TD*%
D51*
%TO.C,D3*%
X173606000Y-42787500D03*
X172286000Y-42787500D03*
%TD*%
D14*
%TO.C,C18*%
X159315500Y-76221000D03*
X161390500Y-76221000D03*
%TD*%
D52*
%TO.C,SW2*%
X133434000Y-80173000D03*
X141394000Y-80173000D03*
X133434000Y-84673000D03*
X141394000Y-84673000D03*
%TD*%
D53*
%TO.C,J18*%
X126100000Y-64650000D03*
X126100000Y-72650000D03*
D54*
X137100000Y-71850000D03*
X137100000Y-70750000D03*
X137100000Y-69650000D03*
X137100000Y-68550000D03*
X137100000Y-67450000D03*
X137100000Y-66350000D03*
X137100000Y-65250000D03*
X137100000Y-64150000D03*
X137100000Y-63050000D03*
D55*
X135800000Y-61850000D03*
D56*
X136050000Y-76450000D03*
D57*
X126500000Y-61850000D03*
X126500000Y-77350000D03*
%TD*%
D52*
%TO.C,SW3*%
X159215000Y-69251000D03*
X167175000Y-69251000D03*
X159215000Y-73751000D03*
X167175000Y-73751000D03*
%TD*%
D58*
%TO.C,D7*%
X177700000Y-105800000D03*
X177700000Y-101800000D03*
%TD*%
D13*
%TO.C,C8*%
X179000000Y-97362500D03*
X179000000Y-99437500D03*
%TD*%
D59*
%TO.C,SW5*%
X163921000Y-58377000D03*
X163921000Y-66337000D03*
X159421000Y-58377000D03*
X159421000Y-66337000D03*
%TD*%
D45*
%TO.C,H1*%
X127920000Y-39528000D03*
%TD*%
D60*
%TO.C,J1*%
X172788000Y-39228500D03*
X167008000Y-39228500D03*
D61*
X174223000Y-39718500D03*
X165573000Y-39718500D03*
D62*
X174223000Y-35548500D03*
X165573000Y-35548500D03*
%TD*%
D63*
%TO.C,C12*%
X192122500Y-55372000D03*
X184122500Y-55372000D03*
%TD*%
D28*
%TO.C,R9*%
X156972000Y-64532000D03*
X156972000Y-66532000D03*
%TD*%
%TO.C,R8*%
X198693000Y-105934000D03*
X198693000Y-107934000D03*
%TD*%
D64*
%TO.C,D8*%
X175950000Y-78400000D03*
X179250000Y-78400000D03*
%TD*%
D13*
%TO.C,C14*%
X172523000Y-97362500D03*
X172523000Y-99437500D03*
%TD*%
D27*
%TO.C,Q1*%
X170256000Y-63587500D03*
X172156000Y-63587500D03*
X171206000Y-61712500D03*
%TD*%
D65*
%TO.C,U6*%
X147475500Y-78022000D03*
X147475500Y-78522000D03*
X147475500Y-79022000D03*
X147475500Y-79522000D03*
X147475500Y-80022000D03*
X147475500Y-80522000D03*
X147475500Y-81022000D03*
X147475500Y-81522000D03*
X147475500Y-82022000D03*
X147475500Y-82522000D03*
X147475500Y-83022000D03*
X147475500Y-83522000D03*
D66*
X148888000Y-84934500D03*
X149388000Y-84934500D03*
X149888000Y-84934500D03*
X150388000Y-84934500D03*
X150888000Y-84934500D03*
X151388000Y-84934500D03*
X151888000Y-84934500D03*
X152388000Y-84934500D03*
X152888000Y-84934500D03*
X153388000Y-84934500D03*
X153888000Y-84934500D03*
X154388000Y-84934500D03*
D65*
X155800500Y-83522000D03*
X155800500Y-83022000D03*
X155800500Y-82522000D03*
X155800500Y-82022000D03*
X155800500Y-81522000D03*
X155800500Y-81022000D03*
X155800500Y-80522000D03*
X155800500Y-80022000D03*
X155800500Y-79522000D03*
X155800500Y-79022000D03*
X155800500Y-78522000D03*
X155800500Y-78022000D03*
D66*
X154388000Y-76609500D03*
X153888000Y-76609500D03*
X153388000Y-76609500D03*
X152888000Y-76609500D03*
X152388000Y-76609500D03*
X151888000Y-76609500D03*
X151388000Y-76609500D03*
X150888000Y-76609500D03*
X150388000Y-76609500D03*
X149888000Y-76609500D03*
X149388000Y-76609500D03*
X148888000Y-76609500D03*
%TD*%
D59*
%TO.C,SW1*%
X126909000Y-55415000D03*
X126909000Y-47455000D03*
X131409000Y-55415000D03*
X131409000Y-47455000D03*
%TD*%
D67*
%TO.C,R18*%
X139300000Y-75600000D03*
X139300000Y-73600000D03*
%TD*%
D25*
%TO.C,R16*%
X173300000Y-75300000D03*
X175300000Y-75300000D03*
%TD*%
D44*
%TO.C,C16*%
X196802000Y-95631000D03*
X202202000Y-95631000D03*
%TD*%
D11*
%TO.C,J15*%
X134921000Y-89037000D03*
D12*
X134921000Y-91577000D03*
X134921000Y-94117000D03*
X134921000Y-96657000D03*
%TD*%
D67*
%TO.C,R10*%
X156845000Y-75422000D03*
X156845000Y-73422000D03*
%TD*%
D68*
%TO.C,R14*%
X199662500Y-101300000D03*
X193737500Y-101300000D03*
%TD*%
D45*
%TO.C,H3*%
X176149000Y-83947000D03*
%TD*%
D25*
%TO.C,R7*%
X194518000Y-105918000D03*
X196518000Y-105918000D03*
%TD*%
D69*
%TO.C,D4*%
X170787000Y-44209500D03*
X170787000Y-42889500D03*
%TD*%
D67*
%TO.C,R17*%
X139400000Y-65900000D03*
X139400000Y-63900000D03*
%TD*%
D23*
%TO.C,U5*%
X191755000Y-63754000D03*
X190055000Y-63754000D03*
X188355000Y-63754000D03*
D24*
X188355000Y-72904000D03*
D23*
X186655000Y-63754000D03*
X184955000Y-63754000D03*
%TD*%
D70*
%TO.C,Q3*%
X177262500Y-74450000D03*
X177262500Y-76350000D03*
X179137500Y-75400000D03*
%TD*%
D25*
%TO.C,R19*%
X132400000Y-59900000D03*
X134400000Y-59900000D03*
%TD*%
D11*
%TO.C,J7*%
X146822000Y-89027000D03*
D12*
X149362000Y-89027000D03*
X151902000Y-89027000D03*
X154442000Y-89027000D03*
%TD*%
D67*
%TO.C,R3*%
X143764000Y-86217000D03*
X143764000Y-84217000D03*
%TD*%
M02*
