%TF.GenerationSoftware,KiCad,Pcbnew,8.0.2*%
%TF.CreationDate,2025-04-18T13:41:41+02:00*%
%TF.ProjectId,PCA9685 board,50434139-3638-4352-9062-6f6172642e6b,rev?*%
%TF.SameCoordinates,Original*%
%TF.FileFunction,Paste,Top*%
%TF.FilePolarity,Positive*%
%FSLAX46Y46*%
G04 Gerber Fmt 4.6, Leading zero omitted, Abs format (unit mm)*
G04 Created by KiCad (PCBNEW 8.0.2) date 2025-04-18 13:41:41*
%MOMM*%
%LPD*%
G01*
G04 APERTURE LIST*
G04 Aperture macros list*
%AMRoundRect*
0 Rectangle with rounded corners*
0 $1 Rounding radius*
0 $2 $3 $4 $5 $6 $7 $8 $9 X,Y pos of 4 corners*
0 Add a 4 corners polygon primitive as box body*
4,1,4,$2,$3,$4,$5,$6,$7,$8,$9,$2,$3,0*
0 Add four circle primitives for the rounded corners*
1,1,$1+$1,$2,$3*
1,1,$1+$1,$4,$5*
1,1,$1+$1,$6,$7*
1,1,$1+$1,$8,$9*
0 Add four rect primitives between the rounded corners*
20,1,$1+$1,$2,$3,$4,$5,0*
20,1,$1+$1,$4,$5,$6,$7,0*
20,1,$1+$1,$6,$7,$8,$9,0*
20,1,$1+$1,$8,$9,$2,$3,0*%
G04 Aperture macros list end*
%ADD10RoundRect,0.250000X1.950000X1.000000X-1.950000X1.000000X-1.950000X-1.000000X1.950000X-1.000000X0*%
%ADD11RoundRect,0.250000X-0.450000X0.350000X-0.450000X-0.350000X0.450000X-0.350000X0.450000X0.350000X0*%
%ADD12RoundRect,0.250000X0.325000X0.450000X-0.325000X0.450000X-0.325000X-0.450000X0.325000X-0.450000X0*%
%ADD13RoundRect,0.100000X-0.637500X-0.100000X0.637500X-0.100000X0.637500X0.100000X-0.637500X0.100000X0*%
%ADD14RoundRect,0.150000X-0.150000X0.587500X-0.150000X-0.587500X0.150000X-0.587500X0.150000X0.587500X0*%
%ADD15RoundRect,0.250000X-0.350000X-0.450000X0.350000X-0.450000X0.350000X0.450000X-0.350000X0.450000X0*%
%ADD16RoundRect,0.250000X0.350000X0.450000X-0.350000X0.450000X-0.350000X-0.450000X0.350000X-0.450000X0*%
%ADD17RoundRect,0.250000X-0.475000X0.337500X-0.475000X-0.337500X0.475000X-0.337500X0.475000X0.337500X0*%
G04 APERTURE END LIST*
D10*
%TO.C,C2*%
X153433000Y-150749000D03*
X146033000Y-150749000D03*
%TD*%
D11*
%TO.C,R22*%
X153289000Y-130445000D03*
X153289000Y-132445000D03*
%TD*%
%TO.C,R23*%
X149606000Y-130445000D03*
X149606000Y-132445000D03*
%TD*%
%TO.C,R11*%
X193802000Y-130445000D03*
X193802000Y-132445000D03*
%TD*%
%TO.C,R16*%
X175387000Y-130445000D03*
X175387000Y-132445000D03*
%TD*%
%TO.C,R18*%
X168021000Y-130445000D03*
X168021000Y-132445000D03*
%TD*%
D12*
%TO.C,D1*%
X174176000Y-146207000D03*
X172126000Y-146207000D03*
%TD*%
D11*
%TO.C,R20*%
X160528000Y-130445000D03*
X160528000Y-132445000D03*
%TD*%
%TO.C,R21*%
X156972000Y-130445000D03*
X156972000Y-132445000D03*
%TD*%
%TO.C,R19*%
X164465000Y-130429000D03*
X164465000Y-132429000D03*
%TD*%
%TO.C,R26*%
X138557000Y-130445000D03*
X138557000Y-132445000D03*
%TD*%
%TO.C,R5*%
X150495000Y-136779000D03*
X150495000Y-138779000D03*
%TD*%
%TO.C,R15*%
X179070000Y-130429000D03*
X179070000Y-132429000D03*
%TD*%
D13*
%TO.C,U1*%
X163058000Y-135486000D03*
X163058000Y-136136000D03*
X163058000Y-136786000D03*
X163058000Y-137436000D03*
X163058000Y-138086000D03*
X163058000Y-138736000D03*
X163058000Y-139386000D03*
X163058000Y-140036000D03*
X163058000Y-140686000D03*
X163058000Y-141336000D03*
X163058000Y-141986000D03*
X163058000Y-142636000D03*
X163058000Y-143286000D03*
X163058000Y-143936000D03*
X168783000Y-143936000D03*
X168783000Y-143286000D03*
X168783000Y-142636000D03*
X168783000Y-141986000D03*
X168783000Y-141336000D03*
X168783000Y-140686000D03*
X168783000Y-140036000D03*
X168783000Y-139386000D03*
X168783000Y-138736000D03*
X168783000Y-138086000D03*
X168783000Y-137436000D03*
X168783000Y-136786000D03*
X168783000Y-136136000D03*
X168783000Y-135486000D03*
%TD*%
D14*
%TO.C,Q2*%
X178877000Y-143540000D03*
X176977000Y-143540000D03*
X177927000Y-145415000D03*
%TD*%
D11*
%TO.C,R3*%
X143546000Y-136945000D03*
X143546000Y-138945000D03*
%TD*%
%TO.C,R24*%
X145923000Y-130445000D03*
X145923000Y-132445000D03*
%TD*%
%TO.C,R17*%
X171577000Y-130445000D03*
X171577000Y-132445000D03*
%TD*%
%TO.C,R25*%
X142240000Y-130445000D03*
X142240000Y-132445000D03*
%TD*%
%TO.C,R12*%
X189992000Y-130445000D03*
X189992000Y-132445000D03*
%TD*%
%TO.C,R14*%
X182626000Y-130445000D03*
X182626000Y-132445000D03*
%TD*%
%TO.C,R7*%
X157111000Y-136848000D03*
X157111000Y-138848000D03*
%TD*%
%TO.C,R4*%
X147096000Y-136945000D03*
X147096000Y-138945000D03*
%TD*%
%TO.C,R13*%
X186563000Y-130445000D03*
X186563000Y-132445000D03*
%TD*%
D15*
%TO.C,R1*%
X171397500Y-139711000D03*
X173397500Y-139711000D03*
%TD*%
D16*
%TO.C,R9*%
X167624000Y-148209000D03*
X165624000Y-148209000D03*
%TD*%
D11*
%TO.C,R2*%
X139615000Y-136945000D03*
X139615000Y-138945000D03*
%TD*%
D15*
%TO.C,R8*%
X161814000Y-148209000D03*
X163814000Y-148209000D03*
%TD*%
D11*
%TO.C,R6*%
X153797000Y-136795000D03*
X153797000Y-138795000D03*
%TD*%
D17*
%TO.C,C1*%
X172143500Y-135498500D03*
X172143500Y-137573500D03*
%TD*%
D15*
%TO.C,R10*%
X172278000Y-143667000D03*
X174278000Y-143667000D03*
%TD*%
M02*
