%TF.GenerationSoftware,KiCad,Pcbnew,8.0.2*%
%TF.CreationDate,2025-04-18T13:41:41+02:00*%
%TF.ProjectId,PCA9685 board,50434139-3638-4352-9062-6f6172642e6b,rev?*%
%TF.SameCoordinates,Original*%
%TF.FileFunction,Soldermask,Bot*%
%TF.FilePolarity,Negative*%
%FSLAX46Y46*%
G04 Gerber Fmt 4.6, Leading zero omitted, Abs format (unit mm)*
G04 Created by KiCad (PCBNEW 8.0.2) date 2025-04-18 13:41:41*
%MOMM*%
%LPD*%
G01*
G04 APERTURE LIST*
G04 Aperture macros list*
%AMRoundRect*
0 Rectangle with rounded corners*
0 $1 Rounding radius*
0 $2 $3 $4 $5 $6 $7 $8 $9 X,Y pos of 4 corners*
0 Add a 4 corners polygon primitive as box body*
4,1,4,$2,$3,$4,$5,$6,$7,$8,$9,$2,$3,0*
0 Add four circle primitives for the rounded corners*
1,1,$1+$1,$2,$3*
1,1,$1+$1,$4,$5*
1,1,$1+$1,$6,$7*
1,1,$1+$1,$8,$9*
0 Add four rect primitives between the rounded corners*
20,1,$1+$1,$2,$3,$4,$5,0*
20,1,$1+$1,$4,$5,$6,$7,0*
20,1,$1+$1,$6,$7,$8,$9,0*
20,1,$1+$1,$8,$9,$2,$3,0*%
G04 Aperture macros list end*
%ADD10R,1.700000X1.700000*%
%ADD11O,1.700000X1.700000*%
%ADD12C,3.200000*%
%ADD13RoundRect,0.250000X-0.350000X-0.625000X0.350000X-0.625000X0.350000X0.625000X-0.350000X0.625000X0*%
%ADD14O,1.200000X1.750000*%
%ADD15RoundRect,0.250000X0.350000X0.625000X-0.350000X0.625000X-0.350000X-0.625000X0.350000X-0.625000X0*%
%ADD16R,2.600000X2.600000*%
%ADD17C,2.600000*%
G04 APERTURE END LIST*
D10*
%TO.C,M12*%
X153289000Y-127635000D03*
D11*
X153289000Y-125095000D03*
X153289000Y-122555000D03*
%TD*%
D10*
%TO.C,M4*%
X182753000Y-127635000D03*
D11*
X182753000Y-125095000D03*
X182753000Y-122555000D03*
%TD*%
D10*
%TO.C,M8*%
X168021000Y-127635000D03*
D11*
X168021000Y-125095000D03*
X168021000Y-122555000D03*
%TD*%
D10*
%TO.C,M9*%
X164338000Y-127620000D03*
D11*
X164338000Y-125080000D03*
X164338000Y-122540000D03*
%TD*%
D10*
%TO.C,M2*%
X190119000Y-127635000D03*
D11*
X190119000Y-125095000D03*
X190119000Y-122555000D03*
%TD*%
D12*
%TO.C,H4*%
X139739000Y-153162000D03*
%TD*%
D10*
%TO.C,M7*%
X171704000Y-127635000D03*
D11*
X171704000Y-125095000D03*
X171704000Y-122555000D03*
%TD*%
D13*
%TO.C,J2*%
X160497000Y-153506000D03*
D14*
X162497000Y-153506000D03*
X164497000Y-153506000D03*
X166497000Y-153506000D03*
X168497000Y-153506000D03*
X170497000Y-153506000D03*
%TD*%
D10*
%TO.C,M15*%
X142240000Y-127620000D03*
D11*
X142240000Y-125080000D03*
X142240000Y-122540000D03*
%TD*%
D10*
%TO.C,M3*%
X186436000Y-127635000D03*
D11*
X186436000Y-125095000D03*
X186436000Y-122555000D03*
%TD*%
D10*
%TO.C,M13*%
X149606000Y-127635000D03*
D11*
X149606000Y-125095000D03*
X149606000Y-122555000D03*
%TD*%
D10*
%TO.C,M10*%
X160655000Y-127635000D03*
D11*
X160655000Y-125095000D03*
X160655000Y-122555000D03*
%TD*%
D10*
%TO.C,M16*%
X138557000Y-127635000D03*
D11*
X138557000Y-125095000D03*
X138557000Y-122555000D03*
%TD*%
D10*
%TO.C,M11*%
X156972000Y-127635000D03*
D11*
X156972000Y-125095000D03*
X156972000Y-122555000D03*
%TD*%
D10*
%TO.C,M14*%
X145923000Y-127620000D03*
D11*
X145923000Y-125080000D03*
X145923000Y-122540000D03*
%TD*%
D15*
%TO.C,J3*%
X170497000Y-115226000D03*
D14*
X168497000Y-115226000D03*
X166497000Y-115226000D03*
X164497000Y-115226000D03*
X162497000Y-115226000D03*
X160497000Y-115226000D03*
%TD*%
D10*
%TO.C,M1*%
X193802000Y-127635000D03*
D11*
X193802000Y-125095000D03*
X193802000Y-122555000D03*
%TD*%
D12*
%TO.C,H2*%
X139739000Y-116244000D03*
%TD*%
D16*
%TO.C,J1*%
X177800000Y-153924000D03*
D17*
X182880000Y-153924000D03*
%TD*%
D10*
%TO.C,M6*%
X175387000Y-127620000D03*
D11*
X175387000Y-125080000D03*
X175387000Y-122540000D03*
%TD*%
D12*
%TO.C,H3*%
X191477000Y-153377000D03*
%TD*%
%TO.C,H1*%
X191477000Y-116244000D03*
%TD*%
D10*
%TO.C,M5*%
X179070000Y-127635000D03*
D11*
X179070000Y-125095000D03*
X179070000Y-122555000D03*
%TD*%
M02*
