%TF.GenerationSoftware,KiCad,Pcbnew,8.0.2*%
%TF.CreationDate,2025-04-18T13:41:41+02:00*%
%TF.ProjectId,PCA9685 board,50434139-3638-4352-9062-6f6172642e6b,rev?*%
%TF.SameCoordinates,Original*%
%TF.FileFunction,Copper,L2,Bot*%
%TF.FilePolarity,Positive*%
%FSLAX46Y46*%
G04 Gerber Fmt 4.6, Leading zero omitted, Abs format (unit mm)*
G04 Created by KiCad (PCBNEW 8.0.2) date 2025-04-18 13:41:41*
%MOMM*%
%LPD*%
G01*
G04 APERTURE LIST*
G04 Aperture macros list*
%AMRoundRect*
0 Rectangle with rounded corners*
0 $1 Rounding radius*
0 $2 $3 $4 $5 $6 $7 $8 $9 X,Y pos of 4 corners*
0 Add a 4 corners polygon primitive as box body*
4,1,4,$2,$3,$4,$5,$6,$7,$8,$9,$2,$3,0*
0 Add four circle primitives for the rounded corners*
1,1,$1+$1,$2,$3*
1,1,$1+$1,$4,$5*
1,1,$1+$1,$6,$7*
1,1,$1+$1,$8,$9*
0 Add four rect primitives between the rounded corners*
20,1,$1+$1,$2,$3,$4,$5,0*
20,1,$1+$1,$4,$5,$6,$7,0*
20,1,$1+$1,$6,$7,$8,$9,0*
20,1,$1+$1,$8,$9,$2,$3,0*%
G04 Aperture macros list end*
%TA.AperFunction,ComponentPad*%
%ADD10R,1.700000X1.700000*%
%TD*%
%TA.AperFunction,ComponentPad*%
%ADD11O,1.700000X1.700000*%
%TD*%
%TA.AperFunction,ComponentPad*%
%ADD12RoundRect,0.250000X-0.350000X-0.625000X0.350000X-0.625000X0.350000X0.625000X-0.350000X0.625000X0*%
%TD*%
%TA.AperFunction,ComponentPad*%
%ADD13O,1.200000X1.750000*%
%TD*%
%TA.AperFunction,ComponentPad*%
%ADD14RoundRect,0.250000X0.350000X0.625000X-0.350000X0.625000X-0.350000X-0.625000X0.350000X-0.625000X0*%
%TD*%
%TA.AperFunction,ComponentPad*%
%ADD15R,2.600000X2.600000*%
%TD*%
%TA.AperFunction,ComponentPad*%
%ADD16C,2.600000*%
%TD*%
%TA.AperFunction,ViaPad*%
%ADD17C,0.600000*%
%TD*%
%TA.AperFunction,Conductor*%
%ADD18C,0.200000*%
%TD*%
%TA.AperFunction,Conductor*%
%ADD19C,0.500000*%
%TD*%
G04 APERTURE END LIST*
D10*
%TO.P,M12,1,PWM*%
%TO.N,Net-(M12-PWM)*%
X153289000Y-127635000D03*
D11*
%TO.P,M12,2,+*%
%TO.N,+5V*%
X153289000Y-125095000D03*
%TO.P,M12,3,-*%
%TO.N,GND*%
X153289000Y-122555000D03*
%TD*%
D10*
%TO.P,M4,1,PWM*%
%TO.N,Net-(M4-PWM)*%
X182753000Y-127635000D03*
D11*
%TO.P,M4,2,+*%
%TO.N,+5V*%
X182753000Y-125095000D03*
%TO.P,M4,3,-*%
%TO.N,GND*%
X182753000Y-122555000D03*
%TD*%
D10*
%TO.P,M8,1,PWM*%
%TO.N,Net-(M8-PWM)*%
X168021000Y-127635000D03*
D11*
%TO.P,M8,2,+*%
%TO.N,+5V*%
X168021000Y-125095000D03*
%TO.P,M8,3,-*%
%TO.N,GND*%
X168021000Y-122555000D03*
%TD*%
D10*
%TO.P,M9,1,PWM*%
%TO.N,Net-(M9-PWM)*%
X164338000Y-127620000D03*
D11*
%TO.P,M9,2,+*%
%TO.N,+5V*%
X164338000Y-125080000D03*
%TO.P,M9,3,-*%
%TO.N,GND*%
X164338000Y-122540000D03*
%TD*%
D10*
%TO.P,M2,1,PWM*%
%TO.N,Net-(M2-PWM)*%
X190119000Y-127635000D03*
D11*
%TO.P,M2,2,+*%
%TO.N,+5V*%
X190119000Y-125095000D03*
%TO.P,M2,3,-*%
%TO.N,GND*%
X190119000Y-122555000D03*
%TD*%
D10*
%TO.P,M7,1,PWM*%
%TO.N,Net-(M7-PWM)*%
X171704000Y-127635000D03*
D11*
%TO.P,M7,2,+*%
%TO.N,+5V*%
X171704000Y-125095000D03*
%TO.P,M7,3,-*%
%TO.N,GND*%
X171704000Y-122555000D03*
%TD*%
D12*
%TO.P,J2,1,Pin_1*%
%TO.N,+5V*%
X160497000Y-153506000D03*
D13*
%TO.P,J2,2,Pin_2*%
%TO.N,VCC*%
X162497000Y-153506000D03*
%TO.P,J2,3,Pin_3*%
%TO.N,SDA*%
X164497000Y-153506000D03*
%TO.P,J2,4,Pin_4*%
%TO.N,SCL*%
X166497000Y-153506000D03*
%TO.P,J2,5,Pin_5*%
%TO.N,OE*%
X168497000Y-153506000D03*
%TO.P,J2,6,Pin_6*%
%TO.N,GND*%
X170497000Y-153506000D03*
%TD*%
D10*
%TO.P,M15,1,PWM*%
%TO.N,Net-(M15-PWM)*%
X142240000Y-127620000D03*
D11*
%TO.P,M15,2,+*%
%TO.N,+5V*%
X142240000Y-125080000D03*
%TO.P,M15,3,-*%
%TO.N,GND*%
X142240000Y-122540000D03*
%TD*%
D10*
%TO.P,M3,1,PWM*%
%TO.N,Net-(M3-PWM)*%
X186436000Y-127635000D03*
D11*
%TO.P,M3,2,+*%
%TO.N,+5V*%
X186436000Y-125095000D03*
%TO.P,M3,3,-*%
%TO.N,GND*%
X186436000Y-122555000D03*
%TD*%
D10*
%TO.P,M13,1,PWM*%
%TO.N,Net-(M13-PWM)*%
X149606000Y-127635000D03*
D11*
%TO.P,M13,2,+*%
%TO.N,+5V*%
X149606000Y-125095000D03*
%TO.P,M13,3,-*%
%TO.N,GND*%
X149606000Y-122555000D03*
%TD*%
D10*
%TO.P,M10,1,PWM*%
%TO.N,Net-(M10-PWM)*%
X160655000Y-127635000D03*
D11*
%TO.P,M10,2,+*%
%TO.N,+5V*%
X160655000Y-125095000D03*
%TO.P,M10,3,-*%
%TO.N,GND*%
X160655000Y-122555000D03*
%TD*%
D10*
%TO.P,M16,1,PWM*%
%TO.N,Net-(M16-PWM)*%
X138557000Y-127635000D03*
D11*
%TO.P,M16,2,+*%
%TO.N,+5V*%
X138557000Y-125095000D03*
%TO.P,M16,3,-*%
%TO.N,GND*%
X138557000Y-122555000D03*
%TD*%
D10*
%TO.P,M11,1,PWM*%
%TO.N,Net-(M11-PWM)*%
X156972000Y-127635000D03*
D11*
%TO.P,M11,2,+*%
%TO.N,+5V*%
X156972000Y-125095000D03*
%TO.P,M11,3,-*%
%TO.N,GND*%
X156972000Y-122555000D03*
%TD*%
D10*
%TO.P,M14,1,PWM*%
%TO.N,Net-(M14-PWM)*%
X145923000Y-127620000D03*
D11*
%TO.P,M14,2,+*%
%TO.N,+5V*%
X145923000Y-125080000D03*
%TO.P,M14,3,-*%
%TO.N,GND*%
X145923000Y-122540000D03*
%TD*%
D14*
%TO.P,J3,1,Pin_1*%
%TO.N,GND*%
X170497000Y-115226000D03*
D13*
%TO.P,J3,2,Pin_2*%
%TO.N,OE*%
X168497000Y-115226000D03*
%TO.P,J3,3,Pin_3*%
%TO.N,SCL*%
X166497000Y-115226000D03*
%TO.P,J3,4,Pin_4*%
%TO.N,SDA*%
X164497000Y-115226000D03*
%TO.P,J3,5,Pin_5*%
%TO.N,VCC*%
X162497000Y-115226000D03*
%TO.P,J3,6,Pin_6*%
%TO.N,+5V*%
X160497000Y-115226000D03*
%TD*%
D10*
%TO.P,M1,1,PWM*%
%TO.N,Net-(M1-PWM)*%
X193802000Y-127635000D03*
D11*
%TO.P,M1,2,+*%
%TO.N,+5V*%
X193802000Y-125095000D03*
%TO.P,M1,3,-*%
%TO.N,GND*%
X193802000Y-122555000D03*
%TD*%
D15*
%TO.P,J1,1,Pin_1*%
%TO.N,GND*%
X177800000Y-153924000D03*
D16*
%TO.P,J1,2,Pin_2*%
%TO.N,Net-(J1-Pin_2)*%
X182880000Y-153924000D03*
%TD*%
D10*
%TO.P,M6,1,PWM*%
%TO.N,Net-(M6-PWM)*%
X175387000Y-127620000D03*
D11*
%TO.P,M6,2,+*%
%TO.N,+5V*%
X175387000Y-125080000D03*
%TO.P,M6,3,-*%
%TO.N,GND*%
X175387000Y-122540000D03*
%TD*%
D10*
%TO.P,M5,1,PWM*%
%TO.N,Net-(M5-PWM)*%
X179070000Y-127635000D03*
D11*
%TO.P,M5,2,+*%
%TO.N,+5V*%
X179070000Y-125095000D03*
%TO.P,M5,3,-*%
%TO.N,GND*%
X179070000Y-122555000D03*
%TD*%
D17*
%TO.N,VCC*%
X140462000Y-143764000D03*
X152400000Y-143383000D03*
X166497000Y-150460000D03*
X142113000Y-143764000D03*
X178689000Y-113284000D03*
X149098000Y-143256000D03*
X160147000Y-146304000D03*
X144526000Y-143383000D03*
X169291000Y-134528000D03*
X151003000Y-143256000D03*
X161814000Y-151384000D03*
X158877000Y-143002000D03*
X171831000Y-134458000D03*
X154432000Y-143256000D03*
X179070000Y-149098000D03*
X147447000Y-143256000D03*
X157861000Y-146685000D03*
X145923000Y-143383000D03*
%TO.N,GND*%
X174879000Y-157607000D03*
X173349529Y-155448000D03*
X174625000Y-139827000D03*
X159639000Y-136398000D03*
X161579093Y-139827000D03*
X176911000Y-141986000D03*
%TO.N,+5V*%
X176276000Y-149613771D03*
X177165000Y-146431000D03*
X178435000Y-141224000D03*
X150241000Y-150368000D03*
%TO.N,Net-(J1-Pin_2)*%
X179197000Y-144907000D03*
%TO.N,SDA*%
X177165000Y-133858000D03*
X174204903Y-133420000D03*
X170137180Y-133674393D03*
%TO.N,OE*%
X170434000Y-144907000D03*
X172339000Y-156464000D03*
X169545000Y-146466000D03*
%TO.N,SCL*%
X173101000Y-133858000D03*
X176276000Y-134020000D03*
%TO.N,PWM1*%
X193802000Y-134112000D03*
X164825765Y-136885765D03*
%TO.N,PWM2*%
X189992000Y-135255000D03*
X164938000Y-137685629D03*
%TO.N,PWM3*%
X186563000Y-136236000D03*
X165871438Y-137600721D03*
%TO.N,PWM4*%
X181991000Y-136906000D03*
X165651265Y-139108265D03*
%TO.N,PWM5*%
X165206765Y-140314765D03*
X178689000Y-137795000D03*
%TO.N,PWM6*%
X175260000Y-138430000D03*
X165024527Y-141132000D03*
%TO.N,PWM8*%
X166751000Y-134112000D03*
X164820012Y-142722012D03*
%TO.N,PWM9*%
X166116000Y-144018000D03*
X163322000Y-133604000D03*
%TO.N,PWM10*%
X167513000Y-143418000D03*
X162306000Y-133731000D03*
%TO.N,PWM11*%
X170180000Y-142875000D03*
X158496000Y-133604000D03*
%TO.N,PWM12*%
X170053000Y-141986000D03*
X157099000Y-134112000D03*
%TO.N,PWM13*%
X151384000Y-133985000D03*
X170942000Y-141605000D03*
%TO.N,PWM14*%
X146685000Y-133985000D03*
X170307000Y-140716000D03*
%TO.N,PWM15*%
X144018000Y-134112000D03*
X170053000Y-139926882D03*
%TO.N,PWM16*%
X140843000Y-134366000D03*
X167497000Y-140208000D03*
%TD*%
D18*
%TO.N,VCC*%
X162497000Y-114303000D02*
X163700000Y-113100000D01*
X179070000Y-149098000D02*
X173949529Y-154218471D01*
X147447000Y-143256000D02*
X149098000Y-143256000D01*
X154432000Y-143256000D02*
X157861000Y-146685000D01*
X178505000Y-113100000D02*
X178689000Y-113284000D01*
X164338000Y-157734000D02*
X162497000Y-155893000D01*
X172085000Y-157734000D02*
X164338000Y-157734000D01*
X163700000Y-113100000D02*
X178505000Y-113100000D01*
X161814000Y-151384000D02*
X162738000Y-150460000D01*
X173949529Y-154218471D02*
X173949529Y-155869471D01*
X173949529Y-155869471D02*
X172085000Y-157734000D01*
X162497000Y-115226000D02*
X162497000Y-114303000D01*
X160147000Y-146304000D02*
X160147000Y-144272000D01*
X171831000Y-134458000D02*
X169361000Y-134458000D01*
X162497000Y-155893000D02*
X162497000Y-152067000D01*
X151003000Y-143256000D02*
X152273000Y-143256000D01*
X162738000Y-150460000D02*
X166497000Y-150460000D01*
X140462000Y-143764000D02*
X142113000Y-143764000D01*
X162497000Y-152067000D02*
X161814000Y-151384000D01*
X152273000Y-143256000D02*
X152400000Y-143383000D01*
X169361000Y-134458000D02*
X169291000Y-134528000D01*
X144526000Y-143383000D02*
X145923000Y-143383000D01*
X160147000Y-144272000D02*
X158877000Y-143002000D01*
%TO.N,GND*%
X176784000Y-141986000D02*
X176911000Y-141986000D01*
X160782000Y-137541000D02*
X159639000Y-136398000D01*
D19*
X177800000Y-154940000D02*
X177800000Y-153924000D01*
D18*
X174625000Y-139827000D02*
X176784000Y-141986000D01*
D19*
X175006000Y-143891000D02*
X176911000Y-141986000D01*
X174879000Y-157607000D02*
X175133000Y-157607000D01*
D18*
X160782000Y-139029907D02*
X160782000Y-137541000D01*
D19*
X175006000Y-148997000D02*
X175006000Y-143891000D01*
D18*
X161579093Y-139827000D02*
X160782000Y-139029907D01*
D19*
X173349529Y-155448000D02*
X172439000Y-155448000D01*
X172439000Y-155448000D02*
X170497000Y-153506000D01*
X170497000Y-153506000D02*
X175006000Y-148997000D01*
X175133000Y-157607000D02*
X177800000Y-154940000D01*
%TO.N,+5V*%
X138557000Y-125095000D02*
X136271000Y-127381000D01*
X178689000Y-125095000D02*
X179070000Y-125095000D01*
X195707000Y-136017000D02*
X195707000Y-126365000D01*
X153289000Y-125095000D02*
X155194000Y-123190000D01*
X166200000Y-120000000D02*
X166200000Y-123274000D01*
X160497000Y-115226000D02*
X160497000Y-116397000D01*
X164800000Y-118600000D02*
X166200000Y-120000000D01*
X136271000Y-129921000D02*
X136271000Y-136398000D01*
X195707000Y-126365000D02*
X194437000Y-125095000D01*
X194437000Y-125095000D02*
X193802000Y-125095000D01*
X160497000Y-116397000D02*
X162700000Y-118600000D01*
X166200000Y-123274000D02*
X168021000Y-125095000D01*
X193040000Y-138684000D02*
X195707000Y-136017000D01*
X136271000Y-127381000D02*
X136271000Y-129921000D01*
X176276000Y-147320000D02*
X177165000Y-146431000D01*
X155194000Y-123190000D02*
X155194000Y-120006000D01*
X136271000Y-136398000D02*
X150241000Y-150368000D01*
X180975000Y-138684000D02*
X193040000Y-138684000D01*
X162700000Y-118600000D02*
X164800000Y-118600000D01*
X176276000Y-149613771D02*
X176276000Y-147320000D01*
X159974000Y-115226000D02*
X160497000Y-115226000D01*
X155194000Y-120006000D02*
X159974000Y-115226000D01*
X178435000Y-141224000D02*
X180975000Y-138684000D01*
D18*
%TO.N,Net-(J1-Pin_2)*%
X179197000Y-144907000D02*
X182880000Y-148590000D01*
X182880000Y-148590000D02*
X182880000Y-153924000D01*
%TO.N,SDA*%
X176727000Y-133420000D02*
X174204903Y-133420000D01*
X170066787Y-120795787D02*
X164497000Y-115226000D01*
X170066787Y-133604000D02*
X170066787Y-120795787D01*
X170137180Y-133674393D02*
X170066787Y-133604000D01*
X177165000Y-133858000D02*
X176727000Y-133420000D01*
%TO.N,OE*%
X169545000Y-145796000D02*
X170434000Y-144907000D01*
X172339000Y-156464000D02*
X170180000Y-156464000D01*
X170180000Y-156464000D02*
X168497000Y-154781000D01*
X169545000Y-146466000D02*
X169545000Y-145796000D01*
X168497000Y-154781000D02*
X168497000Y-153506000D01*
%TO.N,SCL*%
X173609000Y-120904000D02*
X173609000Y-133350000D01*
X173101000Y-133858000D02*
X173263000Y-134020000D01*
X173263000Y-134020000D02*
X176276000Y-134020000D01*
X166497000Y-115226000D02*
X168471000Y-117200000D01*
X168471000Y-117200000D02*
X169905000Y-117200000D01*
X169905000Y-117200000D02*
X173609000Y-120904000D01*
X173609000Y-133350000D02*
X173101000Y-133858000D01*
%TO.N,PWM1*%
X189270471Y-135128000D02*
X190286471Y-134112000D01*
X190286471Y-134112000D02*
X193802000Y-134112000D01*
X164825765Y-136885765D02*
X166583530Y-135128000D01*
X166583530Y-135128000D02*
X189270471Y-135128000D01*
%TO.N,PWM2*%
X189611000Y-135636000D02*
X189992000Y-135255000D01*
X164938000Y-137685629D02*
X166987629Y-135636000D01*
X166987629Y-135636000D02*
X189611000Y-135636000D01*
%TO.N,PWM3*%
X165871438Y-137600721D02*
X167236159Y-136236000D01*
X167236159Y-136236000D02*
X186563000Y-136236000D01*
%TO.N,PWM4*%
X181864000Y-137033000D02*
X181991000Y-136906000D01*
X167726530Y-137033000D02*
X181864000Y-137033000D01*
X165651265Y-139108265D02*
X167726530Y-137033000D01*
%TO.N,PWM5*%
X165293294Y-140314765D02*
X167813059Y-137795000D01*
X167813059Y-137795000D02*
X178689000Y-137795000D01*
X165206765Y-140314765D02*
X165293294Y-140314765D01*
%TO.N,PWM6*%
X165806765Y-140563294D02*
X165238059Y-141132000D01*
X175260000Y-138430000D02*
X175006000Y-138684000D01*
X167640000Y-138684000D02*
X165806765Y-140517235D01*
X165806765Y-140517235D02*
X165806765Y-140563294D01*
X165238059Y-141132000D02*
X165024527Y-141132000D01*
X175006000Y-138684000D02*
X167640000Y-138684000D01*
%TO.N,PWM8*%
X164820012Y-142722012D02*
X164211000Y-142113000D01*
X164211000Y-136652000D02*
X166751000Y-134112000D01*
X164211000Y-142113000D02*
X164211000Y-136652000D01*
%TO.N,PWM9*%
X165033471Y-144018000D02*
X166116000Y-144018000D01*
X163322000Y-133604000D02*
X163322000Y-142306529D01*
X163322000Y-142306529D02*
X165033471Y-144018000D01*
%TO.N,PWM10*%
X165356785Y-144907000D02*
X166624000Y-144907000D01*
X162306000Y-133731000D02*
X162306000Y-141856215D01*
X162306000Y-141856215D02*
X165356785Y-144907000D01*
X166624000Y-144907000D02*
X167513000Y-144018000D01*
X167513000Y-144018000D02*
X167513000Y-143418000D01*
%TO.N,PWM11*%
X158496000Y-138611901D02*
X165191099Y-145307000D01*
X167748000Y-145307000D02*
X170180000Y-142875000D01*
X165191099Y-145307000D02*
X167748000Y-145307000D01*
X158496000Y-133604000D02*
X158496000Y-138611901D01*
%TO.N,PWM12*%
X168364000Y-145707000D02*
X170815000Y-143256000D01*
X157099000Y-137780587D02*
X165025413Y-145707000D01*
X157099000Y-134112000D02*
X157099000Y-137780587D01*
X170434000Y-141986000D02*
X170053000Y-141986000D01*
X165025413Y-145707000D02*
X168364000Y-145707000D01*
X170815000Y-142367000D02*
X170434000Y-141986000D01*
X170815000Y-143256000D02*
X170815000Y-142367000D01*
%TO.N,PWM13*%
X170942000Y-141605000D02*
X171323000Y-141986000D01*
X171323000Y-141986000D02*
X171323000Y-145796000D01*
X171323000Y-145796000D02*
X170053000Y-147066000D01*
X164465000Y-147066000D02*
X151384000Y-133985000D01*
X170053000Y-147066000D02*
X164465000Y-147066000D01*
%TO.N,PWM14*%
X147066000Y-133985000D02*
X159547000Y-146466000D01*
X159547000Y-146466000D02*
X159547000Y-146552529D01*
X171450000Y-147574000D02*
X172847000Y-146177000D01*
X172847000Y-141732000D02*
X171831000Y-140716000D01*
X160568471Y-147574000D02*
X171450000Y-147574000D01*
X159547000Y-146552529D02*
X160568471Y-147574000D01*
X172847000Y-146177000D02*
X172847000Y-141732000D01*
X146685000Y-133985000D02*
X147066000Y-133985000D01*
X171831000Y-140716000D02*
X170307000Y-140716000D01*
%TO.N,PWM15*%
X158623000Y-148717000D02*
X144018000Y-134112000D01*
X173247000Y-141497000D02*
X173247000Y-146342686D01*
X171676882Y-139926882D02*
X173247000Y-141497000D01*
X170053000Y-139926882D02*
X171676882Y-139926882D01*
X173247000Y-146342686D02*
X170872686Y-148717000D01*
X170872686Y-148717000D02*
X158623000Y-148717000D01*
%TO.N,PWM16*%
X174117000Y-140970000D02*
X174117000Y-146558000D01*
X170815000Y-149860000D02*
X156591000Y-149860000D01*
X167497000Y-140208000D02*
X168910000Y-140208000D01*
X156591000Y-149860000D02*
X141097000Y-134366000D01*
X172473882Y-139326882D02*
X174117000Y-140970000D01*
X168910000Y-140208000D02*
X169791118Y-139326882D01*
X141097000Y-134366000D02*
X140843000Y-134366000D01*
X169791118Y-139326882D02*
X172473882Y-139326882D01*
X174117000Y-146558000D02*
X170815000Y-149860000D01*
%TD*%
%TA.AperFunction,Conductor*%
%TO.N,GND*%
G36*
X186978941Y-111244561D02*
G01*
X187569598Y-111263123D01*
X187577340Y-111263610D01*
X188163734Y-111319040D01*
X188171459Y-111320016D01*
X188753188Y-111412153D01*
X188760802Y-111413605D01*
X189335649Y-111542098D01*
X189343172Y-111544031D01*
X189908789Y-111708358D01*
X189916139Y-111710746D01*
X190470338Y-111910270D01*
X190477561Y-111913129D01*
X191018113Y-112147047D01*
X191025162Y-112150364D01*
X191549951Y-112417758D01*
X191556777Y-112421511D01*
X192063734Y-112721324D01*
X192070311Y-112725498D01*
X192557446Y-113056555D01*
X192563748Y-113061134D01*
X193029118Y-113422112D01*
X193035121Y-113427077D01*
X193476940Y-113816593D01*
X193482618Y-113821926D01*
X193899073Y-114238381D01*
X193904406Y-114244059D01*
X194293922Y-114685878D01*
X194298887Y-114691881D01*
X194659865Y-115157251D01*
X194664444Y-115163553D01*
X194995501Y-115650688D01*
X194999675Y-115657265D01*
X195299488Y-116164222D01*
X195303241Y-116171048D01*
X195570635Y-116695837D01*
X195573952Y-116702886D01*
X195807868Y-117243434D01*
X195810735Y-117250676D01*
X196010246Y-117804840D01*
X196012648Y-117812234D01*
X196176965Y-118377816D01*
X196178903Y-118385361D01*
X196307390Y-118960178D01*
X196308849Y-118967830D01*
X196400982Y-119549538D01*
X196401959Y-119557267D01*
X196457388Y-120143643D01*
X196457877Y-120151417D01*
X196476439Y-120742058D01*
X196476500Y-120745953D01*
X196476500Y-125773770D01*
X196456815Y-125840809D01*
X196404011Y-125886564D01*
X196334853Y-125896508D01*
X196271297Y-125867483D01*
X196264819Y-125861452D01*
X196244176Y-125840809D01*
X196185416Y-125782049D01*
X195114477Y-124711109D01*
X195082383Y-124655520D01*
X195075906Y-124631346D01*
X195075904Y-124631342D01*
X195075903Y-124631337D01*
X194976035Y-124417171D01*
X194970735Y-124409601D01*
X194840494Y-124223597D01*
X194673402Y-124056506D01*
X194673401Y-124056505D01*
X194487405Y-123926269D01*
X194443781Y-123871692D01*
X194436588Y-123802193D01*
X194468110Y-123739839D01*
X194487405Y-123723119D01*
X194673082Y-123593105D01*
X194840105Y-123426082D01*
X194975600Y-123232578D01*
X195075429Y-123018492D01*
X195075432Y-123018486D01*
X195132636Y-122805000D01*
X194235012Y-122805000D01*
X194267925Y-122747993D01*
X194302000Y-122620826D01*
X194302000Y-122489174D01*
X194267925Y-122362007D01*
X194235012Y-122305000D01*
X195132636Y-122305000D01*
X195132635Y-122304999D01*
X195075432Y-122091513D01*
X195075429Y-122091507D01*
X194975600Y-121877422D01*
X194975599Y-121877420D01*
X194840113Y-121683926D01*
X194840108Y-121683920D01*
X194673082Y-121516894D01*
X194479578Y-121381399D01*
X194265492Y-121281570D01*
X194265486Y-121281567D01*
X194052000Y-121224364D01*
X194052000Y-122121988D01*
X193994993Y-122089075D01*
X193867826Y-122055000D01*
X193736174Y-122055000D01*
X193609007Y-122089075D01*
X193552000Y-122121988D01*
X193552000Y-121224364D01*
X193551999Y-121224364D01*
X193338513Y-121281567D01*
X193338507Y-121281570D01*
X193124422Y-121381399D01*
X193124420Y-121381400D01*
X192930926Y-121516886D01*
X192930920Y-121516891D01*
X192763891Y-121683920D01*
X192763886Y-121683926D01*
X192628400Y-121877420D01*
X192628399Y-121877422D01*
X192528570Y-122091507D01*
X192528567Y-122091513D01*
X192471364Y-122304999D01*
X192471364Y-122305000D01*
X193368988Y-122305000D01*
X193336075Y-122362007D01*
X193302000Y-122489174D01*
X193302000Y-122620826D01*
X193336075Y-122747993D01*
X193368988Y-122805000D01*
X192471364Y-122805000D01*
X192528567Y-123018486D01*
X192528570Y-123018492D01*
X192628399Y-123232578D01*
X192763894Y-123426082D01*
X192930917Y-123593105D01*
X193116595Y-123723119D01*
X193160219Y-123777696D01*
X193167412Y-123847195D01*
X193135890Y-123909549D01*
X193116595Y-123926269D01*
X192930594Y-124056508D01*
X192763505Y-124223597D01*
X192627965Y-124417169D01*
X192627964Y-124417171D01*
X192528098Y-124631335D01*
X192528094Y-124631344D01*
X192466938Y-124859586D01*
X192466936Y-124859596D01*
X192446341Y-125094999D01*
X192446341Y-125095000D01*
X192466936Y-125330403D01*
X192466938Y-125330413D01*
X192528094Y-125558655D01*
X192528096Y-125558659D01*
X192528097Y-125558663D01*
X192559711Y-125626459D01*
X192627965Y-125772830D01*
X192627967Y-125772834D01*
X192707602Y-125886564D01*
X192763501Y-125966396D01*
X192763506Y-125966402D01*
X192885430Y-126088326D01*
X192918915Y-126149649D01*
X192913931Y-126219341D01*
X192872059Y-126275274D01*
X192841083Y-126292189D01*
X192709669Y-126341203D01*
X192709664Y-126341206D01*
X192594455Y-126427452D01*
X192594452Y-126427455D01*
X192508206Y-126542664D01*
X192508202Y-126542671D01*
X192457908Y-126677517D01*
X192451501Y-126737116D01*
X192451501Y-126737123D01*
X192451500Y-126737135D01*
X192451500Y-128532870D01*
X192451501Y-128532876D01*
X192457908Y-128592483D01*
X192508202Y-128727328D01*
X192508206Y-128727335D01*
X192594452Y-128842544D01*
X192594455Y-128842547D01*
X192709664Y-128928793D01*
X192709671Y-128928797D01*
X192844517Y-128979091D01*
X192844516Y-128979091D01*
X192851444Y-128979835D01*
X192904127Y-128985500D01*
X194699872Y-128985499D01*
X194759483Y-128979091D01*
X194789166Y-128968019D01*
X194858856Y-128963034D01*
X194920180Y-128996518D01*
X194953666Y-129057841D01*
X194956500Y-129084201D01*
X194956500Y-135654770D01*
X194936815Y-135721809D01*
X194920181Y-135742451D01*
X192765451Y-137897181D01*
X192704128Y-137930666D01*
X192677770Y-137933500D01*
X182208095Y-137933500D01*
X182141056Y-137913815D01*
X182095301Y-137861011D01*
X182085357Y-137791853D01*
X182114382Y-137728297D01*
X182167140Y-137692458D01*
X182170887Y-137691146D01*
X182340522Y-137631789D01*
X182493262Y-137535816D01*
X182620816Y-137408262D01*
X182716789Y-137255522D01*
X182776368Y-137085255D01*
X182781291Y-137041565D01*
X182791989Y-136946617D01*
X182819055Y-136882203D01*
X182876650Y-136842648D01*
X182915209Y-136836500D01*
X185980588Y-136836500D01*
X186047627Y-136856185D01*
X186057903Y-136863555D01*
X186060736Y-136865814D01*
X186060738Y-136865816D01*
X186213478Y-136961789D01*
X186383745Y-137021368D01*
X186383750Y-137021369D01*
X186562996Y-137041565D01*
X186563000Y-137041565D01*
X186563004Y-137041565D01*
X186742249Y-137021369D01*
X186742252Y-137021368D01*
X186742255Y-137021368D01*
X186912522Y-136961789D01*
X187065262Y-136865816D01*
X187192816Y-136738262D01*
X187288789Y-136585522D01*
X187348368Y-136415255D01*
X187356102Y-136346617D01*
X187383168Y-136282203D01*
X187440763Y-136242648D01*
X187479322Y-136236500D01*
X189524331Y-136236500D01*
X189524347Y-136236501D01*
X189531943Y-136236501D01*
X189690054Y-136236501D01*
X189690057Y-136236501D01*
X189842785Y-136195577D01*
X189904447Y-136159976D01*
X189979716Y-136116520D01*
X190009104Y-136087132D01*
X190010535Y-136085701D01*
X190071857Y-136052215D01*
X190084316Y-136050162D01*
X190171255Y-136040368D01*
X190341522Y-135980789D01*
X190494262Y-135884816D01*
X190621816Y-135757262D01*
X190717789Y-135604522D01*
X190777368Y-135434255D01*
X190797565Y-135255000D01*
X190788164Y-135171565D01*
X190777369Y-135075750D01*
X190777368Y-135075745D01*
X190717789Y-134905478D01*
X190715903Y-134902476D01*
X190715276Y-134900258D01*
X190714769Y-134899205D01*
X190714953Y-134899116D01*
X190696900Y-134835240D01*
X190717265Y-134768404D01*
X190770531Y-134723188D01*
X190820894Y-134712500D01*
X193219588Y-134712500D01*
X193286627Y-134732185D01*
X193296903Y-134739555D01*
X193299736Y-134741814D01*
X193299738Y-134741816D01*
X193452478Y-134837789D01*
X193539565Y-134868262D01*
X193622745Y-134897368D01*
X193622750Y-134897369D01*
X193801996Y-134917565D01*
X193802000Y-134917565D01*
X193802004Y-134917565D01*
X193981249Y-134897369D01*
X193981252Y-134897368D01*
X193981255Y-134897368D01*
X194151522Y-134837789D01*
X194304262Y-134741816D01*
X194431816Y-134614262D01*
X194527789Y-134461522D01*
X194587368Y-134291255D01*
X194593238Y-134239158D01*
X194607565Y-134112003D01*
X194607565Y-134111996D01*
X194587369Y-133932750D01*
X194587368Y-133932745D01*
X194561215Y-133858003D01*
X194527789Y-133762478D01*
X194511267Y-133736184D01*
X194472439Y-133674389D01*
X194431816Y-133609738D01*
X194304262Y-133482184D01*
X194151523Y-133386211D01*
X193981254Y-133326631D01*
X193981249Y-133326630D01*
X193802004Y-133306435D01*
X193801996Y-133306435D01*
X193622750Y-133326630D01*
X193622745Y-133326631D01*
X193452476Y-133386211D01*
X193299736Y-133482185D01*
X193296903Y-133484445D01*
X193294724Y-133485334D01*
X193293842Y-133485889D01*
X193293744Y-133485734D01*
X193232217Y-133510855D01*
X193219588Y-133511500D01*
X190373140Y-133511500D01*
X190373124Y-133511499D01*
X190365528Y-133511499D01*
X190207414Y-133511499D01*
X190100058Y-133540265D01*
X190054681Y-133552424D01*
X190054680Y-133552425D01*
X190019537Y-133572716D01*
X190019535Y-133572717D01*
X189917761Y-133631475D01*
X189917753Y-133631481D01*
X189841003Y-133708232D01*
X189805951Y-133743284D01*
X189805949Y-133743286D01*
X189429863Y-134119373D01*
X189058055Y-134491181D01*
X188996732Y-134524666D01*
X188970374Y-134527500D01*
X177914095Y-134527500D01*
X177847056Y-134507815D01*
X177801301Y-134455011D01*
X177791357Y-134385853D01*
X177809101Y-134337528D01*
X177870911Y-134239158D01*
X177890789Y-134207522D01*
X177950368Y-134037255D01*
X177952709Y-134016478D01*
X177970565Y-133858003D01*
X177970565Y-133857996D01*
X177950369Y-133678750D01*
X177950368Y-133678745D01*
X177935228Y-133635478D01*
X177890789Y-133508478D01*
X177882409Y-133495142D01*
X177813963Y-133386211D01*
X177794816Y-133355738D01*
X177667262Y-133228184D01*
X177621819Y-133199630D01*
X177514521Y-133132210D01*
X177344249Y-133072630D01*
X177257331Y-133062837D01*
X177192917Y-133035770D01*
X177183534Y-133027298D01*
X177095717Y-132939481D01*
X177095716Y-132939480D01*
X176989594Y-132878211D01*
X176989593Y-132878210D01*
X176958783Y-132860422D01*
X176902881Y-132845443D01*
X176806057Y-132819499D01*
X176647943Y-132819499D01*
X176640347Y-132819499D01*
X176640331Y-132819500D01*
X174787315Y-132819500D01*
X174720276Y-132799815D01*
X174710000Y-132792445D01*
X174707166Y-132790185D01*
X174707165Y-132790184D01*
X174630795Y-132742197D01*
X174554424Y-132694210D01*
X174384152Y-132634630D01*
X174319616Y-132627359D01*
X174255202Y-132600292D01*
X174215647Y-132542697D01*
X174209500Y-132504139D01*
X174209500Y-129060623D01*
X174229185Y-128993584D01*
X174281989Y-128947829D01*
X174351147Y-128937885D01*
X174376829Y-128944439D01*
X174429517Y-128964091D01*
X174489127Y-128970500D01*
X176284872Y-128970499D01*
X176344483Y-128964091D01*
X176479331Y-128913796D01*
X176594546Y-128827546D01*
X176680796Y-128712331D01*
X176731091Y-128577483D01*
X176737500Y-128517873D01*
X176737499Y-126722128D01*
X176731091Y-126662517D01*
X176697094Y-126571367D01*
X176680797Y-126527671D01*
X176680793Y-126527664D01*
X176594547Y-126412455D01*
X176594544Y-126412452D01*
X176479335Y-126326206D01*
X176479328Y-126326202D01*
X176347917Y-126277189D01*
X176291983Y-126235318D01*
X176267566Y-126169853D01*
X176282418Y-126101580D01*
X176303563Y-126073332D01*
X176425495Y-125951401D01*
X176561035Y-125757830D01*
X176660903Y-125543663D01*
X176722063Y-125315408D01*
X176741347Y-125094999D01*
X177714341Y-125094999D01*
X177714341Y-125095000D01*
X177734936Y-125330403D01*
X177734938Y-125330413D01*
X177796094Y-125558655D01*
X177796096Y-125558659D01*
X177796097Y-125558663D01*
X177827711Y-125626459D01*
X177895965Y-125772830D01*
X177895967Y-125772834D01*
X177975602Y-125886564D01*
X178031501Y-125966396D01*
X178031506Y-125966402D01*
X178153430Y-126088326D01*
X178186915Y-126149649D01*
X178181931Y-126219341D01*
X178140059Y-126275274D01*
X178109083Y-126292189D01*
X177977669Y-126341203D01*
X177977664Y-126341206D01*
X177862455Y-126427452D01*
X177862452Y-126427455D01*
X177776206Y-126542664D01*
X177776202Y-126542671D01*
X177725908Y-126677517D01*
X177719501Y-126737116D01*
X177719501Y-126737123D01*
X177719500Y-126737135D01*
X177719500Y-128532870D01*
X177719501Y-128532876D01*
X177725908Y-128592483D01*
X177776202Y-128727328D01*
X177776206Y-128727335D01*
X177862452Y-128842544D01*
X177862455Y-128842547D01*
X177977664Y-128928793D01*
X177977671Y-128928797D01*
X178112517Y-128979091D01*
X178112516Y-128979091D01*
X178119444Y-128979835D01*
X178172127Y-128985500D01*
X179967872Y-128985499D01*
X180027483Y-128979091D01*
X180162331Y-128928796D01*
X180277546Y-128842546D01*
X180363796Y-128727331D01*
X180414091Y-128592483D01*
X180420500Y-128532873D01*
X180420499Y-126737128D01*
X180414091Y-126677517D01*
X180408496Y-126662517D01*
X180363797Y-126542671D01*
X180363793Y-126542664D01*
X180277547Y-126427455D01*
X180277544Y-126427452D01*
X180162335Y-126341206D01*
X180162328Y-126341202D01*
X180030917Y-126292189D01*
X179974983Y-126250318D01*
X179950566Y-126184853D01*
X179965418Y-126116580D01*
X179986563Y-126088332D01*
X180108495Y-125966401D01*
X180244035Y-125772830D01*
X180343903Y-125558663D01*
X180405063Y-125330408D01*
X180425659Y-125095000D01*
X180425659Y-125094999D01*
X181397341Y-125094999D01*
X181397341Y-125095000D01*
X181417936Y-125330403D01*
X181417938Y-125330413D01*
X181479094Y-125558655D01*
X181479096Y-125558659D01*
X181479097Y-125558663D01*
X181510711Y-125626459D01*
X181578965Y-125772830D01*
X181578967Y-125772834D01*
X181658602Y-125886564D01*
X181714501Y-125966396D01*
X181714506Y-125966402D01*
X181836430Y-126088326D01*
X181869915Y-126149649D01*
X181864931Y-126219341D01*
X181823059Y-126275274D01*
X181792083Y-126292189D01*
X181660669Y-126341203D01*
X181660664Y-126341206D01*
X181545455Y-126427452D01*
X181545452Y-126427455D01*
X181459206Y-126542664D01*
X181459202Y-126542671D01*
X181408908Y-126677517D01*
X181402501Y-126737116D01*
X181402501Y-126737123D01*
X181402500Y-126737135D01*
X181402500Y-128532870D01*
X181402501Y-128532876D01*
X181408908Y-128592483D01*
X181459202Y-128727328D01*
X181459206Y-128727335D01*
X181545452Y-128842544D01*
X181545455Y-128842547D01*
X181660664Y-128928793D01*
X181660671Y-128928797D01*
X181795517Y-128979091D01*
X181795516Y-128979091D01*
X181802444Y-128979835D01*
X181855127Y-128985500D01*
X183650872Y-128985499D01*
X183710483Y-128979091D01*
X183845331Y-128928796D01*
X183960546Y-128842546D01*
X184046796Y-128727331D01*
X184097091Y-128592483D01*
X184103500Y-128532873D01*
X184103499Y-126737128D01*
X184097091Y-126677517D01*
X184091496Y-126662517D01*
X184046797Y-126542671D01*
X184046793Y-126542664D01*
X183960547Y-126427455D01*
X183960544Y-126427452D01*
X183845335Y-126341206D01*
X183845328Y-126341202D01*
X183713917Y-126292189D01*
X183657983Y-126250318D01*
X183633566Y-126184853D01*
X183648418Y-126116580D01*
X183669563Y-126088332D01*
X183791495Y-125966401D01*
X183927035Y-125772830D01*
X184026903Y-125558663D01*
X184088063Y-125330408D01*
X184108659Y-125095000D01*
X184108659Y-125094999D01*
X185080341Y-125094999D01*
X185080341Y-125095000D01*
X185100936Y-125330403D01*
X185100938Y-125330413D01*
X185162094Y-125558655D01*
X185162096Y-125558659D01*
X185162097Y-125558663D01*
X185193711Y-125626459D01*
X185261965Y-125772830D01*
X185261967Y-125772834D01*
X185341602Y-125886564D01*
X185397501Y-125966396D01*
X185397506Y-125966402D01*
X185519430Y-126088326D01*
X185552915Y-126149649D01*
X185547931Y-126219341D01*
X185506059Y-126275274D01*
X185475083Y-126292189D01*
X185343669Y-126341203D01*
X185343664Y-126341206D01*
X185228455Y-126427452D01*
X185228452Y-126427455D01*
X185142206Y-126542664D01*
X185142202Y-126542671D01*
X185091908Y-126677517D01*
X185085501Y-126737116D01*
X185085501Y-126737123D01*
X185085500Y-126737135D01*
X185085500Y-128532870D01*
X185085501Y-128532876D01*
X185091908Y-128592483D01*
X185142202Y-128727328D01*
X185142206Y-128727335D01*
X185228452Y-128842544D01*
X185228455Y-128842547D01*
X185343664Y-128928793D01*
X185343671Y-128928797D01*
X185478517Y-128979091D01*
X185478516Y-128979091D01*
X185485444Y-128979835D01*
X185538127Y-128985500D01*
X187333872Y-128985499D01*
X187393483Y-128979091D01*
X187528331Y-128928796D01*
X187643546Y-128842546D01*
X187729796Y-128727331D01*
X187780091Y-128592483D01*
X187786500Y-128532873D01*
X187786499Y-126737128D01*
X187780091Y-126677517D01*
X187774496Y-126662517D01*
X187729797Y-126542671D01*
X187729793Y-126542664D01*
X187643547Y-126427455D01*
X187643544Y-126427452D01*
X187528335Y-126341206D01*
X187528328Y-126341202D01*
X187396917Y-126292189D01*
X187340983Y-126250318D01*
X187316566Y-126184853D01*
X187331418Y-126116580D01*
X187352563Y-126088332D01*
X187474495Y-125966401D01*
X187610035Y-125772830D01*
X187709903Y-125558663D01*
X187771063Y-125330408D01*
X187791659Y-125095000D01*
X187791659Y-125094999D01*
X188763341Y-125094999D01*
X188763341Y-125095000D01*
X188783936Y-125330403D01*
X188783938Y-125330413D01*
X188845094Y-125558655D01*
X188845096Y-125558659D01*
X188845097Y-125558663D01*
X188876711Y-125626459D01*
X188944965Y-125772830D01*
X188944967Y-125772834D01*
X189024602Y-125886564D01*
X189080501Y-125966396D01*
X189080506Y-125966402D01*
X189202430Y-126088326D01*
X189235915Y-126149649D01*
X189230931Y-126219341D01*
X189189059Y-126275274D01*
X189158083Y-126292189D01*
X189026669Y-126341203D01*
X189026664Y-126341206D01*
X188911455Y-126427452D01*
X188911452Y-126427455D01*
X188825206Y-126542664D01*
X188825202Y-126542671D01*
X188774908Y-126677517D01*
X188768501Y-126737116D01*
X188768501Y-126737123D01*
X188768500Y-126737135D01*
X188768500Y-128532870D01*
X188768501Y-128532876D01*
X188774908Y-128592483D01*
X188825202Y-128727328D01*
X188825206Y-128727335D01*
X188911452Y-128842544D01*
X188911455Y-128842547D01*
X189026664Y-128928793D01*
X189026671Y-128928797D01*
X189161517Y-128979091D01*
X189161516Y-128979091D01*
X189168444Y-128979835D01*
X189221127Y-128985500D01*
X191016872Y-128985499D01*
X191076483Y-128979091D01*
X191211331Y-128928796D01*
X191326546Y-128842546D01*
X191412796Y-128727331D01*
X191463091Y-128592483D01*
X191469500Y-128532873D01*
X191469499Y-126737128D01*
X191463091Y-126677517D01*
X191457496Y-126662517D01*
X191412797Y-126542671D01*
X191412793Y-126542664D01*
X191326547Y-126427455D01*
X191326544Y-126427452D01*
X191211335Y-126341206D01*
X191211328Y-126341202D01*
X191079917Y-126292189D01*
X191023983Y-126250318D01*
X190999566Y-126184853D01*
X191014418Y-126116580D01*
X191035563Y-126088332D01*
X191157495Y-125966401D01*
X191293035Y-125772830D01*
X191392903Y-125558663D01*
X191454063Y-125330408D01*
X191474659Y-125095000D01*
X191454063Y-124859592D01*
X191399383Y-124655520D01*
X191392905Y-124631344D01*
X191392904Y-124631343D01*
X191392903Y-124631337D01*
X191293035Y-124417171D01*
X191287735Y-124409601D01*
X191157494Y-124223597D01*
X190990402Y-124056506D01*
X190990401Y-124056505D01*
X190804405Y-123926269D01*
X190760781Y-123871692D01*
X190753588Y-123802193D01*
X190785110Y-123739839D01*
X190804405Y-123723119D01*
X190990082Y-123593105D01*
X191157105Y-123426082D01*
X191292600Y-123232578D01*
X191392429Y-123018492D01*
X191392432Y-123018486D01*
X191449636Y-122805000D01*
X190552012Y-122805000D01*
X190584925Y-122747993D01*
X190619000Y-122620826D01*
X190619000Y-122489174D01*
X190584925Y-122362007D01*
X190552012Y-122305000D01*
X191449636Y-122305000D01*
X191449635Y-122304999D01*
X191392432Y-122091513D01*
X191392429Y-122091507D01*
X191292600Y-121877422D01*
X191292599Y-121877420D01*
X191157113Y-121683926D01*
X191157108Y-121683920D01*
X190990082Y-121516894D01*
X190796578Y-121381399D01*
X190582492Y-121281570D01*
X190582486Y-121281567D01*
X190369000Y-121224364D01*
X190369000Y-122121988D01*
X190311993Y-122089075D01*
X190184826Y-122055000D01*
X190053174Y-122055000D01*
X189926007Y-122089075D01*
X189869000Y-122121988D01*
X189869000Y-121224364D01*
X189868999Y-121224364D01*
X189655513Y-121281567D01*
X189655507Y-121281570D01*
X189441422Y-121381399D01*
X189441420Y-121381400D01*
X189247926Y-121516886D01*
X189247920Y-121516891D01*
X189080891Y-121683920D01*
X189080886Y-121683926D01*
X188945400Y-121877420D01*
X188945399Y-121877422D01*
X188845570Y-122091507D01*
X188845567Y-122091513D01*
X188788364Y-122304999D01*
X188788364Y-122305000D01*
X189685988Y-122305000D01*
X189653075Y-122362007D01*
X189619000Y-122489174D01*
X189619000Y-122620826D01*
X189653075Y-122747993D01*
X189685988Y-122805000D01*
X188788364Y-122805000D01*
X188845567Y-123018486D01*
X188845570Y-123018492D01*
X188945399Y-123232578D01*
X189080894Y-123426082D01*
X189247917Y-123593105D01*
X189433595Y-123723119D01*
X189477219Y-123777696D01*
X189484412Y-123847195D01*
X189452890Y-123909549D01*
X189433595Y-123926269D01*
X189247594Y-124056508D01*
X189080505Y-124223597D01*
X188944965Y-124417169D01*
X188944964Y-124417171D01*
X188845098Y-124631335D01*
X188845094Y-124631344D01*
X188783938Y-124859586D01*
X188783936Y-124859596D01*
X188763341Y-125094999D01*
X187791659Y-125094999D01*
X187771063Y-124859592D01*
X187716383Y-124655520D01*
X187709905Y-124631344D01*
X187709904Y-124631343D01*
X187709903Y-124631337D01*
X187610035Y-124417171D01*
X187604735Y-124409601D01*
X187474494Y-124223597D01*
X187307402Y-124056506D01*
X187307401Y-124056505D01*
X187121405Y-123926269D01*
X187077781Y-123871692D01*
X187070588Y-123802193D01*
X187102110Y-123739839D01*
X187121405Y-123723119D01*
X187307082Y-123593105D01*
X187474105Y-123426082D01*
X187609600Y-123232578D01*
X187709429Y-123018492D01*
X187709432Y-123018486D01*
X187766636Y-122805000D01*
X186869012Y-122805000D01*
X186901925Y-122747993D01*
X186936000Y-122620826D01*
X186936000Y-122489174D01*
X186901925Y-122362007D01*
X186869012Y-122305000D01*
X187766636Y-122305000D01*
X187766635Y-122304999D01*
X187709432Y-122091513D01*
X187709429Y-122091507D01*
X187609600Y-121877422D01*
X187609599Y-121877420D01*
X187474113Y-121683926D01*
X187474108Y-121683920D01*
X187307082Y-121516894D01*
X187113578Y-121381399D01*
X186899492Y-121281570D01*
X186899486Y-121281567D01*
X186686000Y-121224364D01*
X186686000Y-122121988D01*
X186628993Y-122089075D01*
X186501826Y-122055000D01*
X186370174Y-122055000D01*
X186243007Y-122089075D01*
X186186000Y-122121988D01*
X186186000Y-121224364D01*
X186185999Y-121224364D01*
X185972513Y-121281567D01*
X185972507Y-121281570D01*
X185758422Y-121381399D01*
X185758420Y-121381400D01*
X185564926Y-121516886D01*
X185564920Y-121516891D01*
X185397891Y-121683920D01*
X185397886Y-121683926D01*
X185262400Y-121877420D01*
X185262399Y-121877422D01*
X185162570Y-122091507D01*
X185162567Y-122091513D01*
X185105364Y-122304999D01*
X185105364Y-122305000D01*
X186002988Y-122305000D01*
X185970075Y-122362007D01*
X185936000Y-122489174D01*
X185936000Y-122620826D01*
X185970075Y-122747993D01*
X186002988Y-122805000D01*
X185105364Y-122805000D01*
X185162567Y-123018486D01*
X185162570Y-123018492D01*
X185262399Y-123232578D01*
X185397894Y-123426082D01*
X185564917Y-123593105D01*
X185750595Y-123723119D01*
X185794219Y-123777696D01*
X185801412Y-123847195D01*
X185769890Y-123909549D01*
X185750595Y-123926269D01*
X185564594Y-124056508D01*
X185397505Y-124223597D01*
X185261965Y-124417169D01*
X185261964Y-124417171D01*
X185162098Y-124631335D01*
X185162094Y-124631344D01*
X185100938Y-124859586D01*
X185100936Y-124859596D01*
X185080341Y-125094999D01*
X184108659Y-125094999D01*
X184088063Y-124859592D01*
X184033383Y-124655520D01*
X184026905Y-124631344D01*
X184026904Y-124631343D01*
X184026903Y-124631337D01*
X183927035Y-124417171D01*
X183921735Y-124409601D01*
X183791494Y-124223597D01*
X183624402Y-124056506D01*
X183624401Y-124056505D01*
X183438405Y-123926269D01*
X183394781Y-123871692D01*
X183387588Y-123802193D01*
X183419110Y-123739839D01*
X183438405Y-123723119D01*
X183624082Y-123593105D01*
X183791105Y-123426082D01*
X183926600Y-123232578D01*
X184026429Y-123018492D01*
X184026432Y-123018486D01*
X184083636Y-122805000D01*
X183186012Y-122805000D01*
X183218925Y-122747993D01*
X183253000Y-122620826D01*
X183253000Y-122489174D01*
X183218925Y-122362007D01*
X183186012Y-122305000D01*
X184083636Y-122305000D01*
X184083635Y-122304999D01*
X184026432Y-122091513D01*
X184026429Y-122091507D01*
X183926600Y-121877422D01*
X183926599Y-121877420D01*
X183791113Y-121683926D01*
X183791108Y-121683920D01*
X183624082Y-121516894D01*
X183430578Y-121381399D01*
X183216492Y-121281570D01*
X183216486Y-121281567D01*
X183003000Y-121224364D01*
X183003000Y-122121988D01*
X182945993Y-122089075D01*
X182818826Y-122055000D01*
X182687174Y-122055000D01*
X182560007Y-122089075D01*
X182503000Y-122121988D01*
X182503000Y-121224364D01*
X182502999Y-121224364D01*
X182289513Y-121281567D01*
X182289507Y-121281570D01*
X182075422Y-121381399D01*
X182075420Y-121381400D01*
X181881926Y-121516886D01*
X181881920Y-121516891D01*
X181714891Y-121683920D01*
X181714886Y-121683926D01*
X181579400Y-121877420D01*
X181579399Y-121877422D01*
X181479570Y-122091507D01*
X181479567Y-122091513D01*
X181422364Y-122304999D01*
X181422364Y-122305000D01*
X182319988Y-122305000D01*
X182287075Y-122362007D01*
X182253000Y-122489174D01*
X182253000Y-122620826D01*
X182287075Y-122747993D01*
X182319988Y-122805000D01*
X181422364Y-122805000D01*
X181479567Y-123018486D01*
X181479570Y-123018492D01*
X181579399Y-123232578D01*
X181714894Y-123426082D01*
X181881917Y-123593105D01*
X182067595Y-123723119D01*
X182111219Y-123777696D01*
X182118412Y-123847195D01*
X182086890Y-123909549D01*
X182067595Y-123926269D01*
X181881594Y-124056508D01*
X181714505Y-124223597D01*
X181578965Y-124417169D01*
X181578964Y-124417171D01*
X181479098Y-124631335D01*
X181479094Y-124631344D01*
X181417938Y-124859586D01*
X181417936Y-124859596D01*
X181397341Y-125094999D01*
X180425659Y-125094999D01*
X180405063Y-124859592D01*
X180350383Y-124655520D01*
X180343905Y-124631344D01*
X180343904Y-124631343D01*
X180343903Y-124631337D01*
X180244035Y-124417171D01*
X180238735Y-124409601D01*
X180108494Y-124223597D01*
X179941402Y-124056506D01*
X179941401Y-124056505D01*
X179755405Y-123926269D01*
X179711781Y-123871692D01*
X179704588Y-123802193D01*
X179736110Y-123739839D01*
X179755405Y-123723119D01*
X179941082Y-123593105D01*
X180108105Y-123426082D01*
X180243600Y-123232578D01*
X180343429Y-123018492D01*
X180343432Y-123018486D01*
X180400636Y-122805000D01*
X179503012Y-122805000D01*
X179535925Y-122747993D01*
X179570000Y-122620826D01*
X179570000Y-122489174D01*
X179535925Y-122362007D01*
X179503012Y-122305000D01*
X180400636Y-122305000D01*
X180400635Y-122304999D01*
X180343432Y-122091513D01*
X180343429Y-122091507D01*
X180243600Y-121877422D01*
X180243599Y-121877420D01*
X180108113Y-121683926D01*
X180108108Y-121683920D01*
X179941082Y-121516894D01*
X179747578Y-121381399D01*
X179533492Y-121281570D01*
X179533486Y-121281567D01*
X179320000Y-121224364D01*
X179320000Y-122121988D01*
X179262993Y-122089075D01*
X179135826Y-122055000D01*
X179004174Y-122055000D01*
X178877007Y-122089075D01*
X178820000Y-122121988D01*
X178820000Y-121224364D01*
X178819999Y-121224364D01*
X178606513Y-121281567D01*
X178606507Y-121281570D01*
X178392422Y-121381399D01*
X178392420Y-121381400D01*
X178198926Y-121516886D01*
X178198920Y-121516891D01*
X178031891Y-121683920D01*
X178031886Y-121683926D01*
X177896400Y-121877420D01*
X177896399Y-121877422D01*
X177796570Y-122091507D01*
X177796567Y-122091513D01*
X177739364Y-122304999D01*
X177739364Y-122305000D01*
X178636988Y-122305000D01*
X178604075Y-122362007D01*
X178570000Y-122489174D01*
X178570000Y-122620826D01*
X178604075Y-122747993D01*
X178636988Y-122805000D01*
X177739364Y-122805000D01*
X177796567Y-123018486D01*
X177796570Y-123018492D01*
X177896399Y-123232578D01*
X178031894Y-123426082D01*
X178198917Y-123593105D01*
X178384595Y-123723119D01*
X178428219Y-123777696D01*
X178435412Y-123847195D01*
X178403890Y-123909549D01*
X178384595Y-123926269D01*
X178198594Y-124056508D01*
X178031505Y-124223597D01*
X177895965Y-124417169D01*
X177895964Y-124417171D01*
X177796098Y-124631335D01*
X177796094Y-124631344D01*
X177734938Y-124859586D01*
X177734936Y-124859596D01*
X177714341Y-125094999D01*
X176741347Y-125094999D01*
X176742659Y-125080000D01*
X176722063Y-124844592D01*
X176660903Y-124616337D01*
X176561035Y-124402171D01*
X176512569Y-124332953D01*
X176425494Y-124208597D01*
X176258402Y-124041506D01*
X176258401Y-124041505D01*
X176072405Y-123911269D01*
X176028781Y-123856692D01*
X176021588Y-123787193D01*
X176053110Y-123724839D01*
X176072405Y-123708119D01*
X176258082Y-123578105D01*
X176425105Y-123411082D01*
X176560600Y-123217578D01*
X176660429Y-123003492D01*
X176660432Y-123003486D01*
X176717636Y-122790000D01*
X175820012Y-122790000D01*
X175852925Y-122732993D01*
X175887000Y-122605826D01*
X175887000Y-122474174D01*
X175852925Y-122347007D01*
X175820012Y-122290000D01*
X176717636Y-122290000D01*
X176717635Y-122289999D01*
X176660432Y-122076513D01*
X176660429Y-122076507D01*
X176560600Y-121862422D01*
X176560599Y-121862420D01*
X176425113Y-121668926D01*
X176425108Y-121668920D01*
X176258082Y-121501894D01*
X176064578Y-121366399D01*
X175850492Y-121266570D01*
X175850486Y-121266567D01*
X175637000Y-121209364D01*
X175637000Y-122106988D01*
X175579993Y-122074075D01*
X175452826Y-122040000D01*
X175321174Y-122040000D01*
X175194007Y-122074075D01*
X175137000Y-122106988D01*
X175137000Y-121209364D01*
X175136999Y-121209364D01*
X174923513Y-121266567D01*
X174923507Y-121266570D01*
X174709422Y-121366399D01*
X174709420Y-121366400D01*
X174515926Y-121501886D01*
X174515920Y-121501891D01*
X174421181Y-121596631D01*
X174359858Y-121630116D01*
X174290166Y-121625132D01*
X174234233Y-121583260D01*
X174209816Y-121517796D01*
X174209500Y-121508950D01*
X174209500Y-120993059D01*
X174209501Y-120993046D01*
X174209501Y-120824945D01*
X174209501Y-120824943D01*
X174168577Y-120672215D01*
X174120505Y-120588952D01*
X174089520Y-120535284D01*
X173977716Y-120423480D01*
X173977715Y-120423479D01*
X173973385Y-120419149D01*
X173973374Y-120419139D01*
X170392590Y-116838355D01*
X170392588Y-116838352D01*
X170283319Y-116729083D01*
X170249834Y-116667760D01*
X170247000Y-116641402D01*
X170247000Y-115506330D01*
X170266745Y-115526075D01*
X170352255Y-115575444D01*
X170447630Y-115601000D01*
X170546370Y-115601000D01*
X170641745Y-115575444D01*
X170727255Y-115526075D01*
X170747000Y-115506330D01*
X170747000Y-116600999D01*
X170896972Y-116600999D01*
X170896986Y-116600998D01*
X170999697Y-116590505D01*
X171166119Y-116535358D01*
X171166124Y-116535356D01*
X171315345Y-116443315D01*
X171439315Y-116319345D01*
X171531356Y-116170124D01*
X171531358Y-116170119D01*
X171547068Y-116122711D01*
X189626500Y-116122711D01*
X189626500Y-116365288D01*
X189658161Y-116605785D01*
X189720947Y-116840104D01*
X189735574Y-116875416D01*
X189813776Y-117064212D01*
X189935064Y-117274289D01*
X189935066Y-117274292D01*
X189935067Y-117274293D01*
X190082733Y-117466736D01*
X190082739Y-117466743D01*
X190254256Y-117638260D01*
X190254262Y-117638265D01*
X190446711Y-117785936D01*
X190656788Y-117907224D01*
X190880900Y-118000054D01*
X191115211Y-118062838D01*
X191295586Y-118086584D01*
X191355711Y-118094500D01*
X191355712Y-118094500D01*
X191598289Y-118094500D01*
X191646388Y-118088167D01*
X191838789Y-118062838D01*
X192073100Y-118000054D01*
X192297212Y-117907224D01*
X192507289Y-117785936D01*
X192699738Y-117638265D01*
X192871265Y-117466738D01*
X193018936Y-117274289D01*
X193140224Y-117064212D01*
X193233054Y-116840100D01*
X193295838Y-116605789D01*
X193327500Y-116365288D01*
X193327500Y-116122712D01*
X193295838Y-115882211D01*
X193233054Y-115647900D01*
X193140224Y-115423788D01*
X193018936Y-115213711D01*
X192917299Y-115081255D01*
X192871266Y-115021263D01*
X192871260Y-115021256D01*
X192699743Y-114849739D01*
X192699736Y-114849733D01*
X192507293Y-114702067D01*
X192507292Y-114702066D01*
X192507289Y-114702064D01*
X192297212Y-114580776D01*
X192225358Y-114551013D01*
X192073104Y-114487947D01*
X191838785Y-114425161D01*
X191598289Y-114393500D01*
X191598288Y-114393500D01*
X191355712Y-114393500D01*
X191355711Y-114393500D01*
X191115214Y-114425161D01*
X190880895Y-114487947D01*
X190656794Y-114580773D01*
X190656785Y-114580777D01*
X190474851Y-114685817D01*
X190461893Y-114693299D01*
X190446706Y-114702067D01*
X190254263Y-114849733D01*
X190254256Y-114849739D01*
X190082739Y-115021256D01*
X190082733Y-115021263D01*
X189935067Y-115213706D01*
X189813777Y-115423785D01*
X189813773Y-115423794D01*
X189720947Y-115647895D01*
X189658161Y-115882214D01*
X189626500Y-116122711D01*
X171547068Y-116122711D01*
X171586505Y-116003697D01*
X171586506Y-116003690D01*
X171596999Y-115900986D01*
X171597000Y-115900973D01*
X171597000Y-115476000D01*
X170777330Y-115476000D01*
X170797075Y-115456255D01*
X170846444Y-115370745D01*
X170872000Y-115275370D01*
X170872000Y-115176630D01*
X170846444Y-115081255D01*
X170797075Y-114995745D01*
X170777330Y-114976000D01*
X171596999Y-114976000D01*
X171596999Y-114551028D01*
X171596998Y-114551013D01*
X171586505Y-114448302D01*
X171531358Y-114281880D01*
X171531356Y-114281875D01*
X171439315Y-114132654D01*
X171315345Y-114008684D01*
X171187841Y-113930039D01*
X171141117Y-113878091D01*
X171129894Y-113809128D01*
X171157738Y-113745046D01*
X171215807Y-113706190D01*
X171252938Y-113700500D01*
X177936764Y-113700500D01*
X178003803Y-113720185D01*
X178041756Y-113758526D01*
X178059184Y-113786262D01*
X178186738Y-113913816D01*
X178277080Y-113970582D01*
X178339444Y-114009768D01*
X178339478Y-114009789D01*
X178509745Y-114069368D01*
X178509750Y-114069369D01*
X178688996Y-114089565D01*
X178689000Y-114089565D01*
X178689004Y-114089565D01*
X178868249Y-114069369D01*
X178868252Y-114069368D01*
X178868255Y-114069368D01*
X179038522Y-114009789D01*
X179191262Y-113913816D01*
X179318816Y-113786262D01*
X179414789Y-113633522D01*
X179474368Y-113463255D01*
X179474369Y-113463249D01*
X179494565Y-113284003D01*
X179494565Y-113283996D01*
X179474369Y-113104750D01*
X179474368Y-113104745D01*
X179414788Y-112934476D01*
X179318815Y-112781737D01*
X179191262Y-112654184D01*
X179038523Y-112558211D01*
X178868254Y-112498631D01*
X178868249Y-112498630D01*
X178689004Y-112478435D01*
X178688996Y-112478435D01*
X178508968Y-112498719D01*
X178495085Y-112499499D01*
X178418347Y-112499499D01*
X178418331Y-112499500D01*
X163786669Y-112499500D01*
X163786653Y-112499499D01*
X163779057Y-112499499D01*
X163620943Y-112499499D01*
X163541010Y-112520917D01*
X163468216Y-112540422D01*
X163437404Y-112558212D01*
X163437403Y-112558211D01*
X163331287Y-112619477D01*
X163331282Y-112619481D01*
X162016482Y-113934281D01*
X162016475Y-113934290D01*
X162013218Y-113939932D01*
X161962647Y-113988143D01*
X161962133Y-113988407D01*
X161922339Y-114008684D01*
X161920212Y-114009768D01*
X161780072Y-114111586D01*
X161780070Y-114111588D01*
X161780069Y-114111588D01*
X161657588Y-114234069D01*
X161657581Y-114234078D01*
X161597317Y-114317023D01*
X161541987Y-114359689D01*
X161472374Y-114365667D01*
X161410579Y-114333061D01*
X161396683Y-114317023D01*
X161341553Y-114241145D01*
X161336414Y-114234072D01*
X161213928Y-114111586D01*
X161073788Y-114009768D01*
X160919445Y-113931127D01*
X160754701Y-113877598D01*
X160754699Y-113877597D01*
X160754698Y-113877597D01*
X160623271Y-113856781D01*
X160583611Y-113850500D01*
X160410389Y-113850500D01*
X160370728Y-113856781D01*
X160239302Y-113877597D01*
X160239299Y-113877598D01*
X160077904Y-113930039D01*
X160074552Y-113931128D01*
X159920211Y-114009768D01*
X159840256Y-114067859D01*
X159780072Y-114111586D01*
X159780070Y-114111588D01*
X159780069Y-114111588D01*
X159657588Y-114234069D01*
X159657588Y-114234070D01*
X159657586Y-114234072D01*
X159650641Y-114243631D01*
X159555768Y-114374211D01*
X159477128Y-114528550D01*
X159422336Y-114697182D01*
X159392086Y-114746544D01*
X154611049Y-119527582D01*
X154611047Y-119527585D01*
X154593799Y-119553397D01*
X154593800Y-119553398D01*
X154528914Y-119650508D01*
X154472343Y-119787082D01*
X154472340Y-119787092D01*
X154443500Y-119932079D01*
X154443500Y-121500950D01*
X154423815Y-121567989D01*
X154371011Y-121613744D01*
X154301853Y-121623688D01*
X154238297Y-121594663D01*
X154231819Y-121588631D01*
X154160082Y-121516894D01*
X153966578Y-121381399D01*
X153752492Y-121281570D01*
X153752486Y-121281567D01*
X153539000Y-121224364D01*
X153539000Y-122121988D01*
X153481993Y-122089075D01*
X153354826Y-122055000D01*
X153223174Y-122055000D01*
X153096007Y-122089075D01*
X153039000Y-122121988D01*
X153039000Y-121224364D01*
X153038999Y-121224364D01*
X152825513Y-121281567D01*
X152825507Y-121281570D01*
X152611422Y-121381399D01*
X152611420Y-121381400D01*
X152417926Y-121516886D01*
X152417920Y-121516891D01*
X152250891Y-121683920D01*
X152250886Y-121683926D01*
X152115400Y-121877420D01*
X152115399Y-121877422D01*
X152015570Y-122091507D01*
X152015567Y-122091513D01*
X151958364Y-122304999D01*
X151958364Y-122305000D01*
X152855988Y-122305000D01*
X152823075Y-122362007D01*
X152789000Y-122489174D01*
X152789000Y-122620826D01*
X152823075Y-122747993D01*
X152855988Y-122805000D01*
X151958364Y-122805000D01*
X152015567Y-123018486D01*
X152015570Y-123018492D01*
X152115399Y-123232578D01*
X152250894Y-123426082D01*
X152417917Y-123593105D01*
X152603595Y-123723119D01*
X152647219Y-123777696D01*
X152654412Y-123847195D01*
X152622890Y-123909549D01*
X152603595Y-123926269D01*
X152417594Y-124056508D01*
X152250505Y-124223597D01*
X152114965Y-124417169D01*
X152114964Y-124417171D01*
X152015098Y-124631335D01*
X152015094Y-124631344D01*
X151953938Y-124859586D01*
X151953936Y-124859596D01*
X151933341Y-125094999D01*
X151933341Y-125095000D01*
X151953936Y-125330403D01*
X151953938Y-125330413D01*
X152015094Y-125558655D01*
X152015096Y-125558659D01*
X152015097Y-125558663D01*
X152046711Y-125626459D01*
X152114965Y-125772830D01*
X152114967Y-125772834D01*
X152194602Y-125886564D01*
X152250501Y-125966396D01*
X152250506Y-125966402D01*
X152372430Y-126088326D01*
X152405915Y-126149649D01*
X152400931Y-126219341D01*
X152359059Y-126275274D01*
X152328083Y-126292189D01*
X152196669Y-126341203D01*
X152196664Y-126341206D01*
X152081455Y-126427452D01*
X152081452Y-126427455D01*
X151995206Y-126542664D01*
X151995202Y-126542671D01*
X151944908Y-126677517D01*
X151938501Y-126737116D01*
X151938501Y-126737123D01*
X151938500Y-126737135D01*
X151938500Y-128532870D01*
X151938501Y-128532876D01*
X151944908Y-128592483D01*
X151995202Y-128727328D01*
X151995206Y-128727335D01*
X152081452Y-128842544D01*
X152081455Y-128842547D01*
X152196664Y-128928793D01*
X152196671Y-128928797D01*
X152331517Y-128979091D01*
X152331516Y-128979091D01*
X152338444Y-128979835D01*
X152391127Y-128985500D01*
X154186872Y-128985499D01*
X154246483Y-128979091D01*
X154381331Y-128928796D01*
X154496546Y-128842546D01*
X154582796Y-128727331D01*
X154633091Y-128592483D01*
X154639500Y-128532873D01*
X154639499Y-126737128D01*
X154633091Y-126677517D01*
X154627496Y-126662517D01*
X154582797Y-126542671D01*
X154582793Y-126542664D01*
X154496547Y-126427455D01*
X154496544Y-126427452D01*
X154381335Y-126341206D01*
X154381328Y-126341202D01*
X154249917Y-126292189D01*
X154193983Y-126250318D01*
X154169566Y-126184853D01*
X154184418Y-126116580D01*
X154205563Y-126088332D01*
X154327495Y-125966401D01*
X154463035Y-125772830D01*
X154562903Y-125558663D01*
X154624063Y-125330408D01*
X154644659Y-125095000D01*
X154626022Y-124881985D01*
X154639788Y-124813486D01*
X154661866Y-124783500D01*
X155776952Y-123668416D01*
X155826186Y-123594729D01*
X155852937Y-123554693D01*
X155906549Y-123509890D01*
X155975874Y-123501184D01*
X156038901Y-123531340D01*
X156043718Y-123535906D01*
X156100917Y-123593105D01*
X156286595Y-123723119D01*
X156330219Y-123777696D01*
X156337412Y-123847195D01*
X156305890Y-123909549D01*
X156286595Y-123926269D01*
X156100594Y-124056508D01*
X155933505Y-124223597D01*
X155797965Y-124417169D01*
X155797964Y-124417171D01*
X155698098Y-124631335D01*
X155698094Y-124631344D01*
X155636938Y-124859586D01*
X155636936Y-124859596D01*
X155616341Y-125094999D01*
X155616341Y-125095000D01*
X155636936Y-125330403D01*
X155636938Y-125330413D01*
X155698094Y-125558655D01*
X155698096Y-125558659D01*
X155698097Y-125558663D01*
X155729711Y-125626459D01*
X155797965Y-125772830D01*
X155797967Y-125772834D01*
X155877602Y-125886564D01*
X155933501Y-125966396D01*
X155933506Y-125966402D01*
X156055430Y-126088326D01*
X156088915Y-126149649D01*
X156083931Y-126219341D01*
X156042059Y-126275274D01*
X156011083Y-126292189D01*
X155879669Y-126341203D01*
X155879664Y-126341206D01*
X155764455Y-126427452D01*
X155764452Y-126427455D01*
X155678206Y-126542664D01*
X155678202Y-126542671D01*
X155627908Y-126677517D01*
X155621501Y-126737116D01*
X155621501Y-126737123D01*
X155621500Y-126737135D01*
X155621500Y-128532870D01*
X155621501Y-128532876D01*
X155627908Y-128592483D01*
X155678202Y-128727328D01*
X155678206Y-128727335D01*
X155764452Y-128842544D01*
X155764455Y-128842547D01*
X155879664Y-128928793D01*
X155879671Y-128928797D01*
X156014517Y-128979091D01*
X156014516Y-128979091D01*
X156021444Y-128979835D01*
X156074127Y-128985500D01*
X157869872Y-128985499D01*
X157929483Y-128979091D01*
X158064331Y-128928796D01*
X158179546Y-128842546D01*
X158265796Y-128727331D01*
X158316091Y-128592483D01*
X158322500Y-128532873D01*
X158322499Y-126737128D01*
X158316091Y-126677517D01*
X158310496Y-126662517D01*
X158265797Y-126542671D01*
X158265793Y-126542664D01*
X158179547Y-126427455D01*
X158179544Y-126427452D01*
X158064335Y-126341206D01*
X158064328Y-126341202D01*
X157932917Y-126292189D01*
X157876983Y-126250318D01*
X157852566Y-126184853D01*
X157867418Y-126116580D01*
X157888563Y-126088332D01*
X158010495Y-125966401D01*
X158146035Y-125772830D01*
X158245903Y-125558663D01*
X158307063Y-125330408D01*
X158327659Y-125095000D01*
X158327659Y-125094999D01*
X159299341Y-125094999D01*
X159299341Y-125095000D01*
X159319936Y-125330403D01*
X159319938Y-125330413D01*
X159381094Y-125558655D01*
X159381096Y-125558659D01*
X159381097Y-125558663D01*
X159412711Y-125626459D01*
X159480965Y-125772830D01*
X159480967Y-125772834D01*
X159560602Y-125886564D01*
X159616501Y-125966396D01*
X159616506Y-125966402D01*
X159738430Y-126088326D01*
X159771915Y-126149649D01*
X159766931Y-126219341D01*
X159725059Y-126275274D01*
X159694083Y-126292189D01*
X159562669Y-126341203D01*
X159562664Y-126341206D01*
X159447455Y-126427452D01*
X159447452Y-126427455D01*
X159361206Y-126542664D01*
X159361202Y-126542671D01*
X159310908Y-126677517D01*
X159304501Y-126737116D01*
X159304501Y-126737123D01*
X159304500Y-126737135D01*
X159304500Y-128532870D01*
X159304501Y-128532876D01*
X159310908Y-128592483D01*
X159361202Y-128727328D01*
X159361206Y-128727335D01*
X159447452Y-128842544D01*
X159447455Y-128842547D01*
X159562664Y-128928793D01*
X159562671Y-128928797D01*
X159697517Y-128979091D01*
X159697516Y-128979091D01*
X159704444Y-128979835D01*
X159757127Y-128985500D01*
X161552872Y-128985499D01*
X161612483Y-128979091D01*
X161747331Y-128928796D01*
X161862546Y-128842546D01*
X161948796Y-128727331D01*
X161999091Y-128592483D01*
X162005500Y-128532873D01*
X162005499Y-126737128D01*
X161999091Y-126677517D01*
X161993496Y-126662517D01*
X161948797Y-126542671D01*
X161948793Y-126542664D01*
X161862547Y-126427455D01*
X161862544Y-126427452D01*
X161747335Y-126341206D01*
X161747328Y-126341202D01*
X161615917Y-126292189D01*
X161559983Y-126250318D01*
X161535566Y-126184853D01*
X161550418Y-126116580D01*
X161571563Y-126088332D01*
X161693495Y-125966401D01*
X161829035Y-125772830D01*
X161928903Y-125558663D01*
X161990063Y-125330408D01*
X162010659Y-125095000D01*
X161990063Y-124859592D01*
X161935383Y-124655520D01*
X161928905Y-124631344D01*
X161928904Y-124631343D01*
X161928903Y-124631337D01*
X161829035Y-124417171D01*
X161823735Y-124409601D01*
X161693494Y-124223597D01*
X161526402Y-124056506D01*
X161526401Y-124056505D01*
X161340405Y-123926269D01*
X161296781Y-123871692D01*
X161289588Y-123802193D01*
X161321110Y-123739839D01*
X161340405Y-123723119D01*
X161526082Y-123593105D01*
X161693105Y-123426082D01*
X161828600Y-123232578D01*
X161928429Y-123018492D01*
X161928432Y-123018486D01*
X161985636Y-122805000D01*
X161088012Y-122805000D01*
X161120925Y-122747993D01*
X161155000Y-122620826D01*
X161155000Y-122489174D01*
X161120925Y-122362007D01*
X161088012Y-122305000D01*
X161985636Y-122305000D01*
X161985635Y-122304999D01*
X161928432Y-122091513D01*
X161928429Y-122091507D01*
X161828600Y-121877422D01*
X161828599Y-121877420D01*
X161693113Y-121683926D01*
X161693108Y-121683920D01*
X161526082Y-121516894D01*
X161332578Y-121381399D01*
X161118492Y-121281570D01*
X161118486Y-121281567D01*
X160905000Y-121224364D01*
X160905000Y-122121988D01*
X160847993Y-122089075D01*
X160720826Y-122055000D01*
X160589174Y-122055000D01*
X160462007Y-122089075D01*
X160405000Y-122121988D01*
X160405000Y-121224364D01*
X160404999Y-121224364D01*
X160191513Y-121281567D01*
X160191507Y-121281570D01*
X159977422Y-121381399D01*
X159977420Y-121381400D01*
X159783926Y-121516886D01*
X159783920Y-121516891D01*
X159616891Y-121683920D01*
X159616886Y-121683926D01*
X159481400Y-121877420D01*
X159481399Y-121877422D01*
X159381570Y-122091507D01*
X159381567Y-122091513D01*
X159324364Y-122304999D01*
X159324364Y-122305000D01*
X160221988Y-122305000D01*
X160189075Y-122362007D01*
X160155000Y-122489174D01*
X160155000Y-122620826D01*
X160189075Y-122747993D01*
X160221988Y-122805000D01*
X159324364Y-122805000D01*
X159381567Y-123018486D01*
X159381570Y-123018492D01*
X159481399Y-123232578D01*
X159616894Y-123426082D01*
X159783917Y-123593105D01*
X159969595Y-123723119D01*
X160013219Y-123777696D01*
X160020412Y-123847195D01*
X159988890Y-123909549D01*
X159969595Y-123926269D01*
X159783594Y-124056508D01*
X159616505Y-124223597D01*
X159480965Y-124417169D01*
X159480964Y-124417171D01*
X159381098Y-124631335D01*
X159381094Y-124631344D01*
X159319938Y-124859586D01*
X159319936Y-124859596D01*
X159299341Y-125094999D01*
X158327659Y-125094999D01*
X158307063Y-124859592D01*
X158252383Y-124655520D01*
X158245905Y-124631344D01*
X158245904Y-124631343D01*
X158245903Y-124631337D01*
X158146035Y-124417171D01*
X158140735Y-124409601D01*
X158010494Y-124223597D01*
X157843402Y-124056506D01*
X157843401Y-124056505D01*
X157657405Y-123926269D01*
X157613781Y-123871692D01*
X157606588Y-123802193D01*
X157638110Y-123739839D01*
X157657405Y-123723119D01*
X157843082Y-123593105D01*
X158010105Y-123426082D01*
X158145600Y-123232578D01*
X158245429Y-123018492D01*
X158245432Y-123018486D01*
X158302636Y-122805000D01*
X157405012Y-122805000D01*
X157437925Y-122747993D01*
X157472000Y-122620826D01*
X157472000Y-122489174D01*
X157437925Y-122362007D01*
X157405012Y-122305000D01*
X158302636Y-122305000D01*
X158302635Y-122304999D01*
X158245432Y-122091513D01*
X158245429Y-122091507D01*
X158145600Y-121877422D01*
X158145599Y-121877420D01*
X158010113Y-121683926D01*
X158010108Y-121683920D01*
X157843082Y-121516894D01*
X157649578Y-121381399D01*
X157435492Y-121281570D01*
X157435486Y-121281567D01*
X157222000Y-121224364D01*
X157222000Y-122121988D01*
X157164993Y-122089075D01*
X157037826Y-122055000D01*
X156906174Y-122055000D01*
X156779007Y-122089075D01*
X156722000Y-122121988D01*
X156722000Y-121224364D01*
X156721999Y-121224364D01*
X156508513Y-121281567D01*
X156508507Y-121281570D01*
X156294422Y-121381399D01*
X156294420Y-121381400D01*
X156139623Y-121489790D01*
X156073417Y-121512117D01*
X156005650Y-121495107D01*
X155957837Y-121444158D01*
X155944500Y-121388215D01*
X155944500Y-120368229D01*
X155964185Y-120301190D01*
X155980814Y-120280553D01*
X159606076Y-116655290D01*
X159667397Y-116621807D01*
X159737089Y-116626791D01*
X159793022Y-116668663D01*
X159808316Y-116695520D01*
X159831915Y-116752494D01*
X159864812Y-116801727D01*
X159864813Y-116801730D01*
X159914046Y-116875414D01*
X159914052Y-116875421D01*
X161577771Y-118539138D01*
X162117048Y-119078415D01*
X162117049Y-119078416D01*
X162201959Y-119163326D01*
X162221585Y-119182952D01*
X162344498Y-119265080D01*
X162344511Y-119265087D01*
X162481082Y-119321656D01*
X162481087Y-119321658D01*
X162481091Y-119321658D01*
X162481092Y-119321659D01*
X162626079Y-119350500D01*
X162626082Y-119350500D01*
X164437770Y-119350500D01*
X164504809Y-119370185D01*
X164525451Y-119386819D01*
X165413181Y-120274549D01*
X165446666Y-120335872D01*
X165449500Y-120362230D01*
X165449500Y-121442950D01*
X165429815Y-121509989D01*
X165377011Y-121555744D01*
X165307853Y-121565688D01*
X165244297Y-121536663D01*
X165237819Y-121530631D01*
X165209082Y-121501894D01*
X165015578Y-121366399D01*
X164801492Y-121266570D01*
X164801486Y-121266567D01*
X164588000Y-121209364D01*
X164588000Y-122106988D01*
X164530993Y-122074075D01*
X164403826Y-122040000D01*
X164272174Y-122040000D01*
X164145007Y-122074075D01*
X164088000Y-122106988D01*
X164088000Y-121209364D01*
X164087999Y-121209364D01*
X163874513Y-121266567D01*
X163874507Y-121266570D01*
X163660422Y-121366399D01*
X163660420Y-121366400D01*
X163466926Y-121501886D01*
X163466920Y-121501891D01*
X163299891Y-121668920D01*
X163299886Y-121668926D01*
X163164400Y-121862420D01*
X163164399Y-121862422D01*
X163064570Y-122076507D01*
X163064567Y-122076513D01*
X163007364Y-122289999D01*
X163007364Y-122290000D01*
X163904988Y-122290000D01*
X163872075Y-122347007D01*
X163838000Y-122474174D01*
X163838000Y-122605826D01*
X163872075Y-122732993D01*
X163904988Y-122790000D01*
X163007364Y-122790000D01*
X163064567Y-123003486D01*
X163064570Y-123003492D01*
X163164399Y-123217578D01*
X163299894Y-123411082D01*
X163466917Y-123578105D01*
X163652595Y-123708119D01*
X163696219Y-123762696D01*
X163703412Y-123832195D01*
X163671890Y-123894549D01*
X163652595Y-123911269D01*
X163466594Y-124041508D01*
X163299505Y-124208597D01*
X163163965Y-124402169D01*
X163163964Y-124402171D01*
X163064098Y-124616335D01*
X163064094Y-124616344D01*
X163002938Y-124844586D01*
X163002936Y-124844596D01*
X162982341Y-125079999D01*
X162982341Y-125080000D01*
X163002936Y-125315403D01*
X163002938Y-125315413D01*
X163064094Y-125543655D01*
X163064096Y-125543659D01*
X163064097Y-125543663D01*
X163136090Y-125698051D01*
X163163965Y-125757830D01*
X163163967Y-125757834D01*
X163256067Y-125889365D01*
X163299501Y-125951396D01*
X163299506Y-125951402D01*
X163421430Y-126073326D01*
X163454915Y-126134649D01*
X163449931Y-126204341D01*
X163408059Y-126260274D01*
X163377083Y-126277189D01*
X163245669Y-126326203D01*
X163245664Y-126326206D01*
X163130455Y-126412452D01*
X163130452Y-126412455D01*
X163044206Y-126527664D01*
X163044202Y-126527671D01*
X162993908Y-126662517D01*
X162987501Y-126722116D01*
X162987501Y-126722123D01*
X162987500Y-126722135D01*
X162987500Y-128517870D01*
X162987501Y-128517876D01*
X162993908Y-128577483D01*
X163044202Y-128712328D01*
X163044206Y-128712335D01*
X163130452Y-128827544D01*
X163130455Y-128827547D01*
X163245664Y-128913793D01*
X163245671Y-128913797D01*
X163380517Y-128964091D01*
X163380516Y-128964091D01*
X163387444Y-128964835D01*
X163440127Y-128970500D01*
X165235872Y-128970499D01*
X165295483Y-128964091D01*
X165430331Y-128913796D01*
X165545546Y-128827546D01*
X165631796Y-128712331D01*
X165682091Y-128577483D01*
X165688500Y-128517873D01*
X165688499Y-126722128D01*
X165682091Y-126662517D01*
X165648094Y-126571367D01*
X165631797Y-126527671D01*
X165631793Y-126527664D01*
X165545547Y-126412455D01*
X165545544Y-126412452D01*
X165430335Y-126326206D01*
X165430328Y-126326202D01*
X165298917Y-126277189D01*
X165242983Y-126235318D01*
X165218566Y-126169853D01*
X165233418Y-126101580D01*
X165254563Y-126073332D01*
X165376495Y-125951401D01*
X165512035Y-125757830D01*
X165611903Y-125543663D01*
X165673063Y-125315408D01*
X165693659Y-125080000D01*
X165673063Y-124844592D01*
X165611903Y-124616337D01*
X165512035Y-124402171D01*
X165463569Y-124332953D01*
X165376494Y-124208597D01*
X165209402Y-124041506D01*
X165209401Y-124041505D01*
X165023405Y-123911269D01*
X164979781Y-123856692D01*
X164972588Y-123787193D01*
X165004110Y-123724839D01*
X165023405Y-123708119D01*
X165209082Y-123578105D01*
X165293206Y-123493982D01*
X165354529Y-123460497D01*
X165424221Y-123465481D01*
X165480154Y-123507353D01*
X165495448Y-123534211D01*
X165534914Y-123629492D01*
X165534915Y-123629494D01*
X165534916Y-123629495D01*
X165560919Y-123668412D01*
X165560921Y-123668414D01*
X165560922Y-123668417D01*
X165617046Y-123752414D01*
X165617052Y-123752421D01*
X166648130Y-124783498D01*
X166681615Y-124844821D01*
X166683977Y-124881986D01*
X166665341Y-125094997D01*
X166665341Y-125095000D01*
X166685936Y-125330403D01*
X166685938Y-125330413D01*
X166747094Y-125558655D01*
X166747096Y-125558659D01*
X166747097Y-125558663D01*
X166778711Y-125626459D01*
X166846965Y-125772830D01*
X166846967Y-125772834D01*
X166926602Y-125886564D01*
X166982501Y-125966396D01*
X166982506Y-125966402D01*
X167104430Y-126088326D01*
X167137915Y-126149649D01*
X167132931Y-126219341D01*
X167091059Y-126275274D01*
X167060083Y-126292189D01*
X166928669Y-126341203D01*
X166928664Y-126341206D01*
X166813455Y-126427452D01*
X166813452Y-126427455D01*
X166727206Y-126542664D01*
X166727202Y-126542671D01*
X166676908Y-126677517D01*
X166670501Y-126737116D01*
X166670501Y-126737123D01*
X166670500Y-126737135D01*
X166670500Y-128532870D01*
X166670501Y-128532876D01*
X166676908Y-128592483D01*
X166727202Y-128727328D01*
X166727206Y-128727335D01*
X166813452Y-128842544D01*
X166813455Y-128842547D01*
X166928664Y-128928793D01*
X166928671Y-128928797D01*
X167063517Y-128979091D01*
X167063516Y-128979091D01*
X167070444Y-128979835D01*
X167123127Y-128985500D01*
X168918872Y-128985499D01*
X168978483Y-128979091D01*
X169113331Y-128928796D01*
X169228546Y-128842546D01*
X169243020Y-128823210D01*
X169298953Y-128781339D01*
X169368645Y-128776355D01*
X169429968Y-128809840D01*
X169463453Y-128871163D01*
X169466287Y-128897521D01*
X169466287Y-133201780D01*
X169447281Y-133267751D01*
X169411389Y-133324872D01*
X169351813Y-133495130D01*
X169351810Y-133495142D01*
X169337725Y-133620152D01*
X169310658Y-133684566D01*
X169253063Y-133724121D01*
X169228389Y-133729488D01*
X169111749Y-133742630D01*
X169111745Y-133742631D01*
X168941476Y-133802211D01*
X168788737Y-133898184D01*
X168661184Y-134025737D01*
X168565210Y-134178478D01*
X168505630Y-134348750D01*
X168497898Y-134417383D01*
X168470832Y-134481797D01*
X168413237Y-134521352D01*
X168374678Y-134527500D01*
X167628465Y-134527500D01*
X167561426Y-134507815D01*
X167515671Y-134455011D01*
X167505727Y-134385853D01*
X167511423Y-134362546D01*
X167536367Y-134291257D01*
X167536368Y-134291255D01*
X167542238Y-134239158D01*
X167556565Y-134112003D01*
X167556565Y-134111996D01*
X167536369Y-133932750D01*
X167536368Y-133932745D01*
X167510215Y-133858003D01*
X167476789Y-133762478D01*
X167460267Y-133736184D01*
X167421439Y-133674389D01*
X167380816Y-133609738D01*
X167253262Y-133482184D01*
X167100523Y-133386211D01*
X166930254Y-133326631D01*
X166930249Y-133326630D01*
X166751004Y-133306435D01*
X166750996Y-133306435D01*
X166571750Y-133326630D01*
X166571745Y-133326631D01*
X166401476Y-133386211D01*
X166248737Y-133482184D01*
X166121184Y-133609737D01*
X166025210Y-133762478D01*
X165965630Y-133932750D01*
X165955837Y-134019668D01*
X165928770Y-134084082D01*
X165920298Y-134093465D01*
X164134181Y-135879583D01*
X164072858Y-135913068D01*
X164003166Y-135908084D01*
X163947233Y-135866212D01*
X163922816Y-135800748D01*
X163922500Y-135791902D01*
X163922500Y-134186412D01*
X163942185Y-134119373D01*
X163949555Y-134109097D01*
X163951810Y-134106267D01*
X163951816Y-134106262D01*
X164047789Y-133953522D01*
X164107368Y-133783255D01*
X164109709Y-133762478D01*
X164127565Y-133604003D01*
X164127565Y-133603996D01*
X164107369Y-133424750D01*
X164107368Y-133424745D01*
X164092228Y-133381478D01*
X164047789Y-133254478D01*
X164031615Y-133228738D01*
X163951815Y-133101737D01*
X163824262Y-132974184D01*
X163671523Y-132878211D01*
X163501254Y-132818631D01*
X163501249Y-132818630D01*
X163322004Y-132798435D01*
X163321996Y-132798435D01*
X163142750Y-132818630D01*
X163142745Y-132818631D01*
X162972476Y-132878211D01*
X162819734Y-132974186D01*
X162819731Y-132974188D01*
X162807233Y-132986686D01*
X162745908Y-133020168D01*
X162676217Y-133015179D01*
X162661863Y-133008086D01*
X162661794Y-133008231D01*
X162655521Y-133005210D01*
X162485262Y-132945633D01*
X162485249Y-132945630D01*
X162306004Y-132925435D01*
X162305996Y-132925435D01*
X162126750Y-132945630D01*
X162126745Y-132945631D01*
X161956476Y-133005211D01*
X161803737Y-133101184D01*
X161676184Y-133228737D01*
X161580211Y-133381476D01*
X161520631Y-133551745D01*
X161520630Y-133551750D01*
X161500435Y-133730996D01*
X161500435Y-133731003D01*
X161520630Y-133910249D01*
X161520631Y-133910254D01*
X161580211Y-134080523D01*
X161614805Y-134135578D01*
X161660010Y-134207522D01*
X161676185Y-134233263D01*
X161678445Y-134236097D01*
X161679334Y-134238275D01*
X161679889Y-134239158D01*
X161679734Y-134239255D01*
X161704855Y-134300783D01*
X161705500Y-134313412D01*
X161705500Y-140672804D01*
X161685815Y-140739843D01*
X161633011Y-140785598D01*
X161563853Y-140795542D01*
X161500297Y-140766517D01*
X161493819Y-140760485D01*
X159132819Y-138399485D01*
X159099334Y-138338162D01*
X159096500Y-138311804D01*
X159096500Y-134186412D01*
X159116185Y-134119373D01*
X159123555Y-134109097D01*
X159125810Y-134106267D01*
X159125816Y-134106262D01*
X159221789Y-133953522D01*
X159281368Y-133783255D01*
X159283709Y-133762478D01*
X159301565Y-133604003D01*
X159301565Y-133603996D01*
X159281369Y-133424750D01*
X159281368Y-133424745D01*
X159266228Y-133381478D01*
X159221789Y-133254478D01*
X159205615Y-133228738D01*
X159125815Y-133101737D01*
X158998262Y-132974184D01*
X158845523Y-132878211D01*
X158675254Y-132818631D01*
X158675249Y-132818630D01*
X158496004Y-132798435D01*
X158495996Y-132798435D01*
X158316750Y-132818630D01*
X158316745Y-132818631D01*
X158146476Y-132878211D01*
X157993737Y-132974184D01*
X157866184Y-133101737D01*
X157770210Y-133254478D01*
X157725799Y-133381400D01*
X157685077Y-133438176D01*
X157620124Y-133463924D01*
X157551563Y-133450468D01*
X157542785Y-133445440D01*
X157448523Y-133386211D01*
X157278254Y-133326631D01*
X157278249Y-133326630D01*
X157099004Y-133306435D01*
X157098996Y-133306435D01*
X156919750Y-133326630D01*
X156919745Y-133326631D01*
X156749476Y-133386211D01*
X156596737Y-133482184D01*
X156469184Y-133609737D01*
X156373211Y-133762476D01*
X156313631Y-133932745D01*
X156313630Y-133932750D01*
X156293435Y-134111996D01*
X156293435Y-134112003D01*
X156313630Y-134291249D01*
X156313631Y-134291254D01*
X156373211Y-134461523D01*
X156469185Y-134614263D01*
X156471445Y-134617097D01*
X156472334Y-134619275D01*
X156472889Y-134620158D01*
X156472734Y-134620255D01*
X156497855Y-134681783D01*
X156498500Y-134694412D01*
X156498500Y-137693917D01*
X156498499Y-137693935D01*
X156498499Y-137859641D01*
X156498498Y-137859641D01*
X156498499Y-137859644D01*
X156521701Y-137946237D01*
X156520039Y-138016085D01*
X156480877Y-138073948D01*
X156416649Y-138101452D01*
X156347746Y-138089866D01*
X156314246Y-138066010D01*
X152214700Y-133966465D01*
X152181215Y-133905142D01*
X152179163Y-133892686D01*
X152169368Y-133805745D01*
X152109789Y-133635478D01*
X152013816Y-133482738D01*
X151886262Y-133355184D01*
X151840822Y-133326632D01*
X151733523Y-133259211D01*
X151563254Y-133199631D01*
X151563249Y-133199630D01*
X151384004Y-133179435D01*
X151383996Y-133179435D01*
X151204750Y-133199630D01*
X151204745Y-133199631D01*
X151034476Y-133259211D01*
X150881737Y-133355184D01*
X150754184Y-133482737D01*
X150658211Y-133635476D01*
X150598631Y-133805745D01*
X150598630Y-133805750D01*
X150578435Y-133984996D01*
X150578435Y-133985003D01*
X150598630Y-134164249D01*
X150598631Y-134164254D01*
X150658211Y-134334523D01*
X150690464Y-134385853D01*
X150754184Y-134487262D01*
X150881738Y-134614816D01*
X151034478Y-134710789D01*
X151204745Y-134770368D01*
X151291669Y-134780161D01*
X151356080Y-134807226D01*
X151365465Y-134815700D01*
X158609056Y-142059292D01*
X158642541Y-142120615D01*
X158637557Y-142190307D01*
X158595685Y-142246240D01*
X158562332Y-142264014D01*
X158527478Y-142276210D01*
X158374737Y-142372184D01*
X158247184Y-142499737D01*
X158151211Y-142652476D01*
X158091631Y-142822745D01*
X158091630Y-142822750D01*
X158071435Y-143001996D01*
X158071435Y-143002003D01*
X158091630Y-143181249D01*
X158091631Y-143181254D01*
X158151211Y-143351523D01*
X158192979Y-143417996D01*
X158247184Y-143504262D01*
X158374738Y-143631816D01*
X158527478Y-143727789D01*
X158697745Y-143787368D01*
X158784669Y-143797161D01*
X158849080Y-143824226D01*
X158858465Y-143832700D01*
X159510181Y-144484416D01*
X159543666Y-144545739D01*
X159546500Y-144572097D01*
X159546500Y-145316903D01*
X159526815Y-145383942D01*
X159474011Y-145429697D01*
X159404853Y-145439641D01*
X159341297Y-145410616D01*
X159334819Y-145404584D01*
X147553590Y-133623355D01*
X147553588Y-133623352D01*
X147434717Y-133504481D01*
X147434709Y-133504475D01*
X147332936Y-133445717D01*
X147332934Y-133445716D01*
X147297790Y-133425425D01*
X147297781Y-133425421D01*
X147274847Y-133419276D01*
X147219261Y-133387183D01*
X147187262Y-133355184D01*
X147034523Y-133259211D01*
X146864254Y-133199631D01*
X146864249Y-133199630D01*
X146685004Y-133179435D01*
X146684996Y-133179435D01*
X146505750Y-133199630D01*
X146505745Y-133199631D01*
X146335476Y-133259211D01*
X146182737Y-133355184D01*
X146055184Y-133482737D01*
X145959211Y-133635476D01*
X145899631Y-133805745D01*
X145899630Y-133805750D01*
X145879435Y-133984996D01*
X145879435Y-133985003D01*
X145899630Y-134164249D01*
X145899631Y-134164254D01*
X145959211Y-134334523D01*
X145991464Y-134385853D01*
X146055184Y-134487262D01*
X146182738Y-134614816D01*
X146335478Y-134710789D01*
X146500132Y-134768404D01*
X146505745Y-134770368D01*
X146505750Y-134770369D01*
X146684996Y-134790565D01*
X146685000Y-134790565D01*
X146685004Y-134790565D01*
X146864250Y-134770369D01*
X146864251Y-134770368D01*
X146864255Y-134770368D01*
X146892850Y-134760361D01*
X146962626Y-134756798D01*
X147021486Y-134789721D01*
X154474792Y-142243027D01*
X154508277Y-142304350D01*
X154503293Y-142374042D01*
X154461421Y-142429975D01*
X154400994Y-142453928D01*
X154252750Y-142470630D01*
X154252745Y-142470631D01*
X154082476Y-142530211D01*
X153929737Y-142626184D01*
X153802184Y-142753737D01*
X153802182Y-142753740D01*
X153771765Y-142802148D01*
X153719430Y-142848439D01*
X153650376Y-142859086D01*
X153586528Y-142830710D01*
X153579091Y-142823856D01*
X144848700Y-134093465D01*
X144815215Y-134032142D01*
X144813163Y-134019686D01*
X144803368Y-133932745D01*
X144743789Y-133762478D01*
X144647816Y-133609738D01*
X144520262Y-133482184D01*
X144367523Y-133386211D01*
X144197254Y-133326631D01*
X144197249Y-133326630D01*
X144018004Y-133306435D01*
X144017996Y-133306435D01*
X143838750Y-133326630D01*
X143838745Y-133326631D01*
X143668476Y-133386211D01*
X143515737Y-133482184D01*
X143388184Y-133609737D01*
X143292211Y-133762476D01*
X143232631Y-133932745D01*
X143232630Y-133932750D01*
X143212435Y-134111996D01*
X143212435Y-134112003D01*
X143232630Y-134291249D01*
X143232631Y-134291254D01*
X143292211Y-134461523D01*
X143344820Y-134545249D01*
X143388184Y-134614262D01*
X143515738Y-134741816D01*
X143668478Y-134837789D01*
X143838745Y-134897368D01*
X143925669Y-134907161D01*
X143990080Y-134934226D01*
X143999465Y-134942700D01*
X151329016Y-142272251D01*
X151362501Y-142333574D01*
X151357517Y-142403266D01*
X151315645Y-142459199D01*
X151250181Y-142483616D01*
X151200381Y-142476974D01*
X151182257Y-142470632D01*
X151182249Y-142470630D01*
X151003004Y-142450435D01*
X151002996Y-142450435D01*
X150823750Y-142470630D01*
X150823745Y-142470631D01*
X150653476Y-142530211D01*
X150500739Y-142626183D01*
X150441259Y-142685663D01*
X150379935Y-142719147D01*
X150310244Y-142714162D01*
X150265897Y-142685662D01*
X141584590Y-134004355D01*
X141584588Y-134004352D01*
X141531457Y-133951221D01*
X141514144Y-133929512D01*
X141502043Y-133910254D01*
X141472816Y-133863738D01*
X141345262Y-133736184D01*
X141338939Y-133732211D01*
X141192523Y-133640211D01*
X141022254Y-133580631D01*
X141022249Y-133580630D01*
X140843004Y-133560435D01*
X140842996Y-133560435D01*
X140663750Y-133580630D01*
X140663745Y-133580631D01*
X140493476Y-133640211D01*
X140340737Y-133736184D01*
X140213184Y-133863737D01*
X140117211Y-134016476D01*
X140057631Y-134186745D01*
X140057630Y-134186750D01*
X140037435Y-134365996D01*
X140037435Y-134366003D01*
X140057630Y-134545249D01*
X140057631Y-134545254D01*
X140117211Y-134715523D01*
X140213184Y-134868262D01*
X140340738Y-134995816D01*
X140493478Y-135091789D01*
X140655686Y-135148548D01*
X140663745Y-135151368D01*
X140663750Y-135151369D01*
X140842996Y-135171565D01*
X140843000Y-135171565D01*
X140843002Y-135171565D01*
X140885051Y-135166826D01*
X140972692Y-135156952D01*
X141041513Y-135169006D01*
X141074256Y-135192491D01*
X148325584Y-142443819D01*
X148359069Y-142505142D01*
X148354085Y-142574834D01*
X148312213Y-142630767D01*
X148246749Y-142655184D01*
X148237903Y-142655500D01*
X148029412Y-142655500D01*
X147962373Y-142635815D01*
X147952097Y-142628445D01*
X147949263Y-142626185D01*
X147949262Y-142626184D01*
X147891125Y-142589654D01*
X147796523Y-142530211D01*
X147626254Y-142470631D01*
X147626249Y-142470630D01*
X147447004Y-142450435D01*
X147446996Y-142450435D01*
X147267750Y-142470630D01*
X147267745Y-142470631D01*
X147097476Y-142530211D01*
X146944737Y-142626184D01*
X146817184Y-142753737D01*
X146817182Y-142753740D01*
X146748888Y-142862428D01*
X146696553Y-142908719D01*
X146627500Y-142919366D01*
X146563651Y-142890991D01*
X146556214Y-142884136D01*
X146425262Y-142753184D01*
X146272523Y-142657211D01*
X146102254Y-142597631D01*
X146102249Y-142597630D01*
X145923004Y-142577435D01*
X145922996Y-142577435D01*
X145743750Y-142597630D01*
X145743745Y-142597631D01*
X145573476Y-142657211D01*
X145420736Y-142753185D01*
X145417903Y-142755445D01*
X145415724Y-142756334D01*
X145414842Y-142756889D01*
X145414744Y-142756734D01*
X145353217Y-142781855D01*
X145340588Y-142782500D01*
X145108412Y-142782500D01*
X145041373Y-142762815D01*
X145031097Y-142755445D01*
X145028263Y-142753185D01*
X145028262Y-142753184D01*
X144966159Y-142714162D01*
X144875523Y-142657211D01*
X144705254Y-142597631D01*
X144705249Y-142597630D01*
X144526004Y-142577435D01*
X144525996Y-142577435D01*
X144346750Y-142597630D01*
X144346745Y-142597631D01*
X144176476Y-142657211D01*
X144023739Y-142753183D01*
X143943325Y-142833597D01*
X143882001Y-142867081D01*
X143812310Y-142862097D01*
X143767963Y-142833596D01*
X140430548Y-139496181D01*
X137057819Y-136123451D01*
X137024334Y-136062128D01*
X137021500Y-136035770D01*
X137021500Y-128766584D01*
X137041185Y-128699545D01*
X137093989Y-128653790D01*
X137163147Y-128643846D01*
X137226703Y-128672871D01*
X137261682Y-128723252D01*
X137263201Y-128727326D01*
X137263206Y-128727335D01*
X137349452Y-128842544D01*
X137349455Y-128842547D01*
X137464664Y-128928793D01*
X137464671Y-128928797D01*
X137599517Y-128979091D01*
X137599516Y-128979091D01*
X137606444Y-128979835D01*
X137659127Y-128985500D01*
X139454872Y-128985499D01*
X139514483Y-128979091D01*
X139649331Y-128928796D01*
X139764546Y-128842546D01*
X139850796Y-128727331D01*
X139901091Y-128592483D01*
X139907500Y-128532873D01*
X139907499Y-126737128D01*
X139901091Y-126677517D01*
X139895496Y-126662517D01*
X139850797Y-126542671D01*
X139850793Y-126542664D01*
X139764547Y-126427455D01*
X139764544Y-126427452D01*
X139649335Y-126341206D01*
X139649328Y-126341202D01*
X139517917Y-126292189D01*
X139461983Y-126250318D01*
X139437566Y-126184853D01*
X139452418Y-126116580D01*
X139473563Y-126088332D01*
X139595495Y-125966401D01*
X139731035Y-125772830D01*
X139830903Y-125558663D01*
X139892063Y-125330408D01*
X139912659Y-125095000D01*
X139911347Y-125079999D01*
X140884341Y-125079999D01*
X140884341Y-125080000D01*
X140904936Y-125315403D01*
X140904938Y-125315413D01*
X140966094Y-125543655D01*
X140966096Y-125543659D01*
X140966097Y-125543663D01*
X141038090Y-125698051D01*
X141065965Y-125757830D01*
X141065967Y-125757834D01*
X141158067Y-125889365D01*
X141201501Y-125951396D01*
X141201506Y-125951402D01*
X141323430Y-126073326D01*
X141356915Y-126134649D01*
X141351931Y-126204341D01*
X141310059Y-126260274D01*
X141279083Y-126277189D01*
X141147669Y-126326203D01*
X141147664Y-126326206D01*
X141032455Y-126412452D01*
X141032452Y-126412455D01*
X140946206Y-126527664D01*
X140946202Y-126527671D01*
X140895908Y-126662517D01*
X140889501Y-126722116D01*
X140889501Y-126722123D01*
X140889500Y-126722135D01*
X140889500Y-128517870D01*
X140889501Y-128517876D01*
X140895908Y-128577483D01*
X140946202Y-128712328D01*
X140946206Y-128712335D01*
X141032452Y-128827544D01*
X141032455Y-128827547D01*
X141147664Y-128913793D01*
X141147671Y-128913797D01*
X141282517Y-128964091D01*
X141282516Y-128964091D01*
X141289444Y-128964835D01*
X141342127Y-128970500D01*
X143137872Y-128970499D01*
X143197483Y-128964091D01*
X143332331Y-128913796D01*
X143447546Y-128827546D01*
X143533796Y-128712331D01*
X143584091Y-128577483D01*
X143590500Y-128517873D01*
X143590499Y-126722128D01*
X143584091Y-126662517D01*
X143550094Y-126571367D01*
X143533797Y-126527671D01*
X143533793Y-126527664D01*
X143447547Y-126412455D01*
X143447544Y-126412452D01*
X143332335Y-126326206D01*
X143332328Y-126326202D01*
X143200917Y-126277189D01*
X143144983Y-126235318D01*
X143120566Y-126169853D01*
X143135418Y-126101580D01*
X143156563Y-126073332D01*
X143278495Y-125951401D01*
X143414035Y-125757830D01*
X143513903Y-125543663D01*
X143575063Y-125315408D01*
X143595659Y-125080000D01*
X143595659Y-125079999D01*
X144567341Y-125079999D01*
X144567341Y-125080000D01*
X144587936Y-125315403D01*
X144587938Y-125315413D01*
X144649094Y-125543655D01*
X144649096Y-125543659D01*
X144649097Y-125543663D01*
X144721090Y-125698051D01*
X144748965Y-125757830D01*
X144748967Y-125757834D01*
X144841067Y-125889365D01*
X144884501Y-125951396D01*
X144884506Y-125951402D01*
X145006430Y-126073326D01*
X145039915Y-126134649D01*
X145034931Y-126204341D01*
X144993059Y-126260274D01*
X144962083Y-126277189D01*
X144830669Y-126326203D01*
X144830664Y-126326206D01*
X144715455Y-126412452D01*
X144715452Y-126412455D01*
X144629206Y-126527664D01*
X144629202Y-126527671D01*
X144578908Y-126662517D01*
X144572501Y-126722116D01*
X144572501Y-126722123D01*
X144572500Y-126722135D01*
X144572500Y-128517870D01*
X144572501Y-128517876D01*
X144578908Y-128577483D01*
X144629202Y-128712328D01*
X144629206Y-128712335D01*
X144715452Y-128827544D01*
X144715455Y-128827547D01*
X144830664Y-128913793D01*
X144830671Y-128913797D01*
X144965517Y-128964091D01*
X144965516Y-128964091D01*
X144972444Y-128964835D01*
X145025127Y-128970500D01*
X146820872Y-128970499D01*
X146880483Y-128964091D01*
X147015331Y-128913796D01*
X147130546Y-128827546D01*
X147216796Y-128712331D01*
X147267091Y-128577483D01*
X147273500Y-128517873D01*
X147273499Y-126722128D01*
X147267091Y-126662517D01*
X147233094Y-126571367D01*
X147216797Y-126527671D01*
X147216793Y-126527664D01*
X147130547Y-126412455D01*
X147130544Y-126412452D01*
X147015335Y-126326206D01*
X147015328Y-126326202D01*
X146883917Y-126277189D01*
X146827983Y-126235318D01*
X146803566Y-126169853D01*
X146818418Y-126101580D01*
X146839563Y-126073332D01*
X146961495Y-125951401D01*
X147097035Y-125757830D01*
X147196903Y-125543663D01*
X147258063Y-125315408D01*
X147277347Y-125094999D01*
X148250341Y-125094999D01*
X148250341Y-125095000D01*
X148270936Y-125330403D01*
X148270938Y-125330413D01*
X148332094Y-125558655D01*
X148332096Y-125558659D01*
X148332097Y-125558663D01*
X148363711Y-125626459D01*
X148431965Y-125772830D01*
X148431967Y-125772834D01*
X148511602Y-125886564D01*
X148567501Y-125966396D01*
X148567506Y-125966402D01*
X148689430Y-126088326D01*
X148722915Y-126149649D01*
X148717931Y-126219341D01*
X148676059Y-126275274D01*
X148645083Y-126292189D01*
X148513669Y-126341203D01*
X148513664Y-126341206D01*
X148398455Y-126427452D01*
X148398452Y-126427455D01*
X148312206Y-126542664D01*
X148312202Y-126542671D01*
X148261908Y-126677517D01*
X148255501Y-126737116D01*
X148255501Y-126737123D01*
X148255500Y-126737135D01*
X148255500Y-128532870D01*
X148255501Y-128532876D01*
X148261908Y-128592483D01*
X148312202Y-128727328D01*
X148312206Y-128727335D01*
X148398452Y-128842544D01*
X148398455Y-128842547D01*
X148513664Y-128928793D01*
X148513671Y-128928797D01*
X148648517Y-128979091D01*
X148648516Y-128979091D01*
X148655444Y-128979835D01*
X148708127Y-128985500D01*
X150503872Y-128985499D01*
X150563483Y-128979091D01*
X150698331Y-128928796D01*
X150813546Y-128842546D01*
X150899796Y-128727331D01*
X150950091Y-128592483D01*
X150956500Y-128532873D01*
X150956499Y-126737128D01*
X150950091Y-126677517D01*
X150944496Y-126662517D01*
X150899797Y-126542671D01*
X150899793Y-126542664D01*
X150813547Y-126427455D01*
X150813544Y-126427452D01*
X150698335Y-126341206D01*
X150698328Y-126341202D01*
X150566917Y-126292189D01*
X150510983Y-126250318D01*
X150486566Y-126184853D01*
X150501418Y-126116580D01*
X150522563Y-126088332D01*
X150644495Y-125966401D01*
X150780035Y-125772830D01*
X150879903Y-125558663D01*
X150941063Y-125330408D01*
X150961659Y-125095000D01*
X150941063Y-124859592D01*
X150886383Y-124655520D01*
X150879905Y-124631344D01*
X150879904Y-124631343D01*
X150879903Y-124631337D01*
X150780035Y-124417171D01*
X150774735Y-124409601D01*
X150644494Y-124223597D01*
X150477402Y-124056506D01*
X150477401Y-124056505D01*
X150291405Y-123926269D01*
X150247781Y-123871692D01*
X150240588Y-123802193D01*
X150272110Y-123739839D01*
X150291405Y-123723119D01*
X150477082Y-123593105D01*
X150644105Y-123426082D01*
X150779600Y-123232578D01*
X150879429Y-123018492D01*
X150879432Y-123018486D01*
X150936636Y-122805000D01*
X150039012Y-122805000D01*
X150071925Y-122747993D01*
X150106000Y-122620826D01*
X150106000Y-122489174D01*
X150071925Y-122362007D01*
X150039012Y-122305000D01*
X150936636Y-122305000D01*
X150936635Y-122304999D01*
X150879432Y-122091513D01*
X150879429Y-122091507D01*
X150779600Y-121877422D01*
X150779599Y-121877420D01*
X150644113Y-121683926D01*
X150644108Y-121683920D01*
X150477082Y-121516894D01*
X150283578Y-121381399D01*
X150069492Y-121281570D01*
X150069486Y-121281567D01*
X149856000Y-121224364D01*
X149856000Y-122121988D01*
X149798993Y-122089075D01*
X149671826Y-122055000D01*
X149540174Y-122055000D01*
X149413007Y-122089075D01*
X149356000Y-122121988D01*
X149356000Y-121224364D01*
X149355999Y-121224364D01*
X149142513Y-121281567D01*
X149142507Y-121281570D01*
X148928422Y-121381399D01*
X148928420Y-121381400D01*
X148734926Y-121516886D01*
X148734920Y-121516891D01*
X148567891Y-121683920D01*
X148567886Y-121683926D01*
X148432400Y-121877420D01*
X148432399Y-121877422D01*
X148332570Y-122091507D01*
X148332567Y-122091513D01*
X148275364Y-122304999D01*
X148275364Y-122305000D01*
X149172988Y-122305000D01*
X149140075Y-122362007D01*
X149106000Y-122489174D01*
X149106000Y-122620826D01*
X149140075Y-122747993D01*
X149172988Y-122805000D01*
X148275364Y-122805000D01*
X148332567Y-123018486D01*
X148332570Y-123018492D01*
X148432399Y-123232578D01*
X148567894Y-123426082D01*
X148734917Y-123593105D01*
X148920595Y-123723119D01*
X148964219Y-123777696D01*
X148971412Y-123847195D01*
X148939890Y-123909549D01*
X148920595Y-123926269D01*
X148734594Y-124056508D01*
X148567505Y-124223597D01*
X148431965Y-124417169D01*
X148431964Y-124417171D01*
X148332098Y-124631335D01*
X148332094Y-124631344D01*
X148270938Y-124859586D01*
X148270936Y-124859596D01*
X148250341Y-125094999D01*
X147277347Y-125094999D01*
X147278659Y-125080000D01*
X147258063Y-124844592D01*
X147196903Y-124616337D01*
X147097035Y-124402171D01*
X147048569Y-124332953D01*
X146961494Y-124208597D01*
X146794402Y-124041506D01*
X146794401Y-124041505D01*
X146608405Y-123911269D01*
X146564781Y-123856692D01*
X146557588Y-123787193D01*
X146589110Y-123724839D01*
X146608405Y-123708119D01*
X146794082Y-123578105D01*
X146961105Y-123411082D01*
X147096600Y-123217578D01*
X147196429Y-123003492D01*
X147196432Y-123003486D01*
X147253636Y-122790000D01*
X146356012Y-122790000D01*
X146388925Y-122732993D01*
X146423000Y-122605826D01*
X146423000Y-122474174D01*
X146388925Y-122347007D01*
X146356012Y-122290000D01*
X147253636Y-122290000D01*
X147253635Y-122289999D01*
X147196432Y-122076513D01*
X147196429Y-122076507D01*
X147096600Y-121862422D01*
X147096599Y-121862420D01*
X146961113Y-121668926D01*
X146961108Y-121668920D01*
X146794082Y-121501894D01*
X146600578Y-121366399D01*
X146386492Y-121266570D01*
X146386486Y-121266567D01*
X146173000Y-121209364D01*
X146173000Y-122106988D01*
X146115993Y-122074075D01*
X145988826Y-122040000D01*
X145857174Y-122040000D01*
X145730007Y-122074075D01*
X145673000Y-122106988D01*
X145673000Y-121209364D01*
X145672999Y-121209364D01*
X145459513Y-121266567D01*
X145459507Y-121266570D01*
X145245422Y-121366399D01*
X145245420Y-121366400D01*
X145051926Y-121501886D01*
X145051920Y-121501891D01*
X144884891Y-121668920D01*
X144884886Y-121668926D01*
X144749400Y-121862420D01*
X144749399Y-121862422D01*
X144649570Y-122076507D01*
X144649567Y-122076513D01*
X144592364Y-122289999D01*
X144592364Y-122290000D01*
X145489988Y-122290000D01*
X145457075Y-122347007D01*
X145423000Y-122474174D01*
X145423000Y-122605826D01*
X145457075Y-122732993D01*
X145489988Y-122790000D01*
X144592364Y-122790000D01*
X144649567Y-123003486D01*
X144649570Y-123003492D01*
X144749399Y-123217578D01*
X144884894Y-123411082D01*
X145051917Y-123578105D01*
X145237595Y-123708119D01*
X145281219Y-123762696D01*
X145288412Y-123832195D01*
X145256890Y-123894549D01*
X145237595Y-123911269D01*
X145051594Y-124041508D01*
X144884505Y-124208597D01*
X144748965Y-124402169D01*
X144748964Y-124402171D01*
X144649098Y-124616335D01*
X144649094Y-124616344D01*
X144587938Y-124844586D01*
X144587936Y-124844596D01*
X144567341Y-125079999D01*
X143595659Y-125079999D01*
X143575063Y-124844592D01*
X143513903Y-124616337D01*
X143414035Y-124402171D01*
X143365569Y-124332953D01*
X143278494Y-124208597D01*
X143111402Y-124041506D01*
X143111401Y-124041505D01*
X142925405Y-123911269D01*
X142881781Y-123856692D01*
X142874588Y-123787193D01*
X142906110Y-123724839D01*
X142925405Y-123708119D01*
X143111082Y-123578105D01*
X143278105Y-123411082D01*
X143413600Y-123217578D01*
X143513429Y-123003492D01*
X143513432Y-123003486D01*
X143570636Y-122790000D01*
X142673012Y-122790000D01*
X142705925Y-122732993D01*
X142740000Y-122605826D01*
X142740000Y-122474174D01*
X142705925Y-122347007D01*
X142673012Y-122290000D01*
X143570636Y-122290000D01*
X143570635Y-122289999D01*
X143513432Y-122076513D01*
X143513429Y-122076507D01*
X143413600Y-121862422D01*
X143413599Y-121862420D01*
X143278113Y-121668926D01*
X143278108Y-121668920D01*
X143111082Y-121501894D01*
X142917578Y-121366399D01*
X142703492Y-121266570D01*
X142703486Y-121266567D01*
X142490000Y-121209364D01*
X142490000Y-122106988D01*
X142432993Y-122074075D01*
X142305826Y-122040000D01*
X142174174Y-122040000D01*
X142047007Y-122074075D01*
X141990000Y-122106988D01*
X141990000Y-121209364D01*
X141989999Y-121209364D01*
X141776513Y-121266567D01*
X141776507Y-121266570D01*
X141562422Y-121366399D01*
X141562420Y-121366400D01*
X141368926Y-121501886D01*
X141368920Y-121501891D01*
X141201891Y-121668920D01*
X141201886Y-121668926D01*
X141066400Y-121862420D01*
X141066399Y-121862422D01*
X140966570Y-122076507D01*
X140966567Y-122076513D01*
X140909364Y-122289999D01*
X140909364Y-122290000D01*
X141806988Y-122290000D01*
X141774075Y-122347007D01*
X141740000Y-122474174D01*
X141740000Y-122605826D01*
X141774075Y-122732993D01*
X141806988Y-122790000D01*
X140909364Y-122790000D01*
X140966567Y-123003486D01*
X140966570Y-123003492D01*
X141066399Y-123217578D01*
X141201894Y-123411082D01*
X141368917Y-123578105D01*
X141554595Y-123708119D01*
X141598219Y-123762696D01*
X141605412Y-123832195D01*
X141573890Y-123894549D01*
X141554595Y-123911269D01*
X141368594Y-124041508D01*
X141201505Y-124208597D01*
X141065965Y-124402169D01*
X141065964Y-124402171D01*
X140966098Y-124616335D01*
X140966094Y-124616344D01*
X140904938Y-124844586D01*
X140904936Y-124844596D01*
X140884341Y-125079999D01*
X139911347Y-125079999D01*
X139892063Y-124859592D01*
X139837383Y-124655520D01*
X139830905Y-124631344D01*
X139830904Y-124631343D01*
X139830903Y-124631337D01*
X139731035Y-124417171D01*
X139725735Y-124409601D01*
X139595494Y-124223597D01*
X139428402Y-124056506D01*
X139428401Y-124056505D01*
X139242405Y-123926269D01*
X139198781Y-123871692D01*
X139191588Y-123802193D01*
X139223110Y-123739839D01*
X139242405Y-123723119D01*
X139428082Y-123593105D01*
X139595105Y-123426082D01*
X139730600Y-123232578D01*
X139830429Y-123018492D01*
X139830432Y-123018486D01*
X139887636Y-122805000D01*
X138990012Y-122805000D01*
X139022925Y-122747993D01*
X139057000Y-122620826D01*
X139057000Y-122489174D01*
X139022925Y-122362007D01*
X138990012Y-122305000D01*
X139887636Y-122305000D01*
X139887635Y-122304999D01*
X139830432Y-122091513D01*
X139830429Y-122091507D01*
X139730600Y-121877422D01*
X139730599Y-121877420D01*
X139595113Y-121683926D01*
X139595108Y-121683920D01*
X139428082Y-121516894D01*
X139234578Y-121381399D01*
X139020492Y-121281570D01*
X139020486Y-121281567D01*
X138807000Y-121224364D01*
X138807000Y-122121988D01*
X138749993Y-122089075D01*
X138622826Y-122055000D01*
X138491174Y-122055000D01*
X138364007Y-122089075D01*
X138307000Y-122121988D01*
X138307000Y-121224364D01*
X138306999Y-121224364D01*
X138093513Y-121281567D01*
X138093507Y-121281570D01*
X137879422Y-121381399D01*
X137879420Y-121381400D01*
X137685926Y-121516886D01*
X137685920Y-121516891D01*
X137518891Y-121683920D01*
X137518886Y-121683926D01*
X137383400Y-121877420D01*
X137383399Y-121877422D01*
X137283570Y-122091507D01*
X137283567Y-122091513D01*
X137226364Y-122304999D01*
X137226364Y-122305000D01*
X138123988Y-122305000D01*
X138091075Y-122362007D01*
X138057000Y-122489174D01*
X138057000Y-122620826D01*
X138091075Y-122747993D01*
X138123988Y-122805000D01*
X137226364Y-122805000D01*
X137283567Y-123018486D01*
X137283570Y-123018492D01*
X137383399Y-123232578D01*
X137518894Y-123426082D01*
X137685917Y-123593105D01*
X137871595Y-123723119D01*
X137915219Y-123777696D01*
X137922412Y-123847195D01*
X137890890Y-123909549D01*
X137871595Y-123926269D01*
X137685594Y-124056508D01*
X137518505Y-124223597D01*
X137382965Y-124417169D01*
X137382964Y-124417171D01*
X137283098Y-124631335D01*
X137283094Y-124631344D01*
X137221938Y-124859586D01*
X137221936Y-124859596D01*
X137201341Y-125094999D01*
X137201341Y-125095001D01*
X137219977Y-125308013D01*
X137206210Y-125376513D01*
X137184130Y-125406501D01*
X135688050Y-126902580D01*
X135688044Y-126902588D01*
X135638812Y-126976268D01*
X135638813Y-126976269D01*
X135605921Y-127025496D01*
X135605914Y-127025508D01*
X135549342Y-127162086D01*
X135549340Y-127162092D01*
X135520500Y-127307079D01*
X135520500Y-127307082D01*
X135520500Y-129847082D01*
X135520500Y-136471918D01*
X135520500Y-136471920D01*
X135520499Y-136471920D01*
X135549340Y-136616907D01*
X135549343Y-136616917D01*
X135605912Y-136753488D01*
X135605920Y-136753502D01*
X135633751Y-136795153D01*
X135633752Y-136795156D01*
X135633753Y-136795156D01*
X135680965Y-136865816D01*
X135688051Y-136876420D01*
X135688052Y-136876421D01*
X141706568Y-142894935D01*
X141740053Y-142956258D01*
X141735069Y-143025950D01*
X141693197Y-143081883D01*
X141684860Y-143087609D01*
X141610739Y-143134183D01*
X141607903Y-143136445D01*
X141605722Y-143137335D01*
X141604843Y-143137888D01*
X141604746Y-143137733D01*
X141543217Y-143162855D01*
X141530588Y-143163500D01*
X141044412Y-143163500D01*
X140977373Y-143143815D01*
X140967097Y-143136445D01*
X140964263Y-143134185D01*
X140964262Y-143134184D01*
X140907496Y-143098515D01*
X140811523Y-143038211D01*
X140641254Y-142978631D01*
X140641249Y-142978630D01*
X140462004Y-142958435D01*
X140461996Y-142958435D01*
X140282750Y-142978630D01*
X140282745Y-142978631D01*
X140112476Y-143038211D01*
X139959737Y-143134184D01*
X139832184Y-143261737D01*
X139736211Y-143414476D01*
X139676631Y-143584745D01*
X139676630Y-143584750D01*
X139656435Y-143763996D01*
X139656435Y-143764003D01*
X139676630Y-143943249D01*
X139676631Y-143943254D01*
X139736211Y-144113523D01*
X139799702Y-144214568D01*
X139832184Y-144266262D01*
X139959738Y-144393816D01*
X140112478Y-144489789D01*
X140200917Y-144520735D01*
X140282745Y-144549368D01*
X140282750Y-144549369D01*
X140461996Y-144569565D01*
X140462000Y-144569565D01*
X140462004Y-144569565D01*
X140641249Y-144549369D01*
X140641252Y-144549368D01*
X140641255Y-144549368D01*
X140811522Y-144489789D01*
X140964262Y-144393816D01*
X140964267Y-144393810D01*
X140967097Y-144391555D01*
X140969275Y-144390665D01*
X140970158Y-144390111D01*
X140970255Y-144390265D01*
X141031783Y-144365145D01*
X141044412Y-144364500D01*
X141530588Y-144364500D01*
X141597627Y-144384185D01*
X141607903Y-144391555D01*
X141610736Y-144393814D01*
X141610738Y-144393816D01*
X141763478Y-144489789D01*
X141851917Y-144520735D01*
X141933745Y-144549368D01*
X141933750Y-144549369D01*
X142112996Y-144569565D01*
X142113000Y-144569565D01*
X142113004Y-144569565D01*
X142292249Y-144549369D01*
X142292252Y-144549368D01*
X142292255Y-144549368D01*
X142462522Y-144489789D01*
X142615262Y-144393816D01*
X142742816Y-144266262D01*
X142789389Y-144192140D01*
X142841723Y-144145849D01*
X142910777Y-144135200D01*
X142974625Y-144163575D01*
X142982064Y-144170431D01*
X149487692Y-150676059D01*
X149510358Y-150712125D01*
X149512188Y-150711244D01*
X149515209Y-150717518D01*
X149515211Y-150717522D01*
X149611184Y-150870262D01*
X149738738Y-150997816D01*
X149797082Y-151034476D01*
X149885151Y-151089814D01*
X149891478Y-151093789D01*
X150061745Y-151153368D01*
X150061750Y-151153369D01*
X150240996Y-151173565D01*
X150241000Y-151173565D01*
X150241004Y-151173565D01*
X150420249Y-151153369D01*
X150420252Y-151153368D01*
X150420255Y-151153368D01*
X150590522Y-151093789D01*
X150743262Y-150997816D01*
X150870816Y-150870262D01*
X150966789Y-150717522D01*
X151026368Y-150547255D01*
X151026369Y-150547249D01*
X151046565Y-150368003D01*
X151046565Y-150367996D01*
X151026369Y-150188750D01*
X151026368Y-150188745D01*
X151000925Y-150116033D01*
X150966789Y-150018478D01*
X150870816Y-149865738D01*
X150743262Y-149738184D01*
X150590522Y-149642211D01*
X150590518Y-149642209D01*
X150584244Y-149639188D01*
X150585125Y-149637358D01*
X150549059Y-149614692D01*
X145129548Y-144195181D01*
X145096063Y-144133858D01*
X145101047Y-144064166D01*
X145142919Y-144008233D01*
X145208383Y-143983816D01*
X145217229Y-143983500D01*
X145340588Y-143983500D01*
X145407627Y-144003185D01*
X145417903Y-144010555D01*
X145420735Y-144012813D01*
X145420738Y-144012816D01*
X145573478Y-144108789D01*
X145730047Y-144163575D01*
X145743745Y-144168368D01*
X145743750Y-144168369D01*
X145922996Y-144188565D01*
X145923000Y-144188565D01*
X145923004Y-144188565D01*
X146102249Y-144168369D01*
X146102252Y-144168368D01*
X146102255Y-144168368D01*
X146272522Y-144108789D01*
X146425262Y-144012816D01*
X146552816Y-143885262D01*
X146621111Y-143776570D01*
X146673445Y-143730281D01*
X146742498Y-143719633D01*
X146806347Y-143748008D01*
X146813785Y-143754863D01*
X146817184Y-143758262D01*
X146944738Y-143885816D01*
X147097478Y-143981789D01*
X147267745Y-144041368D01*
X147267750Y-144041369D01*
X147446996Y-144061565D01*
X147447000Y-144061565D01*
X147447004Y-144061565D01*
X147626249Y-144041369D01*
X147626252Y-144041368D01*
X147626255Y-144041368D01*
X147796522Y-143981789D01*
X147949262Y-143885816D01*
X147949267Y-143885810D01*
X147952097Y-143883555D01*
X147954275Y-143882665D01*
X147955158Y-143882111D01*
X147955255Y-143882265D01*
X148016783Y-143857145D01*
X148029412Y-143856500D01*
X148515588Y-143856500D01*
X148582627Y-143876185D01*
X148592903Y-143883555D01*
X148595735Y-143885813D01*
X148595738Y-143885816D01*
X148748478Y-143981789D01*
X148918745Y-144041368D01*
X148918750Y-144041369D01*
X149097996Y-144061565D01*
X149098000Y-144061565D01*
X149098004Y-144061565D01*
X149277249Y-144041369D01*
X149277252Y-144041368D01*
X149277255Y-144041368D01*
X149447522Y-143981789D01*
X149600262Y-143885816D01*
X149600265Y-143885813D01*
X149605710Y-143881472D01*
X149607499Y-143883716D01*
X149657429Y-143856381D01*
X149727126Y-143861288D01*
X149771602Y-143889837D01*
X156106139Y-150224374D01*
X156106149Y-150224385D01*
X156110479Y-150228715D01*
X156110480Y-150228716D01*
X156222284Y-150340520D01*
X156293716Y-150381760D01*
X156309095Y-150390639D01*
X156309097Y-150390641D01*
X156347151Y-150412611D01*
X156359215Y-150419577D01*
X156511943Y-150460501D01*
X156511946Y-150460501D01*
X156677653Y-150460501D01*
X156677669Y-150460500D01*
X161348719Y-150460500D01*
X161415758Y-150480185D01*
X161461513Y-150532989D01*
X161471457Y-150602147D01*
X161442432Y-150665703D01*
X161414691Y-150689494D01*
X161311737Y-150754184D01*
X161184184Y-150881737D01*
X161088211Y-151034476D01*
X161028631Y-151204745D01*
X161028630Y-151204750D01*
X161008435Y-151383996D01*
X161008435Y-151384003D01*
X161028630Y-151563249D01*
X161028631Y-151563254D01*
X161088211Y-151733523D01*
X161184184Y-151886262D01*
X161286591Y-151988669D01*
X161320076Y-152049992D01*
X161315092Y-152119684D01*
X161273220Y-152175617D01*
X161207756Y-152200034D01*
X161159906Y-152194056D01*
X161129616Y-152184019D01*
X160999797Y-152141001D01*
X160999795Y-152141000D01*
X160897010Y-152130500D01*
X160096998Y-152130500D01*
X160096980Y-152130501D01*
X159994203Y-152141000D01*
X159994200Y-152141001D01*
X159827668Y-152196185D01*
X159827663Y-152196187D01*
X159678342Y-152288289D01*
X159554289Y-152412342D01*
X159462187Y-152561663D01*
X159462185Y-152561668D01*
X159445155Y-152613061D01*
X159407001Y-152728203D01*
X159407001Y-152728204D01*
X159407000Y-152728204D01*
X159396500Y-152830983D01*
X159396500Y-154181001D01*
X159396501Y-154181018D01*
X159407000Y-154283796D01*
X159407001Y-154283799D01*
X159462185Y-154450331D01*
X159462187Y-154450336D01*
X159485870Y-154488732D01*
X159554288Y-154599656D01*
X159678344Y-154723712D01*
X159827666Y-154815814D01*
X159994203Y-154870999D01*
X160096991Y-154881500D01*
X160897008Y-154881499D01*
X160897016Y-154881498D01*
X160897019Y-154881498D01*
X160953302Y-154875748D01*
X160999797Y-154870999D01*
X161166334Y-154815814D01*
X161315656Y-154723712D01*
X161439712Y-154599656D01*
X161479310Y-154535456D01*
X161531258Y-154488732D01*
X161600220Y-154477509D01*
X161664303Y-154505352D01*
X161672530Y-154512872D01*
X161780072Y-154620414D01*
X161845388Y-154667868D01*
X161888051Y-154723195D01*
X161896500Y-154768184D01*
X161896500Y-155806330D01*
X161896499Y-155806348D01*
X161896499Y-155972054D01*
X161896498Y-155972054D01*
X161896499Y-155972057D01*
X161937423Y-156124785D01*
X161957453Y-156159477D01*
X161977340Y-156193922D01*
X162016479Y-156261715D01*
X162135349Y-156380585D01*
X162135355Y-156380590D01*
X163853139Y-158098374D01*
X163853149Y-158098385D01*
X163857479Y-158102715D01*
X163857480Y-158102716D01*
X163919584Y-158164820D01*
X163953068Y-158226141D01*
X163948084Y-158295833D01*
X163906213Y-158351767D01*
X163840749Y-158376184D01*
X163831902Y-158376500D01*
X144240954Y-158376500D01*
X144237059Y-158376439D01*
X143646417Y-158357877D01*
X143638643Y-158357388D01*
X143052267Y-158301959D01*
X143044538Y-158300982D01*
X142462830Y-158208849D01*
X142455178Y-158207390D01*
X141880361Y-158078903D01*
X141872816Y-158076965D01*
X141307234Y-157912648D01*
X141299840Y-157910246D01*
X140745676Y-157710735D01*
X140738434Y-157707868D01*
X140197886Y-157473952D01*
X140190837Y-157470635D01*
X139666048Y-157203241D01*
X139659222Y-157199488D01*
X139152265Y-156899675D01*
X139145688Y-156895501D01*
X138658553Y-156564444D01*
X138652251Y-156559865D01*
X138186881Y-156198887D01*
X138180878Y-156193922D01*
X137739059Y-155804406D01*
X137733381Y-155799073D01*
X137316926Y-155382618D01*
X137311593Y-155376940D01*
X136922077Y-154935121D01*
X136917112Y-154929118D01*
X136556134Y-154463748D01*
X136551555Y-154457446D01*
X136220498Y-153970311D01*
X136216324Y-153963734D01*
X135916511Y-153456777D01*
X135912758Y-153449951D01*
X135704239Y-153040711D01*
X137888500Y-153040711D01*
X137888500Y-153283288D01*
X137920161Y-153523785D01*
X137982947Y-153758104D01*
X138051662Y-153923995D01*
X138075776Y-153982212D01*
X138197064Y-154192289D01*
X138197066Y-154192292D01*
X138197067Y-154192293D01*
X138344733Y-154384736D01*
X138344739Y-154384743D01*
X138516256Y-154556260D01*
X138516263Y-154556266D01*
X138599859Y-154620411D01*
X138708711Y-154703936D01*
X138918788Y-154825224D01*
X139142900Y-154918054D01*
X139377211Y-154980838D01*
X139557586Y-155004584D01*
X139617711Y-155012500D01*
X139617712Y-155012500D01*
X139860289Y-155012500D01*
X139908388Y-155006167D01*
X140100789Y-154980838D01*
X140335100Y-154918054D01*
X140559212Y-154825224D01*
X140769289Y-154703936D01*
X140961738Y-154556265D01*
X141133265Y-154384738D01*
X141280936Y-154192289D01*
X141402224Y-153982212D01*
X141495054Y-153758100D01*
X141557838Y-153523789D01*
X141589500Y-153283288D01*
X141589500Y-153040712D01*
X141557838Y-152800211D01*
X141495054Y-152565900D01*
X141491278Y-152556785D01*
X141479201Y-152527628D01*
X141402224Y-152341788D01*
X141280936Y-152131711D01*
X141166623Y-151982735D01*
X141133266Y-151939263D01*
X141133260Y-151939256D01*
X140961743Y-151767739D01*
X140961736Y-151767733D01*
X140769293Y-151620067D01*
X140769292Y-151620066D01*
X140769289Y-151620064D01*
X140559212Y-151498776D01*
X140493799Y-151471681D01*
X140335104Y-151405947D01*
X140100785Y-151343161D01*
X139860289Y-151311500D01*
X139860288Y-151311500D01*
X139617712Y-151311500D01*
X139617711Y-151311500D01*
X139377214Y-151343161D01*
X139142895Y-151405947D01*
X138918794Y-151498773D01*
X138918785Y-151498777D01*
X138708706Y-151620067D01*
X138516263Y-151767733D01*
X138516256Y-151767739D01*
X138344739Y-151939256D01*
X138344733Y-151939263D01*
X138197067Y-152131706D01*
X138075777Y-152341785D01*
X138075773Y-152341794D01*
X137982947Y-152565895D01*
X137920161Y-152800214D01*
X137888500Y-153040711D01*
X135704239Y-153040711D01*
X135645364Y-152925162D01*
X135642047Y-152918113D01*
X135604346Y-152830991D01*
X135408129Y-152377561D01*
X135405270Y-152370338D01*
X135205746Y-151816139D01*
X135203358Y-151808789D01*
X135039031Y-151243172D01*
X135037096Y-151235638D01*
X135030191Y-151204745D01*
X134908605Y-150660802D01*
X134907153Y-150653188D01*
X134815016Y-150071459D01*
X134814040Y-150063732D01*
X134801276Y-149928700D01*
X134758610Y-149477340D01*
X134758123Y-149469598D01*
X134739561Y-148878941D01*
X134739500Y-148875046D01*
X134739500Y-120745953D01*
X134739561Y-120742058D01*
X134741756Y-120672213D01*
X134758123Y-120151399D01*
X134758609Y-120143661D01*
X134814040Y-119557261D01*
X134815017Y-119549538D01*
X134818494Y-119527584D01*
X134907154Y-118967805D01*
X134908604Y-118960203D01*
X135037100Y-118385342D01*
X135039029Y-118377835D01*
X135203361Y-117812200D01*
X135205743Y-117804869D01*
X135405274Y-117250650D01*
X135408124Y-117243449D01*
X135642053Y-116702872D01*
X135645356Y-116695852D01*
X135912764Y-116171036D01*
X135916504Y-116164234D01*
X135941061Y-116122711D01*
X137888500Y-116122711D01*
X137888500Y-116365288D01*
X137920161Y-116605785D01*
X137982947Y-116840104D01*
X137997574Y-116875416D01*
X138075776Y-117064212D01*
X138197064Y-117274289D01*
X138197066Y-117274292D01*
X138197067Y-117274293D01*
X138344733Y-117466736D01*
X138344739Y-117466743D01*
X138516256Y-117638260D01*
X138516262Y-117638265D01*
X138708711Y-117785936D01*
X138918788Y-117907224D01*
X139142900Y-118000054D01*
X139377211Y-118062838D01*
X139557586Y-118086584D01*
X139617711Y-118094500D01*
X139617712Y-118094500D01*
X139860289Y-118094500D01*
X139908388Y-118088167D01*
X140100789Y-118062838D01*
X140335100Y-118000054D01*
X140559212Y-117907224D01*
X140769289Y-117785936D01*
X140961738Y-117638265D01*
X141133265Y-117466738D01*
X141280936Y-117274289D01*
X141402224Y-117064212D01*
X141495054Y-116840100D01*
X141557838Y-116605789D01*
X141589500Y-116365288D01*
X141589500Y-116122712D01*
X141557838Y-115882211D01*
X141495054Y-115647900D01*
X141402224Y-115423788D01*
X141280936Y-115213711D01*
X141179299Y-115081255D01*
X141133266Y-115021263D01*
X141133260Y-115021256D01*
X140961743Y-114849739D01*
X140961736Y-114849733D01*
X140769293Y-114702067D01*
X140769292Y-114702066D01*
X140769289Y-114702064D01*
X140559212Y-114580776D01*
X140487358Y-114551013D01*
X140335104Y-114487947D01*
X140100785Y-114425161D01*
X139860289Y-114393500D01*
X139860288Y-114393500D01*
X139617712Y-114393500D01*
X139617711Y-114393500D01*
X139377214Y-114425161D01*
X139142895Y-114487947D01*
X138918794Y-114580773D01*
X138918785Y-114580777D01*
X138736851Y-114685817D01*
X138723893Y-114693299D01*
X138708706Y-114702067D01*
X138516263Y-114849733D01*
X138516256Y-114849739D01*
X138344739Y-115021256D01*
X138344733Y-115021263D01*
X138197067Y-115213706D01*
X138075777Y-115423785D01*
X138075773Y-115423794D01*
X137982947Y-115647895D01*
X137920161Y-115882214D01*
X137888500Y-116122711D01*
X135941061Y-116122711D01*
X136216333Y-115657250D01*
X136220488Y-115650703D01*
X136551560Y-115163545D01*
X136556134Y-115157251D01*
X136600543Y-115100000D01*
X136917114Y-114691878D01*
X136922077Y-114685878D01*
X137014740Y-114580773D01*
X137311608Y-114244042D01*
X137316910Y-114238397D01*
X137733397Y-113821910D01*
X137739042Y-113816608D01*
X138180880Y-113427074D01*
X138186881Y-113422112D01*
X138596022Y-113104750D01*
X138652259Y-113061127D01*
X138658545Y-113056560D01*
X139145703Y-112725488D01*
X139152250Y-112721333D01*
X139659234Y-112421504D01*
X139666036Y-112417764D01*
X140190852Y-112150356D01*
X140197872Y-112147053D01*
X140738449Y-111913124D01*
X140745650Y-111910274D01*
X141299869Y-111710743D01*
X141307200Y-111708361D01*
X141872835Y-111544029D01*
X141880342Y-111542100D01*
X142455203Y-111413604D01*
X142462805Y-111412154D01*
X143044544Y-111320016D01*
X143052261Y-111319040D01*
X143638661Y-111263609D01*
X143646399Y-111263123D01*
X144237059Y-111244561D01*
X144240954Y-111244500D01*
X144304892Y-111244500D01*
X186911108Y-111244500D01*
X186975046Y-111244500D01*
X186978941Y-111244561D01*
G37*
%TD.AperFunction*%
%TA.AperFunction,Conductor*%
G36*
X196395834Y-136492048D02*
G01*
X196451767Y-136533920D01*
X196476184Y-136599384D01*
X196476500Y-136608230D01*
X196476500Y-148875046D01*
X196476439Y-148878941D01*
X196457877Y-149469582D01*
X196457388Y-149477356D01*
X196401959Y-150063732D01*
X196400982Y-150071461D01*
X196308849Y-150653169D01*
X196307390Y-150660821D01*
X196178903Y-151235638D01*
X196176965Y-151243183D01*
X196012648Y-151808765D01*
X196010242Y-151816168D01*
X196003386Y-151835215D01*
X195810735Y-152370323D01*
X195807868Y-152377565D01*
X195573952Y-152918113D01*
X195570635Y-152925162D01*
X195303241Y-153449951D01*
X195299488Y-153456777D01*
X194999675Y-153963734D01*
X194995501Y-153970311D01*
X194664444Y-154457446D01*
X194659865Y-154463748D01*
X194298887Y-154929118D01*
X194293922Y-154935121D01*
X193904406Y-155376940D01*
X193899073Y-155382618D01*
X193482618Y-155799073D01*
X193476940Y-155804406D01*
X193035121Y-156193922D01*
X193029118Y-156198887D01*
X192563748Y-156559865D01*
X192557446Y-156564444D01*
X192070311Y-156895501D01*
X192063734Y-156899675D01*
X191556777Y-157199488D01*
X191549951Y-157203241D01*
X191025162Y-157470635D01*
X191018113Y-157473952D01*
X190477565Y-157707868D01*
X190470323Y-157710735D01*
X190088504Y-157848198D01*
X189916168Y-157910242D01*
X189908765Y-157912648D01*
X189343183Y-158076965D01*
X189335638Y-158078903D01*
X188760821Y-158207390D01*
X188753169Y-158208849D01*
X188171461Y-158300982D01*
X188163732Y-158301959D01*
X187577356Y-158357388D01*
X187569582Y-158357877D01*
X186978941Y-158376439D01*
X186975046Y-158376500D01*
X172591099Y-158376500D01*
X172524060Y-158356815D01*
X172478305Y-158304011D01*
X172468361Y-158234853D01*
X172497386Y-158171297D01*
X172503417Y-158164819D01*
X172503418Y-158164818D01*
X172565520Y-158102716D01*
X172565520Y-158102714D01*
X172575728Y-158092507D01*
X172575730Y-158092504D01*
X174308035Y-156360199D01*
X174308040Y-156360195D01*
X174318243Y-156349991D01*
X174318245Y-156349991D01*
X174430049Y-156238187D01*
X174501471Y-156114480D01*
X174501472Y-156114479D01*
X174504569Y-156109113D01*
X174509106Y-156101256D01*
X174550029Y-155948529D01*
X174550029Y-155790414D01*
X174550029Y-154518568D01*
X174569714Y-154451529D01*
X174586348Y-154430887D01*
X175788319Y-153228916D01*
X175849642Y-153195431D01*
X175919334Y-153200415D01*
X175975267Y-153242287D01*
X175999684Y-153307751D01*
X176000000Y-153316597D01*
X176000000Y-153674000D01*
X177199999Y-153674000D01*
X177174979Y-153734402D01*
X177150000Y-153859981D01*
X177150000Y-153988019D01*
X177174979Y-154113598D01*
X177199999Y-154174000D01*
X176000000Y-154174000D01*
X176000000Y-155271844D01*
X176006401Y-155331372D01*
X176006403Y-155331379D01*
X176056645Y-155466086D01*
X176056649Y-155466093D01*
X176142809Y-155581187D01*
X176142812Y-155581190D01*
X176257906Y-155667350D01*
X176257913Y-155667354D01*
X176392620Y-155717596D01*
X176392627Y-155717598D01*
X176452155Y-155723999D01*
X176452172Y-155724000D01*
X177550000Y-155724000D01*
X177550000Y-154524001D01*
X177610402Y-154549021D01*
X177735981Y-154574000D01*
X177864019Y-154574000D01*
X177989598Y-154549021D01*
X178050000Y-154524001D01*
X178050000Y-155724000D01*
X179147828Y-155724000D01*
X179147844Y-155723999D01*
X179207372Y-155717598D01*
X179207379Y-155717596D01*
X179342086Y-155667354D01*
X179342093Y-155667350D01*
X179457187Y-155581190D01*
X179457190Y-155581187D01*
X179543350Y-155466093D01*
X179543354Y-155466086D01*
X179593596Y-155331379D01*
X179593598Y-155331372D01*
X179599999Y-155271844D01*
X179600000Y-155271827D01*
X179600000Y-154174000D01*
X178400001Y-154174000D01*
X178425021Y-154113598D01*
X178450000Y-153988019D01*
X178450000Y-153859981D01*
X178425021Y-153734402D01*
X178400001Y-153674000D01*
X179600000Y-153674000D01*
X179600000Y-152576172D01*
X179599999Y-152576155D01*
X179593598Y-152516627D01*
X179593596Y-152516620D01*
X179543354Y-152381913D01*
X179543350Y-152381906D01*
X179457190Y-152266812D01*
X179457187Y-152266809D01*
X179342093Y-152180649D01*
X179342086Y-152180645D01*
X179207379Y-152130403D01*
X179207372Y-152130401D01*
X179147844Y-152124000D01*
X178050000Y-152124000D01*
X178050000Y-153323998D01*
X177989598Y-153298979D01*
X177864019Y-153274000D01*
X177735981Y-153274000D01*
X177610402Y-153298979D01*
X177550000Y-153323998D01*
X177550000Y-152124000D01*
X177192597Y-152124000D01*
X177125558Y-152104315D01*
X177079803Y-152051511D01*
X177069859Y-151982353D01*
X177098884Y-151918797D01*
X177104916Y-151912319D01*
X178054973Y-150962262D01*
X179088536Y-149928698D01*
X179149857Y-149895215D01*
X179162310Y-149893163D01*
X179249255Y-149883368D01*
X179419522Y-149823789D01*
X179572262Y-149727816D01*
X179699816Y-149600262D01*
X179795789Y-149447522D01*
X179855368Y-149277255D01*
X179855369Y-149277249D01*
X179875565Y-149098003D01*
X179875565Y-149097996D01*
X179855369Y-148918750D01*
X179855368Y-148918745D01*
X179840077Y-148875046D01*
X179795789Y-148748478D01*
X179699816Y-148595738D01*
X179572262Y-148468184D01*
X179419523Y-148372211D01*
X179249254Y-148312631D01*
X179249249Y-148312630D01*
X179070004Y-148292435D01*
X179069996Y-148292435D01*
X178890750Y-148312630D01*
X178890745Y-148312631D01*
X178720476Y-148372211D01*
X178567737Y-148468184D01*
X178440184Y-148595737D01*
X178344210Y-148748478D01*
X178284630Y-148918750D01*
X178274837Y-149005667D01*
X178247770Y-149070081D01*
X178239298Y-149079464D01*
X177182032Y-150136730D01*
X177120709Y-150170215D01*
X177051017Y-150165231D01*
X176995084Y-150123359D01*
X176970667Y-150057895D01*
X176985519Y-149989622D01*
X176989348Y-149983092D01*
X177001789Y-149963293D01*
X177061368Y-149793026D01*
X177067547Y-149738184D01*
X177081565Y-149613774D01*
X177081565Y-149613767D01*
X177065319Y-149469582D01*
X177061368Y-149434516D01*
X177033458Y-149354753D01*
X177026500Y-149313799D01*
X177026500Y-147682229D01*
X177046185Y-147615190D01*
X177062815Y-147594552D01*
X177473061Y-147184305D01*
X177509134Y-147161655D01*
X177508246Y-147159811D01*
X177514518Y-147156790D01*
X177514522Y-147156789D01*
X177667262Y-147060816D01*
X177794816Y-146933262D01*
X177890789Y-146780522D01*
X177950368Y-146610255D01*
X177950369Y-146610249D01*
X177970565Y-146431003D01*
X177970565Y-146430996D01*
X177950369Y-146251750D01*
X177950368Y-146251745D01*
X177919915Y-146164716D01*
X177890789Y-146081478D01*
X177887168Y-146075716D01*
X177836750Y-145995476D01*
X177794816Y-145928738D01*
X177667262Y-145801184D01*
X177621488Y-145772422D01*
X177514523Y-145705211D01*
X177344254Y-145645631D01*
X177344249Y-145645630D01*
X177165004Y-145625435D01*
X177164996Y-145625435D01*
X176985750Y-145645630D01*
X176985745Y-145645631D01*
X176815476Y-145705211D01*
X176662737Y-145801184D01*
X176535184Y-145928737D01*
X176439211Y-146081478D01*
X176436188Y-146087756D01*
X176434362Y-146086876D01*
X176411693Y-146122937D01*
X175693047Y-146841584D01*
X175693045Y-146841586D01*
X175652507Y-146902260D01*
X175652505Y-146902263D01*
X175639824Y-146921241D01*
X175610916Y-146964504D01*
X175610912Y-146964511D01*
X175554343Y-147101082D01*
X175554340Y-147101092D01*
X175525500Y-147246079D01*
X175525500Y-149313799D01*
X175518542Y-149354753D01*
X175490631Y-149434518D01*
X175470435Y-149613767D01*
X175470435Y-149613774D01*
X175490630Y-149793020D01*
X175490631Y-149793025D01*
X175550211Y-149963294D01*
X175646184Y-150116033D01*
X175773738Y-150243587D01*
X175864080Y-150300353D01*
X175908866Y-150328494D01*
X175926478Y-150339560D01*
X176072459Y-150390641D01*
X176096745Y-150399139D01*
X176096750Y-150399140D01*
X176275996Y-150419336D01*
X176276000Y-150419336D01*
X176276004Y-150419336D01*
X176455249Y-150399140D01*
X176455252Y-150399139D01*
X176455255Y-150399139D01*
X176625522Y-150339560D01*
X176645305Y-150327129D01*
X176712539Y-150308128D01*
X176779375Y-150328494D01*
X176824590Y-150381760D01*
X176833830Y-150451016D01*
X176804161Y-150514273D01*
X176798959Y-150519803D01*
X173580815Y-153737949D01*
X173469010Y-153849753D01*
X173469009Y-153849755D01*
X173426144Y-153924000D01*
X173389952Y-153986686D01*
X173349028Y-154139414D01*
X173349028Y-154139416D01*
X173349028Y-154307517D01*
X173349029Y-154307530D01*
X173349029Y-155569373D01*
X173329344Y-155636412D01*
X173312710Y-155657054D01*
X173076102Y-155893661D01*
X173014779Y-155927146D01*
X172945087Y-155922162D01*
X172900740Y-155893662D01*
X172900739Y-155893661D01*
X172841262Y-155834184D01*
X172771603Y-155790414D01*
X172688523Y-155738211D01*
X172518254Y-155678631D01*
X172518249Y-155678630D01*
X172339004Y-155658435D01*
X172338996Y-155658435D01*
X172159750Y-155678630D01*
X172159745Y-155678631D01*
X171989476Y-155738211D01*
X171836736Y-155834185D01*
X171833903Y-155836445D01*
X171831724Y-155837334D01*
X171830842Y-155837889D01*
X171830744Y-155837734D01*
X171769217Y-155862855D01*
X171756588Y-155863500D01*
X170480097Y-155863500D01*
X170413058Y-155843815D01*
X170392416Y-155827181D01*
X169287469Y-154722234D01*
X169253984Y-154660911D01*
X169258968Y-154591219D01*
X169287468Y-154546873D01*
X169336414Y-154497928D01*
X169396991Y-154414550D01*
X169452321Y-154371885D01*
X169521934Y-154365906D01*
X169583729Y-154398512D01*
X169597628Y-154414551D01*
X169657967Y-154497602D01*
X169780397Y-154620032D01*
X169920475Y-154721804D01*
X170074744Y-154800408D01*
X170239415Y-154853914D01*
X170239414Y-154853914D01*
X170246999Y-154855115D01*
X170247000Y-154855114D01*
X170247000Y-153786330D01*
X170266745Y-153806075D01*
X170352255Y-153855444D01*
X170447630Y-153881000D01*
X170546370Y-153881000D01*
X170641745Y-153855444D01*
X170727255Y-153806075D01*
X170747000Y-153786330D01*
X170747000Y-154855115D01*
X170754584Y-154853914D01*
X170919255Y-154800408D01*
X171073524Y-154721804D01*
X171213602Y-154620032D01*
X171336032Y-154497602D01*
X171437804Y-154357524D01*
X171516408Y-154203257D01*
X171569914Y-154038584D01*
X171597000Y-153867571D01*
X171597000Y-153756000D01*
X170777330Y-153756000D01*
X170797075Y-153736255D01*
X170846444Y-153650745D01*
X170872000Y-153555370D01*
X170872000Y-153456630D01*
X170846444Y-153361255D01*
X170797075Y-153275745D01*
X170777330Y-153256000D01*
X171597000Y-153256000D01*
X171597000Y-153144428D01*
X171569914Y-152973415D01*
X171516408Y-152808742D01*
X171437804Y-152654475D01*
X171336032Y-152514397D01*
X171213602Y-152391967D01*
X171073524Y-152290195D01*
X170919257Y-152211591D01*
X170754589Y-152158087D01*
X170754581Y-152158085D01*
X170747000Y-152156884D01*
X170747000Y-153225670D01*
X170727255Y-153205925D01*
X170641745Y-153156556D01*
X170546370Y-153131000D01*
X170447630Y-153131000D01*
X170352255Y-153156556D01*
X170266745Y-153205925D01*
X170247000Y-153225670D01*
X170247000Y-152156884D01*
X170246999Y-152156884D01*
X170239418Y-152158085D01*
X170239410Y-152158087D01*
X170074742Y-152211591D01*
X169920475Y-152290195D01*
X169780397Y-152391967D01*
X169657965Y-152514399D01*
X169657961Y-152514404D01*
X169597627Y-152597448D01*
X169542297Y-152640114D01*
X169472684Y-152646093D01*
X169410889Y-152613488D01*
X169396991Y-152597449D01*
X169396990Y-152597448D01*
X169336414Y-152514072D01*
X169213928Y-152391586D01*
X169073788Y-152289768D01*
X168919445Y-152211127D01*
X168754701Y-152157598D01*
X168754699Y-152157597D01*
X168754698Y-152157597D01*
X168623271Y-152136781D01*
X168583611Y-152130500D01*
X168410389Y-152130500D01*
X168370728Y-152136781D01*
X168239302Y-152157597D01*
X168239299Y-152157598D01*
X168108696Y-152200034D01*
X168074552Y-152211128D01*
X167920211Y-152289768D01*
X167845388Y-152344131D01*
X167780072Y-152391586D01*
X167780070Y-152391588D01*
X167780069Y-152391588D01*
X167657588Y-152514069D01*
X167657581Y-152514078D01*
X167597317Y-152597023D01*
X167541987Y-152639689D01*
X167472374Y-152645667D01*
X167410579Y-152613061D01*
X167396683Y-152597023D01*
X167336655Y-152514404D01*
X167336414Y-152514072D01*
X167213928Y-152391586D01*
X167073788Y-152289768D01*
X166919445Y-152211127D01*
X166754701Y-152157598D01*
X166754699Y-152157597D01*
X166754698Y-152157597D01*
X166623271Y-152136781D01*
X166583611Y-152130500D01*
X166410389Y-152130500D01*
X166370728Y-152136781D01*
X166239302Y-152157597D01*
X166239299Y-152157598D01*
X166108696Y-152200034D01*
X166074552Y-152211128D01*
X165920211Y-152289768D01*
X165845388Y-152344131D01*
X165780072Y-152391586D01*
X165780070Y-152391588D01*
X165780069Y-152391588D01*
X165657588Y-152514069D01*
X165657581Y-152514078D01*
X165597317Y-152597023D01*
X165541987Y-152639689D01*
X165472374Y-152645667D01*
X165410579Y-152613061D01*
X165396683Y-152597023D01*
X165336655Y-152514404D01*
X165336414Y-152514072D01*
X165213928Y-152391586D01*
X165073788Y-152289768D01*
X164919445Y-152211127D01*
X164754701Y-152157598D01*
X164754699Y-152157597D01*
X164754698Y-152157597D01*
X164623271Y-152136781D01*
X164583611Y-152130500D01*
X164410389Y-152130500D01*
X164370728Y-152136781D01*
X164239302Y-152157597D01*
X164239299Y-152157598D01*
X164108696Y-152200034D01*
X164074552Y-152211128D01*
X163920211Y-152289768D01*
X163845388Y-152344131D01*
X163780072Y-152391586D01*
X163780070Y-152391588D01*
X163780069Y-152391588D01*
X163657588Y-152514069D01*
X163657581Y-152514078D01*
X163597317Y-152597023D01*
X163541987Y-152639689D01*
X163472374Y-152645667D01*
X163410579Y-152613061D01*
X163396683Y-152597023D01*
X163336655Y-152514404D01*
X163336414Y-152514072D01*
X163213928Y-152391586D01*
X163200614Y-152381913D01*
X163148613Y-152344131D01*
X163105948Y-152288801D01*
X163097500Y-152243814D01*
X163097500Y-152156059D01*
X163097501Y-152156046D01*
X163097501Y-151987945D01*
X163097501Y-151987943D01*
X163056577Y-151835215D01*
X162997864Y-151733522D01*
X162977520Y-151698284D01*
X162865716Y-151586480D01*
X162865715Y-151586479D01*
X162861385Y-151582149D01*
X162861374Y-151582139D01*
X162750916Y-151471681D01*
X162717431Y-151410358D01*
X162722415Y-151340666D01*
X162750916Y-151296319D01*
X162950416Y-151096819D01*
X163011739Y-151063334D01*
X163038097Y-151060500D01*
X165914588Y-151060500D01*
X165981627Y-151080185D01*
X165991903Y-151087555D01*
X165994736Y-151089814D01*
X165994738Y-151089816D01*
X166095880Y-151153368D01*
X166128023Y-151173565D01*
X166147478Y-151185789D01*
X166289938Y-151235638D01*
X166317745Y-151245368D01*
X166317750Y-151245369D01*
X166496996Y-151265565D01*
X166497000Y-151265565D01*
X166497004Y-151265565D01*
X166676249Y-151245369D01*
X166676252Y-151245368D01*
X166676255Y-151245368D01*
X166846522Y-151185789D01*
X166999262Y-151089816D01*
X167126816Y-150962262D01*
X167222789Y-150809522D01*
X167282368Y-150639255D01*
X167290102Y-150570617D01*
X167317168Y-150506203D01*
X167374763Y-150466648D01*
X167413322Y-150460500D01*
X170728331Y-150460500D01*
X170728347Y-150460501D01*
X170735943Y-150460501D01*
X170894054Y-150460501D01*
X170894057Y-150460501D01*
X171046785Y-150419577D01*
X171096904Y-150390639D01*
X171183716Y-150340520D01*
X171295520Y-150228716D01*
X171295520Y-150228714D01*
X171305728Y-150218507D01*
X171305730Y-150218504D01*
X174475506Y-147048728D01*
X174475511Y-147048724D01*
X174485714Y-147038520D01*
X174485716Y-147038520D01*
X174597520Y-146926716D01*
X174657281Y-146823206D01*
X174676577Y-146789785D01*
X174717500Y-146637057D01*
X174717500Y-146478943D01*
X174717500Y-144906996D01*
X178391435Y-144906996D01*
X178391435Y-144907003D01*
X178411630Y-145086249D01*
X178411631Y-145086254D01*
X178471211Y-145256523D01*
X178509151Y-145316903D01*
X178567184Y-145409262D01*
X178694738Y-145536816D01*
X178847478Y-145632789D01*
X179017745Y-145692368D01*
X179104669Y-145702161D01*
X179169080Y-145729226D01*
X179178465Y-145737700D01*
X182243181Y-148802416D01*
X182276666Y-148863739D01*
X182279500Y-148890097D01*
X182279500Y-152136866D01*
X182259815Y-152203905D01*
X182209302Y-152248586D01*
X181977230Y-152360346D01*
X181754258Y-152512365D01*
X181556442Y-152695910D01*
X181388185Y-152906898D01*
X181253258Y-153140599D01*
X181253256Y-153140603D01*
X181154666Y-153391804D01*
X181154664Y-153391811D01*
X181094616Y-153654898D01*
X181074451Y-153923995D01*
X181074451Y-153923999D01*
X181094616Y-154193101D01*
X181154664Y-154456188D01*
X181154666Y-154456195D01*
X181253256Y-154707396D01*
X181253258Y-154707400D01*
X181262377Y-154723194D01*
X181388185Y-154941102D01*
X181467234Y-155040226D01*
X181556442Y-155152089D01*
X181743183Y-155325358D01*
X181754259Y-155335635D01*
X181977226Y-155487651D01*
X182220359Y-155604738D01*
X182478228Y-155684280D01*
X182478229Y-155684280D01*
X182478232Y-155684281D01*
X182745063Y-155724499D01*
X182745068Y-155724499D01*
X182745071Y-155724500D01*
X182745072Y-155724500D01*
X183014928Y-155724500D01*
X183014929Y-155724500D01*
X183014936Y-155724499D01*
X183281767Y-155684281D01*
X183281768Y-155684280D01*
X183281772Y-155684280D01*
X183539641Y-155604738D01*
X183782775Y-155487651D01*
X184005741Y-155335635D01*
X184203561Y-155152085D01*
X184371815Y-154941102D01*
X184506743Y-154707398D01*
X184605334Y-154456195D01*
X184665383Y-154193103D01*
X184685549Y-153924000D01*
X184681323Y-153867611D01*
X184668744Y-153699747D01*
X184665383Y-153654897D01*
X184605334Y-153391805D01*
X184551920Y-153255711D01*
X189626500Y-153255711D01*
X189626500Y-153498288D01*
X189658051Y-153737951D01*
X189658162Y-153738789D01*
X189676191Y-153806075D01*
X189720947Y-153973104D01*
X189813773Y-154197205D01*
X189813777Y-154197214D01*
X189833797Y-154231890D01*
X189935064Y-154407289D01*
X189935066Y-154407292D01*
X189935067Y-154407293D01*
X190082733Y-154599736D01*
X190082739Y-154599743D01*
X190254256Y-154771260D01*
X190254263Y-154771266D01*
X190362608Y-154854402D01*
X190446711Y-154918936D01*
X190656788Y-155040224D01*
X190880900Y-155133054D01*
X191115211Y-155195838D01*
X191295586Y-155219584D01*
X191355711Y-155227500D01*
X191355712Y-155227500D01*
X191598289Y-155227500D01*
X191646388Y-155221167D01*
X191838789Y-155195838D01*
X192073100Y-155133054D01*
X192297212Y-155040224D01*
X192507289Y-154918936D01*
X192699738Y-154771265D01*
X192871265Y-154599738D01*
X193018936Y-154407289D01*
X193140224Y-154197212D01*
X193233054Y-153973100D01*
X193295838Y-153738789D01*
X193327500Y-153498288D01*
X193327500Y-153255712D01*
X193295838Y-153015211D01*
X193233054Y-152780900D01*
X193140224Y-152556788D01*
X193018936Y-152346711D01*
X192894098Y-152184019D01*
X192871266Y-152154263D01*
X192871260Y-152154256D01*
X192699743Y-151982739D01*
X192699736Y-151982733D01*
X192507293Y-151835067D01*
X192507292Y-151835066D01*
X192507289Y-151835064D01*
X192297212Y-151713776D01*
X192259140Y-151698006D01*
X192073104Y-151620947D01*
X191838785Y-151558161D01*
X191598289Y-151526500D01*
X191598288Y-151526500D01*
X191355712Y-151526500D01*
X191355711Y-151526500D01*
X191115214Y-151558161D01*
X190880895Y-151620947D01*
X190656794Y-151713773D01*
X190656785Y-151713777D01*
X190446706Y-151835067D01*
X190254263Y-151982733D01*
X190254256Y-151982739D01*
X190082739Y-152154256D01*
X190082733Y-152154263D01*
X189935067Y-152346706D01*
X189813777Y-152556785D01*
X189813773Y-152556794D01*
X189720947Y-152780895D01*
X189658161Y-153015214D01*
X189626500Y-153255711D01*
X184551920Y-153255711D01*
X184506743Y-153140602D01*
X184371815Y-152906898D01*
X184203561Y-152695915D01*
X184203560Y-152695914D01*
X184203557Y-152695910D01*
X184005741Y-152512365D01*
X183859037Y-152412344D01*
X183782775Y-152360349D01*
X183782769Y-152360346D01*
X183782768Y-152360345D01*
X183782767Y-152360344D01*
X183550699Y-152248587D01*
X183498839Y-152201765D01*
X183480500Y-152136867D01*
X183480500Y-148679060D01*
X183480501Y-148679047D01*
X183480501Y-148510944D01*
X183480501Y-148510943D01*
X183439577Y-148358216D01*
X183439573Y-148358209D01*
X183360524Y-148221290D01*
X183360518Y-148221282D01*
X180027700Y-144888465D01*
X179994215Y-144827142D01*
X179992163Y-144814686D01*
X179982368Y-144727745D01*
X179922789Y-144557478D01*
X179826816Y-144404738D01*
X179699262Y-144277184D01*
X179681875Y-144266259D01*
X179546523Y-144181211D01*
X179376254Y-144121631D01*
X179376249Y-144121630D01*
X179197004Y-144101435D01*
X179196996Y-144101435D01*
X179017750Y-144121630D01*
X179017745Y-144121631D01*
X178847476Y-144181211D01*
X178694737Y-144277184D01*
X178567184Y-144404737D01*
X178471211Y-144557476D01*
X178411631Y-144727745D01*
X178411630Y-144727750D01*
X178391435Y-144906996D01*
X174717500Y-144906996D01*
X174717500Y-141059060D01*
X174717501Y-141059047D01*
X174717501Y-140890944D01*
X174713089Y-140874478D01*
X174676577Y-140738216D01*
X174660437Y-140710260D01*
X174597524Y-140601290D01*
X174597518Y-140601282D01*
X173492416Y-139496181D01*
X173458931Y-139434858D01*
X173463915Y-139365166D01*
X173505787Y-139309233D01*
X173571251Y-139284816D01*
X173580097Y-139284500D01*
X174919331Y-139284500D01*
X174919347Y-139284501D01*
X174926943Y-139284501D01*
X175085054Y-139284501D01*
X175085057Y-139284501D01*
X175237785Y-139243577D01*
X175237794Y-139243571D01*
X175239868Y-139242713D01*
X175273447Y-139234049D01*
X175357634Y-139224564D01*
X175439250Y-139215369D01*
X175439253Y-139215368D01*
X175439255Y-139215368D01*
X175609522Y-139155789D01*
X175762262Y-139059816D01*
X175889816Y-138932262D01*
X175985789Y-138779522D01*
X176045368Y-138609255D01*
X176045369Y-138609250D01*
X176057046Y-138505616D01*
X176084113Y-138441202D01*
X176141708Y-138401647D01*
X176180266Y-138395500D01*
X178106588Y-138395500D01*
X178173627Y-138415185D01*
X178183903Y-138422555D01*
X178186736Y-138424814D01*
X178186738Y-138424816D01*
X178339478Y-138520789D01*
X178509745Y-138580368D01*
X178509750Y-138580369D01*
X178688996Y-138600565D01*
X178689000Y-138600565D01*
X178689004Y-138600565D01*
X178868249Y-138580369D01*
X178868252Y-138580368D01*
X178868255Y-138580368D01*
X179038522Y-138520789D01*
X179191262Y-138424816D01*
X179318816Y-138297262D01*
X179414789Y-138144522D01*
X179474368Y-137974255D01*
X179475710Y-137962343D01*
X179494565Y-137795003D01*
X179494565Y-137794999D01*
X179491904Y-137771385D01*
X179503958Y-137702563D01*
X179551306Y-137651183D01*
X179615124Y-137633500D01*
X181625298Y-137633500D01*
X181666252Y-137640458D01*
X181696903Y-137651183D01*
X181811745Y-137691368D01*
X181811747Y-137691368D01*
X181814862Y-137692458D01*
X181871638Y-137733180D01*
X181897386Y-137798132D01*
X181883930Y-137866694D01*
X181835543Y-137917097D01*
X181773908Y-137933500D01*
X180901080Y-137933500D01*
X180756092Y-137962340D01*
X180756082Y-137962343D01*
X180619511Y-138018912D01*
X180619498Y-138018919D01*
X180496584Y-138101048D01*
X180496580Y-138101051D01*
X178126937Y-140470693D01*
X178090873Y-140493370D01*
X178091750Y-140495191D01*
X178085475Y-140498212D01*
X177932737Y-140594184D01*
X177805184Y-140721737D01*
X177709211Y-140874476D01*
X177649631Y-141044745D01*
X177649630Y-141044750D01*
X177629435Y-141223996D01*
X177629435Y-141224003D01*
X177649630Y-141403249D01*
X177649631Y-141403254D01*
X177709211Y-141573523D01*
X177748769Y-141636478D01*
X177805184Y-141726262D01*
X177932738Y-141853816D01*
X177990417Y-141890058D01*
X178066023Y-141937565D01*
X178085478Y-141949789D01*
X178140040Y-141968881D01*
X178255745Y-142009368D01*
X178255750Y-142009369D01*
X178434996Y-142029565D01*
X178435000Y-142029565D01*
X178435004Y-142029565D01*
X178614249Y-142009369D01*
X178614252Y-142009368D01*
X178614255Y-142009368D01*
X178784522Y-141949789D01*
X178937262Y-141853816D01*
X179064816Y-141726262D01*
X179160789Y-141573522D01*
X179160792Y-141573510D01*
X179163810Y-141567248D01*
X179165650Y-141568134D01*
X179188305Y-141532061D01*
X181249548Y-139470819D01*
X181310871Y-139437334D01*
X181337229Y-139434500D01*
X193113920Y-139434500D01*
X193211462Y-139415096D01*
X193258913Y-139405658D01*
X193395495Y-139349084D01*
X193473346Y-139297066D01*
X193518416Y-139266952D01*
X194897871Y-137887495D01*
X196264819Y-136520549D01*
X196326142Y-136487064D01*
X196395834Y-136492048D01*
G37*
%TD.AperFunction*%
%TA.AperFunction,Conductor*%
G36*
X163583421Y-116118938D02*
G01*
X163597315Y-116134973D01*
X163657586Y-116217928D01*
X163780072Y-116340414D01*
X163920212Y-116442232D01*
X164074555Y-116520873D01*
X164239299Y-116574402D01*
X164410389Y-116601500D01*
X164410390Y-116601500D01*
X164583610Y-116601500D01*
X164583611Y-116601500D01*
X164754701Y-116574402D01*
X164864684Y-116538665D01*
X164934522Y-116536671D01*
X164990681Y-116568916D01*
X169429968Y-121008203D01*
X169463453Y-121069526D01*
X169466287Y-121095884D01*
X169466287Y-121900728D01*
X169446602Y-121967767D01*
X169393798Y-122013522D01*
X169324640Y-122023466D01*
X169261084Y-121994441D01*
X169229905Y-121953133D01*
X169194600Y-121877422D01*
X169194599Y-121877420D01*
X169059113Y-121683926D01*
X169059108Y-121683920D01*
X168892082Y-121516894D01*
X168698578Y-121381399D01*
X168484492Y-121281570D01*
X168484486Y-121281567D01*
X168271000Y-121224364D01*
X168271000Y-122121988D01*
X168213993Y-122089075D01*
X168086826Y-122055000D01*
X167955174Y-122055000D01*
X167828007Y-122089075D01*
X167771000Y-122121988D01*
X167771000Y-121224364D01*
X167770999Y-121224364D01*
X167557513Y-121281567D01*
X167557507Y-121281570D01*
X167343422Y-121381399D01*
X167343420Y-121381400D01*
X167145623Y-121519899D01*
X167079417Y-121542226D01*
X167011650Y-121525216D01*
X166963837Y-121474268D01*
X166950500Y-121418324D01*
X166950500Y-119926079D01*
X166921659Y-119781092D01*
X166921658Y-119781091D01*
X166921658Y-119781087D01*
X166865084Y-119644505D01*
X166804208Y-119553397D01*
X166782952Y-119521584D01*
X166221546Y-118960178D01*
X165278421Y-118017052D01*
X165278414Y-118017046D01*
X165204729Y-117967812D01*
X165204729Y-117967813D01*
X165155491Y-117934913D01*
X165018917Y-117878343D01*
X165018907Y-117878340D01*
X164873920Y-117849500D01*
X164873918Y-117849500D01*
X163062229Y-117849500D01*
X162995190Y-117829815D01*
X162974548Y-117813181D01*
X161828286Y-116666918D01*
X161794801Y-116605595D01*
X161799785Y-116535903D01*
X161841657Y-116479970D01*
X161907121Y-116455553D01*
X161972260Y-116468751D01*
X162074555Y-116520873D01*
X162239299Y-116574402D01*
X162410389Y-116601500D01*
X162410390Y-116601500D01*
X162583610Y-116601500D01*
X162583611Y-116601500D01*
X162754701Y-116574402D01*
X162919445Y-116520873D01*
X163073788Y-116442232D01*
X163213928Y-116340414D01*
X163336414Y-116217928D01*
X163396682Y-116134975D01*
X163452012Y-116092311D01*
X163521626Y-116086332D01*
X163583421Y-116118938D01*
G37*
%TD.AperFunction*%
%TA.AperFunction,Conductor*%
G36*
X168201969Y-117738113D02*
G01*
X168204533Y-117739552D01*
X168239216Y-117759577D01*
X168391943Y-117800501D01*
X168391945Y-117800501D01*
X168557654Y-117800501D01*
X168557670Y-117800500D01*
X169604903Y-117800500D01*
X169671942Y-117820185D01*
X169692584Y-117836819D01*
X172972181Y-121116416D01*
X173005666Y-121177739D01*
X173008500Y-121204097D01*
X173008500Y-121671088D01*
X172988815Y-121738127D01*
X172936011Y-121783882D01*
X172866853Y-121793826D01*
X172803297Y-121764801D01*
X172782925Y-121742212D01*
X172742109Y-121683922D01*
X172742108Y-121683920D01*
X172575082Y-121516894D01*
X172381578Y-121381399D01*
X172167492Y-121281570D01*
X172167486Y-121281567D01*
X171954000Y-121224364D01*
X171954000Y-122121988D01*
X171896993Y-122089075D01*
X171769826Y-122055000D01*
X171638174Y-122055000D01*
X171511007Y-122089075D01*
X171454000Y-122121988D01*
X171454000Y-121224364D01*
X171453999Y-121224364D01*
X171240513Y-121281567D01*
X171240507Y-121281570D01*
X171026422Y-121381399D01*
X171026420Y-121381400D01*
X170862410Y-121496241D01*
X170796204Y-121518568D01*
X170728437Y-121501558D01*
X170680624Y-121450609D01*
X170667287Y-121394666D01*
X170667287Y-120716731D01*
X170667286Y-120716725D01*
X170656939Y-120678108D01*
X170626364Y-120564002D01*
X170580415Y-120484416D01*
X170547307Y-120427071D01*
X170435503Y-120315267D01*
X170435502Y-120315266D01*
X170431172Y-120310936D01*
X170431161Y-120310926D01*
X168054861Y-117934626D01*
X168021376Y-117873303D01*
X168026360Y-117803611D01*
X168068232Y-117747678D01*
X168133696Y-117723261D01*
X168201969Y-117738113D01*
G37*
%TD.AperFunction*%
%TD*%
M02*
