%TF.GenerationSoftware,KiCad,Pcbnew,8.0.2*%
%TF.CreationDate,2025-04-18T13:41:41+02:00*%
%TF.ProjectId,PCA9685 board,50434139-3638-4352-9062-6f6172642e6b,rev?*%
%TF.SameCoordinates,Original*%
%TF.FileFunction,Legend,Bot*%
%TF.FilePolarity,Positive*%
%FSLAX46Y46*%
G04 Gerber Fmt 4.6, Leading zero omitted, Abs format (unit mm)*
G04 Created by KiCad (PCBNEW 8.0.2) date 2025-04-18 13:41:41*
%MOMM*%
%LPD*%
G01*
G04 APERTURE LIST*
%ADD10C,0.300000*%
G04 APERTURE END LIST*
D10*
G36*
X161210323Y-113062927D02*
G01*
X161031658Y-113064260D01*
X160869884Y-113012359D01*
X160769175Y-112914127D01*
X160715744Y-112811220D01*
X160650526Y-112559873D01*
X160648417Y-112381660D01*
X160708777Y-112130749D01*
X160762660Y-112018746D01*
X160863623Y-111915236D01*
X161018394Y-111861695D01*
X161208056Y-111860280D01*
X161210323Y-113062927D01*
G37*
G36*
X165479432Y-111902427D02*
G01*
X165579017Y-111999561D01*
X165636396Y-112220696D01*
X165638915Y-112683392D01*
X165582312Y-112918687D01*
X165488649Y-113014714D01*
X165397346Y-113062119D01*
X165182350Y-113064086D01*
X165093264Y-113021229D01*
X164993680Y-112924094D01*
X164936299Y-112702957D01*
X164933780Y-112240264D01*
X164990384Y-112004969D01*
X165084049Y-111908940D01*
X165175349Y-111861536D01*
X165390345Y-111859569D01*
X165479432Y-111902427D01*
G37*
G36*
X167067465Y-113062535D02*
G01*
X166682960Y-113064380D01*
X166592737Y-113020975D01*
X166554072Y-112983984D01*
X166507398Y-112894088D01*
X166505696Y-112750316D01*
X166548629Y-112661074D01*
X166579264Y-112629053D01*
X166732578Y-112576017D01*
X167066545Y-112574199D01*
X167067465Y-113062535D01*
G37*
G36*
X167065984Y-112276924D02*
G01*
X166754298Y-112278622D01*
X166664166Y-112235261D01*
X166625503Y-112198272D01*
X166578663Y-112108059D01*
X166577446Y-112035362D01*
X166620057Y-111946789D01*
X166657047Y-111908125D01*
X166746548Y-111861655D01*
X167065199Y-111859920D01*
X167065984Y-112276924D01*
G37*
G36*
X169693718Y-111902427D02*
G01*
X169793303Y-111999561D01*
X169850682Y-112220696D01*
X169853201Y-112683392D01*
X169796598Y-112918687D01*
X169702935Y-113014714D01*
X169611632Y-113062119D01*
X169396636Y-113064086D01*
X169307550Y-113021229D01*
X169207966Y-112924094D01*
X169150585Y-112702957D01*
X169148066Y-112240264D01*
X169204670Y-112004969D01*
X169298335Y-111908940D01*
X169389635Y-111861536D01*
X169604631Y-111859569D01*
X169693718Y-111902427D01*
G37*
G36*
X179337099Y-112545537D02*
G01*
X179375765Y-112582529D01*
X179422352Y-112672256D01*
X179424319Y-112887254D01*
X179381208Y-112976867D01*
X179344217Y-113015532D01*
X179254490Y-113062119D01*
X179039492Y-113064086D01*
X178949879Y-113020975D01*
X178911216Y-112983986D01*
X178864626Y-112894255D01*
X178862659Y-112679259D01*
X178905771Y-112589644D01*
X178942760Y-112550982D01*
X179032491Y-112504393D01*
X179247487Y-112502426D01*
X179337099Y-112545537D01*
G37*
G36*
X179337099Y-111902680D02*
G01*
X179375765Y-111939671D01*
X179423009Y-112030664D01*
X179423067Y-112032714D01*
X179381208Y-112119724D01*
X179344217Y-112158389D01*
X179254490Y-112204976D01*
X179039492Y-112206943D01*
X178949879Y-112163832D01*
X178911216Y-112126843D01*
X178863969Y-112035847D01*
X178863911Y-112033799D01*
X178905770Y-111946789D01*
X178942760Y-111908125D01*
X179032491Y-111861536D01*
X179247487Y-111859569D01*
X179337099Y-111902680D01*
G37*
G36*
X180765671Y-112474109D02*
G01*
X180804335Y-112511099D01*
X180851821Y-112602557D01*
X180853184Y-112886644D01*
X180809779Y-112976867D01*
X180772788Y-113015532D01*
X180683061Y-113062119D01*
X180468063Y-113064086D01*
X180378450Y-113020975D01*
X180339787Y-112983986D01*
X180293252Y-112894360D01*
X180291116Y-112608066D01*
X180334341Y-112518218D01*
X180371332Y-112479553D01*
X180461061Y-112432965D01*
X180676058Y-112430998D01*
X180765671Y-112474109D01*
G37*
G36*
X182194241Y-111902680D02*
G01*
X182232907Y-111939671D01*
X182279439Y-112029294D01*
X182281575Y-112315589D01*
X182238350Y-112405438D01*
X182201361Y-112444101D01*
X182111630Y-112490691D01*
X181896634Y-112492658D01*
X181807022Y-112449547D01*
X181768358Y-112412557D01*
X181720870Y-112321097D01*
X181719507Y-112037011D01*
X181762912Y-111946789D01*
X181799902Y-111908125D01*
X181889633Y-111861536D01*
X182104629Y-111859569D01*
X182194241Y-111902680D01*
G37*
G36*
X162708976Y-112348255D02*
G01*
X162511232Y-112349204D01*
X162503885Y-112347577D01*
X162494198Y-112349286D01*
X162325817Y-112350094D01*
X162235594Y-112306689D01*
X162196929Y-112269698D01*
X162150255Y-112179802D01*
X162148553Y-112036030D01*
X162191486Y-111946788D01*
X162228475Y-111908125D01*
X162317936Y-111861676D01*
X162708055Y-111859804D01*
X162708976Y-112348255D01*
G37*
G36*
X172566119Y-112348255D02*
G01*
X172368375Y-112349204D01*
X172361028Y-112347577D01*
X172351341Y-112349286D01*
X172182960Y-112350094D01*
X172092737Y-112306689D01*
X172054072Y-112269698D01*
X172007398Y-112179802D01*
X172005696Y-112036030D01*
X172048629Y-111946788D01*
X172085618Y-111908125D01*
X172175079Y-111861676D01*
X172565198Y-111859804D01*
X172566119Y-112348255D01*
G37*
G36*
X164008812Y-112634055D02*
G01*
X163706850Y-112635226D01*
X163857125Y-112181696D01*
X164008812Y-112634055D01*
G37*
G36*
X183508810Y-112634055D02*
G01*
X183206848Y-112635226D01*
X183357123Y-112181696D01*
X183508810Y-112634055D01*
G37*
G36*
X186494688Y-112348255D02*
G01*
X186111529Y-112350094D01*
X186021306Y-112306689D01*
X185982641Y-112269698D01*
X185935967Y-112179802D01*
X185934265Y-112036030D01*
X185977198Y-111946788D01*
X186014187Y-111908125D01*
X186103648Y-111861676D01*
X186493767Y-111859804D01*
X186494688Y-112348255D01*
G37*
G36*
X186960156Y-113528495D02*
G01*
X145543990Y-113528495D01*
X145543990Y-113182564D01*
X145710657Y-113182564D01*
X145710657Y-113241092D01*
X145733055Y-113295164D01*
X145774439Y-113336548D01*
X145828511Y-113358946D01*
X145857775Y-113361828D01*
X146744182Y-113358946D01*
X146798254Y-113336548D01*
X146839638Y-113295164D01*
X146862036Y-113241092D01*
X146862036Y-113182564D01*
X146839638Y-113128492D01*
X146798254Y-113087108D01*
X146744182Y-113064710D01*
X146714918Y-113061828D01*
X146436066Y-113062734D01*
X146434328Y-112140633D01*
X146467721Y-112173205D01*
X146480093Y-112187470D01*
X146486445Y-112191468D01*
X146488725Y-112193692D01*
X146492387Y-112195208D01*
X146504979Y-112203135D01*
X146675299Y-112285073D01*
X146733679Y-112289222D01*
X146789201Y-112270715D01*
X146833417Y-112232368D01*
X146859591Y-112180019D01*
X146863740Y-112121639D01*
X146845232Y-112066116D01*
X146806886Y-112021901D01*
X146782000Y-112006236D01*
X146664692Y-111949801D01*
X146551851Y-111839737D01*
X146477490Y-111730589D01*
X146994667Y-111730589D01*
X147001187Y-111759262D01*
X147498080Y-113241098D01*
X147498816Y-113251448D01*
X147507119Y-113268055D01*
X147513175Y-113286113D01*
X147520197Y-113294210D01*
X147524990Y-113303795D01*
X147539196Y-113316116D01*
X147551522Y-113330328D01*
X147561109Y-113335121D01*
X147569204Y-113342142D01*
X147587046Y-113348089D01*
X147603870Y-113356501D01*
X147614560Y-113357260D01*
X147624728Y-113360650D01*
X147643484Y-113359317D01*
X147662250Y-113360651D01*
X147672420Y-113357260D01*
X147683109Y-113356501D01*
X147699930Y-113348090D01*
X147717774Y-113342142D01*
X147725870Y-113335119D01*
X147735456Y-113330327D01*
X147747779Y-113316118D01*
X147761988Y-113303795D01*
X147766780Y-113294209D01*
X147773803Y-113286113D01*
X147785791Y-113259262D01*
X148292312Y-111730588D01*
X148288898Y-111682564D01*
X149567800Y-111682564D01*
X149567800Y-111741092D01*
X149590198Y-111795164D01*
X149631582Y-111836548D01*
X149685654Y-111858946D01*
X149714918Y-111861828D01*
X150279482Y-111859639D01*
X150280268Y-112276924D01*
X149899940Y-112278996D01*
X149845868Y-112301394D01*
X149804484Y-112342778D01*
X149782086Y-112396850D01*
X149782086Y-112455378D01*
X149804484Y-112509450D01*
X149845868Y-112550834D01*
X149899940Y-112573232D01*
X149929204Y-112576114D01*
X150280829Y-112574199D01*
X150281749Y-113062399D01*
X149685654Y-113064710D01*
X149631582Y-113087108D01*
X149590198Y-113128492D01*
X149567800Y-113182564D01*
X149567800Y-113241092D01*
X149590198Y-113295164D01*
X149631582Y-113336548D01*
X149685654Y-113358946D01*
X149714918Y-113361828D01*
X150458468Y-113358946D01*
X150512540Y-113336548D01*
X150553924Y-113295164D01*
X150576322Y-113241092D01*
X150579204Y-113211828D01*
X150576377Y-111711828D01*
X150993490Y-111711828D01*
X150996372Y-113241092D01*
X151018770Y-113295164D01*
X151060154Y-113336548D01*
X151114226Y-113358946D01*
X151172754Y-113358946D01*
X151226826Y-113336548D01*
X151268210Y-113295164D01*
X151290608Y-113241092D01*
X151293490Y-113211828D01*
X151291923Y-112380843D01*
X151507760Y-112840494D01*
X151515230Y-112861035D01*
X151519695Y-112865911D01*
X151522550Y-112871990D01*
X151539355Y-112887380D01*
X151554757Y-112904198D01*
X151560800Y-112907018D01*
X151565713Y-112911517D01*
X151587133Y-112919306D01*
X151607795Y-112928948D01*
X151614452Y-112929240D01*
X151620715Y-112931518D01*
X151643494Y-112930517D01*
X151666265Y-112931518D01*
X151672524Y-112929241D01*
X151679186Y-112928949D01*
X151699853Y-112919304D01*
X151721268Y-112911517D01*
X151726181Y-112907017D01*
X151732223Y-112904198D01*
X151747618Y-112887385D01*
X151764431Y-112871990D01*
X151769399Y-112863601D01*
X151771750Y-112861035D01*
X151773069Y-112857405D01*
X151779417Y-112846690D01*
X151994753Y-112382375D01*
X151996372Y-113241092D01*
X152018770Y-113295164D01*
X152060154Y-113336548D01*
X152114226Y-113358946D01*
X152172754Y-113358946D01*
X152226826Y-113336548D01*
X152268210Y-113295164D01*
X152290608Y-113241092D01*
X152293490Y-113211828D01*
X152292358Y-112611136D01*
X152710658Y-112611136D01*
X152710658Y-112669664D01*
X152733056Y-112723736D01*
X152774440Y-112765120D01*
X152828512Y-112787518D01*
X152857776Y-112790400D01*
X154029897Y-112787518D01*
X154083969Y-112765120D01*
X154125353Y-112723736D01*
X154147751Y-112669664D01*
X154147751Y-112611136D01*
X154125353Y-112557064D01*
X154083969Y-112515680D01*
X154029897Y-112493282D01*
X154000633Y-112490400D01*
X152828512Y-112493282D01*
X152774440Y-112515680D01*
X152733056Y-112557064D01*
X152710658Y-112611136D01*
X152292358Y-112611136D01*
X152290666Y-111713720D01*
X152290749Y-111711828D01*
X154564919Y-111711828D01*
X154567801Y-113241092D01*
X154590199Y-113295164D01*
X154631583Y-113336548D01*
X154685655Y-113358946D01*
X154744183Y-113358946D01*
X154798255Y-113336548D01*
X154839639Y-113295164D01*
X154862037Y-113241092D01*
X154864919Y-113211828D01*
X154862092Y-111711828D01*
X155279205Y-111711828D01*
X155282015Y-113203077D01*
X155279571Y-113222305D01*
X155282068Y-113231463D01*
X155282087Y-113241092D01*
X155289722Y-113259524D01*
X155294971Y-113278769D01*
X155300825Y-113286328D01*
X155304485Y-113295164D01*
X155318592Y-113309271D01*
X155330806Y-113325043D01*
X155339108Y-113329787D01*
X155345869Y-113336548D01*
X155364299Y-113344182D01*
X155381622Y-113354081D01*
X155391107Y-113355286D01*
X155399941Y-113358946D01*
X155419891Y-113358946D01*
X155439682Y-113361462D01*
X155448907Y-113358946D01*
X155458469Y-113358946D01*
X155476901Y-113351310D01*
X155496146Y-113346062D01*
X155503705Y-113340207D01*
X155512541Y-113336548D01*
X155526648Y-113322440D01*
X155542420Y-113310227D01*
X155551125Y-113297963D01*
X155553925Y-113295164D01*
X155555063Y-113292416D01*
X155559441Y-113286249D01*
X156137401Y-112270954D01*
X156139230Y-113241092D01*
X156161628Y-113295164D01*
X156203012Y-113336548D01*
X156257084Y-113358946D01*
X156315612Y-113358946D01*
X156369684Y-113336548D01*
X156411068Y-113295164D01*
X156433466Y-113241092D01*
X156436348Y-113211828D01*
X156433537Y-111720577D01*
X156434650Y-111711828D01*
X156850634Y-111711828D01*
X156853516Y-113241092D01*
X156875914Y-113295164D01*
X156917298Y-113336548D01*
X156971370Y-113358946D01*
X157029898Y-113358946D01*
X157083970Y-113336548D01*
X157125354Y-113295164D01*
X157147752Y-113241092D01*
X157150634Y-113211828D01*
X157147807Y-111711828D01*
X157564920Y-111711828D01*
X157567802Y-113241092D01*
X157590200Y-113295164D01*
X157631584Y-113336548D01*
X157685656Y-113358946D01*
X157744184Y-113358946D01*
X157798256Y-113336548D01*
X157839640Y-113295164D01*
X157862038Y-113241092D01*
X157864920Y-113211828D01*
X157863353Y-112380843D01*
X158079190Y-112840494D01*
X158086660Y-112861035D01*
X158091125Y-112865911D01*
X158093980Y-112871990D01*
X158110785Y-112887380D01*
X158126187Y-112904198D01*
X158132230Y-112907018D01*
X158137143Y-112911517D01*
X158158563Y-112919306D01*
X158179225Y-112928948D01*
X158185882Y-112929240D01*
X158192145Y-112931518D01*
X158214924Y-112930517D01*
X158237695Y-112931518D01*
X158243954Y-112929241D01*
X158250616Y-112928949D01*
X158271283Y-112919304D01*
X158292698Y-112911517D01*
X158297611Y-112907017D01*
X158303653Y-112904198D01*
X158319048Y-112887385D01*
X158335861Y-112871990D01*
X158340829Y-112863601D01*
X158343180Y-112861035D01*
X158344499Y-112857405D01*
X158350847Y-112846690D01*
X158566183Y-112382375D01*
X158567802Y-113241092D01*
X158590200Y-113295164D01*
X158631584Y-113336548D01*
X158685656Y-113358946D01*
X158744184Y-113358946D01*
X158798256Y-113336548D01*
X158839640Y-113295164D01*
X158862038Y-113241092D01*
X158864920Y-113211828D01*
X158863304Y-112354685D01*
X160350634Y-112354685D01*
X160353075Y-112561042D01*
X160350811Y-112576262D01*
X160353468Y-112594232D01*
X160353516Y-112598235D01*
X160354363Y-112600279D01*
X160355113Y-112605351D01*
X160426370Y-112879971D01*
X160427389Y-112894304D01*
X160435777Y-112916224D01*
X160436434Y-112918756D01*
X160437078Y-112919626D01*
X160437898Y-112921767D01*
X160511908Y-113064310D01*
X160518770Y-113080877D01*
X160523505Y-113086647D01*
X160524992Y-113089510D01*
X160527985Y-113092106D01*
X160537425Y-113103608D01*
X160666342Y-113229353D01*
X160667849Y-113232367D01*
X160682134Y-113244757D01*
X160703012Y-113265121D01*
X160707991Y-113267183D01*
X160712063Y-113270715D01*
X160738914Y-113282703D01*
X160953543Y-113351561D01*
X160971370Y-113358946D01*
X160978858Y-113359683D01*
X160981874Y-113360651D01*
X160985828Y-113360369D01*
X161000634Y-113361828D01*
X161387041Y-113358946D01*
X161441113Y-113336548D01*
X161482497Y-113295164D01*
X161504895Y-113241092D01*
X161507777Y-113211828D01*
X161505489Y-111997542D01*
X161850634Y-111997542D01*
X161852908Y-112189775D01*
X161851812Y-112193066D01*
X161853174Y-112212244D01*
X161853516Y-112241092D01*
X161855578Y-112246070D01*
X161855960Y-112251446D01*
X161866470Y-112278910D01*
X161940478Y-112421451D01*
X161947341Y-112438020D01*
X161952076Y-112443790D01*
X161953563Y-112446653D01*
X161956556Y-112449249D01*
X161965996Y-112460751D01*
X162041151Y-112532652D01*
X162051524Y-112544613D01*
X162057747Y-112548530D01*
X162060156Y-112550835D01*
X162063817Y-112552351D01*
X162076409Y-112560278D01*
X162200934Y-112620184D01*
X162203012Y-112622262D01*
X162219134Y-112628940D01*
X162224721Y-112631628D01*
X161863328Y-113151435D01*
X161850669Y-113208577D01*
X161860840Y-113266213D01*
X161892293Y-113315570D01*
X161940241Y-113349134D01*
X161997383Y-113361793D01*
X162055019Y-113351622D01*
X162104376Y-113320169D01*
X162123519Y-113297847D01*
X162576609Y-112646149D01*
X162709536Y-112645511D01*
X162710659Y-113241092D01*
X162733057Y-113295164D01*
X162774441Y-113336548D01*
X162828513Y-113358946D01*
X162887041Y-113358946D01*
X162941113Y-113336548D01*
X162982497Y-113295164D01*
X163004895Y-113241092D01*
X163007777Y-113211828D01*
X163007742Y-113193067D01*
X163208954Y-113193067D01*
X163213103Y-113251448D01*
X163239277Y-113303795D01*
X163283491Y-113342142D01*
X163339015Y-113360650D01*
X163397396Y-113356501D01*
X163449743Y-113330327D01*
X163488090Y-113286113D01*
X163500078Y-113259262D01*
X163608236Y-112932839D01*
X164108351Y-112930901D01*
X164227462Y-113286113D01*
X164265809Y-113330328D01*
X164318157Y-113356501D01*
X164376537Y-113360651D01*
X164432061Y-113342142D01*
X164476275Y-113303795D01*
X164502449Y-113251448D01*
X164506599Y-113193068D01*
X164500079Y-113164394D01*
X164180661Y-112211828D01*
X164636348Y-112211828D01*
X164639019Y-112702359D01*
X164636525Y-112719119D01*
X164639209Y-112737269D01*
X164639230Y-112741092D01*
X164640076Y-112743136D01*
X164640827Y-112748209D01*
X164710659Y-113017332D01*
X164710659Y-113026804D01*
X164717238Y-113042689D01*
X164722149Y-113061613D01*
X164728788Y-113070573D01*
X164733056Y-113080877D01*
X164751711Y-113103608D01*
X164896300Y-113244639D01*
X164908667Y-113258899D01*
X164915017Y-113262896D01*
X164917298Y-113265121D01*
X164920961Y-113266638D01*
X164933552Y-113274564D01*
X165058077Y-113334470D01*
X165060155Y-113336548D01*
X165076277Y-113343226D01*
X165103873Y-113356502D01*
X165109248Y-113356883D01*
X165114227Y-113358946D01*
X165143491Y-113361828D01*
X165406750Y-113359419D01*
X165410443Y-113360650D01*
X165430871Y-113359198D01*
X165458469Y-113358946D01*
X165463447Y-113356883D01*
X165468823Y-113356502D01*
X165496286Y-113345992D01*
X165638820Y-113271987D01*
X165655399Y-113265121D01*
X165661172Y-113260382D01*
X165664030Y-113258899D01*
X165666623Y-113255909D01*
X165678129Y-113246466D01*
X165808130Y-113113183D01*
X165815704Y-113108639D01*
X165825633Y-113095238D01*
X165839641Y-113080877D01*
X165843908Y-113070573D01*
X165850548Y-113061613D01*
X165860441Y-113033922D01*
X165927309Y-112755953D01*
X165933466Y-112741092D01*
X165935254Y-112722926D01*
X165936171Y-112719119D01*
X165935845Y-112716931D01*
X165936348Y-112711828D01*
X166207777Y-112711828D01*
X166210051Y-112904061D01*
X166208955Y-112907352D01*
X166210317Y-112926530D01*
X166210659Y-112955378D01*
X166212721Y-112960356D01*
X166213103Y-112965732D01*
X166223613Y-112993196D01*
X166297621Y-113135737D01*
X166304484Y-113152306D01*
X166309219Y-113158076D01*
X166310706Y-113160939D01*
X166313699Y-113163535D01*
X166323139Y-113175037D01*
X166398294Y-113246938D01*
X166408667Y-113258899D01*
X166414890Y-113262816D01*
X166417299Y-113265121D01*
X166420960Y-113266637D01*
X166433552Y-113274564D01*
X166558077Y-113334470D01*
X166560155Y-113336548D01*
X166576277Y-113343226D01*
X166603873Y-113356502D01*
X166609248Y-113356883D01*
X166614227Y-113358946D01*
X166643491Y-113361828D01*
X167244184Y-113358946D01*
X167298256Y-113336548D01*
X167339640Y-113295164D01*
X167362038Y-113241092D01*
X167364920Y-113211828D01*
X167363035Y-112211828D01*
X168850634Y-112211828D01*
X168853305Y-112702359D01*
X168850811Y-112719119D01*
X168853495Y-112737269D01*
X168853516Y-112741092D01*
X168854362Y-112743136D01*
X168855113Y-112748209D01*
X168924945Y-113017332D01*
X168924945Y-113026804D01*
X168931524Y-113042689D01*
X168936435Y-113061613D01*
X168943074Y-113070573D01*
X168947342Y-113080877D01*
X168965997Y-113103608D01*
X169110586Y-113244639D01*
X169122953Y-113258899D01*
X169129303Y-113262896D01*
X169131584Y-113265121D01*
X169135247Y-113266638D01*
X169147838Y-113274564D01*
X169272363Y-113334470D01*
X169274441Y-113336548D01*
X169290563Y-113343226D01*
X169318159Y-113356502D01*
X169323534Y-113356883D01*
X169328513Y-113358946D01*
X169357777Y-113361828D01*
X169621036Y-113359419D01*
X169624729Y-113360650D01*
X169645157Y-113359198D01*
X169672755Y-113358946D01*
X169677733Y-113356883D01*
X169683109Y-113356502D01*
X169710572Y-113345992D01*
X169853106Y-113271987D01*
X169869685Y-113265121D01*
X169875458Y-113260382D01*
X169878316Y-113258899D01*
X169880909Y-113255909D01*
X169892415Y-113246466D01*
X170022416Y-113113183D01*
X170029990Y-113108639D01*
X170039919Y-113095238D01*
X170053927Y-113080877D01*
X170058194Y-113070573D01*
X170064834Y-113061613D01*
X170074727Y-113033922D01*
X170141595Y-112755953D01*
X170147752Y-112741092D01*
X170149540Y-112722926D01*
X170150457Y-112719119D01*
X170150131Y-112716931D01*
X170150634Y-112711828D01*
X170147962Y-112221296D01*
X170150457Y-112204537D01*
X170147772Y-112186387D01*
X170147752Y-112182564D01*
X170146904Y-112180519D01*
X170146155Y-112175448D01*
X170076324Y-111906324D01*
X170076324Y-111896851D01*
X170069743Y-111880963D01*
X170064834Y-111862043D01*
X170058195Y-111853083D01*
X170053927Y-111842778D01*
X170035272Y-111820048D01*
X169943555Y-111730589D01*
X170280383Y-111730589D01*
X170286903Y-111759262D01*
X170783796Y-113241098D01*
X170784532Y-113251448D01*
X170792835Y-113268055D01*
X170798891Y-113286113D01*
X170805913Y-113294210D01*
X170810706Y-113303795D01*
X170824912Y-113316116D01*
X170837238Y-113330328D01*
X170846825Y-113335121D01*
X170854920Y-113342142D01*
X170872762Y-113348089D01*
X170889586Y-113356501D01*
X170900276Y-113357260D01*
X170910444Y-113360650D01*
X170929200Y-113359317D01*
X170947966Y-113360651D01*
X170958136Y-113357260D01*
X170968825Y-113356501D01*
X170985646Y-113348090D01*
X171003490Y-113342142D01*
X171011586Y-113335119D01*
X171021172Y-113330327D01*
X171033495Y-113316118D01*
X171047704Y-113303795D01*
X171052496Y-113294209D01*
X171059519Y-113286113D01*
X171071507Y-113259262D01*
X171489574Y-111997542D01*
X171707777Y-111997542D01*
X171710051Y-112189775D01*
X171708955Y-112193066D01*
X171710317Y-112212244D01*
X171710659Y-112241092D01*
X171712721Y-112246070D01*
X171713103Y-112251446D01*
X171723613Y-112278910D01*
X171797621Y-112421451D01*
X171804484Y-112438020D01*
X171809219Y-112443790D01*
X171810706Y-112446653D01*
X171813699Y-112449249D01*
X171823139Y-112460751D01*
X171898294Y-112532652D01*
X171908667Y-112544613D01*
X171914890Y-112548530D01*
X171917299Y-112550835D01*
X171920960Y-112552351D01*
X171933552Y-112560278D01*
X172058077Y-112620184D01*
X172060155Y-112622262D01*
X172076277Y-112628940D01*
X172081864Y-112631628D01*
X171720471Y-113151435D01*
X171707812Y-113208577D01*
X171717983Y-113266213D01*
X171749436Y-113315570D01*
X171797384Y-113349134D01*
X171854526Y-113361793D01*
X171912162Y-113351622D01*
X171961519Y-113320169D01*
X171980662Y-113297847D01*
X172433752Y-112646149D01*
X172566679Y-112645511D01*
X172567802Y-113241092D01*
X172590200Y-113295164D01*
X172631584Y-113336548D01*
X172685656Y-113358946D01*
X172744184Y-113358946D01*
X172798256Y-113336548D01*
X172839640Y-113295164D01*
X172862038Y-113241092D01*
X172864920Y-113211828D01*
X172862038Y-111682564D01*
X173210659Y-111682564D01*
X173210659Y-111741092D01*
X173233057Y-111795164D01*
X173274441Y-111836548D01*
X173328513Y-111858946D01*
X173357777Y-111861828D01*
X173922341Y-111859639D01*
X173923127Y-112276924D01*
X173542799Y-112278996D01*
X173488727Y-112301394D01*
X173447343Y-112342778D01*
X173424945Y-112396850D01*
X173424945Y-112455378D01*
X173447343Y-112509450D01*
X173488727Y-112550834D01*
X173542799Y-112573232D01*
X173572063Y-112576114D01*
X173923688Y-112574199D01*
X173924608Y-113062399D01*
X173328513Y-113064710D01*
X173274441Y-113087108D01*
X173233057Y-113128492D01*
X173210659Y-113182564D01*
X173210659Y-113241092D01*
X173233057Y-113295164D01*
X173274441Y-113336548D01*
X173328513Y-113358946D01*
X173357777Y-113361828D01*
X174101327Y-113358946D01*
X174155399Y-113336548D01*
X174196783Y-113295164D01*
X174219181Y-113241092D01*
X174222063Y-113211828D01*
X174221255Y-112783257D01*
X174564919Y-112783257D01*
X174566953Y-112904782D01*
X174566097Y-112907353D01*
X174567274Y-112923917D01*
X174567801Y-112955378D01*
X174569864Y-112960358D01*
X174570246Y-112965733D01*
X174580755Y-112993196D01*
X174654764Y-113135738D01*
X174661627Y-113152306D01*
X174666362Y-113158076D01*
X174667849Y-113160939D01*
X174670842Y-113163535D01*
X174680282Y-113175037D01*
X174755437Y-113246938D01*
X174765810Y-113258899D01*
X174772033Y-113262816D01*
X174774442Y-113265121D01*
X174778103Y-113266637D01*
X174790695Y-113274564D01*
X174915220Y-113334470D01*
X174917298Y-113336548D01*
X174933420Y-113343226D01*
X174961016Y-113356502D01*
X174966391Y-113356883D01*
X174971370Y-113358946D01*
X175000634Y-113361828D01*
X175355826Y-113359178D01*
X175376537Y-113360651D01*
X175383933Y-113358969D01*
X175387041Y-113358946D01*
X175390698Y-113357430D01*
X175405211Y-113354131D01*
X175646347Y-113270714D01*
X175690561Y-113232367D01*
X175716735Y-113180020D01*
X175720884Y-113121640D01*
X175702376Y-113066115D01*
X175664029Y-113021901D01*
X175611682Y-112995727D01*
X175553302Y-112991578D01*
X175524628Y-112998097D01*
X175340015Y-113061960D01*
X175039729Y-113064200D01*
X174949880Y-113020975D01*
X174911217Y-112983986D01*
X174864377Y-112893773D01*
X174863160Y-112821077D01*
X174905771Y-112732504D01*
X174942762Y-112693839D01*
X175044097Y-112641224D01*
X175311634Y-112571805D01*
X175325967Y-112570787D01*
X175330712Y-112568971D01*
X177136347Y-112568971D01*
X177138841Y-112903403D01*
X177137525Y-112907353D01*
X177139028Y-112928510D01*
X177139229Y-112955378D01*
X177141292Y-112960358D01*
X177141674Y-112965733D01*
X177152183Y-112993196D01*
X177226192Y-113135738D01*
X177233055Y-113152306D01*
X177237790Y-113158076D01*
X177239277Y-113160939D01*
X177242270Y-113163535D01*
X177251710Y-113175037D01*
X177326865Y-113246938D01*
X177337238Y-113258899D01*
X177343461Y-113262816D01*
X177345870Y-113265121D01*
X177349531Y-113266637D01*
X177362123Y-113274564D01*
X177486648Y-113334470D01*
X177488726Y-113336548D01*
X177504848Y-113343226D01*
X177532444Y-113356502D01*
X177537819Y-113356883D01*
X177542798Y-113358946D01*
X177572062Y-113361828D01*
X177906494Y-113359333D01*
X177910443Y-113360650D01*
X177931605Y-113359146D01*
X177958469Y-113358946D01*
X177963447Y-113356883D01*
X177968823Y-113356502D01*
X177996287Y-113345992D01*
X178138830Y-113271982D01*
X178155398Y-113265120D01*
X178161166Y-113260385D01*
X178164030Y-113258899D01*
X178166626Y-113255904D01*
X178178129Y-113246465D01*
X178268211Y-113152306D01*
X178290608Y-113098233D01*
X178290607Y-113039707D01*
X178268210Y-112985635D01*
X178226824Y-112944250D01*
X178172752Y-112921853D01*
X178114226Y-112921854D01*
X178060154Y-112944251D01*
X178037423Y-112962906D01*
X177987075Y-113015532D01*
X177897453Y-113062064D01*
X177611157Y-113064200D01*
X177521308Y-113020975D01*
X177482645Y-112983986D01*
X177436110Y-112894360D01*
X177433974Y-112608066D01*
X177477199Y-112518218D01*
X177514190Y-112479553D01*
X177603814Y-112433020D01*
X177890109Y-112430884D01*
X177979958Y-112474109D01*
X178025829Y-112517995D01*
X178027681Y-112521446D01*
X178039804Y-112531365D01*
X178060154Y-112550834D01*
X178067132Y-112553724D01*
X178072978Y-112558507D01*
X178093969Y-112564840D01*
X178114226Y-112573231D01*
X178121778Y-112573231D01*
X178129010Y-112575413D01*
X178150826Y-112573231D01*
X178172752Y-112573232D01*
X178179730Y-112570341D01*
X178187247Y-112569590D01*
X178206566Y-112559225D01*
X178226824Y-112550835D01*
X178232166Y-112545492D01*
X178238822Y-112541922D01*
X178252702Y-112524956D01*
X178268210Y-112509450D01*
X178271100Y-112502470D01*
X178275883Y-112496626D01*
X178282217Y-112475631D01*
X178290607Y-112455378D01*
X178290607Y-112447828D01*
X178292790Y-112440594D01*
X178292746Y-112411188D01*
X178249769Y-111997542D01*
X178564918Y-111997542D01*
X178566399Y-112049299D01*
X178566096Y-112050210D01*
X178566647Y-112057971D01*
X178567800Y-112098235D01*
X178569863Y-112103215D01*
X178570245Y-112108590D01*
X178580754Y-112136053D01*
X178654763Y-112278595D01*
X178661626Y-112295163D01*
X178666361Y-112300933D01*
X178667848Y-112303796D01*
X178670841Y-112306392D01*
X178680281Y-112317894D01*
X178718650Y-112354602D01*
X178679813Y-112395196D01*
X178667848Y-112405574D01*
X178663929Y-112411799D01*
X178661627Y-112414206D01*
X178660111Y-112417864D01*
X178652183Y-112430460D01*
X178592274Y-112554987D01*
X178590198Y-112557064D01*
X178583521Y-112573181D01*
X178570244Y-112600781D01*
X178569861Y-112606158D01*
X178567800Y-112611136D01*
X178564918Y-112640400D01*
X178567326Y-112903660D01*
X178566096Y-112907353D01*
X178567547Y-112927776D01*
X178567800Y-112955378D01*
X178569863Y-112960358D01*
X178570245Y-112965733D01*
X178580754Y-112993196D01*
X178654763Y-113135738D01*
X178661626Y-113152306D01*
X178666361Y-113158076D01*
X178667848Y-113160939D01*
X178670841Y-113163535D01*
X178680281Y-113175037D01*
X178755436Y-113246938D01*
X178765809Y-113258899D01*
X178772032Y-113262816D01*
X178774441Y-113265121D01*
X178778102Y-113266637D01*
X178790694Y-113274564D01*
X178915219Y-113334470D01*
X178917297Y-113336548D01*
X178933419Y-113343226D01*
X178961015Y-113356502D01*
X178966390Y-113356883D01*
X178971369Y-113358946D01*
X179000633Y-113361828D01*
X179263892Y-113359419D01*
X179267585Y-113360650D01*
X179288013Y-113359198D01*
X179315611Y-113358946D01*
X179320589Y-113356883D01*
X179325965Y-113356502D01*
X179353429Y-113345992D01*
X179495970Y-113271983D01*
X179512539Y-113265121D01*
X179518309Y-113260385D01*
X179521172Y-113258899D01*
X179523768Y-113255905D01*
X179535270Y-113246466D01*
X179607171Y-113171310D01*
X179619132Y-113160938D01*
X179623049Y-113154714D01*
X179625354Y-113152306D01*
X179626870Y-113148644D01*
X179634797Y-113136053D01*
X179694703Y-113011527D01*
X179696781Y-113009450D01*
X179703459Y-112993327D01*
X179716735Y-112965732D01*
X179717116Y-112960356D01*
X179719179Y-112955378D01*
X179722061Y-112926114D01*
X179719652Y-112662855D01*
X179720883Y-112659163D01*
X179719431Y-112638734D01*
X179719179Y-112611136D01*
X179717116Y-112606157D01*
X179716735Y-112600782D01*
X179706226Y-112573319D01*
X179703969Y-112568971D01*
X179993489Y-112568971D01*
X179995983Y-112903403D01*
X179994667Y-112907353D01*
X179996170Y-112928510D01*
X179996371Y-112955378D01*
X179998434Y-112960358D01*
X179998816Y-112965733D01*
X180009325Y-112993196D01*
X180083334Y-113135738D01*
X180090197Y-113152306D01*
X180094932Y-113158076D01*
X180096419Y-113160939D01*
X180099412Y-113163535D01*
X180108852Y-113175037D01*
X180184007Y-113246938D01*
X180194380Y-113258899D01*
X180200603Y-113262816D01*
X180203012Y-113265121D01*
X180206673Y-113266637D01*
X180219265Y-113274564D01*
X180343790Y-113334470D01*
X180345868Y-113336548D01*
X180361990Y-113343226D01*
X180389586Y-113356502D01*
X180394961Y-113356883D01*
X180399940Y-113358946D01*
X180429204Y-113361828D01*
X180692463Y-113359419D01*
X180696156Y-113360650D01*
X180716584Y-113359198D01*
X180744182Y-113358946D01*
X180749160Y-113356883D01*
X180754536Y-113356502D01*
X180782000Y-113345992D01*
X180924541Y-113271983D01*
X180941110Y-113265121D01*
X180946880Y-113260385D01*
X180949743Y-113258899D01*
X180952339Y-113255905D01*
X180963841Y-113246466D01*
X181035742Y-113171310D01*
X181047703Y-113160938D01*
X181051620Y-113154714D01*
X181053925Y-113152306D01*
X181055441Y-113148644D01*
X181063368Y-113136053D01*
X181123274Y-113011527D01*
X181125352Y-113009450D01*
X181132030Y-112993327D01*
X181145306Y-112965732D01*
X181145687Y-112960356D01*
X181147750Y-112955378D01*
X181150632Y-112926114D01*
X181149014Y-112589050D01*
X181149454Y-112587733D01*
X181148976Y-112581009D01*
X181147936Y-112364316D01*
X181150455Y-112347394D01*
X181147768Y-112329226D01*
X181147750Y-112325421D01*
X181146902Y-112323376D01*
X181146153Y-112318305D01*
X181071846Y-112031933D01*
X181067847Y-112011714D01*
X181065417Y-112007158D01*
X181064832Y-112004900D01*
X181062627Y-112001925D01*
X181060290Y-111997542D01*
X181422060Y-111997542D01*
X181423677Y-112334606D01*
X181423238Y-112335924D01*
X181423715Y-112342646D01*
X181424755Y-112559339D01*
X181422237Y-112576262D01*
X181424923Y-112594429D01*
X181424942Y-112598235D01*
X181425788Y-112600279D01*
X181426539Y-112605352D01*
X181500849Y-112891734D01*
X181504847Y-112911942D01*
X181507274Y-112916494D01*
X181507861Y-112918756D01*
X181510067Y-112921733D01*
X181518681Y-112937890D01*
X181656766Y-113140575D01*
X181661625Y-113152306D01*
X181680067Y-113174778D01*
X181680169Y-113174927D01*
X181680215Y-113174957D01*
X181680280Y-113175037D01*
X181755435Y-113246938D01*
X181765808Y-113258899D01*
X181772031Y-113262816D01*
X181774440Y-113265121D01*
X181778101Y-113266637D01*
X181790693Y-113274564D01*
X181915218Y-113334470D01*
X181917296Y-113336548D01*
X181933418Y-113343226D01*
X181961014Y-113356502D01*
X181966389Y-113356883D01*
X181971368Y-113358946D01*
X182000632Y-113361828D01*
X182315610Y-113358946D01*
X182369682Y-113336548D01*
X182411066Y-113295164D01*
X182433464Y-113241092D01*
X182433464Y-113193067D01*
X182708952Y-113193067D01*
X182713101Y-113251448D01*
X182739275Y-113303795D01*
X182783489Y-113342142D01*
X182839013Y-113360650D01*
X182897394Y-113356501D01*
X182949741Y-113330327D01*
X182988088Y-113286113D01*
X183000076Y-113259262D01*
X183108234Y-112932839D01*
X183608349Y-112930901D01*
X183727460Y-113286113D01*
X183765807Y-113330328D01*
X183818155Y-113356501D01*
X183876535Y-113360651D01*
X183932059Y-113342142D01*
X183976273Y-113303795D01*
X184002447Y-113251448D01*
X184006597Y-113193068D01*
X184000077Y-113164394D01*
X183551088Y-111825422D01*
X184139228Y-111825422D01*
X184139228Y-111883948D01*
X184161625Y-111938020D01*
X184203011Y-111979406D01*
X184257083Y-112001803D01*
X184315609Y-112001803D01*
X184369681Y-111979406D01*
X184392412Y-111960751D01*
X184436406Y-111914766D01*
X184590321Y-111861522D01*
X184685553Y-111859927D01*
X184845664Y-111911296D01*
X184946376Y-112009529D01*
X184999806Y-112112434D01*
X185065024Y-112363782D01*
X185067133Y-112541995D01*
X185006773Y-112792906D01*
X184952890Y-112904910D01*
X184851930Y-113008419D01*
X184696652Y-113062133D01*
X184601425Y-113063728D01*
X184440649Y-113012146D01*
X184369682Y-112944251D01*
X184315610Y-112921853D01*
X184257084Y-112921853D01*
X184203012Y-112944250D01*
X184161626Y-112985635D01*
X184139228Y-113039707D01*
X184139228Y-113098233D01*
X184161625Y-113152305D01*
X184180279Y-113175036D01*
X184238423Y-113230664D01*
X184239275Y-113232367D01*
X184249210Y-113240984D01*
X184274438Y-113265120D01*
X184279414Y-113267181D01*
X184283489Y-113270715D01*
X184310340Y-113282703D01*
X184524969Y-113351561D01*
X184542796Y-113358946D01*
X184550284Y-113359683D01*
X184553300Y-113360651D01*
X184557254Y-113360369D01*
X184572060Y-113361828D01*
X184716267Y-113359413D01*
X184733677Y-113360651D01*
X184740936Y-113359000D01*
X184744181Y-113358946D01*
X184747838Y-113357430D01*
X184762351Y-113354131D01*
X184954914Y-113287518D01*
X184958466Y-113287518D01*
X184976462Y-113280063D01*
X185003488Y-113270715D01*
X185007559Y-113267183D01*
X185012539Y-113265121D01*
X185035269Y-113246466D01*
X185176289Y-113101885D01*
X185190559Y-113089510D01*
X185194559Y-113083154D01*
X185196781Y-113080877D01*
X185198296Y-113077217D01*
X185206224Y-113064624D01*
X185271366Y-112929216D01*
X185279117Y-112918756D01*
X185286960Y-112896801D01*
X185288162Y-112894304D01*
X185288238Y-112893223D01*
X185289010Y-112891065D01*
X185355878Y-112613096D01*
X185362035Y-112598235D01*
X185363823Y-112580069D01*
X185364740Y-112576262D01*
X185364414Y-112574074D01*
X185364917Y-112568971D01*
X185362475Y-112362613D01*
X185364740Y-112347394D01*
X185362082Y-112329423D01*
X185362035Y-112325421D01*
X185361187Y-112323376D01*
X185360438Y-112318305D01*
X185289180Y-112043684D01*
X185288162Y-112029352D01*
X185279773Y-112007428D01*
X185279117Y-112004900D01*
X185278472Y-112004030D01*
X185277653Y-112001888D01*
X185275396Y-111997542D01*
X185636346Y-111997542D01*
X185638620Y-112189775D01*
X185637524Y-112193066D01*
X185638886Y-112212244D01*
X185639228Y-112241092D01*
X185641290Y-112246070D01*
X185641672Y-112251446D01*
X185652182Y-112278910D01*
X185726190Y-112421451D01*
X185733053Y-112438020D01*
X185737788Y-112443790D01*
X185739275Y-112446653D01*
X185742268Y-112449249D01*
X185751708Y-112460751D01*
X185826863Y-112532652D01*
X185837236Y-112544613D01*
X185843459Y-112548530D01*
X185845868Y-112550835D01*
X185849529Y-112552351D01*
X185862121Y-112560278D01*
X185986646Y-112620184D01*
X185988724Y-112622262D01*
X186004846Y-112628940D01*
X186032442Y-112642216D01*
X186037817Y-112642597D01*
X186042796Y-112644660D01*
X186072060Y-112647542D01*
X186495248Y-112645511D01*
X186496371Y-113241092D01*
X186518769Y-113295164D01*
X186560153Y-113336548D01*
X186614225Y-113358946D01*
X186672753Y-113358946D01*
X186726825Y-113336548D01*
X186768209Y-113295164D01*
X186790607Y-113241092D01*
X186793489Y-113211828D01*
X186790607Y-111682564D01*
X186768209Y-111628492D01*
X186726825Y-111587108D01*
X186672753Y-111564710D01*
X186643489Y-111561828D01*
X186095179Y-111564458D01*
X186090821Y-111563006D01*
X186068585Y-111564586D01*
X186042796Y-111564710D01*
X186037815Y-111566773D01*
X186032441Y-111567155D01*
X186004977Y-111577664D01*
X185862433Y-111651674D01*
X185845868Y-111658536D01*
X185840097Y-111663271D01*
X185837235Y-111664758D01*
X185834638Y-111667751D01*
X185823138Y-111677190D01*
X185751240Y-111752339D01*
X185739275Y-111762717D01*
X185735356Y-111768942D01*
X185733054Y-111771349D01*
X185731538Y-111775007D01*
X185723610Y-111787603D01*
X185663703Y-111912128D01*
X185661626Y-111914206D01*
X185654947Y-111930328D01*
X185641672Y-111957924D01*
X185641290Y-111963299D01*
X185639228Y-111968278D01*
X185636346Y-111997542D01*
X185275396Y-111997542D01*
X185203644Y-111859348D01*
X185196781Y-111842778D01*
X185192044Y-111837006D01*
X185190559Y-111834146D01*
X185187566Y-111831550D01*
X185178126Y-111820048D01*
X185049209Y-111694304D01*
X185047702Y-111691290D01*
X185033412Y-111678896D01*
X185012538Y-111658536D01*
X185007558Y-111656473D01*
X185003488Y-111652943D01*
X184976637Y-111640954D01*
X184762015Y-111572097D01*
X184744181Y-111564710D01*
X184736689Y-111563972D01*
X184733678Y-111563006D01*
X184729728Y-111563286D01*
X184714917Y-111561828D01*
X184570701Y-111564242D01*
X184553299Y-111563006D01*
X184546044Y-111564655D01*
X184542796Y-111564710D01*
X184539134Y-111566226D01*
X184524625Y-111569526D01*
X184332062Y-111636140D01*
X184328511Y-111636140D01*
X184310511Y-111643594D01*
X184283489Y-111652943D01*
X184279418Y-111656472D01*
X184274438Y-111658536D01*
X184251708Y-111677191D01*
X184161625Y-111771350D01*
X184139228Y-111825422D01*
X183551088Y-111825422D01*
X183503182Y-111682558D01*
X183502447Y-111672208D01*
X183494143Y-111655600D01*
X183488088Y-111637543D01*
X183481065Y-111629446D01*
X183476273Y-111619861D01*
X183462064Y-111607537D01*
X183449741Y-111593329D01*
X183440155Y-111588536D01*
X183432059Y-111581514D01*
X183414215Y-111575565D01*
X183397394Y-111567155D01*
X183386705Y-111566395D01*
X183376535Y-111563005D01*
X183357769Y-111564338D01*
X183339013Y-111563006D01*
X183328845Y-111566395D01*
X183318155Y-111567155D01*
X183301331Y-111575566D01*
X183283489Y-111581514D01*
X183275394Y-111588534D01*
X183265807Y-111593328D01*
X183253481Y-111607539D01*
X183239275Y-111619861D01*
X183234482Y-111629445D01*
X183227460Y-111637543D01*
X183215472Y-111664394D01*
X182858129Y-112742850D01*
X182853514Y-112753993D01*
X182853514Y-112756780D01*
X182708952Y-113193067D01*
X182433464Y-113193067D01*
X182433464Y-113182564D01*
X182411066Y-113128492D01*
X182369682Y-113087108D01*
X182315610Y-113064710D01*
X182286346Y-113061828D01*
X182039491Y-113064086D01*
X181949878Y-113020975D01*
X181907557Y-112980486D01*
X181784054Y-112799206D01*
X181775302Y-112765477D01*
X181790570Y-112771801D01*
X181818156Y-112785073D01*
X181823530Y-112785454D01*
X181828511Y-112787518D01*
X181857775Y-112790400D01*
X182121035Y-112787991D01*
X182124728Y-112789222D01*
X182145151Y-112787770D01*
X182172753Y-112787518D01*
X182177733Y-112785454D01*
X182183108Y-112785073D01*
X182210571Y-112774564D01*
X182353113Y-112700554D01*
X182369681Y-112693692D01*
X182375451Y-112688956D01*
X182378314Y-112687470D01*
X182380910Y-112684476D01*
X182392412Y-112675037D01*
X182464313Y-112599881D01*
X182476274Y-112589509D01*
X182480191Y-112583285D01*
X182482496Y-112580877D01*
X182484012Y-112577215D01*
X182491939Y-112564624D01*
X182551845Y-112440098D01*
X182553923Y-112438021D01*
X182560601Y-112421898D01*
X182573877Y-112394303D01*
X182574258Y-112388927D01*
X182576321Y-112383949D01*
X182579203Y-112354685D01*
X182576708Y-112020252D01*
X182578025Y-112016304D01*
X182576521Y-111995141D01*
X182576321Y-111968278D01*
X182574258Y-111963299D01*
X182573877Y-111957924D01*
X182563367Y-111930461D01*
X182489358Y-111787918D01*
X182482495Y-111771349D01*
X182477759Y-111765578D01*
X182476274Y-111762718D01*
X182473282Y-111760123D01*
X182463840Y-111748618D01*
X182388693Y-111676725D01*
X182378314Y-111664758D01*
X182372085Y-111660837D01*
X182369680Y-111658536D01*
X182366023Y-111657021D01*
X182353428Y-111649093D01*
X182228903Y-111589186D01*
X182226825Y-111587108D01*
X182210693Y-111580426D01*
X182183108Y-111567155D01*
X182177733Y-111566773D01*
X182172753Y-111564710D01*
X182143489Y-111561828D01*
X181880228Y-111564236D01*
X181876536Y-111563006D01*
X181856112Y-111564457D01*
X181828511Y-111564710D01*
X181823530Y-111566773D01*
X181818156Y-111567155D01*
X181790692Y-111577664D01*
X181648148Y-111651674D01*
X181631583Y-111658536D01*
X181625812Y-111663271D01*
X181622950Y-111664758D01*
X181620353Y-111667751D01*
X181608853Y-111677190D01*
X181536955Y-111752339D01*
X181524990Y-111762717D01*
X181521071Y-111768942D01*
X181518769Y-111771349D01*
X181517253Y-111775007D01*
X181509325Y-111787603D01*
X181449418Y-111912127D01*
X181447340Y-111914206D01*
X181440658Y-111930337D01*
X181427387Y-111957923D01*
X181427005Y-111963297D01*
X181424942Y-111968278D01*
X181422060Y-111997542D01*
X181060290Y-111997542D01*
X181054012Y-111985766D01*
X180915926Y-111783080D01*
X180911067Y-111771349D01*
X180892622Y-111748874D01*
X180892524Y-111748730D01*
X180892479Y-111748700D01*
X180892412Y-111748618D01*
X180817265Y-111676725D01*
X180806886Y-111664758D01*
X180800657Y-111660837D01*
X180798252Y-111658536D01*
X180794595Y-111657021D01*
X180782000Y-111649093D01*
X180657475Y-111589186D01*
X180655397Y-111587108D01*
X180639265Y-111580426D01*
X180611680Y-111567155D01*
X180606305Y-111566773D01*
X180601325Y-111564710D01*
X180572061Y-111561828D01*
X180257083Y-111564710D01*
X180203011Y-111587108D01*
X180161627Y-111628492D01*
X180139229Y-111682564D01*
X180139229Y-111741092D01*
X180161627Y-111795164D01*
X180203011Y-111836548D01*
X180257083Y-111858946D01*
X180286347Y-111861828D01*
X180533201Y-111859569D01*
X180622813Y-111902680D01*
X180665136Y-111943170D01*
X180788639Y-112124451D01*
X180797390Y-112158179D01*
X180782131Y-112151858D01*
X180754536Y-112138583D01*
X180749160Y-112138201D01*
X180744182Y-112136139D01*
X180714918Y-112133257D01*
X180451658Y-112135665D01*
X180447966Y-112134435D01*
X180427537Y-112135886D01*
X180399940Y-112136139D01*
X180394961Y-112138201D01*
X180389586Y-112138583D01*
X180362123Y-112149093D01*
X180219585Y-112223098D01*
X180203012Y-112229964D01*
X180197239Y-112234701D01*
X180194380Y-112236186D01*
X180191785Y-112239177D01*
X180180281Y-112248619D01*
X180108383Y-112323769D01*
X180096419Y-112334146D01*
X180092500Y-112340371D01*
X180090197Y-112342779D01*
X180088681Y-112346438D01*
X180080754Y-112359032D01*
X180020847Y-112483556D01*
X180018769Y-112485635D01*
X180012087Y-112501766D01*
X179998816Y-112529352D01*
X179998434Y-112534726D01*
X179996371Y-112539707D01*
X179993489Y-112568971D01*
X179703969Y-112568971D01*
X179632212Y-112430766D01*
X179625353Y-112414206D01*
X179620619Y-112408438D01*
X179619133Y-112405575D01*
X179616137Y-112402977D01*
X179606698Y-112391475D01*
X179568329Y-112354767D01*
X179607171Y-112314167D01*
X179619132Y-112303795D01*
X179623049Y-112297571D01*
X179625354Y-112295163D01*
X179626870Y-112291501D01*
X179634797Y-112278910D01*
X179694703Y-112154384D01*
X179696781Y-112152307D01*
X179703459Y-112136184D01*
X179716735Y-112108589D01*
X179717116Y-112103213D01*
X179719179Y-112098235D01*
X179722061Y-112068971D01*
X179720579Y-112017214D01*
X179720883Y-112016304D01*
X179720331Y-112008540D01*
X179719179Y-111968278D01*
X179717116Y-111963299D01*
X179716735Y-111957924D01*
X179706225Y-111930461D01*
X179632216Y-111787918D01*
X179625353Y-111771349D01*
X179620617Y-111765578D01*
X179619132Y-111762718D01*
X179616140Y-111760123D01*
X179606698Y-111748618D01*
X179531551Y-111676725D01*
X179521172Y-111664758D01*
X179514943Y-111660837D01*
X179512538Y-111658536D01*
X179508881Y-111657021D01*
X179496286Y-111649093D01*
X179371761Y-111589186D01*
X179369683Y-111587108D01*
X179353551Y-111580426D01*
X179325966Y-111567155D01*
X179320591Y-111566773D01*
X179315611Y-111564710D01*
X179286347Y-111561828D01*
X179023086Y-111564236D01*
X179019394Y-111563006D01*
X178998970Y-111564457D01*
X178971369Y-111564710D01*
X178966388Y-111566773D01*
X178961014Y-111567155D01*
X178933550Y-111577664D01*
X178791006Y-111651674D01*
X178774441Y-111658536D01*
X178768670Y-111663271D01*
X178765808Y-111664758D01*
X178763211Y-111667751D01*
X178751711Y-111677190D01*
X178679813Y-111752339D01*
X178667848Y-111762717D01*
X178663929Y-111768942D01*
X178661627Y-111771349D01*
X178660111Y-111775007D01*
X178652183Y-111787603D01*
X178592276Y-111912127D01*
X178590198Y-111914206D01*
X178583516Y-111930337D01*
X178570245Y-111957923D01*
X178569863Y-111963297D01*
X178567800Y-111968278D01*
X178564918Y-111997542D01*
X178249769Y-111997542D01*
X178219180Y-111703124D01*
X178219180Y-111682564D01*
X178216328Y-111675680D01*
X178215538Y-111668071D01*
X178205173Y-111648749D01*
X178196782Y-111628492D01*
X178191441Y-111623151D01*
X178187871Y-111616496D01*
X178170903Y-111602613D01*
X178155398Y-111587108D01*
X178148418Y-111584216D01*
X178142574Y-111579435D01*
X178121585Y-111573101D01*
X178101326Y-111564710D01*
X178090114Y-111563605D01*
X178086542Y-111562528D01*
X178082884Y-111562893D01*
X178072062Y-111561828D01*
X177328512Y-111564710D01*
X177274440Y-111587108D01*
X177233056Y-111628492D01*
X177210658Y-111682564D01*
X177210658Y-111741092D01*
X177233056Y-111795164D01*
X177274440Y-111836548D01*
X177328512Y-111858946D01*
X177357776Y-111861828D01*
X177936606Y-111859584D01*
X177965570Y-112138351D01*
X177963447Y-112138201D01*
X177958469Y-112136139D01*
X177929205Y-112133257D01*
X177594772Y-112135751D01*
X177590824Y-112134435D01*
X177569661Y-112135938D01*
X177542798Y-112136139D01*
X177537819Y-112138201D01*
X177532444Y-112138583D01*
X177504981Y-112149093D01*
X177362443Y-112223098D01*
X177345870Y-112229964D01*
X177340097Y-112234701D01*
X177337238Y-112236186D01*
X177334643Y-112239177D01*
X177323139Y-112248619D01*
X177251241Y-112323769D01*
X177239277Y-112334146D01*
X177235358Y-112340371D01*
X177233055Y-112342779D01*
X177231539Y-112346438D01*
X177223612Y-112359032D01*
X177163705Y-112483556D01*
X177161627Y-112485635D01*
X177154945Y-112501766D01*
X177141674Y-112529352D01*
X177141292Y-112534726D01*
X177139229Y-112539707D01*
X177136347Y-112568971D01*
X175330712Y-112568971D01*
X175347887Y-112562398D01*
X175350419Y-112561742D01*
X175351289Y-112561097D01*
X175353430Y-112560278D01*
X175495976Y-112486266D01*
X175512539Y-112479406D01*
X175518308Y-112474671D01*
X175521173Y-112473184D01*
X175523770Y-112470189D01*
X175535270Y-112460752D01*
X175607171Y-112385598D01*
X175619133Y-112375224D01*
X175623050Y-112369000D01*
X175625354Y-112366593D01*
X175626869Y-112362933D01*
X175634798Y-112350339D01*
X175694704Y-112225813D01*
X175696782Y-112223736D01*
X175703460Y-112207613D01*
X175716736Y-112180018D01*
X175717117Y-112174642D01*
X175719180Y-112169664D01*
X175722062Y-112140400D01*
X175720027Y-112018874D01*
X175720884Y-112016304D01*
X175719706Y-111999734D01*
X175719180Y-111968278D01*
X175717117Y-111963299D01*
X175716736Y-111957924D01*
X175706226Y-111930461D01*
X175632217Y-111787918D01*
X175625354Y-111771349D01*
X175620618Y-111765578D01*
X175619133Y-111762718D01*
X175616141Y-111760123D01*
X175606699Y-111748618D01*
X175531552Y-111676725D01*
X175521173Y-111664758D01*
X175514944Y-111660837D01*
X175512539Y-111658536D01*
X175508882Y-111657021D01*
X175496287Y-111649093D01*
X175371762Y-111589186D01*
X175369684Y-111587108D01*
X175353552Y-111580426D01*
X175325967Y-111567155D01*
X175320592Y-111566773D01*
X175315612Y-111564710D01*
X175286348Y-111561828D01*
X174931145Y-111564477D01*
X174910444Y-111563006D01*
X174903052Y-111564686D01*
X174899941Y-111564710D01*
X174896279Y-111566226D01*
X174881770Y-111569526D01*
X174640634Y-111652943D01*
X174596419Y-111691291D01*
X174570246Y-111743638D01*
X174566097Y-111802018D01*
X174584605Y-111857542D01*
X174622953Y-111901757D01*
X174675300Y-111927930D01*
X174733680Y-111932079D01*
X174762353Y-111925559D01*
X174946965Y-111861695D01*
X175247252Y-111859455D01*
X175337100Y-111902680D01*
X175375766Y-111939671D01*
X175422603Y-112029881D01*
X175423820Y-112102579D01*
X175381209Y-112191153D01*
X175344221Y-112229815D01*
X175242883Y-112282431D01*
X174975347Y-112351850D01*
X174961015Y-112352869D01*
X174939091Y-112361257D01*
X174936563Y-112361914D01*
X174935693Y-112362558D01*
X174933551Y-112363378D01*
X174791008Y-112437387D01*
X174774442Y-112444250D01*
X174768671Y-112448985D01*
X174765809Y-112450472D01*
X174763212Y-112453466D01*
X174751711Y-112462905D01*
X174679813Y-112538055D01*
X174667849Y-112548432D01*
X174663930Y-112554657D01*
X174661627Y-112557065D01*
X174660111Y-112560724D01*
X174652184Y-112573318D01*
X174592277Y-112697842D01*
X174590199Y-112699921D01*
X174583521Y-112716043D01*
X174570246Y-112743638D01*
X174569864Y-112749012D01*
X174567801Y-112753993D01*
X174564919Y-112783257D01*
X174221255Y-112783257D01*
X174219181Y-111682564D01*
X174196783Y-111628492D01*
X174155399Y-111587108D01*
X174101327Y-111564710D01*
X174072063Y-111561828D01*
X173328513Y-111564710D01*
X173274441Y-111587108D01*
X173233057Y-111628492D01*
X173210659Y-111682564D01*
X172862038Y-111682564D01*
X172839640Y-111628492D01*
X172798256Y-111587108D01*
X172744184Y-111564710D01*
X172714920Y-111561828D01*
X172166610Y-111564458D01*
X172162252Y-111563006D01*
X172140016Y-111564586D01*
X172114227Y-111564710D01*
X172109246Y-111566773D01*
X172103872Y-111567155D01*
X172076408Y-111577664D01*
X171933864Y-111651674D01*
X171917299Y-111658536D01*
X171911528Y-111663271D01*
X171908666Y-111664758D01*
X171906069Y-111667751D01*
X171894569Y-111677190D01*
X171822671Y-111752339D01*
X171810706Y-111762717D01*
X171806787Y-111768942D01*
X171804485Y-111771349D01*
X171802969Y-111775007D01*
X171795041Y-111787603D01*
X171735134Y-111912128D01*
X171733057Y-111914206D01*
X171726378Y-111930328D01*
X171713103Y-111957924D01*
X171712721Y-111963299D01*
X171710659Y-111968278D01*
X171707777Y-111997542D01*
X171489574Y-111997542D01*
X171578028Y-111730588D01*
X171573878Y-111672208D01*
X171547704Y-111619861D01*
X171503490Y-111581514D01*
X171447966Y-111563005D01*
X171389586Y-111567155D01*
X171337238Y-111593328D01*
X171298891Y-111637543D01*
X171286903Y-111664394D01*
X170929855Y-112741959D01*
X170559519Y-111637543D01*
X170521172Y-111593329D01*
X170468825Y-111567155D01*
X170410444Y-111563006D01*
X170354920Y-111581514D01*
X170310706Y-111619861D01*
X170284532Y-111672208D01*
X170280383Y-111730589D01*
X169943555Y-111730589D01*
X169890691Y-111679026D01*
X169878317Y-111664758D01*
X169871961Y-111660757D01*
X169869684Y-111658536D01*
X169866024Y-111657020D01*
X169853431Y-111649093D01*
X169728903Y-111589184D01*
X169726827Y-111587108D01*
X169710709Y-111580431D01*
X169683110Y-111567154D01*
X169677732Y-111566771D01*
X169672755Y-111564710D01*
X169643491Y-111561828D01*
X169380230Y-111564236D01*
X169376538Y-111563006D01*
X169356114Y-111564457D01*
X169328513Y-111564710D01*
X169323532Y-111566773D01*
X169318158Y-111567155D01*
X169290694Y-111577664D01*
X169148154Y-111651672D01*
X169131584Y-111658536D01*
X169125812Y-111663272D01*
X169122952Y-111664758D01*
X169120356Y-111667750D01*
X169108854Y-111677191D01*
X168978853Y-111810472D01*
X168971279Y-111815017D01*
X168961349Y-111828417D01*
X168947342Y-111842779D01*
X168943074Y-111853082D01*
X168936435Y-111862043D01*
X168926542Y-111889734D01*
X168859672Y-112167701D01*
X168853516Y-112182564D01*
X168851727Y-112200729D01*
X168850811Y-112204537D01*
X168851136Y-112206724D01*
X168850634Y-112211828D01*
X167363035Y-112211828D01*
X167362038Y-111682564D01*
X167339640Y-111628492D01*
X167298256Y-111587108D01*
X167244184Y-111564710D01*
X167214920Y-111561828D01*
X166737938Y-111564425D01*
X166733681Y-111563006D01*
X166711699Y-111564568D01*
X166685656Y-111564710D01*
X166680675Y-111566773D01*
X166675301Y-111567155D01*
X166647837Y-111577664D01*
X166505293Y-111651674D01*
X166488728Y-111658536D01*
X166482957Y-111663271D01*
X166480095Y-111664758D01*
X166477498Y-111667751D01*
X166465998Y-111677190D01*
X166394100Y-111752339D01*
X166382135Y-111762717D01*
X166378216Y-111768942D01*
X166375914Y-111771349D01*
X166374398Y-111775007D01*
X166366470Y-111787603D01*
X166306563Y-111912127D01*
X166304485Y-111914206D01*
X166297803Y-111930337D01*
X166284532Y-111957923D01*
X166284150Y-111963297D01*
X166282087Y-111968278D01*
X166279205Y-111997542D01*
X166281239Y-112119068D01*
X166280383Y-112121639D01*
X166281560Y-112138203D01*
X166282087Y-112169664D01*
X166284150Y-112174644D01*
X166284532Y-112180019D01*
X166295041Y-112207482D01*
X166369052Y-112350027D01*
X166375914Y-112366593D01*
X166380648Y-112372361D01*
X166382135Y-112375225D01*
X166385129Y-112377821D01*
X166394569Y-112389324D01*
X166395779Y-112390481D01*
X166394568Y-112391476D01*
X166322670Y-112466626D01*
X166310706Y-112477003D01*
X166306787Y-112483228D01*
X166304484Y-112485636D01*
X166302968Y-112489295D01*
X166295041Y-112501889D01*
X166235134Y-112626414D01*
X166233057Y-112628492D01*
X166226378Y-112644614D01*
X166213103Y-112672210D01*
X166212721Y-112677585D01*
X166210659Y-112682564D01*
X166207777Y-112711828D01*
X165936348Y-112711828D01*
X165933676Y-112221296D01*
X165936171Y-112204537D01*
X165933486Y-112186387D01*
X165933466Y-112182564D01*
X165932618Y-112180519D01*
X165931869Y-112175448D01*
X165862038Y-111906324D01*
X165862038Y-111896851D01*
X165855457Y-111880963D01*
X165850548Y-111862043D01*
X165843909Y-111853083D01*
X165839641Y-111842778D01*
X165820986Y-111820048D01*
X165676405Y-111679026D01*
X165664031Y-111664758D01*
X165657675Y-111660757D01*
X165655398Y-111658536D01*
X165651738Y-111657020D01*
X165639145Y-111649093D01*
X165514617Y-111589184D01*
X165512541Y-111587108D01*
X165496423Y-111580431D01*
X165468824Y-111567154D01*
X165463446Y-111566771D01*
X165458469Y-111564710D01*
X165429205Y-111561828D01*
X165165944Y-111564236D01*
X165162252Y-111563006D01*
X165141828Y-111564457D01*
X165114227Y-111564710D01*
X165109246Y-111566773D01*
X165103872Y-111567155D01*
X165076408Y-111577664D01*
X164933868Y-111651672D01*
X164917298Y-111658536D01*
X164911526Y-111663272D01*
X164908666Y-111664758D01*
X164906070Y-111667750D01*
X164894568Y-111677191D01*
X164764567Y-111810472D01*
X164756993Y-111815017D01*
X164747063Y-111828417D01*
X164733056Y-111842779D01*
X164728788Y-111853082D01*
X164722149Y-111862043D01*
X164712256Y-111889734D01*
X164645386Y-112167701D01*
X164639230Y-112182564D01*
X164637441Y-112200729D01*
X164636525Y-112204537D01*
X164636850Y-112206724D01*
X164636348Y-112211828D01*
X164180661Y-112211828D01*
X164003184Y-111682558D01*
X164002449Y-111672208D01*
X163994145Y-111655600D01*
X163988090Y-111637543D01*
X163981067Y-111629446D01*
X163976275Y-111619861D01*
X163962066Y-111607537D01*
X163949743Y-111593329D01*
X163940157Y-111588536D01*
X163932061Y-111581514D01*
X163914217Y-111575565D01*
X163897396Y-111567155D01*
X163886707Y-111566395D01*
X163876537Y-111563005D01*
X163857771Y-111564338D01*
X163839015Y-111563006D01*
X163828847Y-111566395D01*
X163818157Y-111567155D01*
X163801333Y-111575566D01*
X163783491Y-111581514D01*
X163775396Y-111588534D01*
X163765809Y-111593328D01*
X163753483Y-111607539D01*
X163739277Y-111619861D01*
X163734484Y-111629445D01*
X163727462Y-111637543D01*
X163715474Y-111664394D01*
X163358131Y-112742850D01*
X163353516Y-112753993D01*
X163353516Y-112756780D01*
X163208954Y-113193067D01*
X163007742Y-113193067D01*
X163004895Y-111682564D01*
X162982497Y-111628492D01*
X162941113Y-111587108D01*
X162887041Y-111564710D01*
X162857777Y-111561828D01*
X162309467Y-111564458D01*
X162305109Y-111563006D01*
X162282873Y-111564586D01*
X162257084Y-111564710D01*
X162252103Y-111566773D01*
X162246729Y-111567155D01*
X162219265Y-111577664D01*
X162076721Y-111651674D01*
X162060156Y-111658536D01*
X162054385Y-111663271D01*
X162051523Y-111664758D01*
X162048926Y-111667751D01*
X162037426Y-111677190D01*
X161965528Y-111752339D01*
X161953563Y-111762717D01*
X161949644Y-111768942D01*
X161947342Y-111771349D01*
X161945826Y-111775007D01*
X161937898Y-111787603D01*
X161877991Y-111912128D01*
X161875914Y-111914206D01*
X161869235Y-111930328D01*
X161855960Y-111957924D01*
X161855578Y-111963299D01*
X161853516Y-111968278D01*
X161850634Y-111997542D01*
X161505489Y-111997542D01*
X161504895Y-111682564D01*
X161482497Y-111628492D01*
X161441113Y-111587108D01*
X161387041Y-111564710D01*
X161357777Y-111561828D01*
X161002574Y-111564477D01*
X160981873Y-111563006D01*
X160974481Y-111564686D01*
X160971370Y-111564710D01*
X160967708Y-111566226D01*
X160953199Y-111569526D01*
X160760639Y-111636139D01*
X160757085Y-111636139D01*
X160739076Y-111643598D01*
X160712063Y-111652943D01*
X160707993Y-111656472D01*
X160703012Y-111658536D01*
X160680282Y-111677191D01*
X160539260Y-111821771D01*
X160524992Y-111834146D01*
X160520991Y-111840501D01*
X160518770Y-111842779D01*
X160517254Y-111846438D01*
X160509327Y-111859032D01*
X160444184Y-111994439D01*
X160436434Y-112004900D01*
X160428590Y-112026854D01*
X160427389Y-112029352D01*
X160427312Y-112030432D01*
X160426541Y-112032591D01*
X160359672Y-112310559D01*
X160353516Y-112325421D01*
X160351727Y-112343586D01*
X160350811Y-112347394D01*
X160351136Y-112349581D01*
X160350634Y-112354685D01*
X158863304Y-112354685D01*
X158862096Y-111713720D01*
X158863181Y-111689052D01*
X158862044Y-111685926D01*
X158862038Y-111682564D01*
X158852077Y-111658518D01*
X158843180Y-111634050D01*
X158840920Y-111631582D01*
X158839640Y-111628492D01*
X158821242Y-111610094D01*
X158803653Y-111590887D01*
X158800619Y-111589471D01*
X158798256Y-111587108D01*
X158774225Y-111577154D01*
X158750616Y-111566136D01*
X158747271Y-111565989D01*
X158744184Y-111564710D01*
X158718160Y-111564710D01*
X158692145Y-111563567D01*
X158689002Y-111564710D01*
X158685656Y-111564710D01*
X158661603Y-111574673D01*
X158637143Y-111583568D01*
X158634675Y-111585827D01*
X158631584Y-111587108D01*
X158613175Y-111605516D01*
X158593980Y-111623095D01*
X158591630Y-111627061D01*
X158590200Y-111628492D01*
X158588844Y-111631764D01*
X158578993Y-111648395D01*
X158215636Y-112431874D01*
X157848957Y-111650984D01*
X157839640Y-111628492D01*
X157837293Y-111626145D01*
X157835861Y-111623095D01*
X157816653Y-111605505D01*
X157798256Y-111587108D01*
X157795165Y-111585827D01*
X157792698Y-111583568D01*
X157768232Y-111574671D01*
X157744184Y-111564710D01*
X157740838Y-111564710D01*
X157737695Y-111563567D01*
X157711691Y-111564710D01*
X157685656Y-111564710D01*
X157682565Y-111565990D01*
X157679225Y-111566137D01*
X157655629Y-111577147D01*
X157631584Y-111587108D01*
X157629220Y-111589471D01*
X157626187Y-111590887D01*
X157608597Y-111610094D01*
X157590200Y-111628492D01*
X157588919Y-111631582D01*
X157586660Y-111634050D01*
X157577763Y-111658515D01*
X157567802Y-111682564D01*
X157567350Y-111687152D01*
X157566659Y-111689053D01*
X157566814Y-111692591D01*
X157564920Y-111711828D01*
X157147807Y-111711828D01*
X157147752Y-111682564D01*
X157125354Y-111628492D01*
X157083970Y-111587108D01*
X157029898Y-111564710D01*
X156971370Y-111564710D01*
X156917298Y-111587108D01*
X156875914Y-111628492D01*
X156853516Y-111682564D01*
X156850634Y-111711828D01*
X156434650Y-111711828D01*
X156435982Y-111701350D01*
X156433484Y-111692191D01*
X156433466Y-111682564D01*
X156425830Y-111664131D01*
X156420582Y-111644887D01*
X156414727Y-111637327D01*
X156411068Y-111628492D01*
X156396960Y-111614384D01*
X156384747Y-111598613D01*
X156376444Y-111593868D01*
X156369684Y-111587108D01*
X156351253Y-111579473D01*
X156333931Y-111569575D01*
X156324445Y-111568369D01*
X156315612Y-111564710D01*
X156295662Y-111564710D01*
X156275871Y-111562194D01*
X156266646Y-111564710D01*
X156257084Y-111564710D01*
X156238655Y-111572343D01*
X156219407Y-111577593D01*
X156211845Y-111583449D01*
X156203012Y-111587108D01*
X156188906Y-111601213D01*
X156173133Y-111613429D01*
X156164427Y-111625692D01*
X156161628Y-111628492D01*
X156160489Y-111631239D01*
X156156112Y-111637407D01*
X155578151Y-112652700D01*
X155576323Y-111682564D01*
X155553925Y-111628492D01*
X155512541Y-111587108D01*
X155458469Y-111564710D01*
X155399941Y-111564710D01*
X155345869Y-111587108D01*
X155304485Y-111628492D01*
X155282087Y-111682564D01*
X155279205Y-111711828D01*
X154862092Y-111711828D01*
X154862037Y-111682564D01*
X154839639Y-111628492D01*
X154798255Y-111587108D01*
X154744183Y-111564710D01*
X154685655Y-111564710D01*
X154631583Y-111587108D01*
X154590199Y-111628492D01*
X154567801Y-111682564D01*
X154564919Y-111711828D01*
X152290749Y-111711828D01*
X152291751Y-111689052D01*
X152290614Y-111685926D01*
X152290608Y-111682564D01*
X152280647Y-111658518D01*
X152271750Y-111634050D01*
X152269490Y-111631582D01*
X152268210Y-111628492D01*
X152249812Y-111610094D01*
X152232223Y-111590887D01*
X152229189Y-111589471D01*
X152226826Y-111587108D01*
X152202795Y-111577154D01*
X152179186Y-111566136D01*
X152175841Y-111565989D01*
X152172754Y-111564710D01*
X152146730Y-111564710D01*
X152120715Y-111563567D01*
X152117572Y-111564710D01*
X152114226Y-111564710D01*
X152090173Y-111574673D01*
X152065713Y-111583568D01*
X152063245Y-111585827D01*
X152060154Y-111587108D01*
X152041745Y-111605516D01*
X152022550Y-111623095D01*
X152020200Y-111627061D01*
X152018770Y-111628492D01*
X152017414Y-111631764D01*
X152007563Y-111648395D01*
X151644206Y-112431874D01*
X151277527Y-111650984D01*
X151268210Y-111628492D01*
X151265863Y-111626145D01*
X151264431Y-111623095D01*
X151245223Y-111605505D01*
X151226826Y-111587108D01*
X151223735Y-111585827D01*
X151221268Y-111583568D01*
X151196802Y-111574671D01*
X151172754Y-111564710D01*
X151169408Y-111564710D01*
X151166265Y-111563567D01*
X151140261Y-111564710D01*
X151114226Y-111564710D01*
X151111135Y-111565990D01*
X151107795Y-111566137D01*
X151084199Y-111577147D01*
X151060154Y-111587108D01*
X151057790Y-111589471D01*
X151054757Y-111590887D01*
X151037167Y-111610094D01*
X151018770Y-111628492D01*
X151017489Y-111631582D01*
X151015230Y-111634050D01*
X151006333Y-111658515D01*
X150996372Y-111682564D01*
X150995920Y-111687152D01*
X150995229Y-111689053D01*
X150995384Y-111692591D01*
X150993490Y-111711828D01*
X150576377Y-111711828D01*
X150576322Y-111682564D01*
X150553924Y-111628492D01*
X150512540Y-111587108D01*
X150458468Y-111564710D01*
X150429204Y-111561828D01*
X149685654Y-111564710D01*
X149631582Y-111587108D01*
X149590198Y-111628492D01*
X149567800Y-111682564D01*
X148288898Y-111682564D01*
X148288162Y-111672208D01*
X148261988Y-111619861D01*
X148217774Y-111581514D01*
X148162250Y-111563005D01*
X148103870Y-111567155D01*
X148051522Y-111593328D01*
X148013175Y-111637543D01*
X148001187Y-111664394D01*
X147644139Y-112741959D01*
X147273803Y-111637543D01*
X147235456Y-111593329D01*
X147183109Y-111567155D01*
X147124728Y-111563006D01*
X147069204Y-111581514D01*
X147024990Y-111619861D01*
X146998816Y-111672208D01*
X146994667Y-111730589D01*
X146477490Y-111730589D01*
X146415926Y-111640224D01*
X146411067Y-111628492D01*
X146401236Y-111618661D01*
X146392524Y-111605873D01*
X146380184Y-111597609D01*
X146369683Y-111587108D01*
X146356105Y-111581483D01*
X146343894Y-111573306D01*
X146329331Y-111570393D01*
X146315611Y-111564710D01*
X146300915Y-111564710D01*
X146286505Y-111561828D01*
X146271936Y-111564710D01*
X146257083Y-111564710D01*
X146243504Y-111570334D01*
X146229090Y-111573186D01*
X146216732Y-111581424D01*
X146203011Y-111587108D01*
X146192619Y-111597499D01*
X146180392Y-111605651D01*
X146172128Y-111617990D01*
X146161627Y-111628492D01*
X146156002Y-111642069D01*
X146147825Y-111654281D01*
X146144912Y-111668843D01*
X146139229Y-111682564D01*
X146136377Y-111711516D01*
X146136347Y-111711670D01*
X146136357Y-111711722D01*
X146136347Y-111711828D01*
X146138894Y-113063700D01*
X145828511Y-113064710D01*
X145774439Y-113087108D01*
X145733055Y-113128492D01*
X145710657Y-113182564D01*
X145543990Y-113182564D01*
X145543990Y-111395161D01*
X186960156Y-111395161D01*
X186960156Y-113528495D01*
G37*
G36*
X171813329Y-155896316D02*
G01*
X172119608Y-156077402D01*
X172302262Y-156377410D01*
X172365265Y-156680852D01*
X172307143Y-156982952D01*
X172126057Y-157289233D01*
X171826049Y-157471887D01*
X171522607Y-157534890D01*
X171220506Y-157476768D01*
X170914226Y-157295682D01*
X170731572Y-156995674D01*
X170668569Y-156692232D01*
X170726691Y-156390130D01*
X170815921Y-156239210D01*
X171082381Y-156239210D01*
X171086530Y-156297590D01*
X171112704Y-156349939D01*
X171156919Y-156388286D01*
X171212442Y-156406793D01*
X171270822Y-156402644D01*
X171298285Y-156392135D01*
X171405918Y-156336250D01*
X171620914Y-156334283D01*
X171710001Y-156377141D01*
X171819805Y-156484243D01*
X171867208Y-156575542D01*
X171869175Y-156790540D01*
X171826318Y-156879626D01*
X171719218Y-156989428D01*
X171627915Y-157036833D01*
X171412919Y-157038800D01*
X171270821Y-156970440D01*
X171212441Y-156966292D01*
X171156919Y-156984800D01*
X171112704Y-157023147D01*
X171086529Y-157075496D01*
X171082381Y-157133876D01*
X171100889Y-157189398D01*
X171139236Y-157233613D01*
X171164121Y-157249278D01*
X171288646Y-157309184D01*
X171290724Y-157311262D01*
X171306846Y-157317940D01*
X171334442Y-157331216D01*
X171339817Y-157331597D01*
X171344796Y-157333660D01*
X171374060Y-157336542D01*
X171637319Y-157334133D01*
X171641012Y-157335364D01*
X171661440Y-157333912D01*
X171689038Y-157333660D01*
X171694016Y-157331597D01*
X171699392Y-157331216D01*
X171726855Y-157320706D01*
X171869392Y-157246700D01*
X171885967Y-157239835D01*
X171891739Y-157235097D01*
X171894599Y-157233613D01*
X171897193Y-157230621D01*
X171908698Y-157221180D01*
X172049729Y-157076589D01*
X172063988Y-157064224D01*
X172067985Y-157057873D01*
X172070210Y-157055593D01*
X172071727Y-157051929D01*
X172079653Y-157039339D01*
X172139559Y-156914813D01*
X172141637Y-156912736D01*
X172148315Y-156896613D01*
X172161591Y-156869018D01*
X172161972Y-156863642D01*
X172164035Y-156858664D01*
X172166917Y-156829400D01*
X172164508Y-156566139D01*
X172165739Y-156562447D01*
X172164287Y-156542018D01*
X172164035Y-156514421D01*
X172161972Y-156509442D01*
X172161591Y-156504067D01*
X172151081Y-156476604D01*
X172077076Y-156334069D01*
X172070210Y-156317492D01*
X172065471Y-156311718D01*
X172063988Y-156308861D01*
X172060998Y-156306268D01*
X172051555Y-156294762D01*
X171906974Y-156153740D01*
X171894600Y-156139472D01*
X171888244Y-156135471D01*
X171885967Y-156133250D01*
X171882307Y-156131734D01*
X171869714Y-156123807D01*
X171745186Y-156063898D01*
X171743110Y-156061822D01*
X171726992Y-156055145D01*
X171699393Y-156041868D01*
X171694015Y-156041485D01*
X171689038Y-156039424D01*
X171659774Y-156036542D01*
X171396513Y-156038950D01*
X171392821Y-156037720D01*
X171372397Y-156039171D01*
X171344796Y-156039424D01*
X171339815Y-156041487D01*
X171334441Y-156041869D01*
X171306977Y-156052378D01*
X171139235Y-156139472D01*
X171100888Y-156183687D01*
X171082381Y-156239210D01*
X170815921Y-156239210D01*
X170907776Y-156083851D01*
X171207784Y-155901197D01*
X171511226Y-155838194D01*
X171813329Y-155896316D01*
G37*
G36*
X163853384Y-156591680D02*
G01*
X163892050Y-156628671D01*
X163938545Y-156718222D01*
X163940796Y-157075855D01*
X163897493Y-157165867D01*
X163860502Y-157204532D01*
X163770606Y-157251206D01*
X163626834Y-157252908D01*
X163537592Y-157209975D01*
X163498930Y-157172987D01*
X163452432Y-157083432D01*
X163450181Y-156725800D01*
X163493483Y-156635789D01*
X163530475Y-156597124D01*
X163620373Y-156550449D01*
X163764143Y-156548747D01*
X163853384Y-156591680D01*
G37*
G36*
X168262116Y-156582135D02*
G01*
X168295639Y-156646702D01*
X168295984Y-156718664D01*
X167886448Y-156638375D01*
X167912510Y-156584199D01*
X167977346Y-156550536D01*
X168192343Y-156548569D01*
X168262116Y-156582135D01*
G37*
G36*
X169726606Y-157251927D02*
G01*
X169547941Y-157253260D01*
X169386167Y-157201359D01*
X169285458Y-157103127D01*
X169232027Y-157000220D01*
X169166809Y-156748873D01*
X169164700Y-156570660D01*
X169225060Y-156319749D01*
X169278943Y-156207746D01*
X169379906Y-156104236D01*
X169534677Y-156050695D01*
X169724339Y-156049280D01*
X169726606Y-157251927D01*
G37*
G36*
X172833584Y-158003209D02*
G01*
X158414536Y-158003209D01*
X158414536Y-157115114D01*
X158581203Y-157115114D01*
X158582684Y-157166869D01*
X158582381Y-157167780D01*
X158582932Y-157175543D01*
X158584085Y-157215806D01*
X158586146Y-157220783D01*
X158586529Y-157226161D01*
X158597039Y-157253624D01*
X158667595Y-157389515D01*
X158672318Y-157403684D01*
X158678879Y-157411249D01*
X158684133Y-157421368D01*
X158698344Y-157433692D01*
X158710665Y-157447899D01*
X158725472Y-157457220D01*
X158728348Y-157459714D01*
X158730656Y-157460483D01*
X158735550Y-157463564D01*
X158860075Y-157523470D01*
X158862153Y-157525548D01*
X158878275Y-157532226D01*
X158905871Y-157545502D01*
X158911246Y-157545883D01*
X158916225Y-157547946D01*
X158945489Y-157550828D01*
X159208748Y-157548419D01*
X159212441Y-157549650D01*
X159232869Y-157548198D01*
X159260467Y-157547946D01*
X159265445Y-157545883D01*
X159270821Y-157545502D01*
X159298285Y-157534992D01*
X159466028Y-157447899D01*
X159504374Y-157403684D01*
X159522882Y-157348162D01*
X159518734Y-157289782D01*
X159492560Y-157237433D01*
X159448345Y-157199086D01*
X159392822Y-157180578D01*
X159334442Y-157184726D01*
X159306979Y-157195236D01*
X159199346Y-157251119D01*
X158984348Y-157253086D01*
X158914574Y-157219520D01*
X158880254Y-157153419D01*
X158880196Y-157151371D01*
X158912511Y-157084200D01*
X158977516Y-157050449D01*
X159137722Y-157048553D01*
X159141013Y-157049650D01*
X159160191Y-157048287D01*
X159189039Y-157047946D01*
X159194017Y-157045883D01*
X159199393Y-157045502D01*
X159226857Y-157034992D01*
X159362746Y-156964437D01*
X159376917Y-156959714D01*
X159384483Y-156953151D01*
X159394600Y-156947899D01*
X159406921Y-156933691D01*
X159421132Y-156921367D01*
X159430452Y-156906559D01*
X159432946Y-156903684D01*
X159433715Y-156901374D01*
X159436796Y-156896481D01*
X159496702Y-156771955D01*
X159498780Y-156769878D01*
X159505458Y-156753755D01*
X159518734Y-156726160D01*
X159519115Y-156720784D01*
X159521178Y-156715806D01*
X159524060Y-156686542D01*
X159522578Y-156634786D01*
X159522882Y-156633876D01*
X159522330Y-156626112D01*
X159521178Y-156585850D01*
X159519115Y-156580871D01*
X159518734Y-156575496D01*
X159508224Y-156548033D01*
X159459140Y-156453496D01*
X159796667Y-156453496D01*
X159800816Y-156511876D01*
X159826990Y-156564225D01*
X159871205Y-156602572D01*
X159926728Y-156621079D01*
X159985108Y-156616930D01*
X160012571Y-156606421D01*
X160120204Y-156550536D01*
X160335200Y-156548569D01*
X160424812Y-156591680D01*
X160463478Y-156628671D01*
X160509973Y-156718222D01*
X160512224Y-157075855D01*
X160468921Y-157165867D01*
X160431930Y-157204532D01*
X160342203Y-157251119D01*
X160127205Y-157253086D01*
X159985107Y-157184726D01*
X159926727Y-157180578D01*
X159871205Y-157199086D01*
X159826990Y-157237433D01*
X159800815Y-157289782D01*
X159796667Y-157348162D01*
X159815175Y-157403684D01*
X159853522Y-157447899D01*
X159878407Y-157463564D01*
X160002932Y-157523470D01*
X160005010Y-157525548D01*
X160021132Y-157532226D01*
X160048728Y-157545502D01*
X160054103Y-157545883D01*
X160059082Y-157547946D01*
X160088346Y-157550828D01*
X160351605Y-157548419D01*
X160355298Y-157549650D01*
X160375726Y-157548198D01*
X160403324Y-157547946D01*
X160408302Y-157545883D01*
X160413678Y-157545502D01*
X160441142Y-157534992D01*
X160583683Y-157460983D01*
X160600252Y-157454121D01*
X160606022Y-157449385D01*
X160608885Y-157447899D01*
X160611481Y-157444905D01*
X160622983Y-157435466D01*
X160694884Y-157360310D01*
X160706845Y-157349938D01*
X160710762Y-157343714D01*
X160713067Y-157341306D01*
X160714583Y-157337644D01*
X160722510Y-157325053D01*
X160782416Y-157200527D01*
X160784494Y-157198450D01*
X160791173Y-157182326D01*
X160804448Y-157154732D01*
X160804829Y-157149356D01*
X160806892Y-157144378D01*
X160809774Y-157115114D01*
X160807220Y-156709431D01*
X160808596Y-156705304D01*
X160807058Y-156683658D01*
X160806892Y-156657278D01*
X160804829Y-156652299D01*
X160804448Y-156646924D01*
X160793938Y-156619461D01*
X160719929Y-156476918D01*
X160713066Y-156460349D01*
X160708330Y-156454578D01*
X160706845Y-156451718D01*
X160703853Y-156449123D01*
X160694411Y-156437618D01*
X160655956Y-156400828D01*
X161152632Y-156400828D01*
X161155514Y-157430092D01*
X161177912Y-157484164D01*
X161219296Y-157525548D01*
X161273368Y-157547946D01*
X161331896Y-157547946D01*
X161385968Y-157525548D01*
X161427352Y-157484164D01*
X161449750Y-157430092D01*
X161452632Y-157400828D01*
X161450432Y-156615114D01*
X161866918Y-156615114D01*
X161869800Y-157430092D01*
X161892198Y-157484164D01*
X161933582Y-157525548D01*
X161987654Y-157547946D01*
X162046182Y-157547946D01*
X162100254Y-157525548D01*
X162141638Y-157484164D01*
X162164036Y-157430092D01*
X162166918Y-157400828D01*
X162164279Y-156654762D01*
X162198225Y-156584199D01*
X162263230Y-156550449D01*
X162407000Y-156548747D01*
X162496241Y-156591680D01*
X162510347Y-156605174D01*
X162512657Y-157430092D01*
X162535055Y-157484164D01*
X162576439Y-157525548D01*
X162630511Y-157547946D01*
X162689039Y-157547946D01*
X162743111Y-157525548D01*
X162784495Y-157484164D01*
X162806893Y-157430092D01*
X162809775Y-157400828D01*
X162807775Y-156686542D01*
X163152632Y-156686542D01*
X163155185Y-157092225D01*
X163153810Y-157096353D01*
X163155347Y-157117992D01*
X163155514Y-157144378D01*
X163157577Y-157149358D01*
X163157959Y-157154733D01*
X163168468Y-157182196D01*
X163242479Y-157324742D01*
X163249340Y-157341305D01*
X163254074Y-157347074D01*
X163255562Y-157349939D01*
X163258556Y-157352536D01*
X163267994Y-157364036D01*
X163343147Y-157435937D01*
X163353522Y-157447899D01*
X163359745Y-157451816D01*
X163362153Y-157454120D01*
X163365812Y-157455635D01*
X163378407Y-157463564D01*
X163502932Y-157523470D01*
X163505010Y-157525548D01*
X163521132Y-157532226D01*
X163548728Y-157545502D01*
X163554103Y-157545883D01*
X163559082Y-157547946D01*
X163588346Y-157550828D01*
X163780579Y-157548553D01*
X163783870Y-157549650D01*
X163803048Y-157548287D01*
X163831896Y-157547946D01*
X163836874Y-157545883D01*
X163842250Y-157545502D01*
X163869714Y-157534992D01*
X164012255Y-157460983D01*
X164028824Y-157454121D01*
X164034594Y-157449385D01*
X164037457Y-157447899D01*
X164040053Y-157444905D01*
X164051555Y-157435466D01*
X164123456Y-157360310D01*
X164135417Y-157349938D01*
X164139334Y-157343714D01*
X164141639Y-157341306D01*
X164143155Y-157337644D01*
X164151082Y-157325053D01*
X164210988Y-157200527D01*
X164213066Y-157198450D01*
X164219745Y-157182326D01*
X164233020Y-157154732D01*
X164233401Y-157149356D01*
X164235464Y-157144378D01*
X164238346Y-157115114D01*
X164235792Y-156709431D01*
X164237168Y-156705304D01*
X164235630Y-156683658D01*
X164235464Y-156657278D01*
X164233401Y-156652299D01*
X164233020Y-156646924D01*
X164222510Y-156619461D01*
X164148501Y-156476918D01*
X164141638Y-156460349D01*
X164136902Y-156454578D01*
X164135417Y-156451718D01*
X164132425Y-156449123D01*
X164122983Y-156437618D01*
X164053939Y-156371564D01*
X164369799Y-156371564D01*
X164369799Y-156430092D01*
X164392197Y-156484164D01*
X164433581Y-156525548D01*
X164487653Y-156547946D01*
X164516917Y-156550828D01*
X164621953Y-156549069D01*
X164710528Y-156591681D01*
X164749192Y-156628671D01*
X164796381Y-156719557D01*
X164798371Y-157430092D01*
X164820769Y-157484164D01*
X164862153Y-157525548D01*
X164916225Y-157547946D01*
X164974753Y-157547946D01*
X165028825Y-157525548D01*
X165070209Y-157484164D01*
X165092607Y-157430092D01*
X165095489Y-157400828D01*
X165093547Y-156707592D01*
X165094311Y-156705303D01*
X165093509Y-156694031D01*
X165092607Y-156371564D01*
X165298371Y-156371564D01*
X165298371Y-156430092D01*
X165320769Y-156484164D01*
X165362153Y-156525548D01*
X165416225Y-156547946D01*
X165445489Y-156550828D01*
X165654054Y-156549827D01*
X165655362Y-157146701D01*
X165621322Y-157217457D01*
X165556007Y-157251369D01*
X165416225Y-157253710D01*
X165362153Y-157276108D01*
X165320769Y-157317492D01*
X165298371Y-157371564D01*
X165298371Y-157430092D01*
X165320769Y-157484164D01*
X165362153Y-157525548D01*
X165416225Y-157547946D01*
X165445489Y-157550828D01*
X165567013Y-157548793D01*
X165569584Y-157549650D01*
X165586153Y-157548472D01*
X165617610Y-157547946D01*
X165622588Y-157545883D01*
X165627964Y-157545502D01*
X165655428Y-157534992D01*
X165791318Y-157464437D01*
X165805487Y-157459714D01*
X165813052Y-157453152D01*
X165823171Y-157447899D01*
X165835493Y-157433690D01*
X165849702Y-157421368D01*
X165859024Y-157406558D01*
X165861517Y-157403684D01*
X165862286Y-157401376D01*
X165865367Y-157396482D01*
X165925275Y-157271954D01*
X165927352Y-157269878D01*
X165934028Y-157253760D01*
X165947306Y-157226161D01*
X165947688Y-157220783D01*
X165949750Y-157215806D01*
X165952632Y-157186542D01*
X165951233Y-156548401D01*
X166046181Y-156547946D01*
X166100253Y-156525548D01*
X166141637Y-156484164D01*
X166154340Y-156453496D01*
X166296667Y-156453496D01*
X166300816Y-156511876D01*
X166326990Y-156564225D01*
X166371205Y-156602572D01*
X166426728Y-156621079D01*
X166485108Y-156616930D01*
X166512571Y-156606421D01*
X166620204Y-156550536D01*
X166835200Y-156548569D01*
X166924812Y-156591680D01*
X166963478Y-156628671D01*
X167009973Y-156718222D01*
X167012224Y-157075855D01*
X166968921Y-157165867D01*
X166931930Y-157204532D01*
X166842203Y-157251119D01*
X166627205Y-157253086D01*
X166485107Y-157184726D01*
X166426727Y-157180578D01*
X166371205Y-157199086D01*
X166326990Y-157237433D01*
X166300815Y-157289782D01*
X166296667Y-157348162D01*
X166315175Y-157403684D01*
X166353522Y-157447899D01*
X166378407Y-157463564D01*
X166502932Y-157523470D01*
X166505010Y-157525548D01*
X166521132Y-157532226D01*
X166548728Y-157545502D01*
X166554103Y-157545883D01*
X166559082Y-157547946D01*
X166588346Y-157550828D01*
X166851605Y-157548419D01*
X166855298Y-157549650D01*
X166875726Y-157548198D01*
X166903324Y-157547946D01*
X166908302Y-157545883D01*
X166913678Y-157545502D01*
X166941142Y-157534992D01*
X167083683Y-157460983D01*
X167100252Y-157454121D01*
X167106022Y-157449385D01*
X167108885Y-157447899D01*
X167111481Y-157444905D01*
X167122983Y-157435466D01*
X167194884Y-157360310D01*
X167206845Y-157349938D01*
X167210762Y-157343714D01*
X167213067Y-157341306D01*
X167214583Y-157337644D01*
X167222510Y-157325053D01*
X167282416Y-157200527D01*
X167284494Y-157198450D01*
X167291173Y-157182326D01*
X167304448Y-157154732D01*
X167304829Y-157149356D01*
X167306892Y-157144378D01*
X167309774Y-157115114D01*
X167307220Y-156709431D01*
X167308596Y-156705304D01*
X167307058Y-156683658D01*
X167306892Y-156657278D01*
X167304829Y-156652299D01*
X167304448Y-156646924D01*
X167293938Y-156619461D01*
X167291681Y-156615114D01*
X167581203Y-156615114D01*
X167583407Y-156746789D01*
X167581203Y-156757814D01*
X167583813Y-156771009D01*
X167584085Y-156787235D01*
X167589709Y-156800812D01*
X167592561Y-156815229D01*
X167600799Y-156827586D01*
X167606483Y-156841307D01*
X167616875Y-156851699D01*
X167625026Y-156863925D01*
X167637364Y-156872188D01*
X167647867Y-156882691D01*
X167661443Y-156888314D01*
X167673655Y-156896493D01*
X167701786Y-156905058D01*
X167701934Y-156905087D01*
X167701939Y-156905089D01*
X167701944Y-156905089D01*
X168297439Y-157021834D01*
X168298040Y-157147072D01*
X168264179Y-157217457D01*
X168199346Y-157251119D01*
X167984347Y-157253086D01*
X167842249Y-157184726D01*
X167783869Y-157180578D01*
X167728347Y-157199086D01*
X167684132Y-157237433D01*
X167657957Y-157289782D01*
X167653809Y-157348162D01*
X167672317Y-157403684D01*
X167710664Y-157447899D01*
X167735549Y-157463564D01*
X167860074Y-157523470D01*
X167862152Y-157525548D01*
X167878274Y-157532226D01*
X167905870Y-157545502D01*
X167911245Y-157545883D01*
X167916224Y-157547946D01*
X167945488Y-157550828D01*
X168208748Y-157548419D01*
X168212441Y-157549650D01*
X168232869Y-157548198D01*
X168260467Y-157547946D01*
X168265445Y-157545883D01*
X168270821Y-157545502D01*
X168298285Y-157534992D01*
X168434174Y-157464437D01*
X168448345Y-157459714D01*
X168455911Y-157453151D01*
X168466028Y-157447899D01*
X168478349Y-157433691D01*
X168492560Y-157421367D01*
X168501880Y-157406559D01*
X168504374Y-157403684D01*
X168505143Y-157401374D01*
X168508224Y-157396481D01*
X168568130Y-157271955D01*
X168570208Y-157269878D01*
X168576886Y-157253755D01*
X168590162Y-157226160D01*
X168590543Y-157220784D01*
X168592606Y-157215806D01*
X168595488Y-157186542D01*
X168594150Y-156907679D01*
X168595489Y-156900985D01*
X168594083Y-156893882D01*
X168592857Y-156638233D01*
X168594310Y-156633876D01*
X168592729Y-156611634D01*
X168592606Y-156585850D01*
X168590543Y-156580871D01*
X168590162Y-156575496D01*
X168579652Y-156548033D01*
X168577394Y-156543685D01*
X168866917Y-156543685D01*
X168869358Y-156750042D01*
X168867094Y-156765262D01*
X168869751Y-156783232D01*
X168869799Y-156787235D01*
X168870646Y-156789279D01*
X168871396Y-156794351D01*
X168942653Y-157068971D01*
X168943672Y-157083304D01*
X168952060Y-157105224D01*
X168952717Y-157107756D01*
X168953361Y-157108626D01*
X168954181Y-157110767D01*
X169028191Y-157253310D01*
X169035053Y-157269877D01*
X169039788Y-157275647D01*
X169041275Y-157278510D01*
X169044268Y-157281106D01*
X169053708Y-157292608D01*
X169182625Y-157418353D01*
X169184132Y-157421367D01*
X169198417Y-157433757D01*
X169219295Y-157454121D01*
X169224274Y-157456183D01*
X169228346Y-157459715D01*
X169255197Y-157471703D01*
X169469826Y-157540561D01*
X169487653Y-157547946D01*
X169495141Y-157548683D01*
X169498157Y-157549651D01*
X169502111Y-157549369D01*
X169516917Y-157550828D01*
X169903324Y-157547946D01*
X169957396Y-157525548D01*
X169998780Y-157484164D01*
X170021178Y-157430092D01*
X170024060Y-157400828D01*
X170022714Y-156686385D01*
X170366917Y-156686385D01*
X170366948Y-156686542D01*
X170366917Y-156686699D01*
X170369830Y-156715960D01*
X170443990Y-157073137D01*
X170447137Y-157094283D01*
X170449352Y-157098961D01*
X170449824Y-157101233D01*
X170451886Y-157104312D01*
X170459722Y-157120859D01*
X170665485Y-157458825D01*
X170667004Y-157464898D01*
X170679224Y-157481391D01*
X170691536Y-157501613D01*
X170697458Y-157506001D01*
X170701847Y-157511924D01*
X170725457Y-157529452D01*
X171084100Y-157741497D01*
X171102226Y-157753636D01*
X171107185Y-157755145D01*
X171109176Y-157756323D01*
X171112843Y-157756868D01*
X171130357Y-157762201D01*
X171516761Y-157836542D01*
X171516917Y-157836511D01*
X171517073Y-157836542D01*
X171546334Y-157833629D01*
X171903511Y-157759469D01*
X171924658Y-157756323D01*
X171929336Y-157754107D01*
X171931608Y-157753636D01*
X171934687Y-157751573D01*
X171951234Y-157743738D01*
X172289200Y-157537974D01*
X172295273Y-157536456D01*
X172311766Y-157524235D01*
X172331988Y-157511924D01*
X172336376Y-157506001D01*
X172342299Y-157501613D01*
X172359827Y-157478002D01*
X172571872Y-157119358D01*
X172584011Y-157101233D01*
X172585520Y-157096273D01*
X172586698Y-157094283D01*
X172587243Y-157090615D01*
X172592576Y-157073102D01*
X172666917Y-156686698D01*
X172666886Y-156686541D01*
X172666917Y-156686386D01*
X172664004Y-156657125D01*
X172589844Y-156299948D01*
X172586698Y-156278802D01*
X172584482Y-156274123D01*
X172584011Y-156271852D01*
X172581948Y-156268772D01*
X172574113Y-156252226D01*
X172368349Y-155914259D01*
X172366831Y-155908187D01*
X172354610Y-155891693D01*
X172342299Y-155871472D01*
X172336376Y-155867083D01*
X172331988Y-155861161D01*
X172308378Y-155843633D01*
X171949728Y-155631584D01*
X171931608Y-155619449D01*
X171926648Y-155617939D01*
X171924658Y-155616762D01*
X171920991Y-155616216D01*
X171903478Y-155610884D01*
X171517074Y-155536542D01*
X171516917Y-155536573D01*
X171516760Y-155536542D01*
X171487500Y-155539455D01*
X171130321Y-155613615D01*
X171109176Y-155616762D01*
X171104497Y-155618977D01*
X171102226Y-155619449D01*
X171099147Y-155621510D01*
X171082599Y-155629347D01*
X170744633Y-155835110D01*
X170738562Y-155836629D01*
X170722068Y-155848849D01*
X170701847Y-155861161D01*
X170697458Y-155867083D01*
X170691536Y-155871472D01*
X170674008Y-155895082D01*
X170461961Y-156253728D01*
X170449824Y-156271852D01*
X170448314Y-156276811D01*
X170447137Y-156278802D01*
X170446591Y-156282468D01*
X170441259Y-156299982D01*
X170366917Y-156686385D01*
X170022714Y-156686385D01*
X170021178Y-155871564D01*
X169998780Y-155817492D01*
X169957396Y-155776108D01*
X169903324Y-155753710D01*
X169874060Y-155750828D01*
X169518857Y-155753477D01*
X169498156Y-155752006D01*
X169490764Y-155753686D01*
X169487653Y-155753710D01*
X169483991Y-155755226D01*
X169469482Y-155758526D01*
X169276922Y-155825139D01*
X169273368Y-155825139D01*
X169255359Y-155832598D01*
X169228346Y-155841943D01*
X169224276Y-155845472D01*
X169219295Y-155847536D01*
X169196565Y-155866191D01*
X169055543Y-156010771D01*
X169041275Y-156023146D01*
X169037274Y-156029501D01*
X169035053Y-156031779D01*
X169033537Y-156035438D01*
X169025610Y-156048032D01*
X168960467Y-156183439D01*
X168952717Y-156193900D01*
X168944873Y-156215854D01*
X168943672Y-156218352D01*
X168943595Y-156219432D01*
X168942824Y-156221591D01*
X168875955Y-156499559D01*
X168869799Y-156514421D01*
X168868010Y-156532586D01*
X168867094Y-156536394D01*
X168867419Y-156538581D01*
X168866917Y-156543685D01*
X168577394Y-156543685D01*
X168509097Y-156412143D01*
X168504374Y-156397973D01*
X168497811Y-156390405D01*
X168492559Y-156380290D01*
X168478352Y-156367969D01*
X168466028Y-156353758D01*
X168451217Y-156344435D01*
X168448344Y-156341943D01*
X168446036Y-156341173D01*
X168441142Y-156338093D01*
X168316617Y-156278186D01*
X168314539Y-156276108D01*
X168298407Y-156269426D01*
X168270822Y-156256155D01*
X168265447Y-156255773D01*
X168260467Y-156253710D01*
X168231203Y-156250828D01*
X167967941Y-156253236D01*
X167964249Y-156252006D01*
X167943825Y-156253457D01*
X167916224Y-156253710D01*
X167911243Y-156255773D01*
X167905869Y-156256155D01*
X167878405Y-156266664D01*
X167742514Y-156337220D01*
X167728347Y-156341943D01*
X167720781Y-156348504D01*
X167710663Y-156353758D01*
X167698339Y-156367967D01*
X167684132Y-156380289D01*
X167674812Y-156395094D01*
X167672316Y-156397973D01*
X167671545Y-156400284D01*
X167668467Y-156405175D01*
X167608560Y-156529700D01*
X167606483Y-156531778D01*
X167599804Y-156547900D01*
X167586529Y-156575496D01*
X167586147Y-156580871D01*
X167584085Y-156585850D01*
X167581203Y-156615114D01*
X167291681Y-156615114D01*
X167219929Y-156476918D01*
X167213066Y-156460349D01*
X167208330Y-156454578D01*
X167206845Y-156451718D01*
X167203853Y-156449123D01*
X167194411Y-156437618D01*
X167119264Y-156365725D01*
X167108885Y-156353758D01*
X167102656Y-156349837D01*
X167100251Y-156347536D01*
X167096594Y-156346021D01*
X167083999Y-156338093D01*
X166959474Y-156278186D01*
X166957396Y-156276108D01*
X166941264Y-156269426D01*
X166913679Y-156256155D01*
X166908304Y-156255773D01*
X166903324Y-156253710D01*
X166874060Y-156250828D01*
X166610799Y-156253236D01*
X166607107Y-156252006D01*
X166586683Y-156253457D01*
X166559082Y-156253710D01*
X166554101Y-156255773D01*
X166548727Y-156256155D01*
X166521263Y-156266664D01*
X166353521Y-156353758D01*
X166315174Y-156397973D01*
X166296667Y-156453496D01*
X166154340Y-156453496D01*
X166164035Y-156430092D01*
X166164035Y-156371564D01*
X166141637Y-156317492D01*
X166100253Y-156276108D01*
X166046181Y-156253710D01*
X166016917Y-156250828D01*
X165950581Y-156251146D01*
X165949750Y-155871564D01*
X165927352Y-155817492D01*
X165885968Y-155776108D01*
X165831896Y-155753710D01*
X165773368Y-155753710D01*
X165719296Y-155776108D01*
X165677912Y-155817492D01*
X165655514Y-155871564D01*
X165652632Y-155900828D01*
X165653402Y-156252572D01*
X165416225Y-156253710D01*
X165362153Y-156276108D01*
X165320769Y-156317492D01*
X165298371Y-156371564D01*
X165092607Y-156371564D01*
X165070209Y-156317492D01*
X165028825Y-156276108D01*
X164974753Y-156253710D01*
X164916225Y-156253710D01*
X164862153Y-156276108D01*
X164822757Y-156315503D01*
X164745186Y-156278184D01*
X164743110Y-156276108D01*
X164726992Y-156269431D01*
X164699393Y-156256154D01*
X164694015Y-156255771D01*
X164689038Y-156253710D01*
X164659774Y-156250828D01*
X164487653Y-156253710D01*
X164433581Y-156276108D01*
X164392197Y-156317492D01*
X164369799Y-156371564D01*
X164053939Y-156371564D01*
X164047836Y-156365725D01*
X164037457Y-156353758D01*
X164031228Y-156349837D01*
X164028823Y-156347536D01*
X164025166Y-156346021D01*
X164012571Y-156338093D01*
X163888046Y-156278186D01*
X163885968Y-156276108D01*
X163869836Y-156269426D01*
X163842251Y-156256155D01*
X163836876Y-156255773D01*
X163831896Y-156253710D01*
X163802632Y-156250828D01*
X163610397Y-156253102D01*
X163607107Y-156252006D01*
X163587934Y-156253368D01*
X163559082Y-156253710D01*
X163554101Y-156255773D01*
X163548727Y-156256155D01*
X163521263Y-156266664D01*
X163378720Y-156340674D01*
X163362153Y-156347536D01*
X163356381Y-156352272D01*
X163353521Y-156353758D01*
X163350925Y-156356750D01*
X163339423Y-156366191D01*
X163267526Y-156441340D01*
X163255562Y-156451717D01*
X163251643Y-156457942D01*
X163249340Y-156460350D01*
X163247824Y-156464009D01*
X163239897Y-156476603D01*
X163179990Y-156601127D01*
X163177912Y-156603206D01*
X163171230Y-156619337D01*
X163157959Y-156646923D01*
X163157577Y-156652297D01*
X163155514Y-156657278D01*
X163152632Y-156686542D01*
X162807775Y-156686542D01*
X162806893Y-156371564D01*
X162784495Y-156317492D01*
X162743111Y-156276108D01*
X162689039Y-156253710D01*
X162630511Y-156253710D01*
X162576439Y-156276108D01*
X162560244Y-156292302D01*
X162530903Y-156278186D01*
X162528825Y-156276108D01*
X162512693Y-156269426D01*
X162485108Y-156256155D01*
X162479733Y-156255773D01*
X162474753Y-156253710D01*
X162445489Y-156250828D01*
X162253254Y-156253102D01*
X162249964Y-156252006D01*
X162230791Y-156253368D01*
X162201939Y-156253710D01*
X162196958Y-156255773D01*
X162191584Y-156256155D01*
X162164120Y-156266664D01*
X162028229Y-156337220D01*
X162014062Y-156341943D01*
X162006496Y-156348504D01*
X161996378Y-156353758D01*
X161984054Y-156367967D01*
X161969847Y-156380289D01*
X161960527Y-156395094D01*
X161958031Y-156397973D01*
X161957260Y-156400284D01*
X161954182Y-156405175D01*
X161894275Y-156529700D01*
X161892198Y-156531778D01*
X161885519Y-156547900D01*
X161872244Y-156575496D01*
X161871862Y-156580871D01*
X161869800Y-156585850D01*
X161866918Y-156615114D01*
X161450432Y-156615114D01*
X161449750Y-156371564D01*
X161427352Y-156317492D01*
X161385968Y-156276108D01*
X161331896Y-156253710D01*
X161273368Y-156253710D01*
X161219296Y-156276108D01*
X161177912Y-156317492D01*
X161155514Y-156371564D01*
X161152632Y-156400828D01*
X160655956Y-156400828D01*
X160619264Y-156365725D01*
X160608885Y-156353758D01*
X160602656Y-156349837D01*
X160600251Y-156347536D01*
X160596594Y-156346021D01*
X160583999Y-156338093D01*
X160459474Y-156278186D01*
X160457396Y-156276108D01*
X160441264Y-156269426D01*
X160413679Y-156256155D01*
X160408304Y-156255773D01*
X160403324Y-156253710D01*
X160374060Y-156250828D01*
X160110799Y-156253236D01*
X160107107Y-156252006D01*
X160086683Y-156253457D01*
X160059082Y-156253710D01*
X160054101Y-156255773D01*
X160048727Y-156256155D01*
X160021263Y-156266664D01*
X159853521Y-156353758D01*
X159815174Y-156397973D01*
X159796667Y-156453496D01*
X159459140Y-156453496D01*
X159437669Y-156412143D01*
X159432946Y-156397973D01*
X159426383Y-156390405D01*
X159421131Y-156380290D01*
X159406924Y-156367969D01*
X159394600Y-156353758D01*
X159379789Y-156344435D01*
X159376916Y-156341943D01*
X159374608Y-156341173D01*
X159369714Y-156338093D01*
X159245189Y-156278186D01*
X159243111Y-156276108D01*
X159226979Y-156269426D01*
X159199394Y-156256155D01*
X159194019Y-156255773D01*
X159189039Y-156253710D01*
X159159775Y-156250828D01*
X158967540Y-156253102D01*
X158964250Y-156252006D01*
X158945077Y-156253368D01*
X158916225Y-156253710D01*
X158911244Y-156255773D01*
X158905870Y-156256155D01*
X158878406Y-156266664D01*
X158710664Y-156353758D01*
X158672317Y-156397973D01*
X158653810Y-156453496D01*
X158657959Y-156511876D01*
X158684133Y-156564225D01*
X158728348Y-156602572D01*
X158783871Y-156621079D01*
X158842251Y-156616930D01*
X158869714Y-156606421D01*
X158977516Y-156550449D01*
X159121286Y-156548747D01*
X159190688Y-156582135D01*
X159225008Y-156648236D01*
X159225066Y-156650285D01*
X159192751Y-156717457D01*
X159127749Y-156751206D01*
X158967540Y-156753102D01*
X158964250Y-156752006D01*
X158945077Y-156753368D01*
X158916225Y-156753710D01*
X158911244Y-156755773D01*
X158905870Y-156756155D01*
X158878406Y-156766664D01*
X158742514Y-156837220D01*
X158728348Y-156841943D01*
X158720782Y-156848504D01*
X158710664Y-156853758D01*
X158698340Y-156867967D01*
X158684133Y-156880289D01*
X158674813Y-156895094D01*
X158672317Y-156897973D01*
X158671546Y-156900284D01*
X158668468Y-156905175D01*
X158608561Y-157029699D01*
X158606483Y-157031778D01*
X158599801Y-157047909D01*
X158586530Y-157075495D01*
X158586148Y-157080869D01*
X158584085Y-157085850D01*
X158581203Y-157115114D01*
X158414536Y-157115114D01*
X158414536Y-155942995D01*
X161084085Y-155942995D01*
X161084085Y-156001521D01*
X161089429Y-156014421D01*
X161106482Y-156055592D01*
X161106483Y-156055593D01*
X161125138Y-156078324D01*
X161219296Y-156168405D01*
X161219297Y-156168406D01*
X161250971Y-156181525D01*
X161273368Y-156190803D01*
X161273369Y-156190803D01*
X161273370Y-156190803D01*
X161331895Y-156190803D01*
X161331896Y-156190803D01*
X161354293Y-156181525D01*
X161385967Y-156168406D01*
X161408698Y-156149751D01*
X161498781Y-156055593D01*
X161521177Y-156001520D01*
X161521177Y-155984162D01*
X161521178Y-155942995D01*
X161498781Y-155888922D01*
X161480127Y-155866192D01*
X161385968Y-155776108D01*
X161385967Y-155776107D01*
X161354293Y-155762987D01*
X161331896Y-155753710D01*
X161273368Y-155753710D01*
X161250971Y-155762987D01*
X161219297Y-155776107D01*
X161196566Y-155794762D01*
X161106482Y-155888922D01*
X161089430Y-155930092D01*
X161084085Y-155942995D01*
X158414536Y-155942995D01*
X158414536Y-155369875D01*
X172833584Y-155369875D01*
X172833584Y-158003209D01*
G37*
M02*
