M48
; DRILL file {KiCad 8.0.2} date 2025-04-18T13:41:39+0200
; FORMAT={-:-/ absolute / inch / decimal}
; #@! TF.CreationDate,2025-04-18T13:41:39+02:00
; #@! TF.GenerationSoftware,Kicad,Pcbnew,8.0.2
; #@! TF.FileFunction,Plated,1,2,PTH
FMAT,2
INCH
; #@! TA.AperFunction,Plated,PTH,ViaDrill
T1C0.0118
; #@! TA.AperFunction,Plated,PTH,ComponentDrill
T2C0.0295
; #@! TA.AperFunction,Plated,PTH,ComponentDrill
T3C0.0394
; #@! TA.AperFunction,Plated,PTH,ComponentDrill
T4C0.0512
%
G90
G05
T1
X5.53Y-5.66
X5.545Y-5.29
X5.595Y-5.66
X5.67Y-5.28
X5.69Y-5.645
X5.745Y-5.645
X5.775Y-5.275
X5.805Y-5.64
X5.87Y-5.64
X5.915Y-5.92
X5.945Y-5.64
X5.96Y-5.275
X6.0Y-5.645
X6.08Y-5.64
X6.185Y-5.28
X6.215Y-5.775
X6.24Y-5.26
X6.255Y-5.63
X6.285Y-5.37
X6.305Y-5.76
X6.3614Y-5.505
X6.3706Y-5.96
X6.39Y-5.265
X6.43Y-5.26
X6.489Y-5.619
X6.4892Y-5.3892
X6.4936Y-5.4207
X6.497Y-5.5564
X6.5042Y-5.5242
X6.5217Y-5.4767
X6.5304Y-5.4174
X6.54Y-5.67
X6.555Y-5.9236
X6.565Y-5.28
X6.5944Y-5.52
X6.595Y-5.6464
X6.665Y-5.2964
X6.675Y-5.7664
X6.695Y-5.5089
X6.695Y-5.59
X6.6983Y-5.2628
X6.7Y-5.625
X6.705Y-5.54
X6.71Y-5.705
X6.73Y-5.575
X6.765Y-5.2936
X6.785Y-6.16
X6.815Y-5.27
X6.8248Y-6.12
X6.8585Y-5.2528
X6.875Y-5.505
X6.885Y-6.205
X6.9Y-5.45
X6.94Y-5.2764
X6.94Y-5.8903
X6.965Y-5.59
X6.975Y-5.27
X6.975Y-5.765
X7.025Y-5.56
X7.035Y-4.46
X7.035Y-5.425
X7.05Y-5.87
X7.055Y-5.705
X7.165Y-5.39
X7.345Y-5.3636
X7.48Y-5.325
X7.63Y-5.28
T2
X6.3188Y-4.5365
X6.3188Y-6.0435
X6.3975Y-4.5365
X6.3975Y-6.0435
X6.4763Y-4.5365
X6.4763Y-6.0435
X6.555Y-4.5365
X6.555Y-6.0435
X6.6337Y-4.5365
X6.6337Y-6.0435
X6.7125Y-4.5365
X6.7125Y-6.0435
T3
X5.455Y-4.825
X5.455Y-4.925
X5.455Y-5.025
X5.6Y-4.8244
X5.6Y-4.9244
X5.6Y-5.0244
X5.745Y-4.8244
X5.745Y-4.9244
X5.745Y-5.0244
X5.89Y-4.825
X5.89Y-4.925
X5.89Y-5.025
X6.035Y-4.825
X6.035Y-4.925
X6.035Y-5.025
X6.18Y-4.825
X6.18Y-4.925
X6.18Y-5.025
X6.325Y-4.825
X6.325Y-4.925
X6.325Y-5.025
X6.47Y-4.8244
X6.47Y-4.9244
X6.47Y-5.0244
X6.615Y-4.825
X6.615Y-4.925
X6.615Y-5.025
X6.76Y-4.825
X6.76Y-4.925
X6.76Y-5.025
X6.905Y-4.8244
X6.905Y-4.9244
X6.905Y-5.0244
X7.05Y-4.825
X7.05Y-4.925
X7.05Y-5.025
X7.195Y-4.825
X7.195Y-4.925
X7.195Y-5.025
X7.34Y-4.825
X7.34Y-4.925
X7.34Y-5.025
X7.485Y-4.825
X7.485Y-4.925
X7.485Y-5.025
X7.63Y-4.825
X7.63Y-4.925
X7.63Y-5.025
T4
X7.0Y-6.06
X7.2Y-6.06
M30
