%TF.GenerationSoftware,KiCad,Pcbnew,8.0.2*%
%TF.CreationDate,2025-04-18T13:41:41+02:00*%
%TF.ProjectId,PCA9685 board,50434139-3638-4352-9062-6f6172642e6b,rev?*%
%TF.SameCoordinates,Original*%
%TF.FileFunction,Soldermask,Top*%
%TF.FilePolarity,Negative*%
%FSLAX46Y46*%
G04 Gerber Fmt 4.6, Leading zero omitted, Abs format (unit mm)*
G04 Created by KiCad (PCBNEW 8.0.2) date 2025-04-18 13:41:41*
%MOMM*%
%LPD*%
G01*
G04 APERTURE LIST*
G04 Aperture macros list*
%AMRoundRect*
0 Rectangle with rounded corners*
0 $1 Rounding radius*
0 $2 $3 $4 $5 $6 $7 $8 $9 X,Y pos of 4 corners*
0 Add a 4 corners polygon primitive as box body*
4,1,4,$2,$3,$4,$5,$6,$7,$8,$9,$2,$3,0*
0 Add four circle primitives for the rounded corners*
1,1,$1+$1,$2,$3*
1,1,$1+$1,$4,$5*
1,1,$1+$1,$6,$7*
1,1,$1+$1,$8,$9*
0 Add four rect primitives between the rounded corners*
20,1,$1+$1,$2,$3,$4,$5,0*
20,1,$1+$1,$4,$5,$6,$7,0*
20,1,$1+$1,$6,$7,$8,$9,0*
20,1,$1+$1,$8,$9,$2,$3,0*%
%AMFreePoly0*
4,1,19,0.500000,-0.750000,0.000000,-0.750000,0.000000,-0.744911,-0.071157,-0.744911,-0.207708,-0.704816,-0.327430,-0.627875,-0.420627,-0.520320,-0.479746,-0.390866,-0.500000,-0.250000,-0.500000,0.250000,-0.479746,0.390866,-0.420627,0.520320,-0.327430,0.627875,-0.207708,0.704816,-0.071157,0.744911,0.000000,0.744911,0.000000,0.750000,0.500000,0.750000,0.500000,-0.750000,0.500000,-0.750000,
$1*%
%AMFreePoly1*
4,1,19,0.000000,0.744911,0.071157,0.744911,0.207708,0.704816,0.327430,0.627875,0.420627,0.520320,0.479746,0.390866,0.500000,0.250000,0.500000,-0.250000,0.479746,-0.390866,0.420627,-0.520320,0.327430,-0.627875,0.207708,-0.704816,0.071157,-0.744911,0.000000,-0.744911,0.000000,-0.750000,-0.500000,-0.750000,-0.500000,0.750000,0.000000,0.750000,0.000000,0.744911,0.000000,0.744911,
$1*%
G04 Aperture macros list end*
%ADD10RoundRect,0.250000X1.950000X1.000000X-1.950000X1.000000X-1.950000X-1.000000X1.950000X-1.000000X0*%
%ADD11RoundRect,0.250000X-0.450000X0.350000X-0.450000X-0.350000X0.450000X-0.350000X0.450000X0.350000X0*%
%ADD12FreePoly0,90.000000*%
%ADD13FreePoly1,90.000000*%
%ADD14R,1.700000X1.700000*%
%ADD15O,1.700000X1.700000*%
%ADD16RoundRect,0.250000X0.325000X0.450000X-0.325000X0.450000X-0.325000X-0.450000X0.325000X-0.450000X0*%
%ADD17RoundRect,0.100000X-0.637500X-0.100000X0.637500X-0.100000X0.637500X0.100000X-0.637500X0.100000X0*%
%ADD18RoundRect,0.150000X-0.150000X0.587500X-0.150000X-0.587500X0.150000X-0.587500X0.150000X0.587500X0*%
%ADD19C,3.200000*%
%ADD20RoundRect,0.250000X-0.350000X-0.625000X0.350000X-0.625000X0.350000X0.625000X-0.350000X0.625000X0*%
%ADD21O,1.200000X1.750000*%
%ADD22RoundRect,0.250000X0.350000X0.625000X-0.350000X0.625000X-0.350000X-0.625000X0.350000X-0.625000X0*%
%ADD23RoundRect,0.250000X-0.350000X-0.450000X0.350000X-0.450000X0.350000X0.450000X-0.350000X0.450000X0*%
%ADD24RoundRect,0.250000X0.350000X0.450000X-0.350000X0.450000X-0.350000X-0.450000X0.350000X-0.450000X0*%
%ADD25R,2.600000X2.600000*%
%ADD26C,2.600000*%
%ADD27RoundRect,0.250000X-0.475000X0.337500X-0.475000X-0.337500X0.475000X-0.337500X0.475000X0.337500X0*%
G04 APERTURE END LIST*
D10*
%TO.C,C2*%
X153433000Y-150749000D03*
X146033000Y-150749000D03*
%TD*%
D11*
%TO.C,R22*%
X153289000Y-130445000D03*
X153289000Y-132445000D03*
%TD*%
%TO.C,R23*%
X149606000Y-130445000D03*
X149606000Y-132445000D03*
%TD*%
D12*
%TO.C,JP1*%
X157099000Y-142143000D03*
D13*
X157099000Y-140843000D03*
%TD*%
D11*
%TO.C,R11*%
X193802000Y-130445000D03*
X193802000Y-132445000D03*
%TD*%
%TO.C,R16*%
X175387000Y-130445000D03*
X175387000Y-132445000D03*
%TD*%
D14*
%TO.C,M12*%
X153289000Y-127635000D03*
D15*
X153289000Y-125095000D03*
X153289000Y-122555000D03*
%TD*%
D12*
%TO.C,JP3*%
X150471000Y-142074000D03*
D13*
X150471000Y-140774000D03*
%TD*%
D11*
%TO.C,R18*%
X168021000Y-130445000D03*
X168021000Y-132445000D03*
%TD*%
D16*
%TO.C,D1*%
X174176000Y-146207000D03*
X172126000Y-146207000D03*
%TD*%
D11*
%TO.C,R20*%
X160528000Y-130445000D03*
X160528000Y-132445000D03*
%TD*%
%TO.C,R21*%
X156972000Y-130445000D03*
X156972000Y-132445000D03*
%TD*%
%TO.C,R19*%
X164465000Y-130429000D03*
X164465000Y-132429000D03*
%TD*%
%TO.C,R26*%
X138557000Y-130445000D03*
X138557000Y-132445000D03*
%TD*%
D14*
%TO.C,M4*%
X182753000Y-127635000D03*
D15*
X182753000Y-125095000D03*
X182753000Y-122555000D03*
%TD*%
D12*
%TO.C,JP2*%
X153779000Y-142090000D03*
D13*
X153779000Y-140790000D03*
%TD*%
D14*
%TO.C,M8*%
X168021000Y-127635000D03*
D15*
X168021000Y-125095000D03*
X168021000Y-122555000D03*
%TD*%
D11*
%TO.C,R5*%
X150495000Y-136779000D03*
X150495000Y-138779000D03*
%TD*%
%TO.C,R15*%
X179070000Y-130429000D03*
X179070000Y-132429000D03*
%TD*%
D17*
%TO.C,U1*%
X163058000Y-135486000D03*
X163058000Y-136136000D03*
X163058000Y-136786000D03*
X163058000Y-137436000D03*
X163058000Y-138086000D03*
X163058000Y-138736000D03*
X163058000Y-139386000D03*
X163058000Y-140036000D03*
X163058000Y-140686000D03*
X163058000Y-141336000D03*
X163058000Y-141986000D03*
X163058000Y-142636000D03*
X163058000Y-143286000D03*
X163058000Y-143936000D03*
X168783000Y-143936000D03*
X168783000Y-143286000D03*
X168783000Y-142636000D03*
X168783000Y-141986000D03*
X168783000Y-141336000D03*
X168783000Y-140686000D03*
X168783000Y-140036000D03*
X168783000Y-139386000D03*
X168783000Y-138736000D03*
X168783000Y-138086000D03*
X168783000Y-137436000D03*
X168783000Y-136786000D03*
X168783000Y-136136000D03*
X168783000Y-135486000D03*
%TD*%
D12*
%TO.C,JP6*%
X139573000Y-142240000D03*
D13*
X139573000Y-140940000D03*
%TD*%
D14*
%TO.C,M9*%
X164338000Y-127620000D03*
D15*
X164338000Y-125080000D03*
X164338000Y-122540000D03*
%TD*%
D14*
%TO.C,M2*%
X190119000Y-127635000D03*
D15*
X190119000Y-125095000D03*
X190119000Y-122555000D03*
%TD*%
D18*
%TO.C,Q2*%
X178877000Y-143540000D03*
X176977000Y-143540000D03*
X177927000Y-145415000D03*
%TD*%
D19*
%TO.C,H4*%
X139739000Y-153162000D03*
%TD*%
D11*
%TO.C,R3*%
X143546000Y-136945000D03*
X143546000Y-138945000D03*
%TD*%
%TO.C,R24*%
X145923000Y-130445000D03*
X145923000Y-132445000D03*
%TD*%
D14*
%TO.C,M7*%
X171704000Y-127635000D03*
D15*
X171704000Y-125095000D03*
X171704000Y-122555000D03*
%TD*%
D11*
%TO.C,R17*%
X171577000Y-130445000D03*
X171577000Y-132445000D03*
%TD*%
D20*
%TO.C,J2*%
X160497000Y-153506000D03*
D21*
X162497000Y-153506000D03*
X164497000Y-153506000D03*
X166497000Y-153506000D03*
X168497000Y-153506000D03*
X170497000Y-153506000D03*
%TD*%
D11*
%TO.C,R25*%
X142240000Y-130445000D03*
X142240000Y-132445000D03*
%TD*%
D14*
%TO.C,M15*%
X142240000Y-127620000D03*
D15*
X142240000Y-125080000D03*
X142240000Y-122540000D03*
%TD*%
D14*
%TO.C,M3*%
X186436000Y-127635000D03*
D15*
X186436000Y-125095000D03*
X186436000Y-122555000D03*
%TD*%
D11*
%TO.C,R12*%
X189992000Y-130445000D03*
X189992000Y-132445000D03*
%TD*%
%TO.C,R14*%
X182626000Y-130445000D03*
X182626000Y-132445000D03*
%TD*%
%TO.C,R7*%
X157111000Y-136848000D03*
X157111000Y-138848000D03*
%TD*%
%TO.C,R4*%
X147096000Y-136945000D03*
X147096000Y-138945000D03*
%TD*%
D14*
%TO.C,M13*%
X149606000Y-127635000D03*
D15*
X149606000Y-125095000D03*
X149606000Y-122555000D03*
%TD*%
D14*
%TO.C,M10*%
X160655000Y-127635000D03*
D15*
X160655000Y-125095000D03*
X160655000Y-122555000D03*
%TD*%
D14*
%TO.C,M16*%
X138557000Y-127635000D03*
D15*
X138557000Y-125095000D03*
X138557000Y-122555000D03*
%TD*%
D14*
%TO.C,M11*%
X156972000Y-127635000D03*
D15*
X156972000Y-125095000D03*
X156972000Y-122555000D03*
%TD*%
D11*
%TO.C,R13*%
X186563000Y-130445000D03*
X186563000Y-132445000D03*
%TD*%
D14*
%TO.C,M14*%
X145923000Y-127620000D03*
D15*
X145923000Y-125080000D03*
X145923000Y-122540000D03*
%TD*%
D22*
%TO.C,J3*%
X170497000Y-115226000D03*
D21*
X168497000Y-115226000D03*
X166497000Y-115226000D03*
X164497000Y-115226000D03*
X162497000Y-115226000D03*
X160497000Y-115226000D03*
%TD*%
D14*
%TO.C,M1*%
X193802000Y-127635000D03*
D15*
X193802000Y-125095000D03*
X193802000Y-122555000D03*
%TD*%
D23*
%TO.C,R1*%
X171397500Y-139711000D03*
X173397500Y-139711000D03*
%TD*%
D24*
%TO.C,R9*%
X167624000Y-148209000D03*
X165624000Y-148209000D03*
%TD*%
D12*
%TO.C,JP5*%
X143510000Y-142240000D03*
D13*
X143510000Y-140940000D03*
%TD*%
D11*
%TO.C,R2*%
X139615000Y-136945000D03*
X139615000Y-138945000D03*
%TD*%
D23*
%TO.C,R8*%
X161814000Y-148209000D03*
X163814000Y-148209000D03*
%TD*%
D12*
%TO.C,JP4*%
X147066000Y-142240000D03*
D13*
X147066000Y-140940000D03*
%TD*%
D19*
%TO.C,H2*%
X139739000Y-116244000D03*
%TD*%
D25*
%TO.C,J1*%
X177800000Y-153924000D03*
D26*
X182880000Y-153924000D03*
%TD*%
D14*
%TO.C,M6*%
X175387000Y-127620000D03*
D15*
X175387000Y-125080000D03*
X175387000Y-122540000D03*
%TD*%
D11*
%TO.C,R6*%
X153797000Y-136795000D03*
X153797000Y-138795000D03*
%TD*%
D19*
%TO.C,H3*%
X191477000Y-153377000D03*
%TD*%
%TO.C,H1*%
X191477000Y-116244000D03*
%TD*%
D27*
%TO.C,C1*%
X172143500Y-135498500D03*
X172143500Y-137573500D03*
%TD*%
D14*
%TO.C,M5*%
X179070000Y-127635000D03*
D15*
X179070000Y-125095000D03*
X179070000Y-122555000D03*
%TD*%
D23*
%TO.C,R10*%
X172278000Y-143667000D03*
X174278000Y-143667000D03*
%TD*%
M02*
