<?xml version="1.0" standalone="no"?>
 <!DOCTYPE svg PUBLIC "-//W3C//DTD SVG 1.1//EN" 
 "http://www.w3.org/Graphics/SVG/1.1/DTD/svg11.dtd"> 
<svg
  xmlns:svg="http://www.w3.org/2000/svg"
  xmlns="http://www.w3.org/2000/svg"
  xmlns:xlink="http://www.w3.org/1999/xlink"
  version="1.1"
  width="100.5586mm" height="85.8520mm" viewBox="0.0000 0.0000 100.5586 85.8520">
<title>SVG Image created as Mini-me-pcb-F_Paste.svg date 2025/05/04 10:52:55 </title>
  <desc>Image generated by PCBNEW </desc>
<g style="fill:#000000; fill-opacity:1.0000;stroke:#000000; stroke-opacity:1.0000;
stroke-linecap:round; stroke-linejoin:round;"
 transform="translate(0 0) scale(1 1)">
<path style="fill:#B4A09A; fill-opacity:0.9000; stroke:none;fill-rule:evenodd;"
d="M 60.6630,21.2740
60.7587,21.2930
60.8398,21.3472
60.8940,21.4283
60.9130,21.5240
60.9130,22.1990
60.8940,22.2947
60.8398,22.3758
60.7587,22.4300
60.6630,22.4490
59.7130,22.4490
59.6173,22.4300
59.5362,22.3758
59.4820,22.2947
59.4630,22.1990
59.4630,21.5240
59.4820,21.4283
59.5362,21.3472
59.6173,21.2930
59.7130,21.2740
Z" /> 
<path style="fill:#B4A09A; fill-opacity:0.9000; stroke:none;fill-rule:evenodd;"
d="M 60.6630,23.3490
60.7587,23.3680
60.8398,23.4222
60.8940,23.5033
60.9130,23.5990
60.9130,24.2740
60.8940,24.3697
60.8398,24.4508
60.7587,24.5050
60.6630,24.5240
59.7130,24.5240
59.6173,24.5050
59.5362,24.4508
59.4820,24.3697
59.4630,24.2740
59.4630,23.5990
59.4820,23.5033
59.5362,23.4222
59.6173,23.3680
59.7130,23.3490
Z" /> 
<path style="fill:#B4A09A; fill-opacity:0.9000; stroke:none;fill-rule:evenodd;"
d="M 42.5030,49.1650
42.5220,49.0693
42.5762,48.9882
42.6573,48.9340
42.7530,48.9150
43.4280,48.9150
43.5237,48.9340
43.6048,48.9882
43.6590,49.0693
43.6780,49.1650
43.6780,50.1150
43.6590,50.2107
43.6048,50.2918
43.5237,50.3460
43.4280,50.3650
42.7530,50.3650
42.6573,50.3460
42.5762,50.2918
42.5220,50.2107
42.5030,50.1150
Z" /> 
<path style="fill:#B4A09A; fill-opacity:0.9000; stroke:none;fill-rule:evenodd;"
d="M 44.5780,49.1650
44.5970,49.0693
44.6512,48.9882
44.7323,48.9340
44.8280,48.9150
45.5030,48.9150
45.5987,48.9340
45.6798,48.9882
45.7340,49.0693
45.7530,49.1650
45.7530,50.1150
45.7340,50.2107
45.6798,50.2918
45.5987,50.3460
45.5030,50.3650
44.8280,50.3650
44.7323,50.3460
44.6512,50.2918
44.5970,50.2107
44.5780,50.1150
Z" /> 
<path style="fill:#B4A09A; fill-opacity:0.9000; stroke:none;fill-rule:evenodd;"
d="M 20.2980,13.0500
20.2980,12.1500
21.7980,12.1500
21.7980,13.0500
Z" /> 
<path style="fill:#B4A09A; fill-opacity:0.9000; stroke:none;fill-rule:evenodd;"
d="M 20.2980,14.3200
20.2980,13.4200
21.7980,13.4200
21.7980,14.3200
Z" /> 
<path style="fill:#B4A09A; fill-opacity:0.9000; stroke:none;fill-rule:evenodd;"
d="M 20.2980,15.5900
20.2980,14.6900
21.7980,14.6900
21.7980,15.5900
Z" /> 
<path style="fill:#B4A09A; fill-opacity:0.9000; stroke:none;fill-rule:evenodd;"
d="M 20.2980,16.8600
20.2980,15.9600
21.7980,15.9600
21.7980,16.8600
Z" /> 
<path style="fill:#B4A09A; fill-opacity:0.9000; stroke:none;fill-rule:evenodd;"
d="M 20.2980,18.1300
20.2980,17.2300
21.7980,17.2300
21.7980,18.1300
Z" /> 
<path style="fill:#B4A09A; fill-opacity:0.9000; stroke:none;fill-rule:evenodd;"
d="M 20.2980,19.4000
20.2980,18.5000
21.7980,18.5000
21.7980,19.4000
Z" /> 
<path style="fill:#B4A09A; fill-opacity:0.9000; stroke:none;fill-rule:evenodd;"
d="M 20.2980,20.6700
20.2980,19.7700
21.7980,19.7700
21.7980,20.6700
Z" /> 
<path style="fill:#B4A09A; fill-opacity:0.9000; stroke:none;fill-rule:evenodd;"
d="M 20.2980,21.9400
20.2980,21.0400
21.7980,21.0400
21.7980,21.9400
Z" /> 
<path style="fill:#B4A09A; fill-opacity:0.9000; stroke:none;fill-rule:evenodd;"
d="M 20.2980,23.2100
20.2980,22.3100
21.7980,22.3100
21.7980,23.2100
Z" /> 
<path style="fill:#B4A09A; fill-opacity:0.9000; stroke:none;fill-rule:evenodd;"
d="M 20.2980,24.4800
20.2980,23.5800
21.7980,23.5800
21.7980,24.4800
Z" /> 
<path style="fill:#B4A09A; fill-opacity:0.9000; stroke:none;fill-rule:evenodd;"
d="M 20.2980,25.7500
20.2980,24.8500
21.7980,24.8500
21.7980,25.7500
Z" /> 
<path style="fill:#B4A09A; fill-opacity:0.9000; stroke:none;fill-rule:evenodd;"
d="M 20.2980,27.0200
20.2980,26.1200
21.7980,26.1200
21.7980,27.0200
Z" /> 
<path style="fill:#B4A09A; fill-opacity:0.9000; stroke:none;fill-rule:evenodd;"
d="M 20.2980,28.2900
20.2980,27.3900
21.7980,27.3900
21.7980,28.2900
Z" /> 
<path style="fill:#B4A09A; fill-opacity:0.9000; stroke:none;fill-rule:evenodd;"
d="M 20.2980,29.5600
20.2980,28.6600
21.7980,28.6600
21.7980,29.5600
Z" /> 
<path style="fill:#B4A09A; fill-opacity:0.9000; stroke:none;fill-rule:evenodd;"
d="M 23.6330,31.1100
23.6330,29.6100
24.5330,29.6100
24.5330,31.1100
Z" /> 
<path style="fill:#B4A09A; fill-opacity:0.9000; stroke:none;fill-rule:evenodd;"
d="M 24.9030,31.1100
24.9030,29.6100
25.8030,29.6100
25.8030,31.1100
Z" /> 
<path style="fill:#B4A09A; fill-opacity:0.9000; stroke:none;fill-rule:evenodd;"
d="M 26.1730,31.1100
26.1730,29.6100
27.0730,29.6100
27.0730,31.1100
Z" /> 
<path style="fill:#B4A09A; fill-opacity:0.9000; stroke:none;fill-rule:evenodd;"
d="M 27.4430,31.1100
27.4430,29.6100
28.3430,29.6100
28.3430,31.1100
Z" /> 
<path style="fill:#B4A09A; fill-opacity:0.9000; stroke:none;fill-rule:evenodd;"
d="M 28.7130,31.1100
28.7130,29.6100
29.6130,29.6100
29.6130,31.1100
Z" /> 
<path style="fill:#B4A09A; fill-opacity:0.9000; stroke:none;fill-rule:evenodd;"
d="M 29.9830,31.1100
29.9830,29.6100
30.8830,29.6100
30.8830,31.1100
Z" /> 
<path style="fill:#B4A09A; fill-opacity:0.9000; stroke:none;fill-rule:evenodd;"
d="M 31.2530,31.1100
31.2530,29.6100
32.1530,29.6100
32.1530,31.1100
Z" /> 
<path style="fill:#B4A09A; fill-opacity:0.9000; stroke:none;fill-rule:evenodd;"
d="M 32.5230,31.1100
32.5230,29.6100
33.4230,29.6100
33.4230,31.1100
Z" /> 
<path style="fill:#B4A09A; fill-opacity:0.9000; stroke:none;fill-rule:evenodd;"
d="M 33.7930,31.1100
33.7930,29.6100
34.6930,29.6100
34.6930,31.1100
Z" /> 
<path style="fill:#B4A09A; fill-opacity:0.9000; stroke:none;fill-rule:evenodd;"
d="M 35.0630,31.1100
35.0630,29.6100
35.9630,29.6100
35.9630,31.1100
Z" /> 
<path style="fill:#B4A09A; fill-opacity:0.9000; stroke:none;fill-rule:evenodd;"
d="M 37.7980,29.5600
37.7980,28.6600
39.2980,28.6600
39.2980,29.5600
Z" /> 
<path style="fill:#B4A09A; fill-opacity:0.9000; stroke:none;fill-rule:evenodd;"
d="M 37.7980,28.2900
37.7980,27.3900
39.2980,27.3900
39.2980,28.2900
Z" /> 
<path style="fill:#B4A09A; fill-opacity:0.9000; stroke:none;fill-rule:evenodd;"
d="M 37.7980,27.0200
37.7980,26.1200
39.2980,26.1200
39.2980,27.0200
Z" /> 
<path style="fill:#B4A09A; fill-opacity:0.9000; stroke:none;fill-rule:evenodd;"
d="M 37.7980,25.7500
37.7980,24.8500
39.2980,24.8500
39.2980,25.7500
Z" /> 
<path style="fill:#B4A09A; fill-opacity:0.9000; stroke:none;fill-rule:evenodd;"
d="M 37.7980,24.4800
37.7980,23.5800
39.2980,23.5800
39.2980,24.4800
Z" /> 
<path style="fill:#B4A09A; fill-opacity:0.9000; stroke:none;fill-rule:evenodd;"
d="M 37.7980,23.2100
37.7980,22.3100
39.2980,22.3100
39.2980,23.2100
Z" /> 
<path style="fill:#B4A09A; fill-opacity:0.9000; stroke:none;fill-rule:evenodd;"
d="M 37.7980,21.9400
37.7980,21.0400
39.2980,21.0400
39.2980,21.9400
Z" /> 
<path style="fill:#B4A09A; fill-opacity:0.9000; stroke:none;fill-rule:evenodd;"
d="M 37.7980,20.6700
37.7980,19.7700
39.2980,19.7700
39.2980,20.6700
Z" /> 
<path style="fill:#B4A09A; fill-opacity:0.9000; stroke:none;fill-rule:evenodd;"
d="M 37.7980,19.4000
37.7980,18.5000
39.2980,18.5000
39.2980,19.4000
Z" /> 
<path style="fill:#B4A09A; fill-opacity:0.9000; stroke:none;fill-rule:evenodd;"
d="M 37.7980,18.1300
37.7980,17.2300
39.2980,17.2300
39.2980,18.1300
Z" /> 
<path style="fill:#B4A09A; fill-opacity:0.9000; stroke:none;fill-rule:evenodd;"
d="M 37.7980,16.8600
37.7980,15.9600
39.2980,15.9600
39.2980,16.8600
Z" /> 
<path style="fill:#B4A09A; fill-opacity:0.9000; stroke:none;fill-rule:evenodd;"
d="M 37.7980,15.5900
37.7980,14.6900
39.2980,14.6900
39.2980,15.5900
Z" /> 
<path style="fill:#B4A09A; fill-opacity:0.9000; stroke:none;fill-rule:evenodd;"
d="M 37.7980,14.3200
37.7980,13.4200
39.2980,13.4200
39.2980,14.3200
Z" /> 
<path style="fill:#B4A09A; fill-opacity:0.9000; stroke:none;fill-rule:evenodd;"
d="M 37.7980,13.0500
37.7980,12.1500
39.2980,12.1500
39.2980,13.0500
Z" /> 
<path style="fill:#B4A09A; fill-opacity:0.9000; stroke:none;fill-rule:evenodd;"
d="M 26.4480,19.3700
26.4480,18.4700
27.3480,18.4700
27.3480,19.3700
Z" /> 
<path style="fill:#B4A09A; fill-opacity:0.9000; stroke:none;fill-rule:evenodd;"
d="M 26.4480,20.7700
26.4480,19.8700
27.3480,19.8700
27.3480,20.7700
Z" /> 
<path style="fill:#B4A09A; fill-opacity:0.9000; stroke:none;fill-rule:evenodd;"
d="M 26.4480,22.1700
26.4480,21.2700
27.3480,21.2700
27.3480,22.1700
Z" /> 
<path style="fill:#B4A09A; fill-opacity:0.9000; stroke:none;fill-rule:evenodd;"
d="M 27.8480,22.1700
27.8480,21.2700
28.7480,21.2700
28.7480,22.1700
Z" /> 
<path style="fill:#B4A09A; fill-opacity:0.9000; stroke:none;fill-rule:evenodd;"
d="M 29.2480,22.1700
29.2480,21.2700
30.1480,21.2700
30.1480,22.1700
Z" /> 
<path style="fill:#B4A09A; fill-opacity:0.9000; stroke:none;fill-rule:evenodd;"
d="M 29.2480,20.7700
29.2480,19.8700
30.1480,19.8700
30.1480,20.7700
Z" /> 
<path style="fill:#B4A09A; fill-opacity:0.9000; stroke:none;fill-rule:evenodd;"
d="M 29.2480,19.3700
29.2480,18.4700
30.1480,18.4700
30.1480,19.3700
Z" /> 
<path style="fill:#B4A09A; fill-opacity:0.9000; stroke:none;fill-rule:evenodd;"
d="M 27.8480,19.3700
27.8480,18.4700
28.7480,18.4700
28.7480,19.3700
Z" /> 
<path style="fill:#B4A09A; fill-opacity:0.9000; stroke:none;fill-rule:evenodd;"
d="M 27.8480,20.7700
27.8480,19.8700
28.7480,19.8700
28.7480,20.7700
Z" /> 
<path style="fill:#B4A09A; fill-opacity:0.9000; stroke:none;fill-rule:evenodd;"
d="M 68.3380,75.5910
68.4337,75.6100
68.5148,75.6642
68.5690,75.7453
68.5880,75.8410
68.5880,76.5160
68.5690,76.6117
68.5148,76.6928
68.4337,76.7470
68.3380,76.7660
67.3880,76.7660
67.2923,76.7470
67.2112,76.6928
67.1570,76.6117
67.1380,76.5160
67.1380,75.8410
67.1570,75.7453
67.2112,75.6642
67.2923,75.6100
67.3880,75.5910
Z" /> 
<path style="fill:#B4A09A; fill-opacity:0.9000; stroke:none;fill-rule:evenodd;"
d="M 68.3380,77.6660
68.4337,77.6850
68.5148,77.7392
68.5690,77.8203
68.5880,77.9160
68.5880,78.5910
68.5690,78.6867
68.5148,78.7678
68.4337,78.8220
68.3380,78.8410
67.3880,78.8410
67.2923,78.8220
67.2112,78.7678
67.1570,78.6867
67.1380,78.5910
67.1380,77.9160
67.1570,77.8203
67.2112,77.7392
67.2923,77.6850
67.3880,77.6660
Z" /> 
<path style="fill:#B4A09A; fill-opacity:0.9000; stroke:none;fill-rule:evenodd;"
d="M 61.0910,67.1840
61.1867,67.2030
61.2678,67.2572
61.3220,67.3383
61.3410,67.4340
61.3410,68.1090
61.3220,68.2047
61.2678,68.2858
61.1867,68.3400
61.0910,68.3590
60.1410,68.3590
60.0453,68.3400
59.9642,68.2858
59.9100,68.2047
59.8910,68.1090
59.8910,67.4340
59.9100,67.3383
59.9642,67.2572
60.0453,67.2030
60.1410,67.1840
Z" /> 
<path style="fill:#B4A09A; fill-opacity:0.9000; stroke:none;fill-rule:evenodd;"
d="M 61.0910,69.2590
61.1867,69.2780
61.2678,69.3322
61.3220,69.4133
61.3410,69.5090
61.3410,70.1840
61.3220,70.2797
61.2678,70.3608
61.1867,70.4150
61.0910,70.4340
60.1410,70.4340
60.0453,70.4150
59.9642,70.3608
59.9100,70.2797
59.8910,70.1840
59.8910,69.5090
59.9100,69.4133
59.9642,69.3322
60.0453,69.2780
60.1410,69.2590
Z" /> 
<path style="fill:#B4A09A; fill-opacity:0.9000; stroke:none;fill-rule:evenodd;"
d="M 88.2760,31.8630
88.3717,31.8820
88.4528,31.9362
88.5070,32.0173
88.5260,32.1130
88.5260,36.2130
88.5070,36.3087
88.4528,36.3898
88.3717,36.4440
88.2760,36.4630
87.6760,36.4630
87.5803,36.4440
87.4992,36.3898
87.4450,36.3087
87.4260,36.2130
87.4260,32.1130
87.4450,32.0173
87.4992,31.9362
87.5803,31.8820
87.6760,31.8630
Z" /> 
<path style="fill:#B4A09A; fill-opacity:0.9000; stroke:none;fill-rule:evenodd;"
d="M 86.5760,31.8630
86.6717,31.8820
86.7528,31.9362
86.8070,32.0173
86.8260,32.1130
86.8260,36.2130
86.8070,36.3087
86.7528,36.3898
86.6717,36.4440
86.5760,36.4630
85.9760,36.4630
85.8803,36.4440
85.7992,36.3898
85.7450,36.3087
85.7260,36.2130
85.7260,32.1130
85.7450,32.0173
85.7992,31.9362
85.8803,31.8820
85.9760,31.8630
Z" /> 
<path style="fill:#B4A09A; fill-opacity:0.9000; stroke:none;fill-rule:evenodd;"
d="M 84.8760,31.8630
84.9717,31.8820
85.0528,31.9362
85.1070,32.0173
85.1260,32.1130
85.1260,36.2130
85.1070,36.3087
85.0528,36.3898
84.9717,36.4440
84.8760,36.4630
84.2760,36.4630
84.1803,36.4440
84.0992,36.3898
84.0450,36.3087
84.0260,36.2130
84.0260,32.1130
84.0450,32.0173
84.0992,31.9362
84.1803,31.8820
84.2760,31.8630
Z" /> 
<path style="fill:#B4A09A; fill-opacity:0.9000; stroke:none;fill-rule:evenodd;"
d="M 89.7260,38.6130
89.8217,38.6320
89.9028,38.6862
89.9570,38.7673
89.9760,38.8630
89.9760,42.9130
89.9570,43.0087
89.9028,43.0898
89.8217,43.1440
89.7260,43.1630
84.9760,43.1630
84.8803,43.1440
84.7992,43.0898
84.7450,43.0087
84.7260,42.9130
84.7260,38.8630
84.7450,38.7673
84.7992,38.6862
84.8803,38.6320
84.9760,38.6130
Z" /> 
<path style="fill:#B4A09A; fill-opacity:0.9000; stroke:none;fill-rule:evenodd;"
d="M 84.1760,38.6130
84.2717,38.6320
84.3528,38.6862
84.4070,38.7673
84.4260,38.8630
84.4260,42.9130
84.4070,43.0087
84.3528,43.0898
84.2717,43.1440
84.1760,43.1630
79.4260,43.1630
79.3303,43.1440
79.2492,43.0898
79.1950,43.0087
79.1760,42.9130
79.1760,38.8630
79.1950,38.7673
79.2492,38.6862
79.3303,38.6320
79.4260,38.6130
Z" /> 
<path style="fill:#B4A09A; fill-opacity:0.9000; stroke:none;fill-rule:evenodd;"
d="M 89.7260,43.4630
89.8217,43.4820
89.9028,43.5362
89.9570,43.6173
89.9760,43.7130
89.9760,47.7630
89.9570,47.8587
89.9028,47.9398
89.8217,47.9940
89.7260,48.0130
84.9760,48.0130
84.8803,47.9940
84.7992,47.9398
84.7450,47.8587
84.7260,47.7630
84.7260,43.7130
84.7450,43.6173
84.7992,43.5362
84.8803,43.4820
84.9760,43.4630
Z" /> 
<path style="fill:#B4A09A; fill-opacity:0.9000; stroke:none;fill-rule:evenodd;"
d="M 84.1760,43.4630
84.2717,43.4820
84.3528,43.5362
84.4070,43.6173
84.4260,43.7130
84.4260,47.7630
84.4070,47.8587
84.3528,47.9398
84.2717,47.9940
84.1760,48.0130
79.4260,48.0130
79.3303,47.9940
79.2492,47.9398
79.1950,47.8587
79.1760,47.7630
79.1760,43.7130
79.1950,43.6173
79.2492,43.5362
79.3303,43.4820
79.4260,43.4630
Z" /> 
<path style="fill:#B4A09A; fill-opacity:0.9000; stroke:none;fill-rule:evenodd;"
d="M 83.1760,31.8630
83.2717,31.8820
83.3528,31.9362
83.4070,32.0173
83.4260,32.1130
83.4260,36.2130
83.4070,36.3087
83.3528,36.3898
83.2717,36.4440
83.1760,36.4630
82.5760,36.4630
82.4803,36.4440
82.3992,36.3898
82.3450,36.3087
82.3260,36.2130
82.3260,32.1130
82.3450,32.0173
82.3992,31.9362
82.4803,31.8820
82.5760,31.8630
Z" /> 
<path style="fill:#B4A09A; fill-opacity:0.9000; stroke:none;fill-rule:evenodd;"
d="M 81.4760,31.8630
81.5717,31.8820
81.6528,31.9362
81.7070,32.0173
81.7260,32.1130
81.7260,36.2130
81.7070,36.3087
81.6528,36.3898
81.5717,36.4440
81.4760,36.4630
80.8760,36.4630
80.7803,36.4440
80.6992,36.3898
80.6450,36.3087
80.6260,36.2130
80.6260,32.1130
80.6450,32.0173
80.6992,31.9362
80.7803,31.8820
80.8760,31.8630
Z" /> 
<path style="fill:#B4A09A; fill-opacity:0.9000; stroke:none;fill-rule:evenodd;"
d="M 11.3340,29.7760
11.3530,29.6803
11.4072,29.5992
11.4883,29.5450
11.5840,29.5260
12.2840,29.5260
12.3797,29.5450
12.4608,29.5992
12.5150,29.6803
12.5340,29.7760
12.5340,30.6760
12.5150,30.7717
12.4608,30.8528
12.3797,30.9070
12.2840,30.9260
11.5840,30.9260
11.4883,30.9070
11.4072,30.8528
11.3530,30.7717
11.3340,30.6760
Z" /> 
<path style="fill:#B4A09A; fill-opacity:0.9000; stroke:none;fill-rule:evenodd;"
d="M 13.3340,29.7760
13.3530,29.6803
13.4072,29.5992
13.4883,29.5450
13.5840,29.5260
14.2840,29.5260
14.3797,29.5450
14.4608,29.5992
14.5150,29.6803
14.5340,29.7760
14.5340,30.6760
14.5150,30.7717
14.4608,30.8528
14.3797,30.9070
14.2840,30.9260
13.5840,30.9260
13.4883,30.9070
13.4072,30.8528
13.3530,30.7717
13.3340,30.6760
Z" /> 
<path style="fill:#B4A09A; fill-opacity:0.9000; stroke:none;fill-rule:evenodd;"
d="M 76.8150,62.5360
76.9107,62.5550
76.9918,62.6092
77.0460,62.6903
77.0650,62.7860
77.0650,64.7860
77.0460,64.8817
76.9918,64.9628
76.9107,65.0170
76.8150,65.0360
75.5150,65.0360
75.4193,65.0170
75.3382,64.9628
75.2840,64.8817
75.2650,64.7860
75.2650,62.7860
75.2840,62.6903
75.3382,62.6092
75.4193,62.5550
75.5150,62.5360
Z" /> 
<path style="fill:#B4A09A; fill-opacity:0.9000; stroke:none;fill-rule:evenodd;"
d="M 76.8150,66.5360
76.9107,66.5550
76.9918,66.6092
77.0460,66.6903
77.0650,66.7860
77.0650,68.7860
77.0460,68.8817
76.9918,68.9628
76.9107,69.0170
76.8150,69.0360
75.5150,69.0360
75.4193,69.0170
75.3382,68.9628
75.2840,68.8817
75.2650,68.7860
75.2650,66.7860
75.2840,66.6903
75.3382,66.6092
75.4193,66.5550
75.5150,66.5360
Z" /> 
<path style="fill:#B4A09A; fill-opacity:0.9000; stroke:none;fill-rule:evenodd;"
d="M 57.8180,32.8290
57.7606,32.8176
57.7119,32.7851
57.6794,32.7364
57.6680,32.6790
57.6680,31.5040
57.6794,31.4466
57.7119,31.3979
57.7606,31.3654
57.8180,31.3540
58.1180,31.3540
58.1754,31.3654
58.2241,31.3979
58.2566,31.4466
58.2680,31.5040
58.2680,32.6790
58.2566,32.7364
58.2241,32.7851
58.1754,32.8176
58.1180,32.8290
Z" /> 
<path style="fill:#B4A09A; fill-opacity:0.9000; stroke:none;fill-rule:evenodd;"
d="M 59.7180,32.8290
59.6606,32.8176
59.6119,32.7851
59.5794,32.7364
59.5680,32.6790
59.5680,31.5040
59.5794,31.4466
59.6119,31.3979
59.6606,31.3654
59.7180,31.3540
60.0180,31.3540
60.0754,31.3654
60.1241,31.3979
60.1566,31.4466
60.1680,31.5040
60.1680,32.6790
60.1566,32.7364
60.1241,32.7851
60.0754,32.8176
60.0180,32.8290
Z" /> 
<path style="fill:#B4A09A; fill-opacity:0.9000; stroke:none;fill-rule:evenodd;"
d="M 58.7680,30.9540
58.7106,30.9426
58.6619,30.9101
58.6294,30.8614
58.6180,30.8040
58.6180,29.6290
58.6294,29.5716
58.6619,29.5229
58.7106,29.4904
58.7680,29.4790
59.0680,29.4790
59.1254,29.4904
59.1741,29.5229
59.2066,29.5716
59.2180,29.6290
59.2180,30.8040
59.2066,30.8614
59.1741,30.9101
59.1254,30.9426
59.0680,30.9540
Z" /> 
<path style="fill:#B4A09A; fill-opacity:0.9000; stroke:none;fill-rule:evenodd;"
d="M 56.5740,27.3950
56.6697,27.4140
56.7508,27.4682
56.8050,27.5493
56.8240,27.6450
56.8240,28.3450
56.8050,28.4407
56.7508,28.5218
56.6697,28.5760
56.5740,28.5950
55.6740,28.5950
55.5783,28.5760
55.4972,28.5218
55.4430,28.4407
55.4240,28.3450
55.4240,27.6450
55.4430,27.5493
55.4972,27.4682
55.5783,27.4140
55.6740,27.3950
Z" /> 
<path style="fill:#B4A09A; fill-opacity:0.9000; stroke:none;fill-rule:evenodd;"
d="M 56.5740,29.3950
56.6697,29.4140
56.7508,29.4682
56.8050,29.5493
56.8240,29.6450
56.8240,30.3450
56.8050,30.4407
56.7508,30.5218
56.6697,30.5760
56.5740,30.5950
55.6740,30.5950
55.5783,30.5760
55.4972,30.5218
55.4430,30.4407
55.4240,30.3450
55.4240,29.6450
55.4430,29.5493
55.4972,29.4682
55.5783,29.4140
55.6740,29.3950
Z" /> 
<path style="fill:#B4A09A; fill-opacity:0.9000; stroke:none;fill-rule:evenodd;"
d="M 58.2960,12.8735
58.3150,12.7778
58.3692,12.6967
58.4503,12.6425
58.5460,12.6235
59.2460,12.6235
59.3417,12.6425
59.4228,12.6967
59.4770,12.7778
59.4960,12.8735
59.4960,13.7735
59.4770,13.8692
59.4228,13.9503
59.3417,14.0045
59.2460,14.0235
58.5460,14.0235
58.4503,14.0045
58.3692,13.9503
58.3150,13.8692
58.2960,13.7735
Z" /> 
<path style="fill:#B4A09A; fill-opacity:0.9000; stroke:none;fill-rule:evenodd;"
d="M 60.2960,12.8735
60.3150,12.7778
60.3692,12.6967
60.4503,12.6425
60.5460,12.6235
61.2460,12.6235
61.3417,12.6425
61.4228,12.6967
61.4770,12.7778
61.4960,12.8735
61.4960,13.7735
61.4770,13.8692
61.4228,13.9503
61.3417,14.0045
61.2460,14.0235
60.5460,14.0235
60.4503,14.0045
60.3692,13.9503
60.3150,13.8692
60.2960,13.7735
Z" /> 
<path style="fill:#B4A09A; fill-opacity:0.9000; stroke:none;fill-rule:evenodd;"
d="M 15.3670,15.9230
15.2713,15.9040
15.1902,15.8498
15.1360,15.7687
15.1170,15.6730
15.1170,14.9980
15.1360,14.9023
15.1902,14.8212
15.2713,14.7670
15.3670,14.7480
16.3170,14.7480
16.4127,14.7670
16.4938,14.8212
16.5480,14.9023
16.5670,14.9980
16.5670,15.6730
16.5480,15.7687
16.4938,15.8498
16.4127,15.9040
16.3170,15.9230
Z" /> 
<path style="fill:#B4A09A; fill-opacity:0.9000; stroke:none;fill-rule:evenodd;"
d="M 15.3670,13.8480
15.2713,13.8290
15.1902,13.7748
15.1360,13.6937
15.1170,13.5980
15.1170,12.9230
15.1360,12.8273
15.1902,12.7462
15.2713,12.6920
15.3670,12.6730
16.3170,12.6730
16.4127,12.6920
16.4938,12.7462
16.5480,12.8273
16.5670,12.9230
16.5670,13.5980
16.5480,13.6937
16.4938,13.7748
16.4127,13.8290
16.3170,13.8480
Z" /> 
<path style="fill:#B4A09A; fill-opacity:0.9000; stroke:none;fill-rule:evenodd;"
d="M 60.6630,25.2110
60.7587,25.2300
60.8398,25.2842
60.8940,25.3653
60.9130,25.4610
60.9130,26.1360
60.8940,26.2317
60.8398,26.3128
60.7587,26.3670
60.6630,26.3860
59.7130,26.3860
59.6173,26.3670
59.5362,26.3128
59.4820,26.2317
59.4630,26.1360
59.4630,25.4610
59.4820,25.3653
59.5362,25.2842
59.6173,25.2300
59.7130,25.2110
Z" /> 
<path style="fill:#B4A09A; fill-opacity:0.9000; stroke:none;fill-rule:evenodd;"
d="M 60.6630,27.2860
60.7587,27.3050
60.8398,27.3592
60.8940,27.4403
60.9130,27.5360
60.9130,28.2110
60.8940,28.3067
60.8398,28.3878
60.7587,28.4420
60.6630,28.4610
59.7130,28.4610
59.6173,28.4420
59.5362,28.3878
59.4820,28.3067
59.4630,28.2110
59.4630,27.5360
59.4820,27.4403
59.5362,27.3592
59.6173,27.3050
59.7130,27.2860
Z" /> 
<path style="fill:#B4A09A; fill-opacity:0.9000; stroke:none;fill-rule:evenodd;"
d="M 66.4000,70.5840
66.4190,70.4883
66.4732,70.4072
66.5543,70.3530
66.6500,70.3340
67.3750,70.3340
67.4707,70.3530
67.5518,70.4072
67.6060,70.4883
67.6250,70.5840
67.6250,73.4340
67.6060,73.5297
67.5518,73.6108
67.4707,73.6650
67.3750,73.6840
66.6500,73.6840
66.5543,73.6650
66.4732,73.6108
66.4190,73.5297
66.4000,73.4340
Z" /> 
<path style="fill:#B4A09A; fill-opacity:0.9000; stroke:none;fill-rule:evenodd;"
d="M 72.3250,70.5840
72.3440,70.4883
72.3982,70.4072
72.4793,70.3530
72.5750,70.3340
73.3000,70.3340
73.3957,70.3530
73.4768,70.4072
73.5310,70.4883
73.5500,70.5840
73.5500,73.4340
73.5310,73.5297
73.4768,73.6108
73.3957,73.6650
73.3000,73.6840
72.5750,73.6840
72.4793,73.6650
72.3982,73.6108
72.3440,73.5297
72.3250,73.4340
Z" /> 
<path style="fill:#B4A09A; fill-opacity:0.9000; stroke:none;fill-rule:evenodd;"
d="M 58.4230,19.5370
58.4804,19.5484
58.5291,19.5809
58.5616,19.6296
58.5730,19.6870
58.5730,21.3370
58.5616,21.3944
58.5291,21.4431
58.4804,21.4756
58.4230,21.4870
58.1230,21.4870
58.0656,21.4756
58.0169,21.4431
57.9844,21.3944
57.9730,21.3370
57.9730,19.6870
57.9844,19.6296
58.0169,19.5809
58.0656,19.5484
58.1230,19.5370
Z" /> 
<path style="fill:#B4A09A; fill-opacity:0.9000; stroke:none;fill-rule:evenodd;"
d="M 57.1530,19.5370
57.2104,19.5484
57.2591,19.5809
57.2916,19.6296
57.3030,19.6870
57.3030,21.3370
57.2916,21.3944
57.2591,21.4431
57.2104,21.4756
57.1530,21.4870
56.8530,21.4870
56.7956,21.4756
56.7469,21.4431
56.7144,21.3944
56.7030,21.3370
56.7030,19.6870
56.7144,19.6296
56.7469,19.5809
56.7956,19.5484
56.8530,19.5370
Z" /> 
<path style="fill:#B4A09A; fill-opacity:0.9000; stroke:none;fill-rule:evenodd;"
d="M 55.8830,19.5370
55.9404,19.5484
55.9891,19.5809
56.0216,19.6296
56.0330,19.6870
56.0330,21.3370
56.0216,21.3944
55.9891,21.4431
55.9404,21.4756
55.8830,21.4870
55.5830,21.4870
55.5256,21.4756
55.4769,21.4431
55.4444,21.3944
55.4330,21.3370
55.4330,19.6870
55.4444,19.6296
55.4769,19.5809
55.5256,19.5484
55.5830,19.5370
Z" /> 
<path style="fill:#B4A09A; fill-opacity:0.9000; stroke:none;fill-rule:evenodd;"
d="M 54.6130,19.5370
54.6704,19.5484
54.7191,19.5809
54.7516,19.6296
54.7630,19.6870
54.7630,21.3370
54.7516,21.3944
54.7191,21.4431
54.6704,21.4756
54.6130,21.4870
54.3130,21.4870
54.2556,21.4756
54.2069,21.4431
54.1744,21.3944
54.1630,21.3370
54.1630,19.6870
54.1744,19.6296
54.2069,19.5809
54.2556,19.5484
54.3130,19.5370
Z" /> 
<path style="fill:#B4A09A; fill-opacity:0.9000; stroke:none;fill-rule:evenodd;"
d="M 53.3430,19.5370
53.4004,19.5484
53.4491,19.5809
53.4816,19.6296
53.4930,19.6870
53.4930,21.3370
53.4816,21.3944
53.4491,21.4431
53.4004,21.4756
53.3430,21.4870
53.0430,21.4870
52.9856,21.4756
52.9369,21.4431
52.9044,21.3944
52.8930,21.3370
52.8930,19.6870
52.9044,19.6296
52.9369,19.5809
52.9856,19.5484
53.0430,19.5370
Z" /> 
<path style="fill:#B4A09A; fill-opacity:0.9000; stroke:none;fill-rule:evenodd;"
d="M 52.0730,19.5370
52.1304,19.5484
52.1791,19.5809
52.2116,19.6296
52.2230,19.6870
52.2230,21.3370
52.2116,21.3944
52.1791,21.4431
52.1304,21.4756
52.0730,21.4870
51.7730,21.4870
51.7156,21.4756
51.6669,21.4431
51.6344,21.3944
51.6230,21.3370
51.6230,19.6870
51.6344,19.6296
51.6669,19.5809
51.7156,19.5484
51.7730,19.5370
Z" /> 
<path style="fill:#B4A09A; fill-opacity:0.9000; stroke:none;fill-rule:evenodd;"
d="M 50.8030,19.5370
50.8604,19.5484
50.9091,19.5809
50.9416,19.6296
50.9530,19.6870
50.9530,21.3370
50.9416,21.3944
50.9091,21.4431
50.8604,21.4756
50.8030,21.4870
50.5030,21.4870
50.4456,21.4756
50.3969,21.4431
50.3644,21.3944
50.3530,21.3370
50.3530,19.6870
50.3644,19.6296
50.3969,19.5809
50.4456,19.5484
50.5030,19.5370
Z" /> 
<path style="fill:#B4A09A; fill-opacity:0.9000; stroke:none;fill-rule:evenodd;"
d="M 49.5330,19.5370
49.5904,19.5484
49.6391,19.5809
49.6716,19.6296
49.6830,19.6870
49.6830,21.3370
49.6716,21.3944
49.6391,21.4431
49.5904,21.4756
49.5330,21.4870
49.2330,21.4870
49.1756,21.4756
49.1269,21.4431
49.0944,21.3944
49.0830,21.3370
49.0830,19.6870
49.0944,19.6296
49.1269,19.5809
49.1756,19.5484
49.2330,19.5370
Z" /> 
<path style="fill:#B4A09A; fill-opacity:0.9000; stroke:none;fill-rule:evenodd;"
d="M 49.5330,24.4870
49.5904,24.4984
49.6391,24.5309
49.6716,24.5796
49.6830,24.6370
49.6830,26.2870
49.6716,26.3444
49.6391,26.3931
49.5904,26.4256
49.5330,26.4370
49.2330,26.4370
49.1756,26.4256
49.1269,26.3931
49.0944,26.3444
49.0830,26.2870
49.0830,24.6370
49.0944,24.5796
49.1269,24.5309
49.1756,24.4984
49.2330,24.4870
Z" /> 
<path style="fill:#B4A09A; fill-opacity:0.9000; stroke:none;fill-rule:evenodd;"
d="M 50.8030,24.4870
50.8604,24.4984
50.9091,24.5309
50.9416,24.5796
50.9530,24.6370
50.9530,26.2870
50.9416,26.3444
50.9091,26.3931
50.8604,26.4256
50.8030,26.4370
50.5030,26.4370
50.4456,26.4256
50.3969,26.3931
50.3644,26.3444
50.3530,26.2870
50.3530,24.6370
50.3644,24.5796
50.3969,24.5309
50.4456,24.4984
50.5030,24.4870
Z" /> 
<path style="fill:#B4A09A; fill-opacity:0.9000; stroke:none;fill-rule:evenodd;"
d="M 52.0730,24.4870
52.1304,24.4984
52.1791,24.5309
52.2116,24.5796
52.2230,24.6370
52.2230,26.2870
52.2116,26.3444
52.1791,26.3931
52.1304,26.4256
52.0730,26.4370
51.7730,26.4370
51.7156,26.4256
51.6669,26.3931
51.6344,26.3444
51.6230,26.2870
51.6230,24.6370
51.6344,24.5796
51.6669,24.5309
51.7156,24.4984
51.7730,24.4870
Z" /> 
<path style="fill:#B4A09A; fill-opacity:0.9000; stroke:none;fill-rule:evenodd;"
d="M 53.3430,24.4870
53.4004,24.4984
53.4491,24.5309
53.4816,24.5796
53.4930,24.6370
53.4930,26.2870
53.4816,26.3444
53.4491,26.3931
53.4004,26.4256
53.3430,26.4370
53.0430,26.4370
52.9856,26.4256
52.9369,26.3931
52.9044,26.3444
52.8930,26.2870
52.8930,24.6370
52.9044,24.5796
52.9369,24.5309
52.9856,24.4984
53.0430,24.4870
Z" /> 
<path style="fill:#B4A09A; fill-opacity:0.9000; stroke:none;fill-rule:evenodd;"
d="M 54.6130,24.4870
54.6704,24.4984
54.7191,24.5309
54.7516,24.5796
54.7630,24.6370
54.7630,26.2870
54.7516,26.3444
54.7191,26.3931
54.6704,26.4256
54.6130,26.4370
54.3130,26.4370
54.2556,26.4256
54.2069,26.3931
54.1744,26.3444
54.1630,26.2870
54.1630,24.6370
54.1744,24.5796
54.2069,24.5309
54.2556,24.4984
54.3130,24.4870
Z" /> 
<path style="fill:#B4A09A; fill-opacity:0.9000; stroke:none;fill-rule:evenodd;"
d="M 55.8830,24.4870
55.9404,24.4984
55.9891,24.5309
56.0216,24.5796
56.0330,24.6370
56.0330,26.2870
56.0216,26.3444
55.9891,26.3931
55.9404,26.4256
55.8830,26.4370
55.5830,26.4370
55.5256,26.4256
55.4769,26.3931
55.4444,26.3444
55.4330,26.2870
55.4330,24.6370
55.4444,24.5796
55.4769,24.5309
55.5256,24.4984
55.5830,24.4870
Z" /> 
<path style="fill:#B4A09A; fill-opacity:0.9000; stroke:none;fill-rule:evenodd;"
d="M 57.1530,24.4870
57.2104,24.4984
57.2591,24.5309
57.2916,24.5796
57.3030,24.6370
57.3030,26.2870
57.2916,26.3444
57.2591,26.3931
57.2104,26.4256
57.1530,26.4370
56.8530,26.4370
56.7956,26.4256
56.7469,26.3931
56.7144,26.3444
56.7030,26.2870
56.7030,24.6370
56.7144,24.5796
56.7469,24.5309
56.7956,24.4984
56.8530,24.4870
Z" /> 
<path style="fill:#B4A09A; fill-opacity:0.9000; stroke:none;fill-rule:evenodd;"
d="M 58.4230,24.4870
58.4804,24.4984
58.5291,24.5309
58.5616,24.5796
58.5730,24.6370
58.5730,26.2870
58.5616,26.3444
58.5291,26.3931
58.4804,26.4256
58.4230,26.4370
58.1230,26.4370
58.0656,26.4256
58.0169,26.3931
57.9844,26.3444
57.9730,26.2870
57.9730,24.6370
57.9844,24.5796
58.0169,24.5309
58.0656,24.4984
58.1230,24.4870
Z" /> 
<path style="fill:#B4A09A; fill-opacity:0.9000; stroke:none;fill-rule:evenodd;"
d="M 78.8010,24.7810
78.8200,24.6853
78.8742,24.6042
78.9553,24.5500
79.0510,24.5310
82.5510,24.5310
82.6467,24.5500
82.7278,24.6042
82.7820,24.6853
82.8010,24.7810
82.8010,26.7810
82.7820,26.8767
82.7278,26.9578
82.6467,27.0120
82.5510,27.0310
79.0510,27.0310
78.9553,27.0120
78.8742,26.9578
78.8200,26.8767
78.8010,26.7810
Z" /> 
<path style="fill:#B4A09A; fill-opacity:0.9000; stroke:none;fill-rule:evenodd;"
d="M 86.8010,24.7810
86.8200,24.6853
86.8742,24.6042
86.9553,24.5500
87.0510,24.5310
90.5510,24.5310
90.6467,24.5500
90.7278,24.6042
90.7820,24.6853
90.8010,24.7810
90.8010,26.7810
90.7820,26.8767
90.7278,26.9578
90.6467,27.0120
90.5510,27.0310
87.0510,27.0310
86.9553,27.0120
86.8742,26.9578
86.8200,26.8767
86.8010,26.7810
Z" /> 
<path style="fill:#B4A09A; fill-opacity:0.9000; stroke:none;fill-rule:evenodd;"
d="M 50.9550,14.2815
50.9360,14.3772
50.8818,14.4583
50.8007,14.5125
50.7050,14.5315
50.0050,14.5315
49.9093,14.5125
49.8282,14.4583
49.7740,14.3772
49.7550,14.2815
49.7550,13.3815
49.7740,13.2858
49.8282,13.2047
49.9093,13.1505
50.0050,13.1315
50.7050,13.1315
50.8007,13.1505
50.8818,13.2047
50.9360,13.2858
50.9550,13.3815
Z" /> 
<path style="fill:#B4A09A; fill-opacity:0.9000; stroke:none;fill-rule:evenodd;"
d="M 48.9550,14.2815
48.9360,14.3772
48.8818,14.4583
48.8007,14.5125
48.7050,14.5315
48.0050,14.5315
47.9093,14.5125
47.8282,14.4583
47.7740,14.3772
47.7550,14.2815
47.7550,13.3815
47.7740,13.2858
47.8282,13.2047
47.9093,13.1505
48.0050,13.1315
48.7050,13.1315
48.8007,13.1505
48.8818,13.2047
48.9360,13.2858
48.9550,13.3815
Z" /> 
<path style="fill:#B4A09A; fill-opacity:0.9000; stroke:none;fill-rule:evenodd;"
d="M 69.6820,74.9070
69.6934,74.8496
69.7259,74.8009
69.7746,74.7684
69.8320,74.7570
71.4820,74.7570
71.5394,74.7684
71.5881,74.8009
71.6206,74.8496
71.6320,74.9070
71.6320,75.2070
71.6206,75.2644
71.5881,75.3131
71.5394,75.3456
71.4820,75.3570
69.8320,75.3570
69.7746,75.3456
69.7259,75.3131
69.6934,75.2644
69.6820,75.2070
Z" /> 
<path style="fill:#B4A09A; fill-opacity:0.9000; stroke:none;fill-rule:evenodd;"
d="M 69.6820,76.1770
69.6934,76.1196
69.7259,76.0709
69.7746,76.0384
69.8320,76.0270
71.4820,76.0270
71.5394,76.0384
71.5881,76.0709
71.6206,76.1196
71.6320,76.1770
71.6320,76.4770
71.6206,76.5344
71.5881,76.5831
71.5394,76.6156
71.4820,76.6270
69.8320,76.6270
69.7746,76.6156
69.7259,76.5831
69.6934,76.5344
69.6820,76.4770
Z" /> 
<path style="fill:#B4A09A; fill-opacity:0.9000; stroke:none;fill-rule:evenodd;"
d="M 69.6820,77.4470
69.6934,77.3896
69.7259,77.3409
69.7746,77.3084
69.8320,77.2970
71.4820,77.2970
71.5394,77.3084
71.5881,77.3409
71.6206,77.3896
71.6320,77.4470
71.6320,77.7470
71.6206,77.8044
71.5881,77.8531
71.5394,77.8856
71.4820,77.8970
69.8320,77.8970
69.7746,77.8856
69.7259,77.8531
69.6934,77.8044
69.6820,77.7470
Z" /> 
<path style="fill:#B4A09A; fill-opacity:0.9000; stroke:none;fill-rule:evenodd;"
d="M 69.6820,78.7170
69.6934,78.6596
69.7259,78.6109
69.7746,78.5784
69.8320,78.5670
71.4820,78.5670
71.5394,78.5784
71.5881,78.6109
71.6206,78.6596
71.6320,78.7170
71.6320,79.0170
71.6206,79.0744
71.5881,79.1231
71.5394,79.1556
71.4820,79.1670
69.8320,79.1670
69.7746,79.1556
69.7259,79.1231
69.6934,79.0744
69.6820,79.0170
Z" /> 
<path style="fill:#B4A09A; fill-opacity:0.9000; stroke:none;fill-rule:evenodd;"
d="M 74.6320,78.7170
74.6434,78.6596
74.6759,78.6109
74.7246,78.5784
74.7820,78.5670
76.4320,78.5670
76.4894,78.5784
76.5381,78.6109
76.5706,78.6596
76.5820,78.7170
76.5820,79.0170
76.5706,79.0744
76.5381,79.1231
76.4894,79.1556
76.4320,79.1670
74.7820,79.1670
74.7246,79.1556
74.6759,79.1231
74.6434,79.0744
74.6320,79.0170
Z" /> 
<path style="fill:#B4A09A; fill-opacity:0.9000; stroke:none;fill-rule:evenodd;"
d="M 74.6320,77.4470
74.6434,77.3896
74.6759,77.3409
74.7246,77.3084
74.7820,77.2970
76.4320,77.2970
76.4894,77.3084
76.5381,77.3409
76.5706,77.3896
76.5820,77.4470
76.5820,77.7470
76.5706,77.8044
76.5381,77.8531
76.4894,77.8856
76.4320,77.8970
74.7820,77.8970
74.7246,77.8856
74.6759,77.8531
74.6434,77.8044
74.6320,77.7470
Z" /> 
<path style="fill:#B4A09A; fill-opacity:0.9000; stroke:none;fill-rule:evenodd;"
d="M 74.6320,76.1770
74.6434,76.1196
74.6759,76.0709
74.7246,76.0384
74.7820,76.0270
76.4320,76.0270
76.4894,76.0384
76.5381,76.0709
76.5706,76.1196
76.5820,76.1770
76.5820,76.4770
76.5706,76.5344
76.5381,76.5831
76.4894,76.6156
76.4320,76.6270
74.7820,76.6270
74.7246,76.6156
74.6759,76.5831
74.6434,76.5344
74.6320,76.4770
Z" /> 
<path style="fill:#B4A09A; fill-opacity:0.9000; stroke:none;fill-rule:evenodd;"
d="M 74.6320,74.9070
74.6434,74.8496
74.6759,74.8009
74.7246,74.7684
74.7820,74.7570
76.4320,74.7570
76.4894,74.7684
76.5381,74.8009
76.5706,74.8496
76.5820,74.9070
76.5820,75.2070
76.5706,75.2644
76.5381,75.3131
76.4894,75.3456
76.4320,75.3570
74.7820,75.3570
74.7246,75.3456
74.6759,75.3131
74.6434,75.2644
74.6320,75.2070
Z" /> 
<path style="fill:#B4A09A; fill-opacity:0.9000; stroke:none;fill-rule:evenodd;"
d="M 11.5340,74.0580
11.5340,72.0580
12.1440,72.0580
12.1440,74.0580
Z" /> 
<path style="fill:#B4A09A; fill-opacity:0.9000; stroke:none;fill-rule:evenodd;"
d="M 12.5340,74.0580
12.5340,72.0580
13.1440,72.0580
13.1440,74.0580
Z" /> 
<path style="fill:#B4A09A; fill-opacity:0.9000; stroke:none;fill-rule:evenodd;"
d="M 13.5340,74.0580
13.5340,72.0580
14.1440,72.0580
14.1440,74.0580
Z" /> 
<path style="fill:#B4A09A; fill-opacity:0.9000; stroke:none;fill-rule:evenodd;"
d="M 14.5340,74.0580
14.5340,72.0580
15.1440,72.0580
15.1440,74.0580
Z" /> 
<path style="fill:#B4A09A; fill-opacity:0.9000; stroke:none;fill-rule:evenodd;"
d="M 15.5340,74.0580
15.5340,72.0580
16.1440,72.0580
16.1440,74.0580
Z" /> 
<path style="fill:#B4A09A; fill-opacity:0.9000; stroke:none;fill-rule:evenodd;"
d="M 16.5340,74.0580
16.5340,72.0580
17.1440,72.0580
17.1440,74.0580
Z" /> 
<path style="fill:#B4A09A; fill-opacity:0.9000; stroke:none;fill-rule:evenodd;"
d="M 17.5340,74.0580
17.5340,72.0580
18.1440,72.0580
18.1440,74.0580
Z" /> 
<path style="fill:#B4A09A; fill-opacity:0.9000; stroke:none;fill-rule:evenodd;"
d="M 7.5090,77.6580
7.5090,74.0580
10.1890,74.0580
10.1890,77.6580
Z" /> 
<path style="fill:#B4A09A; fill-opacity:0.9000; stroke:none;fill-rule:evenodd;"
d="M 19.4890,77.6580
19.4890,74.0580
22.1690,74.0580
22.1690,77.6580
Z" /> 
<path style="fill:#B4A09A; fill-opacity:0.9000; stroke:none;fill-rule:evenodd;"
d="M 27.0640,53.3140
26.9683,53.2950
26.8872,53.2408
26.8330,53.1597
26.8140,53.0640
26.8140,52.3890
26.8330,52.2933
26.8872,52.2122
26.9683,52.1580
27.0640,52.1390
28.0140,52.1390
28.1097,52.1580
28.1908,52.2122
28.2450,52.2933
28.2640,52.3890
28.2640,53.0640
28.2450,53.1597
28.1908,53.2408
28.1097,53.2950
28.0140,53.3140
Z" /> 
<path style="fill:#B4A09A; fill-opacity:0.9000; stroke:none;fill-rule:evenodd;"
d="M 27.0640,51.2390
26.9683,51.2200
26.8872,51.1658
26.8330,51.0847
26.8140,50.9890
26.8140,50.3140
26.8330,50.2183
26.8872,50.1372
26.9683,50.0830
27.0640,50.0640
28.0140,50.0640
28.1097,50.0830
28.1908,50.1372
28.2450,50.2183
28.2640,50.3140
28.2640,50.9890
28.2450,51.0847
28.1908,51.1658
28.1097,51.2200
28.0140,51.2390
Z" /> 
<path style="fill:#B4A09A; fill-opacity:0.9000; stroke:none;fill-rule:evenodd;"
d="M 58.9320,67.1840
59.0277,67.2030
59.1088,67.2572
59.1630,67.3383
59.1820,67.4340
59.1820,68.1090
59.1630,68.2047
59.1088,68.2858
59.0277,68.3400
58.9320,68.3590
57.9820,68.3590
57.8863,68.3400
57.8052,68.2858
57.7510,68.2047
57.7320,68.1090
57.7320,67.4340
57.7510,67.3383
57.8052,67.2572
57.8863,67.2030
57.9820,67.1840
Z" /> 
<path style="fill:#B4A09A; fill-opacity:0.9000; stroke:none;fill-rule:evenodd;"
d="M 58.9320,69.2590
59.0277,69.2780
59.1088,69.3322
59.1630,69.4133
59.1820,69.5090
59.1820,70.1840
59.1630,70.2797
59.1088,70.3608
59.0277,70.4150
58.9320,70.4340
57.9820,70.4340
57.8863,70.4150
57.8052,70.3608
57.7510,70.2797
57.7320,70.1840
57.7320,69.5090
57.7510,69.4133
57.8052,69.3322
57.8863,69.2780
57.9820,69.2590
Z" /> 
<path style="fill:#B4A09A; fill-opacity:0.9000; stroke:none;fill-rule:evenodd;"
d="M 91.4550,52.5450
91.4550,57.9450
88.5550,57.9450
88.5550,52.5450
Z" /> 
<path style="fill:#B4A09A; fill-opacity:0.9000; stroke:none;fill-rule:evenodd;"
d="M 81.5550,52.5450
81.5550,57.9450
78.6550,57.9450
78.6550,52.5450
Z" /> 
<path style="fill:#B4A09A; fill-opacity:0.9000; stroke:none;fill-rule:evenodd;"
d="M 49.2170,15.8095
49.2170,15.4095
49.6970,15.4095
49.6970,15.8095
Z" /> 
<path style="fill:#B4A09A; fill-opacity:0.9000; stroke:none;fill-rule:evenodd;"
d="M 50.5370,15.8095
50.5370,15.4095
51.0170,15.4095
51.0170,15.8095
Z" /> 
<path style="fill:#B4A09A; fill-opacity:0.9000; stroke:none;fill-rule:evenodd;"
d="M 58.2710,15.0075
58.2900,14.9118
58.3442,14.8307
58.4253,14.7765
58.5210,14.7575
59.1960,14.7575
59.2917,14.7765
59.3728,14.8307
59.4270,14.9118
59.4460,15.0075
59.4460,15.9575
59.4270,16.0532
59.3728,16.1343
59.2917,16.1885
59.1960,16.2075
58.5210,16.2075
58.4253,16.1885
58.3442,16.1343
58.2900,16.0532
58.2710,15.9575
Z" /> 
<path style="fill:#B4A09A; fill-opacity:0.9000; stroke:none;fill-rule:evenodd;"
d="M 60.3460,15.0075
60.3650,14.9118
60.4192,14.8307
60.5003,14.7765
60.5960,14.7575
61.2710,14.7575
61.3667,14.7765
61.4478,14.8307
61.5020,14.9118
61.5210,15.0075
61.5210,15.9575
61.5020,16.0532
61.4478,16.1343
61.3667,16.1885
61.2710,16.2075
60.5960,16.2075
60.5003,16.1885
60.4192,16.1343
60.3650,16.0532
60.3460,15.9575
Z" /> 
<path style="fill:#B4A09A; fill-opacity:0.9000; stroke:none;fill-rule:evenodd;"
d="M 77.6120,52.5450
77.6120,57.9450
74.7120,57.9450
74.7120,52.5450
Z" /> 
<path style="fill:#B4A09A; fill-opacity:0.9000; stroke:none;fill-rule:evenodd;"
d="M 67.7120,52.5450
67.7120,57.9450
64.8120,57.9450
64.8120,52.5450
Z" /> 
<path style="fill:#B4A09A; fill-opacity:0.9000; stroke:none;fill-rule:evenodd;"
d="M 77.6680,77.8840
77.6870,77.7883
77.7412,77.7072
77.8223,77.6530
77.9180,77.6340
78.5930,77.6340
78.6887,77.6530
78.7698,77.7072
78.8240,77.7883
78.8430,77.8840
78.8430,78.8340
78.8240,78.9297
78.7698,79.0108
78.6887,79.0650
78.5930,79.0840
77.9180,79.0840
77.8223,79.0650
77.7412,79.0108
77.6870,78.9297
77.6680,78.8340
Z" /> 
<path style="fill:#B4A09A; fill-opacity:0.9000; stroke:none;fill-rule:evenodd;"
d="M 79.7430,77.8840
79.7620,77.7883
79.8162,77.7072
79.8973,77.6530
79.9930,77.6340
80.6680,77.6340
80.7637,77.6530
80.8448,77.7072
80.8990,77.7883
80.9180,77.8840
80.9180,78.8340
80.8990,78.9297
80.8448,79.0108
80.7637,79.0650
80.6680,79.0840
79.9930,79.0840
79.8973,79.0650
79.8162,79.0108
79.7620,78.9297
79.7430,78.8340
Z" /> 
<path style="fill:#B4A09A; fill-opacity:0.9000; stroke:none;fill-rule:evenodd;"
d="M 14.5590,28.5420
14.5400,28.6377
14.4858,28.7188
14.4047,28.7730
14.3090,28.7920
13.6340,28.7920
13.5383,28.7730
13.4572,28.7188
13.4030,28.6377
13.3840,28.5420
13.3840,27.5920
13.4030,27.4963
13.4572,27.4152
13.5383,27.3610
13.6340,27.3420
14.3090,27.3420
14.4047,27.3610
14.4858,27.4152
14.5400,27.4963
14.5590,27.5920
Z" /> 
<path style="fill:#B4A09A; fill-opacity:0.9000; stroke:none;fill-rule:evenodd;"
d="M 12.4840,28.5420
12.4650,28.6377
12.4108,28.7188
12.3297,28.7730
12.2340,28.7920
11.5590,28.7920
11.4633,28.7730
11.3822,28.7188
11.3280,28.6377
11.3090,28.5420
11.3090,27.5920
11.3280,27.4963
11.3822,27.4152
11.4633,27.3610
11.5590,27.3420
12.2340,27.3420
12.3297,27.3610
12.4108,27.4152
12.4650,27.4963
12.4840,27.5920
Z" /> 
<path style="fill:#B4A09A; fill-opacity:0.9000; stroke:none;fill-rule:evenodd;"
d="M 17.6530,15.9230
17.5573,15.9040
17.4762,15.8498
17.4220,15.7687
17.4030,15.6730
17.4030,14.9980
17.4220,14.9023
17.4762,14.8212
17.5573,14.7670
17.6530,14.7480
18.6030,14.7480
18.6987,14.7670
18.7798,14.8212
18.8340,14.9023
18.8530,14.9980
18.8530,15.6730
18.8340,15.7687
18.7798,15.8498
18.6987,15.9040
18.6030,15.9230
Z" /> 
<path style="fill:#B4A09A; fill-opacity:0.9000; stroke:none;fill-rule:evenodd;"
d="M 17.6530,13.8480
17.5573,13.8290
17.4762,13.7748
17.4220,13.6937
17.4030,13.5980
17.4030,12.9230
17.4220,12.8273
17.4762,12.7462
17.5573,12.6920
17.6530,12.6730
18.6030,12.6730
18.6987,12.6920
18.7798,12.7462
18.8340,12.8273
18.8530,12.9230
18.8530,13.5980
18.8340,13.6937
18.7798,13.7748
18.6987,13.8290
18.6030,13.8480
Z" /> 
<path style="fill:#B4A09A; fill-opacity:0.9000; stroke:none;fill-rule:evenodd;"
d="M 90.4040,62.4090
90.4997,62.4280
90.5808,62.4822
90.6350,62.5633
90.6540,62.6590
90.6540,64.6590
90.6350,64.7547
90.5808,64.8358
90.4997,64.8900
90.4040,64.9090
89.1040,64.9090
89.0083,64.8900
88.9272,64.8358
88.8730,64.7547
88.8540,64.6590
88.8540,62.6590
88.8730,62.5633
88.9272,62.4822
89.0083,62.4280
89.1040,62.4090
Z" /> 
<path style="fill:#B4A09A; fill-opacity:0.9000; stroke:none;fill-rule:evenodd;"
d="M 90.4040,66.4090
90.4997,66.4280
90.5808,66.4822
90.6350,66.5633
90.6540,66.6590
90.6540,68.6590
90.6350,68.7547
90.5808,68.8358
90.4997,68.8900
90.4040,68.9090
89.1040,68.9090
89.0083,68.8900
88.9272,68.8358
88.8730,68.7547
88.8540,68.6590
88.8540,66.6590
88.8730,66.5633
88.9272,66.4822
89.0083,66.4280
89.1040,66.4090
Z" /> 
<path style="fill:#B4A09A; fill-opacity:0.9000; stroke:none;fill-rule:evenodd;"
d="M 64.6970,65.4900
64.7160,65.3943
64.7702,65.3132
64.8513,65.2590
64.9470,65.2400
67.9470,65.2400
68.0427,65.2590
68.1238,65.3132
68.1780,65.3943
68.1970,65.4900
68.1970,66.5900
68.1780,66.6857
68.1238,66.7668
68.0427,66.8210
67.9470,66.8400
64.9470,66.8400
64.8513,66.8210
64.7702,66.7668
64.7160,66.6857
64.6970,66.5900
Z" /> 
<path style="fill:#B4A09A; fill-opacity:0.9000; stroke:none;fill-rule:evenodd;"
d="M 70.0970,65.4900
70.1160,65.3943
70.1702,65.3132
70.2513,65.2590
70.3470,65.2400
73.3470,65.2400
73.4427,65.2590
73.5238,65.3132
73.5780,65.3943
73.5970,65.4900
73.5970,66.5900
73.5780,66.6857
73.5238,66.7668
73.4427,66.8210
73.3470,66.8400
70.3470,66.8400
70.2513,66.8210
70.1702,66.7668
70.1160,66.6857
70.0970,66.5900
Z" /> 
<path style="fill:#B4A09A; fill-opacity:0.9000; stroke:none;fill-rule:evenodd;"
d="M 75.9000,69.6840
75.9957,69.7030
76.0768,69.7572
76.1310,69.8383
76.1500,69.9340
76.1500,70.6840
76.1310,70.7797
76.0768,70.8608
75.9957,70.9150
75.9000,70.9340
74.6500,70.9340
74.5543,70.9150
74.4732,70.8608
74.4190,70.7797
74.4000,70.6840
74.4000,69.9340
74.4190,69.8383
74.4732,69.7572
74.5543,69.7030
74.6500,69.6840
Z" /> 
<path style="fill:#B4A09A; fill-opacity:0.9000; stroke:none;fill-rule:evenodd;"
d="M 75.9000,72.4840
75.9957,72.5030
76.0768,72.5572
76.1310,72.6383
76.1500,72.7340
76.1500,73.4840
76.1310,73.5797
76.0768,73.6608
75.9957,73.7150
75.9000,73.7340
74.6500,73.7340
74.5543,73.7150
74.4732,73.6608
74.4190,73.5797
74.4000,73.4840
74.4000,72.7340
74.4190,72.6383
74.4732,72.5572
74.5543,72.5030
74.6500,72.4840
Z" /> 
<path style="fill:#B4A09A; fill-opacity:0.9000; stroke:none;fill-rule:evenodd;"
d="M 53.0220,14.3415
52.2920,14.3415
52.2920,13.1315
53.0220,13.1315
Z" /> 
<path style="fill:#B4A09A; fill-opacity:0.9000; stroke:none;fill-rule:evenodd;"
d="M 53.0220,17.7015
52.2920,17.7015
52.2920,16.4915
53.0220,16.4915
Z" /> 
<path style="fill:#B4A09A; fill-opacity:0.9000; stroke:none;fill-rule:evenodd;"
d="M 54.5420,27.3950
54.6377,27.4140
54.7188,27.4682
54.7730,27.5493
54.7920,27.6450
54.7920,28.3450
54.7730,28.4407
54.7188,28.5218
54.6377,28.5760
54.5420,28.5950
53.6420,28.5950
53.5463,28.5760
53.4652,28.5218
53.4110,28.4407
53.3920,28.3450
53.3920,27.6450
53.4110,27.5493
53.4652,27.4682
53.5463,27.4140
53.6420,27.3950
Z" /> 
<path style="fill:#B4A09A; fill-opacity:0.9000; stroke:none;fill-rule:evenodd;"
d="M 54.5420,29.3950
54.6377,29.4140
54.7188,29.4682
54.7730,29.5493
54.7920,29.6450
54.7920,30.3450
54.7730,30.4407
54.7188,30.5218
54.6377,30.5760
54.5420,30.5950
53.6420,30.5950
53.5463,30.5760
53.4652,30.5218
53.4110,30.4407
53.3920,30.3450
53.3920,29.6450
53.4110,29.5493
53.4652,29.4682
53.5463,29.4140
53.6420,29.3950
Z" /> 
<path style="fill:#B4A09A; fill-opacity:0.9000; stroke:none;fill-rule:evenodd;"
d="M 57.2000,66.4590
57.0930,66.4434
56.9821,66.3892
56.8948,66.3019
56.8406,66.1910
56.8250,66.0840
56.8250,64.8340
56.8406,64.7270
56.8948,64.6161
56.9821,64.5288
57.0930,64.4746
57.2000,64.4590
57.9500,64.4590
58.0570,64.4746
58.1679,64.5288
58.2552,64.6161
58.3094,64.7270
58.3250,64.8340
58.3250,66.0840
58.3094,66.1910
58.2552,66.3019
58.1679,66.3892
58.0570,66.4434
57.9500,66.4590
Z" /> 
<path style="fill:#B4A09A; fill-opacity:0.9000; stroke:none;fill-rule:evenodd;"
d="M 59.5000,66.4590
59.3930,66.4434
59.2821,66.3892
59.1948,66.3019
59.1406,66.1910
59.1250,66.0840
59.1250,64.8340
59.1406,64.7270
59.1948,64.6161
59.2821,64.5288
59.3930,64.4746
59.5000,64.4590
60.2500,64.4590
60.3570,64.4746
60.4679,64.5288
60.5552,64.6161
60.6094,64.7270
60.6250,64.8340
60.6250,66.0840
60.6094,66.1910
60.5552,66.3019
60.4679,66.3892
60.3570,66.4434
60.2500,66.4590
Z" /> 
<path style="fill:#B4A09A; fill-opacity:0.9000; stroke:none;fill-rule:evenodd;"
d="M 61.8000,66.4590
61.6930,66.4434
61.5821,66.3892
61.4948,66.3019
61.4406,66.1910
61.4250,66.0840
61.4250,64.8340
61.4406,64.7270
61.4948,64.6161
61.5821,64.5288
61.6930,64.4746
61.8000,64.4590
62.5500,64.4590
62.6570,64.4746
62.7679,64.5288
62.8552,64.6161
62.9094,64.7270
62.9250,64.8340
62.9250,66.0840
62.9094,66.1910
62.8552,66.3019
62.7679,66.3892
62.6570,66.4434
62.5500,66.4590
Z" /> 
<path style="fill:#B4A09A; fill-opacity:0.9000; stroke:none;fill-rule:evenodd;"
d="M 58.4750,60.1590
58.3687,60.1476
58.2354,60.0978
58.1214,60.0126
58.0362,59.8986
57.9864,59.7653
57.9750,59.6590
57.9750,58.6590
57.9864,58.5527
58.0362,58.4194
58.1214,58.3054
58.2354,58.2202
58.3687,58.1704
58.4750,58.1590
61.2750,58.1590
61.3813,58.1704
61.5146,58.2202
61.6286,58.3054
61.7138,58.4194
61.7636,58.5527
61.7750,58.6590
61.7750,59.6590
61.7636,59.7653
61.7138,59.8986
61.6286,60.0126
61.5146,60.0978
61.3813,60.1476
61.2750,60.1590
Z" /> 
<path style="fill:#B4A09A; fill-opacity:0.9000; stroke:none;fill-rule:evenodd;"
d="M 84.7250,70.9590
84.7440,70.8633
84.7982,70.7822
84.8793,70.7280
84.9750,70.7090
86.9750,70.7090
87.0707,70.7280
87.1518,70.7822
87.2060,70.8633
87.2250,70.9590
87.2250,72.2590
87.2060,72.3547
87.1518,72.4358
87.0707,72.4900
86.9750,72.5090
84.9750,72.5090
84.8793,72.4900
84.7982,72.4358
84.7440,72.3547
84.7250,72.2590
Z" /> 
<path style="fill:#B4A09A; fill-opacity:0.9000; stroke:none;fill-rule:evenodd;"
d="M 88.7250,70.9590
88.7440,70.8633
88.7982,70.7822
88.8793,70.7280
88.9750,70.7090
90.9750,70.7090
91.0707,70.7280
91.1518,70.7822
91.2060,70.8633
91.2250,70.9590
91.2250,72.2590
91.2060,72.3547
91.1518,72.4358
91.0707,72.4900
90.9750,72.5090
88.9750,72.5090
88.8793,72.4900
88.7982,72.4358
88.7440,72.3547
88.7250,72.2590
Z" /> 
<path style="fill:#B4A09A; fill-opacity:0.9000; stroke:none;fill-rule:evenodd;"
d="M 57.6210,12.9965
57.6210,13.3965
57.1410,13.3965
57.1410,12.9965
Z" /> 
<path style="fill:#B4A09A; fill-opacity:0.9000; stroke:none;fill-rule:evenodd;"
d="M 56.3010,12.9965
56.3010,13.3965
55.8210,13.3965
55.8210,12.9965
Z" /> 
<path style="fill:#B4A09A; fill-opacity:0.9000; stroke:none;fill-rule:evenodd;"
d="M 42.5030,46.1550
42.5220,46.0593
42.5762,45.9782
42.6573,45.9240
42.7530,45.9050
43.4280,45.9050
43.5237,45.9240
43.6048,45.9782
43.6590,46.0593
43.6780,46.1550
43.6780,47.1050
43.6590,47.2007
43.6048,47.2818
43.5237,47.3360
43.4280,47.3550
42.7530,47.3550
42.6573,47.3360
42.5762,47.2818
42.5220,47.2007
42.5030,47.1050
Z" /> 
<path style="fill:#B4A09A; fill-opacity:0.9000; stroke:none;fill-rule:evenodd;"
d="M 44.5780,46.1550
44.5970,46.0593
44.6512,45.9782
44.7323,45.9240
44.8280,45.9050
45.5030,45.9050
45.5987,45.9240
45.6798,45.9782
45.7340,46.0593
45.7530,46.1550
45.7530,47.1050
45.7340,47.2007
45.6798,47.2818
45.5987,47.3360
45.5030,47.3550
44.8280,47.3550
44.7323,47.3360
44.6512,47.2818
44.5970,47.2007
44.5780,47.1050
Z" /> 
<path style="fill:#B4A09A; fill-opacity:0.9000; stroke:none;fill-rule:evenodd;"
d="M 16.4340,51.2320
16.4340,49.9320
17.9840,49.9320
17.9840,51.2320
Z" /> 
<path style="fill:#B4A09A; fill-opacity:0.9000; stroke:none;fill-rule:evenodd;"
d="M 24.3940,51.2320
24.3940,49.9320
25.9440,49.9320
25.9440,51.2320
Z" /> 
<path style="fill:#B4A09A; fill-opacity:0.9000; stroke:none;fill-rule:evenodd;"
d="M 16.4340,55.7320
16.4340,54.4320
17.9840,54.4320
17.9840,55.7320
Z" /> 
<path style="fill:#B4A09A; fill-opacity:0.9000; stroke:none;fill-rule:evenodd;"
d="M 24.3940,55.7320
24.3940,54.4320
25.9440,54.4320
25.9440,55.7320
Z" /> 
<path style="fill:#B4A09A; fill-opacity:0.9000; stroke:none;fill-rule:evenodd;"
d="M 20.0750,41.9090
21.6750,41.9090
21.6750,42.6090
20.0750,42.6090
Z" /> 
<path style="fill:#B4A09A; fill-opacity:0.9000; stroke:none;fill-rule:evenodd;"
d="M 20.0750,40.8090
21.6750,40.8090
21.6750,41.5090
20.0750,41.5090
Z" /> 
<path style="fill:#B4A09A; fill-opacity:0.9000; stroke:none;fill-rule:evenodd;"
d="M 20.0750,39.7090
21.6750,39.7090
21.6750,40.4090
20.0750,40.4090
Z" /> 
<path style="fill:#B4A09A; fill-opacity:0.9000; stroke:none;fill-rule:evenodd;"
d="M 20.0750,38.6090
21.6750,38.6090
21.6750,39.3090
20.0750,39.3090
Z" /> 
<path style="fill:#B4A09A; fill-opacity:0.9000; stroke:none;fill-rule:evenodd;"
d="M 20.0750,37.5090
21.6750,37.5090
21.6750,38.2090
20.0750,38.2090
Z" /> 
<path style="fill:#B4A09A; fill-opacity:0.9000; stroke:none;fill-rule:evenodd;"
d="M 20.0750,36.4090
21.6750,36.4090
21.6750,37.1090
20.0750,37.1090
Z" /> 
<path style="fill:#B4A09A; fill-opacity:0.9000; stroke:none;fill-rule:evenodd;"
d="M 20.0750,35.3090
21.6750,35.3090
21.6750,36.0090
20.0750,36.0090
Z" /> 
<path style="fill:#B4A09A; fill-opacity:0.9000; stroke:none;fill-rule:evenodd;"
d="M 20.0750,34.2090
21.6750,34.2090
21.6750,34.9090
20.0750,34.9090
Z" /> 
<path style="fill:#B4A09A; fill-opacity:0.9000; stroke:none;fill-rule:evenodd;"
d="M 20.0750,33.1090
21.6750,33.1090
21.6750,33.8090
20.0750,33.8090
Z" /> 
<path style="fill:#B4A09A; fill-opacity:0.9000; stroke:none;fill-rule:evenodd;"
d="M 18.6750,31.6590
20.4750,31.6590
20.4750,32.8590
18.6750,32.8590
Z" /> 
<path style="fill:#B4A09A; fill-opacity:0.9000; stroke:none;fill-rule:evenodd;"
d="M 19.0750,46.0590
20.5750,46.0590
20.5750,47.6590
19.0750,47.6590
Z" /> 
<path style="fill:#B4A09A; fill-opacity:0.9000; stroke:none;fill-rule:evenodd;"
d="M 9.1750,31.6590
11.3750,31.6590
11.3750,32.8590
9.1750,32.8590
Z" /> 
<path style="fill:#B4A09A; fill-opacity:0.9000; stroke:none;fill-rule:evenodd;"
d="M 9.1750,47.1590
11.3750,47.1590
11.3750,48.3590
9.1750,48.3590
Z" /> 
<path style="fill:#B4A09A; fill-opacity:0.9000; stroke:none;fill-rule:evenodd;"
d="M 42.2150,40.3100
42.2150,39.0100
43.7650,39.0100
43.7650,40.3100
Z" /> 
<path style="fill:#B4A09A; fill-opacity:0.9000; stroke:none;fill-rule:evenodd;"
d="M 50.1750,40.3100
50.1750,39.0100
51.7250,39.0100
51.7250,40.3100
Z" /> 
<path style="fill:#B4A09A; fill-opacity:0.9000; stroke:none;fill-rule:evenodd;"
d="M 42.2150,44.8100
42.2150,43.5100
43.7650,43.5100
43.7650,44.8100
Z" /> 
<path style="fill:#B4A09A; fill-opacity:0.9000; stroke:none;fill-rule:evenodd;"
d="M 50.1750,44.8100
50.1750,43.5100
51.7250,43.5100
51.7250,44.8100
Z" /> 
<path style="fill:#B4A09A; fill-opacity:0.9000; stroke:none;fill-rule:evenodd;"
d="M 60.8250,77.4590
60.7293,77.4400
60.6482,77.3858
60.5940,77.3047
60.5750,77.2090
60.5750,75.2090
60.5940,75.1133
60.6482,75.0322
60.7293,74.9780
60.8250,74.9590
62.1250,74.9590
62.2207,74.9780
62.3018,75.0322
62.3560,75.1133
62.3750,75.2090
62.3750,77.2090
62.3560,77.3047
62.3018,77.3858
62.2207,77.4400
62.1250,77.4590
Z" /> 
<path style="fill:#B4A09A; fill-opacity:0.9000; stroke:none;fill-rule:evenodd;"
d="M 60.8250,73.4590
60.7293,73.4400
60.6482,73.3858
60.5940,73.3047
60.5750,73.2090
60.5750,71.2090
60.5940,71.1133
60.6482,71.0322
60.7293,70.9780
60.8250,70.9590
62.1250,70.9590
62.2207,70.9780
62.3018,71.0322
62.3560,71.1133
62.3750,71.2090
62.3750,73.2090
62.3560,73.3047
62.3018,73.3858
62.2207,73.4400
62.1250,73.4590
Z" /> 
<path style="fill:#B4A09A; fill-opacity:0.9000; stroke:none;fill-rule:evenodd;"
d="M 63.2500,67.1840
63.3457,67.2030
63.4268,67.2572
63.4810,67.3383
63.5000,67.4340
63.5000,68.1090
63.4810,68.2047
63.4268,68.2858
63.3457,68.3400
63.2500,68.3590
62.3000,68.3590
62.2043,68.3400
62.1232,68.2858
62.0690,68.2047
62.0500,68.1090
62.0500,67.4340
62.0690,67.3383
62.1232,67.2572
62.2043,67.2030
62.3000,67.1840
Z" /> 
<path style="fill:#B4A09A; fill-opacity:0.9000; stroke:none;fill-rule:evenodd;"
d="M 63.2500,69.2590
63.3457,69.2780
63.4268,69.3322
63.4810,69.4133
63.5000,69.5090
63.5000,70.1840
63.4810,70.2797
63.4268,70.3608
63.3457,70.4150
63.2500,70.4340
62.3000,70.4340
62.2043,70.4150
62.1232,70.3608
62.0690,70.2797
62.0500,70.1840
62.0500,69.5090
62.0690,69.4133
62.1232,69.3322
62.2043,69.2780
62.3000,69.2590
Z" /> 
<path style="fill:#B4A09A; fill-opacity:0.9000; stroke:none;fill-rule:evenodd;"
d="M 47.0460,28.0110
48.3460,28.0110
48.3460,29.5610
47.0460,29.5610
Z" /> 
<path style="fill:#B4A09A; fill-opacity:0.9000; stroke:none;fill-rule:evenodd;"
d="M 47.0460,35.9710
48.3460,35.9710
48.3460,37.5210
47.0460,37.5210
Z" /> 
<path style="fill:#B4A09A; fill-opacity:0.9000; stroke:none;fill-rule:evenodd;"
d="M 42.5460,28.0110
43.8460,28.0110
43.8460,29.5610
42.5460,29.5610
Z" /> 
<path style="fill:#B4A09A; fill-opacity:0.9000; stroke:none;fill-rule:evenodd;"
d="M 42.5460,35.9710
43.8460,35.9710
43.8460,37.5210
42.5460,37.5210
Z" /> 
<path style="fill:#B4A09A; fill-opacity:0.9000; stroke:none;fill-rule:evenodd;"
d="M 57.1730,10.1375
57.1730,11.2775
56.5730,11.2775
56.5730,10.1375
Z" /> 
<path style="fill:#B4A09A; fill-opacity:0.9000; stroke:none;fill-rule:evenodd;"
d="M 56.3730,10.1375
56.3730,11.2775
55.7730,11.2775
55.7730,10.1375
Z" /> 
<path style="fill:#B4A09A; fill-opacity:0.9000; stroke:none;fill-rule:evenodd;"
d="M 55.0730,10.1375
55.0730,11.2775
54.7730,11.2775
54.7730,10.1375
Z" /> 
<path style="fill:#B4A09A; fill-opacity:0.9000; stroke:none;fill-rule:evenodd;"
d="M 54.0730,10.1375
54.0730,11.2775
53.7730,11.2775
53.7730,10.1375
Z" /> 
<path style="fill:#B4A09A; fill-opacity:0.9000; stroke:none;fill-rule:evenodd;"
d="M 53.5730,10.1375
53.5730,11.2775
53.2730,11.2775
53.2730,10.1375
Z" /> 
<path style="fill:#B4A09A; fill-opacity:0.9000; stroke:none;fill-rule:evenodd;"
d="M 52.5730,10.1375
52.5730,11.2775
52.2730,11.2775
52.2730,10.1375
Z" /> 
<path style="fill:#B4A09A; fill-opacity:0.9000; stroke:none;fill-rule:evenodd;"
d="M 50.7730,10.1375
50.7730,11.2775
50.1730,11.2775
50.1730,10.1375
Z" /> 
<path style="fill:#B4A09A; fill-opacity:0.9000; stroke:none;fill-rule:evenodd;"
d="M 51.5730,10.1375
51.5730,11.2775
50.9730,11.2775
50.9730,10.1375
Z" /> 
<path style="fill:#B4A09A; fill-opacity:0.9000; stroke:none;fill-rule:evenodd;"
d="M 52.0730,10.1375
52.0730,11.2775
51.7730,11.2775
51.7730,10.1375
Z" /> 
<path style="fill:#B4A09A; fill-opacity:0.9000; stroke:none;fill-rule:evenodd;"
d="M 53.0730,10.1375
53.0730,11.2775
52.7730,11.2775
52.7730,10.1375
Z" /> 
<path style="fill:#B4A09A; fill-opacity:0.9000; stroke:none;fill-rule:evenodd;"
d="M 54.5730,10.1375
54.5730,11.2775
54.2730,11.2775
54.2730,10.1375
Z" /> 
<path style="fill:#B4A09A; fill-opacity:0.9000; stroke:none;fill-rule:evenodd;"
d="M 55.5730,10.1375
55.5730,11.2775
55.2730,11.2775
55.2730,10.1375
Z" /> 
<path style="fill:#B4A09A; fill-opacity:0.9000; stroke:none;fill-rule:evenodd;"
d="M 77.8975,26.7810
77.8785,26.8767
77.8243,26.9578
77.7432,27.0120
77.6475,27.0310
74.1475,27.0310
74.0518,27.0120
73.9707,26.9578
73.9165,26.8767
73.8975,26.7810
73.8975,24.7810
73.9165,24.6853
73.9707,24.6042
74.0518,24.5500
74.1475,24.5310
77.6475,24.5310
77.7432,24.5500
77.8243,24.6042
77.8785,24.6853
77.8975,24.7810
Z" /> 
<path style="fill:#B4A09A; fill-opacity:0.9000; stroke:none;fill-rule:evenodd;"
d="M 69.8975,26.7810
69.8785,26.8767
69.8243,26.9578
69.7432,27.0120
69.6475,27.0310
66.1475,27.0310
66.0518,27.0120
65.9707,26.9578
65.9165,26.8767
65.8975,26.7810
65.8975,24.7810
65.9165,24.6853
65.9707,24.6042
66.0518,24.5500
66.1475,24.5310
69.6475,24.5310
69.7432,24.5500
69.8243,24.6042
69.8785,24.6853
69.8975,24.7810
Z" /> 
<path style="fill:#B4A09A; fill-opacity:0.9000; stroke:none;fill-rule:evenodd;"
d="M 41.1970,34.3410
41.2927,34.3600
41.3738,34.4142
41.4280,34.4953
41.4470,34.5910
41.4470,35.2910
41.4280,35.3867
41.3738,35.4678
41.2927,35.5220
41.1970,35.5410
40.2970,35.5410
40.2013,35.5220
40.1202,35.4678
40.0660,35.3867
40.0470,35.2910
40.0470,34.5910
40.0660,34.4953
40.1202,34.4142
40.2013,34.3600
40.2970,34.3410
Z" /> 
<path style="fill:#B4A09A; fill-opacity:0.9000; stroke:none;fill-rule:evenodd;"
d="M 41.1970,36.3410
41.2927,36.3600
41.3738,36.4142
41.4280,36.4953
41.4470,36.5910
41.4470,37.2910
41.4280,37.3867
41.3738,37.4678
41.2927,37.5220
41.1970,37.5410
40.2970,37.5410
40.2013,37.5220
40.1202,37.4678
40.0660,37.3867
40.0470,37.2910
40.0470,36.5910
40.0660,36.4953
40.1202,36.4142
40.2013,36.3600
40.2970,36.3410
Z" /> 
<path style="fill:#B4A09A; fill-opacity:0.9000; stroke:none;fill-rule:evenodd;"
d="M 82.9180,75.7430
83.0137,75.7620
83.0948,75.8162
83.1490,75.8973
83.1680,75.9930
83.1680,76.6930
83.1490,76.7887
83.0948,76.8698
83.0137,76.9240
82.9180,76.9430
82.0180,76.9430
81.9223,76.9240
81.8412,76.8698
81.7870,76.7887
81.7680,76.6930
81.7680,75.9930
81.7870,75.8973
81.8412,75.8162
81.9223,75.7620
82.0180,75.7430
Z" /> 
<path style="fill:#B4A09A; fill-opacity:0.9000; stroke:none;fill-rule:evenodd;"
d="M 82.9180,77.7430
83.0137,77.7620
83.0948,77.8162
83.1490,77.8973
83.1680,77.9930
83.1680,78.6930
83.1490,78.7887
83.0948,78.8698
83.0137,78.9240
82.9180,78.9430
82.0180,78.9430
81.9223,78.9240
81.8412,78.8698
81.7870,78.7887
81.7680,78.6930
81.7680,77.9930
81.7870,77.8973
81.8412,77.8162
81.9223,77.7620
82.0180,77.7430
Z" /> 
<path style="fill:#B4A09A; fill-opacity:0.9000; stroke:none;fill-rule:evenodd;"
d="M 59.2750,48.4340
59.2921,48.3479
59.3409,48.2749
59.4139,48.2261
59.5000,48.2090
59.9500,48.2090
60.0361,48.2261
60.1091,48.2749
60.1579,48.3479
60.1750,48.4340
60.1750,49.1840
60.1579,49.2701
60.1091,49.3431
60.0361,49.3919
59.9500,49.4090
59.5000,49.4090
59.4139,49.3919
59.3409,49.3431
59.2921,49.2701
59.2750,49.1840
Z" /> 
<path style="fill:#B4A09A; fill-opacity:0.9000; stroke:none;fill-rule:evenodd;"
d="M 62.5750,48.4340
62.5921,48.3479
62.6409,48.2749
62.7139,48.2261
62.8000,48.2090
63.2500,48.2090
63.3361,48.2261
63.4091,48.2749
63.4579,48.3479
63.4750,48.4340
63.4750,49.1840
63.4579,49.2701
63.4091,49.3431
63.3361,49.3919
63.2500,49.4090
62.8000,49.4090
62.7139,49.3919
62.6409,49.3431
62.5921,49.2701
62.5750,49.1840
Z" /> 
<path style="fill:#B4A09A; fill-opacity:0.9000; stroke:none;fill-rule:evenodd;"
d="M 56.7730,67.1840
56.8687,67.2030
56.9498,67.2572
57.0040,67.3383
57.0230,67.4340
57.0230,68.1090
57.0040,68.2047
56.9498,68.2858
56.8687,68.3400
56.7730,68.3590
55.8230,68.3590
55.7273,68.3400
55.6462,68.2858
55.5920,68.2047
55.5730,68.1090
55.5730,67.4340
55.5920,67.3383
55.6462,67.2572
55.7273,67.2030
55.8230,67.1840
Z" /> 
<path style="fill:#B4A09A; fill-opacity:0.9000; stroke:none;fill-rule:evenodd;"
d="M 56.7730,69.2590
56.8687,69.2780
56.9498,69.3322
57.0040,69.4133
57.0230,69.5090
57.0230,70.1840
57.0040,70.2797
56.9498,70.3608
56.8687,70.4150
56.7730,70.4340
55.8230,70.4340
55.7273,70.4150
55.6462,70.3608
55.5920,70.2797
55.5730,70.1840
55.5730,69.5090
55.5920,69.4133
55.6462,69.3322
55.7273,69.2780
55.8230,69.2590
Z" /> 
<path style="fill:#B4A09A; fill-opacity:0.9000; stroke:none;fill-rule:evenodd;"
d="M 53.8810,34.7340
53.8236,34.7226
53.7749,34.6901
53.7424,34.6414
53.7310,34.5840
53.7310,33.4090
53.7424,33.3516
53.7749,33.3029
53.8236,33.2704
53.8810,33.2590
54.1810,33.2590
54.2384,33.2704
54.2871,33.3029
54.3196,33.3516
54.3310,33.4090
54.3310,34.5840
54.3196,34.6414
54.2871,34.6901
54.2384,34.7226
54.1810,34.7340
Z" /> 
<path style="fill:#B4A09A; fill-opacity:0.9000; stroke:none;fill-rule:evenodd;"
d="M 55.7810,34.7340
55.7236,34.7226
55.6749,34.6901
55.6424,34.6414
55.6310,34.5840
55.6310,33.4090
55.6424,33.3516
55.6749,33.3029
55.7236,33.2704
55.7810,33.2590
56.0810,33.2590
56.1384,33.2704
56.1871,33.3029
56.2196,33.3516
56.2310,33.4090
56.2310,34.5840
56.2196,34.6414
56.1871,34.6901
56.1384,34.7226
56.0810,34.7340
Z" /> 
<path style="fill:#B4A09A; fill-opacity:0.9000; stroke:none;fill-rule:evenodd;"
d="M 54.8310,32.8590
54.7736,32.8476
54.7249,32.8151
54.6924,32.7664
54.6810,32.7090
54.6810,31.5340
54.6924,31.4766
54.7249,31.4279
54.7736,31.3954
54.8310,31.3840
55.1310,31.3840
55.1884,31.3954
55.2371,31.4279
55.2696,31.4766
55.2810,31.5340
55.2810,32.7090
55.2696,32.7664
55.2371,32.8151
55.1884,32.8476
55.1310,32.8590
Z" /> 
<path style="fill:#B4A09A; fill-opacity:0.9000; stroke:none;fill-rule:evenodd;"
d="M 30.5130,48.3560
30.5187,48.3273
30.5350,48.3030
30.5593,48.2867
30.5880,48.2810
31.9130,48.2810
31.9417,48.2867
31.9660,48.3030
31.9823,48.3273
31.9880,48.3560
31.9880,48.5060
31.9823,48.5347
31.9660,48.5590
31.9417,48.5753
31.9130,48.5810
30.5880,48.5810
30.5593,48.5753
30.5350,48.5590
30.5187,48.5347
30.5130,48.5060
Z" /> 
<path style="fill:#B4A09A; fill-opacity:0.9000; stroke:none;fill-rule:evenodd;"
d="M 30.5130,48.8560
30.5187,48.8273
30.5350,48.8030
30.5593,48.7867
30.5880,48.7810
31.9130,48.7810
31.9417,48.7867
31.9660,48.8030
31.9823,48.8273
31.9880,48.8560
31.9880,49.0060
31.9823,49.0347
31.9660,49.0590
31.9417,49.0753
31.9130,49.0810
30.5880,49.0810
30.5593,49.0753
30.5350,49.0590
30.5187,49.0347
30.5130,49.0060
Z" /> 
<path style="fill:#B4A09A; fill-opacity:0.9000; stroke:none;fill-rule:evenodd;"
d="M 30.5130,49.3560
30.5187,49.3273
30.5350,49.3030
30.5593,49.2867
30.5880,49.2810
31.9130,49.2810
31.9417,49.2867
31.9660,49.3030
31.9823,49.3273
31.9880,49.3560
31.9880,49.5060
31.9823,49.5347
31.9660,49.5590
31.9417,49.5753
31.9130,49.5810
30.5880,49.5810
30.5593,49.5753
30.5350,49.5590
30.5187,49.5347
30.5130,49.5060
Z" /> 
<path style="fill:#B4A09A; fill-opacity:0.9000; stroke:none;fill-rule:evenodd;"
d="M 30.5130,49.8560
30.5187,49.8273
30.5350,49.8030
30.5593,49.7867
30.5880,49.7810
31.9130,49.7810
31.9417,49.7867
31.9660,49.8030
31.9823,49.8273
31.9880,49.8560
31.9880,50.0060
31.9823,50.0347
31.9660,50.0590
31.9417,50.0753
31.9130,50.0810
30.5880,50.0810
30.5593,50.0753
30.5350,50.0590
30.5187,50.0347
30.5130,50.0060
Z" /> 
<path style="fill:#B4A09A; fill-opacity:0.9000; stroke:none;fill-rule:evenodd;"
d="M 30.5130,50.3560
30.5187,50.3273
30.5350,50.3030
30.5593,50.2867
30.5880,50.2810
31.9130,50.2810
31.9417,50.2867
31.9660,50.3030
31.9823,50.3273
31.9880,50.3560
31.9880,50.5060
31.9823,50.5347
31.9660,50.5590
31.9417,50.5753
31.9130,50.5810
30.5880,50.5810
30.5593,50.5753
30.5350,50.5590
30.5187,50.5347
30.5130,50.5060
Z" /> 
<path style="fill:#B4A09A; fill-opacity:0.9000; stroke:none;fill-rule:evenodd;"
d="M 30.5130,50.8560
30.5187,50.8273
30.5350,50.8030
30.5593,50.7867
30.5880,50.7810
31.9130,50.7810
31.9417,50.7867
31.9660,50.8030
31.9823,50.8273
31.9880,50.8560
31.9880,51.0060
31.9823,51.0347
31.9660,51.0590
31.9417,51.0753
31.9130,51.0810
30.5880,51.0810
30.5593,51.0753
30.5350,51.0590
30.5187,51.0347
30.5130,51.0060
Z" /> 
<path style="fill:#B4A09A; fill-opacity:0.9000; stroke:none;fill-rule:evenodd;"
d="M 30.5130,51.3560
30.5187,51.3273
30.5350,51.3030
30.5593,51.2867
30.5880,51.2810
31.9130,51.2810
31.9417,51.2867
31.9660,51.3030
31.9823,51.3273
31.9880,51.3560
31.9880,51.5060
31.9823,51.5347
31.9660,51.5590
31.9417,51.5753
31.9130,51.5810
30.5880,51.5810
30.5593,51.5753
30.5350,51.5590
30.5187,51.5347
30.5130,51.5060
Z" /> 
<path style="fill:#B4A09A; fill-opacity:0.9000; stroke:none;fill-rule:evenodd;"
d="M 30.5130,51.8560
30.5187,51.8273
30.5350,51.8030
30.5593,51.7867
30.5880,51.7810
31.9130,51.7810
31.9417,51.7867
31.9660,51.8030
31.9823,51.8273
31.9880,51.8560
31.9880,52.0060
31.9823,52.0347
31.9660,52.0590
31.9417,52.0753
31.9130,52.0810
30.5880,52.0810
30.5593,52.0753
30.5350,52.0590
30.5187,52.0347
30.5130,52.0060
Z" /> 
<path style="fill:#B4A09A; fill-opacity:0.9000; stroke:none;fill-rule:evenodd;"
d="M 30.5130,52.3560
30.5187,52.3273
30.5350,52.3030
30.5593,52.2867
30.5880,52.2810
31.9130,52.2810
31.9417,52.2867
31.9660,52.3030
31.9823,52.3273
31.9880,52.3560
31.9880,52.5060
31.9823,52.5347
31.9660,52.5590
31.9417,52.5753
31.9130,52.5810
30.5880,52.5810
30.5593,52.5753
30.5350,52.5590
30.5187,52.5347
30.5130,52.5060
Z" /> 
<path style="fill:#B4A09A; fill-opacity:0.9000; stroke:none;fill-rule:evenodd;"
d="M 30.5130,52.8560
30.5187,52.8273
30.5350,52.8030
30.5593,52.7867
30.5880,52.7810
31.9130,52.7810
31.9417,52.7867
31.9660,52.8030
31.9823,52.8273
31.9880,52.8560
31.9880,53.0060
31.9823,53.0347
31.9660,53.0590
31.9417,53.0753
31.9130,53.0810
30.5880,53.0810
30.5593,53.0753
30.5350,53.0590
30.5187,53.0347
30.5130,53.0060
Z" /> 
<path style="fill:#B4A09A; fill-opacity:0.9000; stroke:none;fill-rule:evenodd;"
d="M 30.5130,53.3560
30.5187,53.3273
30.5350,53.3030
30.5593,53.2867
30.5880,53.2810
31.9130,53.2810
31.9417,53.2867
31.9660,53.3030
31.9823,53.3273
31.9880,53.3560
31.9880,53.5060
31.9823,53.5347
31.9660,53.5590
31.9417,53.5753
31.9130,53.5810
30.5880,53.5810
30.5593,53.5753
30.5350,53.5590
30.5187,53.5347
30.5130,53.5060
Z" /> 
<path style="fill:#B4A09A; fill-opacity:0.9000; stroke:none;fill-rule:evenodd;"
d="M 30.5130,53.8560
30.5187,53.8273
30.5350,53.8030
30.5593,53.7867
30.5880,53.7810
31.9130,53.7810
31.9417,53.7867
31.9660,53.8030
31.9823,53.8273
31.9880,53.8560
31.9880,54.0060
31.9823,54.0347
31.9660,54.0590
31.9417,54.0753
31.9130,54.0810
30.5880,54.0810
30.5593,54.0753
30.5350,54.0590
30.5187,54.0347
30.5130,54.0060
Z" /> 
<path style="fill:#B4A09A; fill-opacity:0.9000; stroke:none;fill-rule:evenodd;"
d="M 32.5130,54.6810
32.5187,54.6523
32.5350,54.6280
32.5593,54.6117
32.5880,54.6060
32.7380,54.6060
32.7667,54.6117
32.7910,54.6280
32.8073,54.6523
32.8130,54.6810
32.8130,56.0060
32.8073,56.0347
32.7910,56.0590
32.7667,56.0753
32.7380,56.0810
32.5880,56.0810
32.5593,56.0753
32.5350,56.0590
32.5187,56.0347
32.5130,56.0060
Z" /> 
<path style="fill:#B4A09A; fill-opacity:0.9000; stroke:none;fill-rule:evenodd;"
d="M 33.0130,54.6810
33.0187,54.6523
33.0350,54.6280
33.0593,54.6117
33.0880,54.6060
33.2380,54.6060
33.2667,54.6117
33.2910,54.6280
33.3073,54.6523
33.3130,54.6810
33.3130,56.0060
33.3073,56.0347
33.2910,56.0590
33.2667,56.0753
33.2380,56.0810
33.0880,56.0810
33.0593,56.0753
33.0350,56.0590
33.0187,56.0347
33.0130,56.0060
Z" /> 
<path style="fill:#B4A09A; fill-opacity:0.9000; stroke:none;fill-rule:evenodd;"
d="M 33.5130,54.6810
33.5187,54.6523
33.5350,54.6280
33.5593,54.6117
33.5880,54.6060
33.7380,54.6060
33.7667,54.6117
33.7910,54.6280
33.8073,54.6523
33.8130,54.6810
33.8130,56.0060
33.8073,56.0347
33.7910,56.0590
33.7667,56.0753
33.7380,56.0810
33.5880,56.0810
33.5593,56.0753
33.5350,56.0590
33.5187,56.0347
33.5130,56.0060
Z" /> 
<path style="fill:#B4A09A; fill-opacity:0.9000; stroke:none;fill-rule:evenodd;"
d="M 34.0130,54.6810
34.0187,54.6523
34.0350,54.6280
34.0593,54.6117
34.0880,54.6060
34.2380,54.6060
34.2667,54.6117
34.2910,54.6280
34.3073,54.6523
34.3130,54.6810
34.3130,56.0060
34.3073,56.0347
34.2910,56.0590
34.2667,56.0753
34.2380,56.0810
34.0880,56.0810
34.0593,56.0753
34.0350,56.0590
34.0187,56.0347
34.0130,56.0060
Z" /> 
<path style="fill:#B4A09A; fill-opacity:0.9000; stroke:none;fill-rule:evenodd;"
d="M 34.5130,54.6810
34.5187,54.6523
34.5350,54.6280
34.5593,54.6117
34.5880,54.6060
34.7380,54.6060
34.7667,54.6117
34.7910,54.6280
34.8073,54.6523
34.8130,54.6810
34.8130,56.0060
34.8073,56.0347
34.7910,56.0590
34.7667,56.0753
34.7380,56.0810
34.5880,56.0810
34.5593,56.0753
34.5350,56.0590
34.5187,56.0347
34.5130,56.0060
Z" /> 
<path style="fill:#B4A09A; fill-opacity:0.9000; stroke:none;fill-rule:evenodd;"
d="M 35.0130,54.6810
35.0187,54.6523
35.0350,54.6280
35.0593,54.6117
35.0880,54.6060
35.2380,54.6060
35.2667,54.6117
35.2910,54.6280
35.3073,54.6523
35.3130,54.6810
35.3130,56.0060
35.3073,56.0347
35.2910,56.0590
35.2667,56.0753
35.2380,56.0810
35.0880,56.0810
35.0593,56.0753
35.0350,56.0590
35.0187,56.0347
35.0130,56.0060
Z" /> 
<path style="fill:#B4A09A; fill-opacity:0.9000; stroke:none;fill-rule:evenodd;"
d="M 35.5130,54.6810
35.5187,54.6523
35.5350,54.6280
35.5593,54.6117
35.5880,54.6060
35.7380,54.6060
35.7667,54.6117
35.7910,54.6280
35.8073,54.6523
35.8130,54.6810
35.8130,56.0060
35.8073,56.0347
35.7910,56.0590
35.7667,56.0753
35.7380,56.0810
35.5880,56.0810
35.5593,56.0753
35.5350,56.0590
35.5187,56.0347
35.5130,56.0060
Z" /> 
<path style="fill:#B4A09A; fill-opacity:0.9000; stroke:none;fill-rule:evenodd;"
d="M 36.0130,54.6810
36.0187,54.6523
36.0350,54.6280
36.0593,54.6117
36.0880,54.6060
36.2380,54.6060
36.2667,54.6117
36.2910,54.6280
36.3073,54.6523
36.3130,54.6810
36.3130,56.0060
36.3073,56.0347
36.2910,56.0590
36.2667,56.0753
36.2380,56.0810
36.0880,56.0810
36.0593,56.0753
36.0350,56.0590
36.0187,56.0347
36.0130,56.0060
Z" /> 
<path style="fill:#B4A09A; fill-opacity:0.9000; stroke:none;fill-rule:evenodd;"
d="M 36.5130,54.6810
36.5187,54.6523
36.5350,54.6280
36.5593,54.6117
36.5880,54.6060
36.7380,54.6060
36.7667,54.6117
36.7910,54.6280
36.8073,54.6523
36.8130,54.6810
36.8130,56.0060
36.8073,56.0347
36.7910,56.0590
36.7667,56.0753
36.7380,56.0810
36.5880,56.0810
36.5593,56.0753
36.5350,56.0590
36.5187,56.0347
36.5130,56.0060
Z" /> 
<path style="fill:#B4A09A; fill-opacity:0.9000; stroke:none;fill-rule:evenodd;"
d="M 37.0130,54.6810
37.0187,54.6523
37.0350,54.6280
37.0593,54.6117
37.0880,54.6060
37.2380,54.6060
37.2667,54.6117
37.2910,54.6280
37.3073,54.6523
37.3130,54.6810
37.3130,56.0060
37.3073,56.0347
37.2910,56.0590
37.2667,56.0753
37.2380,56.0810
37.0880,56.0810
37.0593,56.0753
37.0350,56.0590
37.0187,56.0347
37.0130,56.0060
Z" /> 
<path style="fill:#B4A09A; fill-opacity:0.9000; stroke:none;fill-rule:evenodd;"
d="M 37.5130,54.6810
37.5187,54.6523
37.5350,54.6280
37.5593,54.6117
37.5880,54.6060
37.7380,54.6060
37.7667,54.6117
37.7910,54.6280
37.8073,54.6523
37.8130,54.6810
37.8130,56.0060
37.8073,56.0347
37.7910,56.0590
37.7667,56.0753
37.7380,56.0810
37.5880,56.0810
37.5593,56.0753
37.5350,56.0590
37.5187,56.0347
37.5130,56.0060
Z" /> 
<path style="fill:#B4A09A; fill-opacity:0.9000; stroke:none;fill-rule:evenodd;"
d="M 38.0130,54.6810
38.0187,54.6523
38.0350,54.6280
38.0593,54.6117
38.0880,54.6060
38.2380,54.6060
38.2667,54.6117
38.2910,54.6280
38.3073,54.6523
38.3130,54.6810
38.3130,56.0060
38.3073,56.0347
38.2910,56.0590
38.2667,56.0753
38.2380,56.0810
38.0880,56.0810
38.0593,56.0753
38.0350,56.0590
38.0187,56.0347
38.0130,56.0060
Z" /> 
<path style="fill:#B4A09A; fill-opacity:0.9000; stroke:none;fill-rule:evenodd;"
d="M 38.8380,53.8560
38.8437,53.8273
38.8600,53.8030
38.8843,53.7867
38.9130,53.7810
40.2380,53.7810
40.2667,53.7867
40.2910,53.8030
40.3073,53.8273
40.3130,53.8560
40.3130,54.0060
40.3073,54.0347
40.2910,54.0590
40.2667,54.0753
40.2380,54.0810
38.9130,54.0810
38.8843,54.0753
38.8600,54.0590
38.8437,54.0347
38.8380,54.0060
Z" /> 
<path style="fill:#B4A09A; fill-opacity:0.9000; stroke:none;fill-rule:evenodd;"
d="M 38.8380,53.3560
38.8437,53.3273
38.8600,53.3030
38.8843,53.2867
38.9130,53.2810
40.2380,53.2810
40.2667,53.2867
40.2910,53.3030
40.3073,53.3273
40.3130,53.3560
40.3130,53.5060
40.3073,53.5347
40.2910,53.5590
40.2667,53.5753
40.2380,53.5810
38.9130,53.5810
38.8843,53.5753
38.8600,53.5590
38.8437,53.5347
38.8380,53.5060
Z" /> 
<path style="fill:#B4A09A; fill-opacity:0.9000; stroke:none;fill-rule:evenodd;"
d="M 38.8380,52.8560
38.8437,52.8273
38.8600,52.8030
38.8843,52.7867
38.9130,52.7810
40.2380,52.7810
40.2667,52.7867
40.2910,52.8030
40.3073,52.8273
40.3130,52.8560
40.3130,53.0060
40.3073,53.0347
40.2910,53.0590
40.2667,53.0753
40.2380,53.0810
38.9130,53.0810
38.8843,53.0753
38.8600,53.0590
38.8437,53.0347
38.8380,53.0060
Z" /> 
<path style="fill:#B4A09A; fill-opacity:0.9000; stroke:none;fill-rule:evenodd;"
d="M 38.8380,52.3560
38.8437,52.3273
38.8600,52.3030
38.8843,52.2867
38.9130,52.2810
40.2380,52.2810
40.2667,52.2867
40.2910,52.3030
40.3073,52.3273
40.3130,52.3560
40.3130,52.5060
40.3073,52.5347
40.2910,52.5590
40.2667,52.5753
40.2380,52.5810
38.9130,52.5810
38.8843,52.5753
38.8600,52.5590
38.8437,52.5347
38.8380,52.5060
Z" /> 
<path style="fill:#B4A09A; fill-opacity:0.9000; stroke:none;fill-rule:evenodd;"
d="M 38.8380,51.8560
38.8437,51.8273
38.8600,51.8030
38.8843,51.7867
38.9130,51.7810
40.2380,51.7810
40.2667,51.7867
40.2910,51.8030
40.3073,51.8273
40.3130,51.8560
40.3130,52.0060
40.3073,52.0347
40.2910,52.0590
40.2667,52.0753
40.2380,52.0810
38.9130,52.0810
38.8843,52.0753
38.8600,52.0590
38.8437,52.0347
38.8380,52.0060
Z" /> 
<path style="fill:#B4A09A; fill-opacity:0.9000; stroke:none;fill-rule:evenodd;"
d="M 38.8380,51.3560
38.8437,51.3273
38.8600,51.3030
38.8843,51.2867
38.9130,51.2810
40.2380,51.2810
40.2667,51.2867
40.2910,51.3030
40.3073,51.3273
40.3130,51.3560
40.3130,51.5060
40.3073,51.5347
40.2910,51.5590
40.2667,51.5753
40.2380,51.5810
38.9130,51.5810
38.8843,51.5753
38.8600,51.5590
38.8437,51.5347
38.8380,51.5060
Z" /> 
<path style="fill:#B4A09A; fill-opacity:0.9000; stroke:none;fill-rule:evenodd;"
d="M 38.8380,50.8560
38.8437,50.8273
38.8600,50.8030
38.8843,50.7867
38.9130,50.7810
40.2380,50.7810
40.2667,50.7867
40.2910,50.8030
40.3073,50.8273
40.3130,50.8560
40.3130,51.0060
40.3073,51.0347
40.2910,51.0590
40.2667,51.0753
40.2380,51.0810
38.9130,51.0810
38.8843,51.0753
38.8600,51.0590
38.8437,51.0347
38.8380,51.0060
Z" /> 
<path style="fill:#B4A09A; fill-opacity:0.9000; stroke:none;fill-rule:evenodd;"
d="M 38.8380,50.3560
38.8437,50.3273
38.8600,50.3030
38.8843,50.2867
38.9130,50.2810
40.2380,50.2810
40.2667,50.2867
40.2910,50.3030
40.3073,50.3273
40.3130,50.3560
40.3130,50.5060
40.3073,50.5347
40.2910,50.5590
40.2667,50.5753
40.2380,50.5810
38.9130,50.5810
38.8843,50.5753
38.8600,50.5590
38.8437,50.5347
38.8380,50.5060
Z" /> 
<path style="fill:#B4A09A; fill-opacity:0.9000; stroke:none;fill-rule:evenodd;"
d="M 38.8380,49.8560
38.8437,49.8273
38.8600,49.8030
38.8843,49.7867
38.9130,49.7810
40.2380,49.7810
40.2667,49.7867
40.2910,49.8030
40.3073,49.8273
40.3130,49.8560
40.3130,50.0060
40.3073,50.0347
40.2910,50.0590
40.2667,50.0753
40.2380,50.0810
38.9130,50.0810
38.8843,50.0753
38.8600,50.0590
38.8437,50.0347
38.8380,50.0060
Z" /> 
<path style="fill:#B4A09A; fill-opacity:0.9000; stroke:none;fill-rule:evenodd;"
d="M 38.8380,49.3560
38.8437,49.3273
38.8600,49.3030
38.8843,49.2867
38.9130,49.2810
40.2380,49.2810
40.2667,49.2867
40.2910,49.3030
40.3073,49.3273
40.3130,49.3560
40.3130,49.5060
40.3073,49.5347
40.2910,49.5590
40.2667,49.5753
40.2380,49.5810
38.9130,49.5810
38.8843,49.5753
38.8600,49.5590
38.8437,49.5347
38.8380,49.5060
Z" /> 
<path style="fill:#B4A09A; fill-opacity:0.9000; stroke:none;fill-rule:evenodd;"
d="M 38.8380,48.8560
38.8437,48.8273
38.8600,48.8030
38.8843,48.7867
38.9130,48.7810
40.2380,48.7810
40.2667,48.7867
40.2910,48.8030
40.3073,48.8273
40.3130,48.8560
40.3130,49.0060
40.3073,49.0347
40.2910,49.0590
40.2667,49.0753
40.2380,49.0810
38.9130,49.0810
38.8843,49.0753
38.8600,49.0590
38.8437,49.0347
38.8380,49.0060
Z" /> 
<path style="fill:#B4A09A; fill-opacity:0.9000; stroke:none;fill-rule:evenodd;"
d="M 38.8380,48.3560
38.8437,48.3273
38.8600,48.3030
38.8843,48.2867
38.9130,48.2810
40.2380,48.2810
40.2667,48.2867
40.2910,48.3030
40.3073,48.3273
40.3130,48.3560
40.3130,48.5060
40.3073,48.5347
40.2910,48.5590
40.2667,48.5753
40.2380,48.5810
38.9130,48.5810
38.8843,48.5753
38.8600,48.5590
38.8437,48.5347
38.8380,48.5060
Z" /> 
<path style="fill:#B4A09A; fill-opacity:0.9000; stroke:none;fill-rule:evenodd;"
d="M 38.0130,46.3560
38.0187,46.3273
38.0350,46.3030
38.0593,46.2867
38.0880,46.2810
38.2380,46.2810
38.2667,46.2867
38.2910,46.3030
38.3073,46.3273
38.3130,46.3560
38.3130,47.6810
38.3073,47.7097
38.2910,47.7340
38.2667,47.7503
38.2380,47.7560
38.0880,47.7560
38.0593,47.7503
38.0350,47.7340
38.0187,47.7097
38.0130,47.6810
Z" /> 
<path style="fill:#B4A09A; fill-opacity:0.9000; stroke:none;fill-rule:evenodd;"
d="M 37.5130,46.3560
37.5187,46.3273
37.5350,46.3030
37.5593,46.2867
37.5880,46.2810
37.7380,46.2810
37.7667,46.2867
37.7910,46.3030
37.8073,46.3273
37.8130,46.3560
37.8130,47.6810
37.8073,47.7097
37.7910,47.7340
37.7667,47.7503
37.7380,47.7560
37.5880,47.7560
37.5593,47.7503
37.5350,47.7340
37.5187,47.7097
37.5130,47.6810
Z" /> 
<path style="fill:#B4A09A; fill-opacity:0.9000; stroke:none;fill-rule:evenodd;"
d="M 37.0130,46.3560
37.0187,46.3273
37.0350,46.3030
37.0593,46.2867
37.0880,46.2810
37.2380,46.2810
37.2667,46.2867
37.2910,46.3030
37.3073,46.3273
37.3130,46.3560
37.3130,47.6810
37.3073,47.7097
37.2910,47.7340
37.2667,47.7503
37.2380,47.7560
37.0880,47.7560
37.0593,47.7503
37.0350,47.7340
37.0187,47.7097
37.0130,47.6810
Z" /> 
<path style="fill:#B4A09A; fill-opacity:0.9000; stroke:none;fill-rule:evenodd;"
d="M 36.5130,46.3560
36.5187,46.3273
36.5350,46.3030
36.5593,46.2867
36.5880,46.2810
36.7380,46.2810
36.7667,46.2867
36.7910,46.3030
36.8073,46.3273
36.8130,46.3560
36.8130,47.6810
36.8073,47.7097
36.7910,47.7340
36.7667,47.7503
36.7380,47.7560
36.5880,47.7560
36.5593,47.7503
36.5350,47.7340
36.5187,47.7097
36.5130,47.6810
Z" /> 
<path style="fill:#B4A09A; fill-opacity:0.9000; stroke:none;fill-rule:evenodd;"
d="M 36.0130,46.3560
36.0187,46.3273
36.0350,46.3030
36.0593,46.2867
36.0880,46.2810
36.2380,46.2810
36.2667,46.2867
36.2910,46.3030
36.3073,46.3273
36.3130,46.3560
36.3130,47.6810
36.3073,47.7097
36.2910,47.7340
36.2667,47.7503
36.2380,47.7560
36.0880,47.7560
36.0593,47.7503
36.0350,47.7340
36.0187,47.7097
36.0130,47.6810
Z" /> 
<path style="fill:#B4A09A; fill-opacity:0.9000; stroke:none;fill-rule:evenodd;"
d="M 35.5130,46.3560
35.5187,46.3273
35.5350,46.3030
35.5593,46.2867
35.5880,46.2810
35.7380,46.2810
35.7667,46.2867
35.7910,46.3030
35.8073,46.3273
35.8130,46.3560
35.8130,47.6810
35.8073,47.7097
35.7910,47.7340
35.7667,47.7503
35.7380,47.7560
35.5880,47.7560
35.5593,47.7503
35.5350,47.7340
35.5187,47.7097
35.5130,47.6810
Z" /> 
<path style="fill:#B4A09A; fill-opacity:0.9000; stroke:none;fill-rule:evenodd;"
d="M 35.0130,46.3560
35.0187,46.3273
35.0350,46.3030
35.0593,46.2867
35.0880,46.2810
35.2380,46.2810
35.2667,46.2867
35.2910,46.3030
35.3073,46.3273
35.3130,46.3560
35.3130,47.6810
35.3073,47.7097
35.2910,47.7340
35.2667,47.7503
35.2380,47.7560
35.0880,47.7560
35.0593,47.7503
35.0350,47.7340
35.0187,47.7097
35.0130,47.6810
Z" /> 
<path style="fill:#B4A09A; fill-opacity:0.9000; stroke:none;fill-rule:evenodd;"
d="M 34.5130,46.3560
34.5187,46.3273
34.5350,46.3030
34.5593,46.2867
34.5880,46.2810
34.7380,46.2810
34.7667,46.2867
34.7910,46.3030
34.8073,46.3273
34.8130,46.3560
34.8130,47.6810
34.8073,47.7097
34.7910,47.7340
34.7667,47.7503
34.7380,47.7560
34.5880,47.7560
34.5593,47.7503
34.5350,47.7340
34.5187,47.7097
34.5130,47.6810
Z" /> 
<path style="fill:#B4A09A; fill-opacity:0.9000; stroke:none;fill-rule:evenodd;"
d="M 34.0130,46.3560
34.0187,46.3273
34.0350,46.3030
34.0593,46.2867
34.0880,46.2810
34.2380,46.2810
34.2667,46.2867
34.2910,46.3030
34.3073,46.3273
34.3130,46.3560
34.3130,47.6810
34.3073,47.7097
34.2910,47.7340
34.2667,47.7503
34.2380,47.7560
34.0880,47.7560
34.0593,47.7503
34.0350,47.7340
34.0187,47.7097
34.0130,47.6810
Z" /> 
<path style="fill:#B4A09A; fill-opacity:0.9000; stroke:none;fill-rule:evenodd;"
d="M 33.5130,46.3560
33.5187,46.3273
33.5350,46.3030
33.5593,46.2867
33.5880,46.2810
33.7380,46.2810
33.7667,46.2867
33.7910,46.3030
33.8073,46.3273
33.8130,46.3560
33.8130,47.6810
33.8073,47.7097
33.7910,47.7340
33.7667,47.7503
33.7380,47.7560
33.5880,47.7560
33.5593,47.7503
33.5350,47.7340
33.5187,47.7097
33.5130,47.6810
Z" /> 
<path style="fill:#B4A09A; fill-opacity:0.9000; stroke:none;fill-rule:evenodd;"
d="M 33.0130,46.3560
33.0187,46.3273
33.0350,46.3030
33.0593,46.2867
33.0880,46.2810
33.2380,46.2810
33.2667,46.2867
33.2910,46.3030
33.3073,46.3273
33.3130,46.3560
33.3130,47.6810
33.3073,47.7097
33.2910,47.7340
33.2667,47.7503
33.2380,47.7560
33.0880,47.7560
33.0593,47.7503
33.0350,47.7340
33.0187,47.7097
33.0130,47.6810
Z" /> 
<path style="fill:#B4A09A; fill-opacity:0.9000; stroke:none;fill-rule:evenodd;"
d="M 32.5130,46.3560
32.5187,46.3273
32.5350,46.3030
32.5593,46.2867
32.5880,46.2810
32.7380,46.2810
32.7667,46.2867
32.7910,46.3030
32.8073,46.3273
32.8130,46.3560
32.8130,47.6810
32.8073,47.7097
32.7910,47.7340
32.7667,47.7503
32.7380,47.7560
32.5880,47.7560
32.5593,47.7503
32.5350,47.7340
32.5187,47.7097
32.5130,47.6810
Z" /> 
<path style="fill:#B4A09A; fill-opacity:0.9000; stroke:none;fill-rule:evenodd;"
d="M 11.3340,26.5990
10.0340,26.5990
10.0340,25.0490
11.3340,25.0490
Z" /> 
<path style="fill:#B4A09A; fill-opacity:0.9000; stroke:none;fill-rule:evenodd;"
d="M 11.3340,18.6390
10.0340,18.6390
10.0340,17.0890
11.3340,17.0890
Z" /> 
<path style="fill:#B4A09A; fill-opacity:0.9000; stroke:none;fill-rule:evenodd;"
d="M 15.8340,26.5990
14.5340,26.5990
14.5340,25.0490
15.8340,25.0490
Z" /> 
<path style="fill:#B4A09A; fill-opacity:0.9000; stroke:none;fill-rule:evenodd;"
d="M 15.8340,18.6390
14.5340,18.6390
14.5340,17.0890
15.8340,17.0890
Z" /> 
<path style="fill:#B4A09A; fill-opacity:0.9000; stroke:none;fill-rule:evenodd;"
d="M 22.6250,46.6090
22.5293,46.5900
22.4482,46.5358
22.3940,46.4547
22.3750,46.3590
22.3750,45.6590
22.3940,45.5633
22.4482,45.4822
22.5293,45.4280
22.6250,45.4090
23.5250,45.4090
23.6207,45.4280
23.7018,45.4822
23.7560,45.5633
23.7750,45.6590
23.7750,46.3590
23.7560,46.4547
23.7018,46.5358
23.6207,46.5900
23.5250,46.6090
Z" /> 
<path style="fill:#B4A09A; fill-opacity:0.9000; stroke:none;fill-rule:evenodd;"
d="M 22.6250,44.6090
22.5293,44.5900
22.4482,44.5358
22.3940,44.4547
22.3750,44.3590
22.3750,43.6590
22.3940,43.5633
22.4482,43.4822
22.5293,43.4280
22.6250,43.4090
23.5250,43.4090
23.6207,43.4280
23.7018,43.4822
23.7560,43.5633
23.7750,43.6590
23.7750,44.3590
23.7560,44.4547
23.7018,44.5358
23.6207,44.5900
23.5250,44.6090
Z" /> 
<path style="fill:#B4A09A; fill-opacity:0.9000; stroke:none;fill-rule:evenodd;"
d="M 56.4750,45.2590
56.4940,45.1633
56.5482,45.0822
56.6293,45.0280
56.7250,45.0090
57.4250,45.0090
57.5207,45.0280
57.6018,45.0822
57.6560,45.1633
57.6750,45.2590
57.6750,46.1590
57.6560,46.2547
57.6018,46.3358
57.5207,46.3900
57.4250,46.4090
56.7250,46.4090
56.6293,46.3900
56.5482,46.3358
56.4940,46.2547
56.4750,46.1590
Z" /> 
<path style="fill:#B4A09A; fill-opacity:0.9000; stroke:none;fill-rule:evenodd;"
d="M 58.4750,45.2590
58.4940,45.1633
58.5482,45.0822
58.6293,45.0280
58.7250,45.0090
59.4250,45.0090
59.5207,45.0280
59.6018,45.0822
59.6560,45.1633
59.6750,45.2590
59.6750,46.1590
59.6560,46.2547
59.6018,46.3358
59.5207,46.3900
59.4250,46.4090
58.7250,46.4090
58.6293,46.3900
58.5482,46.3358
58.4940,46.2547
58.4750,46.1590
Z" /> 
<path style="fill:#B4A09A; fill-opacity:0.9000; stroke:none;fill-rule:evenodd;"
d="M 78.8270,65.4900
78.8460,65.3943
78.9002,65.3132
78.9813,65.2590
79.0770,65.2400
82.0770,65.2400
82.1727,65.2590
82.2538,65.3132
82.3080,65.3943
82.3270,65.4900
82.3270,66.5900
82.3080,66.6857
82.2538,66.7668
82.1727,66.8210
82.0770,66.8400
79.0770,66.8400
78.9813,66.8210
78.9002,66.7668
78.8460,66.6857
78.8270,66.5900
Z" /> 
<path style="fill:#B4A09A; fill-opacity:0.9000; stroke:none;fill-rule:evenodd;"
d="M 84.2270,65.4900
84.2460,65.3943
84.3002,65.3132
84.3813,65.2590
84.4770,65.2400
87.4770,65.2400
87.5727,65.2590
87.6538,65.3132
87.7080,65.3943
87.7270,65.4900
87.7270,66.5900
87.7080,66.6857
87.6538,66.7668
87.5727,66.8210
87.4770,66.8400
84.4770,66.8400
84.3813,66.8210
84.3002,66.7668
84.2460,66.6857
84.2270,66.5900
Z" /> 
<path style="fill:#B4A09A; fill-opacity:0.9000; stroke:none;fill-rule:evenodd;"
d="M 40.1700,46.4310
40.0743,46.4120
39.9932,46.3578
39.9390,46.2767
39.9200,46.1810
39.9200,45.4810
39.9390,45.3853
39.9932,45.3042
40.0743,45.2500
40.1700,45.2310
41.0700,45.2310
41.1657,45.2500
41.2468,45.3042
41.3010,45.3853
41.3200,45.4810
41.3200,46.1810
41.3010,46.2767
41.2468,46.3578
41.1657,46.4120
41.0700,46.4310
Z" /> 
<path style="fill:#B4A09A; fill-opacity:0.9000; stroke:none;fill-rule:evenodd;"
d="M 40.1700,44.4310
40.0743,44.4120
39.9932,44.3578
39.9390,44.2767
39.9200,44.1810
39.9200,43.4810
39.9390,43.3853
39.9932,43.3042
40.0743,43.2500
40.1700,43.2310
41.0700,43.2310
41.1657,43.2500
41.2468,43.3042
41.3010,43.3853
41.3200,43.4810
41.3200,44.1810
41.3010,44.2767
41.2468,44.3578
41.1657,44.4120
41.0700,44.4310
Z" /> 
<path style="fill:#B4A09A; fill-opacity:0.9000; stroke:none;fill-rule:evenodd;"
d="M 84.0500,73.1340
84.0310,73.2297
83.9768,73.3108
83.8957,73.3650
83.8000,73.3840
83.0750,73.3840
82.9793,73.3650
82.8982,73.3108
82.8440,73.2297
82.8250,73.1340
82.8250,70.2840
82.8440,70.1883
82.8982,70.1072
82.9793,70.0530
83.0750,70.0340
83.8000,70.0340
83.8957,70.0530
83.9768,70.1072
84.0310,70.1883
84.0500,70.2840
Z" /> 
<path style="fill:#B4A09A; fill-opacity:0.9000; stroke:none;fill-rule:evenodd;"
d="M 78.1250,73.1340
78.1060,73.2297
78.0518,73.3108
77.9707,73.3650
77.8750,73.3840
77.1500,73.3840
77.0543,73.3650
76.9732,73.3108
76.9190,73.2297
76.9000,73.1340
76.9000,70.2840
76.9190,70.1883
76.9732,70.1072
77.0543,70.0530
77.1500,70.0340
77.8750,70.0340
77.9707,70.0530
78.0518,70.1072
78.1060,70.1883
78.1250,70.2840
Z" /> 
<path style="fill:#B4A09A; fill-opacity:0.9000; stroke:none;fill-rule:evenodd;"
d="M 77.6930,75.8770
77.7120,75.7813
77.7662,75.7002
77.8473,75.6460
77.9430,75.6270
78.6430,75.6270
78.7387,75.6460
78.8198,75.7002
78.8740,75.7813
78.8930,75.8770
78.8930,76.7770
78.8740,76.8727
78.8198,76.9538
78.7387,77.0080
78.6430,77.0270
77.9430,77.0270
77.8473,77.0080
77.7662,76.9538
77.7120,76.8727
77.6930,76.7770
Z" /> 
<path style="fill:#B4A09A; fill-opacity:0.9000; stroke:none;fill-rule:evenodd;"
d="M 79.6930,75.8770
79.7120,75.7813
79.7662,75.7002
79.8473,75.6460
79.9430,75.6270
80.6430,75.6270
80.7387,75.6460
80.8198,75.7002
80.8740,75.7813
80.8930,75.8770
80.8930,76.7770
80.8740,76.8727
80.8198,76.9538
80.7387,77.0080
80.6430,77.0270
79.9430,77.0270
79.8473,77.0080
79.7662,76.9538
79.7120,76.8727
79.6930,76.7770
Z" /> 
<path style="fill:#B4A09A; fill-opacity:0.9000; stroke:none;fill-rule:evenodd;"
d="M 54.7620,14.8585
54.3620,14.8585
54.3620,14.3785
54.7620,14.3785
Z" /> 
<path style="fill:#B4A09A; fill-opacity:0.9000; stroke:none;fill-rule:evenodd;"
d="M 54.7620,13.5385
54.3620,13.5385
54.3620,13.0585
54.7620,13.0585
Z" /> 
<path style="fill:#B4A09A; fill-opacity:0.9000; stroke:none;fill-rule:evenodd;"
d="M 22.7250,36.9090
22.6293,36.8900
22.5482,36.8358
22.4940,36.7547
22.4750,36.6590
22.4750,35.9590
22.4940,35.8633
22.5482,35.7822
22.6293,35.7280
22.7250,35.7090
23.6250,35.7090
23.7207,35.7280
23.8018,35.7822
23.8560,35.8633
23.8750,35.9590
23.8750,36.6590
23.8560,36.7547
23.8018,36.8358
23.7207,36.8900
23.6250,36.9090
Z" /> 
<path style="fill:#B4A09A; fill-opacity:0.9000; stroke:none;fill-rule:evenodd;"
d="M 22.7250,34.9090
22.6293,34.8900
22.5482,34.8358
22.4940,34.7547
22.4750,34.6590
22.4750,33.9590
22.4940,33.8633
22.5482,33.7822
22.6293,33.7280
22.7250,33.7090
23.6250,33.7090
23.7207,33.7280
23.8018,33.7822
23.8560,33.8633
23.8750,33.9590
23.8750,34.6590
23.8560,34.7547
23.8018,34.8358
23.7207,34.8900
23.6250,34.9090
Z" /> 
<path style="fill:#B4A09A; fill-opacity:0.9000; stroke:none;fill-rule:evenodd;"
d="M 75.8300,31.8630
75.9257,31.8820
76.0068,31.9362
76.0610,32.0173
76.0800,32.1130
76.0800,36.2130
76.0610,36.3087
76.0068,36.3898
75.9257,36.4440
75.8300,36.4630
75.2300,36.4630
75.1343,36.4440
75.0532,36.3898
74.9990,36.3087
74.9800,36.2130
74.9800,32.1130
74.9990,32.0173
75.0532,31.9362
75.1343,31.8820
75.2300,31.8630
Z" /> 
<path style="fill:#B4A09A; fill-opacity:0.9000; stroke:none;fill-rule:evenodd;"
d="M 74.1300,31.8630
74.2257,31.8820
74.3068,31.9362
74.3610,32.0173
74.3800,32.1130
74.3800,36.2130
74.3610,36.3087
74.3068,36.3898
74.2257,36.4440
74.1300,36.4630
73.5300,36.4630
73.4343,36.4440
73.3532,36.3898
73.2990,36.3087
73.2800,36.2130
73.2800,32.1130
73.2990,32.0173
73.3532,31.9362
73.4343,31.8820
73.5300,31.8630
Z" /> 
<path style="fill:#B4A09A; fill-opacity:0.9000; stroke:none;fill-rule:evenodd;"
d="M 72.4300,31.8630
72.5257,31.8820
72.6068,31.9362
72.6610,32.0173
72.6800,32.1130
72.6800,36.2130
72.6610,36.3087
72.6068,36.3898
72.5257,36.4440
72.4300,36.4630
71.8300,36.4630
71.7343,36.4440
71.6532,36.3898
71.5990,36.3087
71.5800,36.2130
71.5800,32.1130
71.5990,32.0173
71.6532,31.9362
71.7343,31.8820
71.8300,31.8630
Z" /> 
<path style="fill:#B4A09A; fill-opacity:0.9000; stroke:none;fill-rule:evenodd;"
d="M 77.2800,38.6130
77.3757,38.6320
77.4568,38.6862
77.5110,38.7673
77.5300,38.8630
77.5300,42.9130
77.5110,43.0087
77.4568,43.0898
77.3757,43.1440
77.2800,43.1630
72.5300,43.1630
72.4343,43.1440
72.3532,43.0898
72.2990,43.0087
72.2800,42.9130
72.2800,38.8630
72.2990,38.7673
72.3532,38.6862
72.4343,38.6320
72.5300,38.6130
Z" /> 
<path style="fill:#B4A09A; fill-opacity:0.9000; stroke:none;fill-rule:evenodd;"
d="M 71.7300,38.6130
71.8257,38.6320
71.9068,38.6862
71.9610,38.7673
71.9800,38.8630
71.9800,42.9130
71.9610,43.0087
71.9068,43.0898
71.8257,43.1440
71.7300,43.1630
66.9800,43.1630
66.8843,43.1440
66.8032,43.0898
66.7490,43.0087
66.7300,42.9130
66.7300,38.8630
66.7490,38.7673
66.8032,38.6862
66.8843,38.6320
66.9800,38.6130
Z" /> 
<path style="fill:#B4A09A; fill-opacity:0.9000; stroke:none;fill-rule:evenodd;"
d="M 77.2800,43.4630
77.3757,43.4820
77.4568,43.5362
77.5110,43.6173
77.5300,43.7130
77.5300,47.7630
77.5110,47.8587
77.4568,47.9398
77.3757,47.9940
77.2800,48.0130
72.5300,48.0130
72.4343,47.9940
72.3532,47.9398
72.2990,47.8587
72.2800,47.7630
72.2800,43.7130
72.2990,43.6173
72.3532,43.5362
72.4343,43.4820
72.5300,43.4630
Z" /> 
<path style="fill:#B4A09A; fill-opacity:0.9000; stroke:none;fill-rule:evenodd;"
d="M 71.7300,43.4630
71.8257,43.4820
71.9068,43.5362
71.9610,43.6173
71.9800,43.7130
71.9800,47.7630
71.9610,47.8587
71.9068,47.9398
71.8257,47.9940
71.7300,48.0130
66.9800,48.0130
66.8843,47.9940
66.8032,47.9398
66.7490,47.8587
66.7300,47.7630
66.7300,43.7130
66.7490,43.6173
66.8032,43.5362
66.8843,43.4820
66.9800,43.4630
Z" /> 
<path style="fill:#B4A09A; fill-opacity:0.9000; stroke:none;fill-rule:evenodd;"
d="M 70.7300,31.8630
70.8257,31.8820
70.9068,31.9362
70.9610,32.0173
70.9800,32.1130
70.9800,36.2130
70.9610,36.3087
70.9068,36.3898
70.8257,36.4440
70.7300,36.4630
70.1300,36.4630
70.0343,36.4440
69.9532,36.3898
69.8990,36.3087
69.8800,36.2130
69.8800,32.1130
69.8990,32.0173
69.9532,31.9362
70.0343,31.8820
70.1300,31.8630
Z" /> 
<path style="fill:#B4A09A; fill-opacity:0.9000; stroke:none;fill-rule:evenodd;"
d="M 69.0300,31.8630
69.1257,31.8820
69.2068,31.9362
69.2610,32.0173
69.2800,32.1130
69.2800,36.2130
69.2610,36.3087
69.2068,36.3898
69.1257,36.4440
69.0300,36.4630
68.4300,36.4630
68.3343,36.4440
68.2532,36.3898
68.1990,36.3087
68.1800,36.2130
68.1800,32.1130
68.1990,32.0173
68.2532,31.9362
68.3343,31.8820
68.4300,31.8630
Z" /> 
<path style="fill:#B4A09A; fill-opacity:0.9000; stroke:none;fill-rule:evenodd;"
d="M 60.3000,44.7090
60.3114,44.6516
60.3439,44.6029
60.3926,44.5704
60.4500,44.5590
61.6250,44.5590
61.6824,44.5704
61.7311,44.6029
61.7636,44.6516
61.7750,44.7090
61.7750,45.0090
61.7636,45.0664
61.7311,45.1151
61.6824,45.1476
61.6250,45.1590
60.4500,45.1590
60.3926,45.1476
60.3439,45.1151
60.3114,45.0664
60.3000,45.0090
Z" /> 
<path style="fill:#B4A09A; fill-opacity:0.9000; stroke:none;fill-rule:evenodd;"
d="M 60.3000,46.6090
60.3114,46.5516
60.3439,46.5029
60.3926,46.4704
60.4500,46.4590
61.6250,46.4590
61.6824,46.4704
61.7311,46.5029
61.7636,46.5516
61.7750,46.6090
61.7750,46.9090
61.7636,46.9664
61.7311,47.0151
61.6824,47.0476
61.6250,47.0590
60.4500,47.0590
60.3926,47.0476
60.3439,47.0151
60.3114,46.9664
60.3000,46.9090
Z" /> 
<path style="fill:#B4A09A; fill-opacity:0.9000; stroke:none;fill-rule:evenodd;"
d="M 62.1750,45.6590
62.1864,45.6016
62.2189,45.5529
62.2676,45.5204
62.3250,45.5090
63.5000,45.5090
63.5574,45.5204
63.6061,45.5529
63.6386,45.6016
63.6500,45.6590
63.6500,45.9590
63.6386,46.0164
63.6061,46.0651
63.5574,46.0976
63.5000,46.1090
62.3250,46.1090
62.2676,46.0976
62.2189,46.0651
62.1864,46.0164
62.1750,45.9590
Z" /> 
<path style="fill:#B4A09A; fill-opacity:0.9000; stroke:none;fill-rule:evenodd;"
d="M 15.5750,29.8590
15.5940,29.7633
15.6482,29.6822
15.7293,29.6280
15.8250,29.6090
16.5250,29.6090
16.6207,29.6280
16.7018,29.6822
16.7560,29.7633
16.7750,29.8590
16.7750,30.7590
16.7560,30.8547
16.7018,30.9358
16.6207,30.9900
16.5250,31.0090
15.8250,31.0090
15.7293,30.9900
15.6482,30.9358
15.5940,30.8547
15.5750,30.7590
Z" /> 
<path style="fill:#B4A09A; fill-opacity:0.9000; stroke:none;fill-rule:evenodd;"
d="M 17.5750,29.8590
17.5940,29.7633
17.6482,29.6822
17.7293,29.6280
17.8250,29.6090
18.5250,29.6090
18.6207,29.6280
18.7018,29.6822
18.7560,29.7633
18.7750,29.8590
18.7750,30.7590
18.7560,30.8547
18.7018,30.9358
18.6207,30.9900
18.5250,31.0090
17.8250,31.0090
17.7293,30.9900
17.6482,30.9358
17.5940,30.8547
17.5750,30.7590
Z" /> 
<path style="fill:#B4A09A; fill-opacity:0.9000; stroke:none;fill-rule:evenodd;"
d="M 27.0890,57.2260
26.9933,57.2070
26.9122,57.1528
26.8580,57.0717
26.8390,56.9760
26.8390,56.2760
26.8580,56.1803
26.9122,56.0992
26.9933,56.0450
27.0890,56.0260
27.9890,56.0260
28.0847,56.0450
28.1658,56.0992
28.2200,56.1803
28.2390,56.2760
28.2390,56.9760
28.2200,57.0717
28.1658,57.1528
28.0847,57.2070
27.9890,57.2260
Z" /> 
<path style="fill:#B4A09A; fill-opacity:0.9000; stroke:none;fill-rule:evenodd;"
d="M 27.0890,55.2260
26.9933,55.2070
26.9122,55.1528
26.8580,55.0717
26.8390,54.9760
26.8390,54.2760
26.8580,54.1803
26.9122,54.0992
26.9933,54.0450
27.0890,54.0260
27.9890,54.0260
28.0847,54.0450
28.1658,54.0992
28.2200,54.1803
28.2390,54.2760
28.2390,54.9760
28.2200,55.0717
28.1658,55.1528
28.0847,55.2070
27.9890,55.2260
Z" /> 
</g>
<g style="fill:none; 
stroke:#D0D2CD; stroke-width:0.0500; stroke-opacity:1; 
stroke-linecap:round; stroke-linejoin:round;">
<path d="M9.6320 81.5340
L5.6950 81.5340
" />
<path d="M93.3250 12.9370 A9.0000 9.0000 0.0 0 0 84.3250 3.9370" />
<path d="M93.3250 72.5340
L93.3250 12.9370
" />
<path d="M14.6950 3.9370 A9.0000 9.0000 0.0 0 0 5.6950 12.9370" />
<path d="M5.6950 78.1050
L5.6950 81.5340
" />
<path d="M9.6320 81.5340
L84.3250 81.5340
" />
<path d="M84.3250 3.9370
L14.6950 3.9370
" />
<path d="M5.6950 12.9370
L5.6950 78.1050
" />
<path d="M84.3250 81.5340 A9.0000 9.0000 0.0 0 0 93.3250 72.5340" />
</g> 
</svg>
